<svg width="1453" height="1576" viewBox="0 0 1453 1576" fill="none" xmlns="http://www.w3.org/2000/svg">
<path d="M200 788L1491 1576V0L200 788Z" fill="url(#paint0_radial_905_8)"/>
<path d="M20.4 914.24C20.4 910.6 18.44 908.52 15.04 907.52C18 906.48 19.92 904.56 19.92 901.16C19.92 896.84 16.4 893.92 10.68 893.92C7.24 893.92 4.48 894.76 2.08 896.12L2.8 900.6C4.92 899.36 7.4 898.4 10 898.4C13.16 898.4 14.64 899.76 14.64 901.8C14.64 904.12 12.64 905.56 9.08 905.56H5.28L5.92 909.88H8.88C13.36 909.88 15.2 911.32 15.2 913.92C15.2 916.36 13.28 917.96 10 917.96C7.32 917.96 4.76 917.16 2.36 915.84L1.6 920.4C4.2 921.72 6.96 922.48 10.16 922.48C16.24 922.48 20.4 919.32 20.4 914.24ZM22.715 922H28.035L30.435 915H40.875L43.515 922.28L48.835 921.32L38.715 894.28H33.075L22.715 922ZM35.675 900L39.395 910.68H31.875L35.675 900ZM55.4475 928.28V922H73.5275V928.56L78.5275 927.88V917.24H75.3675V894.4H59.2875L58.5275 900.88C57.5675 908.52 55.3675 912.68 50.4075 917.6V928.28H55.4475ZM63.7675 898.88H70.0875V917.48H56.8875C60.5675 913.56 62.4875 909.56 63.3675 902.32L63.7675 898.88ZM80.2541 922H85.5741L87.9741 915H98.4141L101.054 922.28L106.374 921.32L96.2541 894.28H90.6141L80.2541 922ZM93.2141 900L96.9341 910.68H89.4141L93.2141 900ZM107.276 894.4V904.04C107.276 910.16 110.556 912.76 116.636 912.76C118.476 912.76 120.036 912.56 121.796 912.28V922H127.076V894.4H121.796V907.64C120.116 907.92 118.716 908.08 117.276 908.08C114.276 908.08 112.596 906.84 112.596 903.6V894.4H107.276ZM138 922L150.16 902.6V922H155.4V894.4H150.04L138.12 913.4V894.4H132.92V922H138Z" fill="#F7A330"/>
<path d="M153.907 789.849C153.441 789.619 153.296 789.871 153.304 790.277C153.313 790.773 153.573 790.957 154.057 790.798C154.719 790.431 154.717 790.422 153.907 789.849Z" fill="url(#paint1_radial_905_8)"/>
<path d="M155.995 789.408C155.946 789.15 155.776 789.01 155.506 788.994C155.331 789.049 155.113 789.102 155.179 789.337C155.253 789.609 155.543 789.59 155.76 789.632C155.889 789.659 156.027 789.575 155.995 789.408Z" fill="url(#paint2_radial_905_8)"/>
<path d="M153.21 796.027C153.202 796.028 153.195 796.031 153.188 796.033C153.171 796.013 153.154 795.991 153.137 795.971C153.095 795.272 153.025 794.578 152.803 793.908C152.802 793.908 152.802 793.908 152.8 793.908C152.838 793.895 152.87 793.867 152.898 793.824C153.008 793.219 153.045 792.617 152.817 792.025L152.816 792.024C152.446 791.364 152.344 791.352 151.806 791.907C151.281 792.053 150.751 792.072 150.218 791.941C150.157 791.862 150.088 791.789 150.03 791.708C150.029 791.294 150.029 790.88 150.027 790.468C150.119 789.536 150.129 788.604 150.024 787.673C150.06 785.901 149.99 784.135 149.695 782.383C149.879 781.419 149.248 780.538 149.404 779.577C149.672 779.161 149.698 778.752 149.382 778.346C149.045 778.228 149.042 777.94 148.996 777.676C149.002 777.601 149.013 777.526 149.031 777.452C149.059 777.235 149 777.039 148.897 776.853C148.755 776.723 148.755 776.363 148.461 776.487C148.461 776.473 148.461 776.461 148.462 776.447C148.511 776.335 148.48 776.236 148.428 776.142C148.704 775.98 148.625 775.683 148.625 775.417C148.523 774.931 148.377 774.457 148.268 773.973C148.151 773.796 148.171 773.467 147.847 773.522C147.847 773.514 147.847 773.506 147.848 773.498C147.954 773.348 147.961 773.208 147.834 773.083C147.841 773.08 147.847 773.077 147.853 773.074C148.063 772.54 147.661 772.091 147.652 771.586C147.58 771.403 147.504 771.222 147.293 771.154C147.292 771.156 147.289 771.156 147.287 771.157C147.281 771.143 147.275 771.129 147.268 771.115C147.385 770.964 147.371 770.787 147.339 770.606C147.312 770.519 147.283 770.434 147.256 770.348C147.396 770.029 147.345 769.785 147.011 769.651C147.01 769.646 147.008 769.643 147.007 769.639C146.993 769.617 146.98 769.594 146.968 769.57C146.969 769.569 146.971 769.569 146.972 769.567C147.06 769.426 147.078 769.268 147.074 769.108C147.035 768.827 147.004 768.54 146.623 768.528C146.661 768.489 146.693 768.445 146.715 768.394C146.804 768.077 146.701 767.784 146.601 767.489C146.369 766.803 145.998 766.174 145.774 765.485C145.721 765.376 145.643 765.292 145.535 765.235C145.467 765.213 145.401 765.219 145.337 765.247C145.256 764.584 145.203 763.907 144.603 763.5C144.602 763.477 144.602 763.452 144.603 763.428C144.586 763.312 144.56 763.198 144.519 763.088C144.469 763.015 144.43 762.932 144.396 762.846C144.394 762.727 144.394 762.607 144.393 762.487C144.408 762.378 144.396 762.271 144.357 762.168C144.181 761.957 144.242 761.487 143.777 761.589C143.777 761.575 143.776 761.561 143.776 761.549C143.776 761.544 143.776 761.54 143.774 761.535C143.779 761.432 143.783 761.33 143.788 761.227C143.68 761.073 143.574 760.919 143.467 760.765C143.47 760.564 143.472 760.364 143.25 760.315C143.236 760.292 143.221 760.269 143.203 760.247C143.247 760.185 143.256 760.108 143.246 760.028C143.169 759.808 143.027 759.615 142.998 759.379C142.981 759.315 142.959 759.251 142.929 759.192C142.831 759.023 142.708 758.87 142.608 758.702C142.472 758.518 142.395 758.307 142.306 758.102C142.201 757.93 142.094 757.761 141.969 757.602C141.9 757.543 141.833 757.484 141.752 757.47C141.749 757.462 141.745 757.454 141.741 757.447C141.634 757.283 141.526 757.121 141.299 757.173C141.299 757.17 141.299 757.167 141.299 757.163C141.336 757.107 141.341 757.048 141.314 756.988C141.307 756.98 141.3 756.971 141.293 756.963C141.291 756.832 141.288 756.7 141.286 756.569V756.568C141.082 756.378 141.188 756.07 141.037 755.861C141.042 755.86 141.046 755.86 141.051 755.858C141.347 755.605 141.257 755.312 141.135 755.017C141.045 754.873 140.945 754.735 140.973 754.551C140.657 754.032 140.898 753.459 140.82 752.918C140.797 752.755 140.853 752.517 140.615 752.507C140.529 752.504 140.435 752.716 140.346 752.831C140.13 752.977 139.997 753.15 140.139 753.41C140.075 753.406 140.016 753.42 139.961 753.455C139.96 753.458 139.957 753.459 139.955 753.461C139.756 753.461 139.556 753.461 139.357 753.461C139.332 753.442 139.307 753.424 139.28 753.406C139.174 753.366 139.075 753.368 138.984 753.445C138.984 753.445 138.975 753.448 138.962 753.452C138.955 753.445 138.948 753.438 138.942 753.431C138.956 753.413 138.969 753.394 138.983 753.375C138.976 753.262 138.928 753.167 138.85 753.086C138.845 753.083 138.839 753.08 138.835 753.077C138.873 752.999 138.864 752.918 138.796 752.835V752.832C138.696 752.781 138.594 752.728 138.495 752.677C138.509 752.669 138.523 752.661 138.537 752.65C138.685 752.37 138.546 752.16 138.376 751.95C138.118 751.63 137.851 751.312 137.641 750.955C137.313 750.636 137.235 750.069 136.67 749.992C136.652 749.998 136.637 750.007 136.623 750.017C136.606 749.847 136.523 749.741 136.361 749.716C136.345 749.702 136.328 749.69 136.311 749.679C136.281 749.436 136.135 749.282 135.953 749.155C135.954 749.134 135.956 749.113 135.956 749.091C135.871 748.784 135.8 748.467 135.379 748.475C135.374 748.475 135.37 748.475 135.365 748.475C135.448 748.036 135.07 747.807 134.882 747.495C134.838 747.433 134.793 747.372 134.748 747.311C134.748 747.283 134.749 747.255 134.749 747.229C134.798 747.168 134.808 747.101 134.785 747.028C134.614 746.753 134.388 746.522 134.165 746.291C134.123 746.27 134.081 746.267 134.04 746.275C134.006 746.157 133.951 746.048 133.884 745.945C133.697 745.69 133.459 745.482 133.247 745.25C132.332 744.458 131.644 743.456 130.79 742.608C130.472 742.347 130.291 741.872 129.757 741.947C129.668 741.947 129.579 741.949 129.49 741.949C129.487 741.938 129.487 741.927 129.482 741.916C129.397 741.818 129.308 741.729 129.175 741.793C129.055 741.315 128.748 741.029 128.278 740.913C128.455 740.59 128.454 740.272 128.215 739.954C128.215 739.953 128.215 739.951 128.215 739.95C128.22 739.953 128.223 739.957 128.229 739.96C128.778 739.803 128.951 739.397 128.946 738.875C128.929 738.808 128.915 738.742 128.9 738.675C128.94 738.577 128.982 738.481 129.023 738.383C129.13 738.282 129.193 738.168 129.186 738.033C129.222 738.006 129.26 737.982 129.297 737.961C129.601 737.664 129.679 737.302 129.599 736.897C129.584 736.855 129.565 736.819 129.548 736.787C129.571 736.745 129.593 736.703 129.617 736.659C129.055 736.194 128.437 736.452 127.833 736.522C127.851 736.566 127.868 736.609 127.885 736.653C127.889 736.701 127.894 736.749 127.899 736.798C127.818 736.847 127.79 736.931 127.783 737.028C127.79 737.099 127.804 737.169 127.832 737.236C127.938 737.453 128.01 737.68 128.048 737.918C128.064 737.985 128.083 738.052 128.109 738.117C128.268 738.44 128.175 738.725 127.972 738.996C127.966 739.005 127.957 739.013 127.95 739.022C127.704 738.714 127.391 738.524 126.967 738.529C127.051 738.226 126.798 737.989 126.786 737.705C126.72 737.487 126.667 737.263 126.538 737.07C126.399 736.914 126.234 736.841 126.024 736.896C125.53 737.169 125.009 737.252 124.459 737.112C124.306 737.109 124.158 737.127 124.026 737.213C124.01 737.229 123.999 737.243 123.988 737.258C123.765 736.711 123.262 736.479 122.794 736.206C122.777 736.203 122.76 736.199 122.744 736.194C122.741 736.143 122.737 736.093 122.733 736.042C122.568 735.953 122.376 735.898 122.288 735.707C122.121 735.516 122.006 735.223 121.659 735.396C121.611 735.399 121.563 735.399 121.513 735.398C121.293 735.135 121.12 734.806 120.706 734.808C120.706 734.808 120.704 734.808 120.704 734.806C120.696 734.806 120.687 734.806 120.679 734.806C120.835 734.463 120.498 734.379 120.328 734.212C120.149 734.035 119.851 733.957 119.803 733.674C119.867 733.647 119.923 733.61 119.971 733.559C119.992 733.492 119.984 733.43 119.951 733.37C120.196 733.171 120.113 732.936 119.984 732.717C119.792 732.392 119.781 732.043 119.792 731.686C120.991 731.726 122.207 731.567 123.369 731.997C123.421 732.096 123.474 732.197 123.525 732.297L123.53 732.3C123.678 732.509 123.988 732.421 124.138 732.628C124.295 732.729 124.453 732.831 124.61 732.932C124.833 732.911 125.015 732.838 125.062 732.588C125.065 732.445 125.07 732.302 125.073 732.159C124.665 732.07 124.682 731.637 124.457 731.401C124.133 731.322 123.762 731.373 123.516 731.071C123.025 731.007 122.579 730.849 122.256 730.447C122.164 730.439 122.073 730.432 121.981 730.424C121.914 730.071 121.571 730.005 121.345 729.819C120.96 729.649 120.525 729.565 120.257 729.192C120.205 729.189 120.154 729.187 120.104 729.184C120.048 729.084 119.992 728.983 119.936 728.884C119.828 728.786 119.722 728.688 119.614 728.588C119.565 728.377 119.513 728.165 119.463 727.955C119.339 727.947 119.223 727.922 119.158 727.798C118.961 727.705 118.852 727.552 118.844 727.333C118.742 727.331 118.639 727.331 118.536 727.33L118.531 727.334C118.472 726.451 117.794 726.763 117.311 726.701C117.37 726.546 117.244 726.474 117.138 726.395H117.136C116.876 726.392 116.617 726.39 116.357 726.387C116.04 726.748 116.439 727.467 115.732 727.63C115.42 727.382 115.11 727.412 114.801 727.636C114.496 727.631 114.19 727.628 113.885 727.624C113.816 727.574 113.749 727.574 113.682 727.627C113.682 727.636 113.682 727.644 113.682 727.653C113.336 727.354 112.84 727.555 112.482 727.294C112.406 727.25 112.337 727.199 112.273 727.141C112.237 727.029 112.158 726.939 112.038 726.872C112.041 726.863 112.044 726.852 112.047 726.843C112.049 726.765 112.024 726.698 111.968 726.642C111.933 726.619 111.896 726.603 111.86 726.591C111.618 726.451 111.251 726.687 111.057 726.401C110.958 726.396 110.858 726.39 110.758 726.385C110.758 726.385 110.758 726.376 110.758 726.378C110.75 726.181 110.741 725.984 110.733 725.788C110.741 725.677 110.749 725.569 110.757 725.458C110.75 725.089 110.683 724.713 110.906 724.377C110.849 724.327 110.789 724.277 110.732 724.229C110.412 723.845 109.991 723.653 109.503 723.591C109.242 723.386 108.981 723.181 108.719 722.975C108.74 722.636 108.323 722.627 108.25 722.358C107.909 722.342 107.692 721.942 107.31 722.051C106.414 721.741 105.487 721.72 104.548 721.704C103.283 721.684 102.017 721.611 100.762 721.429C100.663 721.321 100.563 721.214 100.463 721.108C100.337 721.101 100.217 721.082 100.144 720.962C99.266 720.803 98.3838 720.754 97.4938 720.814C96.7721 720.811 96.052 720.808 95.3303 720.808C95.0186 720.808 94.6991 720.836 94.5276 720.489C94.5276 720.386 94.5276 720.284 94.5292 720.183C94.4263 720.13 94.3234 720.077 94.2206 720.026C94.0304 719.985 93.8387 719.946 93.6485 719.901C93.3898 719.84 93.3695 719.945 93.4225 720.102C93.368 720.116 93.3181 720.142 93.276 720.184C93.2666 720.438 93.142 720.464 92.9237 720.39C92.5917 720.278 92.2597 720.136 91.895 720.175C91.7719 719.898 91.5365 719.85 91.2684 719.872C91.284 719.886 91.298 719.9 91.3136 719.914C91.2949 719.903 91.2793 719.89 91.2684 719.872C91.217 719.868 91.1671 719.865 91.1157 719.864C91.2061 719.28 91.8389 719.766 92.0368 719.397C92.2254 719.162 91.9901 719.072 91.881 718.94C91.8311 718.944 91.7828 718.943 91.7329 718.938C91.6285 718.941 91.524 718.944 91.4196 718.946C91.0097 718.944 90.5998 718.941 90.1883 718.94C90.1446 718.885 90.087 718.877 90.0153 718.923C89.2141 719.85 88.1168 719.609 87.1005 719.635C86.5675 719.649 86.103 719.43 85.8068 718.946C85.6182 718.498 85.2145 718.661 84.8825 718.619C84.2824 718.364 83.6465 718.327 83.0074 718.31C82.4884 718.31 81.9694 718.31 81.4519 718.308C81.2804 718.319 81.0949 718.285 80.9812 718.465L80.9905 718.474C80.9905 718.479 80.9905 718.484 80.9905 718.488C80.9874 718.481 80.9843 718.473 80.9812 718.465C80.6616 718.411 80.3655 718.314 80.2018 718C80.046 718 79.8901 718 79.7342 718C79.5784 718 79.4225 718 79.2666 718C78.9549 718 78.6432 718 78.3314 718C77.9153 718 77.5006 718 77.0845 718C76.6683 718 76.2537 718 75.8375 718C75.6302 718 75.4214 718 75.2141 718C75.0068 718 74.7979 718 74.5906 718C74.4893 718.109 74.3864 718.216 74.2851 718.325C73.9796 718.646 73.5821 718.627 73.1878 718.624C72.9696 718.671 72.7545 718.727 72.583 718.874C72.5378 718.891 72.4926 718.909 72.4474 718.926C72.1201 718.941 71.7756 718.851 71.4857 719.091C71.3828 719.095 71.28 719.1 71.1787 719.105C71.0727 719.101 70.9667 719.098 70.8607 719.095C70.8545 719.248 70.8467 719.399 70.8404 719.551C70.7001 719.822 70.4757 720.007 70.2232 720.166V720.173C70.1234 720.284 70.0252 720.394 69.9255 720.505C69.5888 720.878 68.9965 720.71 68.6645 721.096C68.5102 721.102 68.3575 721.11 68.2032 721.116C67.999 721.219 67.854 721.433 67.5968 721.438C67.5376 721.43 67.4768 721.421 67.4176 721.413C67.3163 721.418 67.215 721.421 67.1136 721.426C66.8019 721.633 66.4886 721.838 66.1769 722.045C66.074 722.099 65.9727 722.154 65.8698 722.208C65.8901 722.42 65.7966 722.659 66.0194 722.823C65.8979 723.218 65.5596 723.397 65.2432 723.599C65.1388 723.703 65.0359 723.806 64.9315 723.91C64.2223 724.144 63.5053 724.318 62.7493 724.223C62.1243 724.322 61.4977 724.422 60.8727 724.522C60.3568 724.402 59.7411 724.806 59.3125 724.228C59.2112 724.226 59.1098 724.223 59.0085 724.221C58.41 723.933 57.9097 724.122 57.4576 724.54V724.539C57.3252 724.616 57.2254 724.704 57.3111 724.84C57.3065 724.839 57.3002 724.839 57.2955 724.839C57.294 724.839 57.2924 724.84 57.2909 724.84C57.1397 724.851 56.99 724.862 56.8388 724.873C56.8373 724.921 56.8357 724.97 56.8357 725.018C56.8155 725.022 56.7936 725.029 56.7734 725.035C56.5879 725.108 56.4648 725.24 56.3884 725.418C55.9333 725.337 55.7945 725.887 55.4329 725.995C55.3363 726.101 55.2287 726.195 55.143 726.311C55.1399 726.318 55.1368 726.326 55.1337 726.336C55.0729 726.325 55.0121 726.342 54.9513 726.392C54.9045 726.398 54.8578 726.402 54.8095 726.409C54.5632 726.855 54.0971 727.048 53.7215 727.344C53.7168 727.442 53.7121 727.54 53.7075 727.638C53.6467 727.74 53.5874 727.843 53.5267 727.944C53.4768 727.938 53.4347 727.952 53.3989 727.988C53.0294 728.089 52.7629 728.359 52.4574 728.565C51.9212 728.577 51.463 728.962 50.9081 728.892L50.9096 728.895C50.8286 728.963 50.8146 729.039 50.8504 729.123C50.813 729.103 50.7725 729.088 50.7273 729.08C50.0009 729.316 49.3697 729.781 48.6075 729.948C48.4033 729.993 48.2443 730.2 48.4126 730.443C48.4111 730.443 48.4095 730.443 48.408 730.443C48.3971 730.447 48.3862 730.452 48.3737 730.455C48.0354 730.511 47.8375 730.715 47.7767 731.057C47.3824 730.888 47.1049 731.374 46.7199 731.255C46.6903 731.267 46.6638 731.284 46.6373 731.301C46.603 731.248 46.5687 731.197 46.5344 731.144C46.4877 731.118 46.4394 731.091 46.3926 731.065C46.4175 730.73 46.5516 730.461 46.8509 730.289C46.8477 730.135 46.8446 729.981 46.8431 729.827C46.8477 729.772 46.8509 729.719 46.8555 729.665C46.4378 729.613 46.0201 729.56 45.6024 729.509C45.3389 729.501 45.1924 729.718 44.9898 729.83C44.9555 730.099 45.1987 730.233 45.2937 730.438C45.3966 730.488 45.4995 730.536 45.6039 730.586C45.7021 730.744 45.6803 730.906 45.6133 731.068C45.4636 731.264 45.4636 731.46 45.5992 731.656C45.5478 731.703 45.5197 731.766 45.5104 731.844C45.5151 731.913 45.5307 731.977 45.565 732.037C45.66 732.157 45.7317 732.285 45.738 732.44C45.7426 732.588 45.7333 732.736 45.6896 732.88C45.4792 733.171 45.1207 732.992 44.8651 733.14C44.8106 733.168 44.7685 733.206 44.7311 733.246C44.7124 733.244 44.6921 733.243 44.6734 733.243C44.5658 733.344 44.4567 733.445 44.3492 733.546C44.3367 733.546 44.3258 733.565 44.3149 733.604C44.3149 733.605 44.3149 733.605 44.3149 733.607C44.3009 733.616 44.2868 733.626 44.2728 733.636C44.0452 733.87 43.7522 734.053 43.6961 734.413C43.6992 734.419 43.7023 734.425 43.7055 734.431C43.6992 734.436 43.6914 734.438 43.6852 734.442C43.4529 734.256 43.1833 734.299 42.9152 734.346C42.8435 734.369 42.7749 734.396 42.711 734.43C42.5863 734.368 42.4585 734.403 42.3291 734.484C42.0081 734.655 41.9286 735.021 41.6963 735.264C41.7384 735.304 41.7789 735.345 41.821 735.385C41.8101 735.394 41.7961 735.402 41.7852 735.412C41.5482 735.718 41.33 736.037 41.1305 736.368C41.0682 736.368 41.0043 736.368 40.9419 736.367C40.8297 736.567 40.7175 736.768 40.6052 736.969C40.4026 737.278 40.0893 737.543 40.2078 737.978C40.2265 738.016 40.253 738.044 40.2826 738.066C40.0036 738.066 40.1018 738.286 40.0753 738.434C40.0332 738.671 40.1641 738.929 39.9833 739.147C39.5828 739.226 39.3303 739.519 39.059 739.785C38.4745 740.366 37.8604 740.852 36.9689 740.41C36.9486 740.401 36.919 740.41 36.8925 740.41C36.8847 740.508 36.8769 740.604 36.8707 740.702C36.3033 741.367 36.6805 742.162 36.5667 742.89C36.5667 742.991 36.5667 743.092 36.5667 743.195C36.4171 743.24 36.2659 743.283 36.1178 743.315C35.9199 743.318 35.7235 743.324 35.5271 743.346C35.2808 743.304 35.0517 743.176 34.8475 742.894C34.6948 742.759 34.5389 742.765 34.3799 742.884C34.3799 742.884 34.3721 742.882 34.3721 742.884C34.3737 742.986 34.3752 743.089 34.3768 743.192L34.3861 743.203C34.2879 743.308 34.1913 743.414 34.0931 743.521H34.0869C33.9669 743.643 33.9918 743.805 33.9684 743.954C33.9684 743.955 33.97 743.959 33.9715 743.96C33.8047 743.982 33.8811 744.225 33.7705 744.298C33.6645 744.554 33.5585 744.811 33.454 745.068C33.4603 745.172 33.465 745.276 33.4712 745.381C33.4618 745.398 33.4525 745.415 33.4463 745.433C33.4088 745.525 33.3823 745.619 33.359 745.713C33.2623 745.908 33.1454 746.095 33.1688 746.326C33.0971 746.597 33.1345 746.964 32.6731 746.9C32.4752 746.947 32.2149 746.905 32.204 747.213C32.1962 747.222 32.19 747.23 32.1837 747.24C32.1385 747.241 32.0933 747.243 32.0481 747.244C31.9936 747.552 31.9375 747.86 31.8829 748.168C31.6849 748.394 31.646 748.68 31.5836 748.957C31.2142 749.211 30.8557 749.495 30.3616 749.432C30.251 749.533 30.1387 749.634 30.0281 749.735C29.9813 749.735 29.933 749.737 29.8862 749.74C29.8722 749.715 29.8535 749.691 29.8254 749.668C29.6696 749.598 29.5293 749.614 29.4062 749.74V749.741C29.0835 750.116 28.75 750.479 28.3821 750.81C27.8522 751.322 27.3705 751.868 27.0993 752.566C27.1009 752.655 27.1196 752.736 27.1695 752.803C27.1617 752.815 27.1523 752.826 27.1445 752.839C27.09 752.946 27.065 753.06 27.0681 753.179C27.0713 753.223 27.0806 753.265 27.0915 753.305C26.7252 753.778 26.3574 754.25 25.9895 754.723C25.9007 754.783 25.8524 754.869 25.8368 754.973C25.8337 755.012 25.8337 755.052 25.8368 755.09C25.7807 755.122 25.7246 755.155 25.67 755.188C25.5671 755.446 25.4643 755.704 25.3598 755.962L25.3552 755.97C25.112 756.255 24.9032 756.558 24.7753 756.91C24.7457 756.93 24.7161 756.955 24.6881 756.977C24.646 757.025 24.6086 757.075 24.5774 757.131C24.5244 757.159 24.473 757.187 24.42 757.213C24.3857 757.338 24.3498 757.461 24.3155 757.585C24.2859 757.629 24.2547 757.672 24.222 757.714C24.1908 757.759 24.1628 757.806 24.1378 757.854C23.597 758.061 23.4396 758.511 23.4458 759.066C23.0016 759.03 22.9143 759.393 22.7709 759.695C22.7537 759.813 22.774 759.922 22.8551 760.014C22.7023 760.116 22.5511 760.219 22.3984 760.322L22.3968 760.32C22.2487 760.533 22.0617 760.717 21.9292 760.942V760.945C21.764 761.059 21.7328 761.263 21.6175 761.411L21.619 761.412C21.6206 761.481 21.6221 761.547 21.6253 761.616C21.5988 761.642 21.5738 761.673 21.552 761.706C21.5146 761.821 21.5255 761.927 21.6097 762.017C21.5333 762.073 21.5006 762.157 21.4834 762.254C21.6066 762.834 20.9379 763.061 20.902 763.57C20.9067 763.604 20.9176 763.637 20.9332 763.666C20.9239 763.674 20.9145 763.682 20.9036 763.688C20.6947 763.917 20.4765 764.141 20.5732 764.492C20.5809 764.51 20.5887 764.525 20.5965 764.542C20.4453 764.608 20.344 764.76 20.1804 764.805C20.012 764.866 19.8343 764.861 19.6598 764.886C19.4478 764.917 19.2904 765.006 19.4073 765.235C18.9646 765.631 18.8493 766.201 18.6575 766.728C18.6544 766.767 18.6544 766.806 18.656 766.845C18.6045 766.849 18.5547 766.854 18.5032 766.859C18.4471 767.01 18.391 767.16 18.3349 767.311L18.2881 767.31C18.2881 767.647 17.8907 767.767 17.8595 768.088C17.8564 768.287 17.8548 768.486 17.8517 768.685C17.5322 768.775 17.5711 769.027 17.5618 769.264C17.5602 769.281 17.5587 769.298 17.5587 769.315C17.5587 769.317 17.5587 769.318 17.5587 769.32C17.5384 769.561 17.6304 769.827 17.4729 770.043C17.4137 770.043 17.3545 770.046 17.2937 770.057C17.0615 770.132 16.9695 770.345 16.8401 770.521C16.7466 770.659 16.611 770.693 16.4551 770.672C16.2977 770.653 16.134 770.592 16 770.739C16 770.998 16 771.257 16 771.516C16 771.828 16 772.139 16 772.45C16.1621 772.542 16.2213 772.784 16.4598 772.767C16.8292 773.295 17.2984 773.712 17.8673 774.015C17.9717 774.115 18.0777 774.216 18.1821 774.315C18.7027 774.488 18.8945 774.771 18.4923 775.249C18.4128 775.378 18.3817 775.507 18.4424 775.634C18.4206 775.678 18.3972 775.722 18.3723 775.764C18.2227 776.274 18.3458 776.717 18.7012 777.103C18.7214 777.122 18.7448 777.137 18.7682 777.15C18.6014 777.307 18.7012 777.599 18.4954 777.738C18.3926 777.735 18.2897 777.733 18.1853 777.73C17.9328 777.744 17.5026 777.388 17.5556 778.033C17.4496 778.351 17.3436 778.667 17.2376 778.984C17.275 779.339 17.2095 779.662 16.957 779.931C16.6391 781.604 17.2579 783.161 17.5462 784.759C17.5462 784.759 17.5462 784.759 17.5462 784.76C17.5446 784.902 17.5431 785.042 17.5415 785.183C17.2189 785.554 17.5867 786.084 17.2485 786.45L17.2516 786.451C17.0677 787.573 16.6671 788.752 18.0762 789.437C18.1198 789.457 18.1463 789.511 18.1821 789.549L18.1899 789.563C18.3068 789.879 18.2975 790.194 18.1946 790.512C18.1899 790.61 18.1837 790.706 18.179 790.804C18.271 791.405 18.0185 791.955 17.9094 792.526C17.8595 792.665 17.8065 792.803 17.7504 792.94C17.7223 793.02 17.699 793.1 17.688 793.184C17.6491 793.424 17.6413 793.66 17.6538 793.897C17.6148 794.987 18.0403 796.069 17.7707 797.162C17.7566 797.319 17.7426 797.478 17.7286 797.635C17.8314 797.632 17.9359 797.629 18.0387 797.626C19.2623 797.643 19.6411 798.071 19.3995 799.186C19.3293 799.511 19.2124 799.826 19.1158 800.146C18.8461 800.577 18.776 801.028 18.7713 801.486C18.7604 801.573 18.7542 801.661 18.762 801.75C18.7807 801.973 18.7199 802.231 18.8087 802.428C18.8165 802.598 18.8228 802.766 18.8165 802.934C18.8134 803.034 18.8119 803.133 18.8087 803.234C19.7439 803.172 19.0503 803.749 19.1205 804.026C19.0082 804.222 18.8695 804.393 18.6607 804.494C18.6622 804.6 18.6638 804.708 18.6669 804.813L18.6482 804.801C18.4269 804.946 18.3567 805.187 18.2554 805.408C18.0419 805.395 17.9904 805.613 17.8813 805.747C17.7753 805.952 17.6678 806.156 17.5618 806.361C17.4636 806.366 17.3654 806.371 17.2656 806.375C17.2594 806.473 17.2532 806.57 17.2469 806.668C17.2423 806.769 17.236 806.87 17.2314 806.971C17.088 807.544 16.3336 807.082 16.159 807.603C16.106 807.603 16.053 807.603 16 807.601C16 807.964 16 808.328 16 808.69C16.159 808.737 16.3164 808.784 16.4754 808.83C16.7248 808.832 16.9757 808.833 17.2251 808.835C17.6538 808.552 18.0606 809.076 18.4876 808.882C18.4923 808.92 18.4954 808.958 18.4986 808.997C18.497 809.102 18.497 809.207 18.4954 809.312C18.497 809.364 18.4954 809.415 18.4892 809.466C18.4393 809.577 18.2227 809.522 18.1759 809.636C18.1712 809.636 18.1666 809.636 18.1634 809.636C18.0465 809.652 17.9499 809.703 17.8751 809.795C17.6631 809.946 17.4511 810.097 17.2391 810.247C17.0256 810.331 16.9633 810.512 16.9368 810.716C16.6936 810.935 16.6921 810.963 16.9336 811.041C17.2485 811.396 17.0615 812.005 17.5556 812.27C17.5509 812.376 17.5462 812.481 17.5431 812.587C17.6491 812.693 17.7551 812.797 17.8611 812.903C17.9639 812.901 18.0652 812.901 18.1681 812.9C18.4845 813.259 18.8009 813.62 19.1174 813.98C19.1236 814.131 19.1298 814.28 19.1345 814.431C19.1859 814.533 19.2374 814.636 19.2888 814.737C19.4369 814.747 19.5865 814.754 19.7361 814.762C19.7471 814.961 19.758 815.16 19.7673 815.358C19.8671 815.461 19.9668 815.565 20.0666 815.668C20.2973 815.825 20.4952 816.007 20.5248 816.307C20.5264 816.514 20.528 816.719 20.5311 816.926C20.7337 817.152 20.9363 817.382 21.1467 816.934C21.6315 816.926 22.1287 816.895 22.2456 817.547C22.3454 817.55 22.4436 817.555 22.5433 817.558C22.64 817.818 22.7366 818.079 22.8332 818.339C22.9268 818.854 22.7693 819.397 22.9657 819.899C22.9735 820.103 22.9875 820.305 23.0172 820.507C23.039 820.588 23.0655 820.666 23.0982 820.738C23.1247 820.92 23.1512 821.103 23.1777 821.285C23.173 821.389 23.1683 821.495 23.1621 821.599C23.2712 821.701 23.3788 821.803 23.4879 821.904C23.5705 822.292 23.9477 822.494 24.0864 822.847L24.1129 822.835C24.1098 822.942 24.1051 823.048 24.102 823.155L24.1113 823.152C24.1565 823.544 24.4402 823.454 24.6771 823.455C24.6881 823.469 24.7005 823.485 24.7146 823.497C24.7348 823.507 24.7535 823.51 24.7722 823.511C24.7613 823.886 25.0777 824.09 25.2398 824.376C25.2835 824.431 25.3302 824.479 25.3848 824.523C25.5516 824.639 25.709 824.765 25.8462 824.916C25.8945 824.966 25.9443 825.014 25.9973 825.058C26.0176 825.069 26.0363 825.081 26.0566 825.092C26.253 825.455 26.7798 825.54 26.9092 825.957C26.9887 826.035 27.0791 826.049 27.1788 825.999C27.1882 825.99 27.1975 825.98 27.2069 825.971L27.2084 825.973C27.1928 825.99 27.1788 826.007 27.1632 826.024C27.0947 826.326 27.2708 826.544 27.4952 826.638C27.9987 826.853 28.2013 827.287 28.418 827.718C28.3899 827.771 28.365 827.83 28.3385 827.886C28.2808 828.141 28.2559 828.39 28.4741 828.594C28.7391 829.058 29.0025 829.523 29.2674 829.986C29.3142 829.986 29.3594 829.985 29.4062 829.982C29.8177 830.231 30.0405 830.716 30.4941 830.912C30.6438 831.55 31.1784 831.741 31.7005 831.945C31.7302 831.943 31.7582 831.937 31.7831 831.928C31.9281 832.108 32.0746 832.29 32.2196 832.471C32.2804 832.703 32.5485 832.833 32.5235 833.106C32.6186 833.456 32.7184 833.754 32.589 834.173C32.3552 834.932 33.0083 835.4 33.4478 835.91C34.0386 836.152 34.2459 836.779 34.6994 837.157C34.8054 837.248 34.9114 837.234 35.0174 837.16C35.0174 837.363 35.019 837.567 35.019 837.771C35.2465 837.961 35.3182 838.311 35.658 838.384C35.7063 838.39 35.7562 838.396 35.8045 838.403C35.8076 838.518 35.8373 838.624 35.9012 838.72C36.0789 838.922 36.2939 839.067 36.5465 839.157C36.5963 839.167 36.6462 839.179 36.6961 839.191C36.8738 839.386 37.1325 839.454 37.3866 839.523C37.943 839.674 38.5057 839.809 39.0637 839.951C39.6046 839.958 39.059 840.464 39.3552 840.584C39.3848 841.016 39.5796 841.34 39.9849 841.522C40.2561 841.875 40.5569 842.2 40.9419 842.437C40.984 842.595 41.0916 842.693 41.2365 842.757C41.3394 842.863 41.4438 842.97 41.5467 843.076C41.5498 843.173 41.5529 843.269 41.556 843.365C41.927 843.305 42.1468 843.664 42.485 843.695C42.538 843.691 42.5926 843.686 42.6455 843.681C42.725 843.684 42.8045 843.686 42.884 843.689C42.9464 843.72 43.0103 843.75 43.0711 843.782C43.1412 843.81 43.2129 843.832 43.2862 843.846C43.2908 843.846 43.2955 843.848 43.3002 843.848C43.6275 844.047 43.9923 844.02 44.357 843.999C44.5066 844.034 44.6547 844.075 44.8012 844.125C44.8667 844.142 44.9337 844.154 45.0007 844.162C45.0646 844.57 45.0833 844.985 45.194 845.386C45.353 845.612 45.5353 845.783 45.819 845.735C46.0668 846.191 46.5578 846.436 46.8181 846.88C47.1595 847.031 47.2717 847.6 47.7798 847.445C47.6349 847.964 48.0729 848.008 48.3784 848.16C48.3893 848.162 48.4002 848.16 48.4126 848.16C48.4173 848.221 48.4204 848.281 48.4251 848.342C49.2403 848.806 49.8217 849.612 50.7444 849.917C51.1388 850.564 51.9789 850.374 52.473 850.834C52.6164 850.956 52.7691 851.062 52.9328 851.153C53.0669 851.258 53.2227 851.298 53.3879 851.304C53.4456 851.301 53.5002 851.29 53.55 851.27C53.6545 851.338 53.7605 851.407 53.8649 851.474C53.9226 851.468 53.9802 851.461 54.0379 851.455C54.5975 851.636 55.1165 851.881 55.5109 852.331C55.422 852.381 55.3643 852.449 55.408 852.574C55.4641 852.62 55.5187 852.669 55.5748 852.715C55.7306 852.922 56.0143 852.879 56.1982 853.031C56.2029 853.131 56.206 853.23 56.2107 853.33C56.2699 853.417 56.3572 853.462 56.4539 853.492C56.6518 853.534 56.817 853.652 56.9932 853.737C57.0586 853.759 57.1272 853.772 57.1958 853.773C57.2893 853.768 57.3719 853.74 57.4421 853.683C57.548 853.932 57.7179 854.078 58.0172 854.013C58.0219 854.008 58.0266 854.003 58.0297 853.999C58.0312 854 58.0344 854.002 58.0359 854.003C57.9782 854.1 57.986 854.198 58.0499 854.294C58.145 854.352 58.2385 854.357 58.3305 854.307C58.2946 854.402 58.3056 854.495 58.3726 854.585C58.3788 854.63 58.3851 854.675 58.3897 854.721C58.5955 854.778 58.8012 854.834 59.007 854.892C59.2969 855.019 59.5213 855.318 59.8923 855.239C59.9094 855.218 59.9219 855.201 59.9313 855.184C59.9344 855.19 59.9375 855.197 59.9406 855.203C59.9406 855.203 59.9422 855.203 59.9422 855.204C59.9952 855.306 60.0482 855.408 60.1012 855.509C60.151 855.509 60.2009 855.512 60.2508 855.517C60.4784 855.484 60.6779 855.562 60.8727 855.662C60.8446 855.707 60.8462 855.757 60.8836 855.814C61.4011 855.816 61.917 855.819 62.4345 855.82C62.7478 855.614 63.0611 855.407 63.3744 855.2C63.3744 855.139 63.3744 855.078 63.3744 855.018C63.3791 855.013 63.3853 855.01 63.39 855.005C63.524 854.884 63.6612 854.766 63.6846 854.57L63.6861 854.568C63.6986 854.596 63.7173 854.626 63.7438 854.661C64.3252 854.823 64.8941 854.713 65.4614 854.579C65.7591 854.431 66.2268 854.427 66.0428 853.879C66.0023 853.815 65.954 853.758 65.8963 853.708C65.8496 853.678 65.8059 853.644 65.7638 853.608C65.7186 853.51 65.6984 853.412 65.8433 853.313C65.9805 853.198 65.9898 853.068 65.9088 852.932C65.9322 852.942 65.954 852.953 65.9805 852.96C66.0756 852.969 66.166 852.95 66.2517 852.908C66.3343 852.865 66.4169 852.823 66.5026 852.785C66.7333 852.712 66.95 852.776 67.1682 852.844C67.455 852.916 67.72 852.978 67.4986 853.389C67.3646 853.638 67.3506 853.926 67.614 854.143C67.6483 854.148 67.681 854.147 67.7122 854.137C67.7262 854.229 67.7402 854.321 67.7527 854.414C68.1252 854.694 68.504 854.962 68.9747 855.058C68.9794 855.102 68.984 855.145 68.9872 855.187C69.2272 855.226 69.447 855.307 69.62 855.488C69.8772 855.495 70.1063 855.554 70.2419 855.802C70.4804 855.845 70.8108 855.722 70.8498 856.132C71.0571 856.237 71.2628 856.343 71.4701 856.449C71.5403 856.563 71.6494 856.601 71.7756 856.603C71.7756 856.651 71.7803 856.699 71.7897 856.748C72.0655 856.782 72.3446 856.802 72.6173 856.853C73.5369 857.026 74.4534 857.21 75.3715 857.39C75.5071 857.468 75.6427 857.508 75.7799 857.429C75.7923 857.432 75.8032 857.435 75.8157 857.438C75.8017 857.634 76.0745 857.572 76.154 857.684C76.2568 857.686 76.3597 857.686 76.4626 857.687C76.8647 857.848 77.3198 857.792 77.7095 857.998C77.8139 857.998 77.9168 857.998 78.0212 857.998C78.333 857.998 78.6447 857.998 78.9564 857.998C79.1638 857.998 79.3726 857.998 79.5799 857.998C79.8917 857.998 80.2034 857.998 80.5151 857.998C81.243 857.998 81.9694 857.998 82.6973 857.998C84.6706 857.998 86.6454 857.998 88.6187 857.998C88.9304 857.998 89.2421 857.998 89.5539 857.998C89.6583 857.998 89.7612 857.998 89.8656 857.998C90.2818 857.998 90.6964 857.998 91.1126 857.998C91.3199 857.998 91.5287 857.998 91.736 857.998C91.8405 857.998 91.9433 857.998 92.0478 857.998C92.1319 857.913 92.1616 857.807 92.1506 857.69C92.1179 857.518 92.0821 857.347 91.9917 857.199C92.0665 857.203 92.1397 857.197 92.2145 857.182C92.2707 857.172 92.3252 857.16 92.3813 857.147C92.4764 857.158 92.5746 857.124 92.6728 857.071C93.0251 857.068 93.3773 857.065 93.7311 857.062C93.7374 857.065 93.742 857.067 93.7483 857.07C93.7982 857.113 93.8465 857.16 93.8963 857.205C93.9228 857.231 93.9447 857.259 93.9618 857.289C93.9992 857.526 94.0382 857.764 94.0756 858C94.127 858 94.18 858 94.2315 858C94.3873 858 94.5432 858 94.6991 858C94.8549 858 95.0108 858 95.1667 858C95.1713 857.899 95.1776 857.798 95.1823 857.697C95.1745 857.641 95.1667 857.586 95.1589 857.53C95.2727 857.245 95.6561 857.121 95.6249 856.751C95.6842 856.703 95.7418 856.653 95.8011 856.605C96.2998 856.643 96.8158 856.651 97.0511 857.222C96.9202 857.501 96.5742 857.645 96.5695 858C96.7253 858 96.8812 858 97.0371 858C97.2444 858 97.4533 858 97.6606 858C97.8585 857.849 97.7868 857.558 97.9707 857.4C98.072 857.284 98.1733 857.169 98.2747 857.054C98.3729 856.972 98.3744 856.872 98.3246 856.765C98.3214 856.762 98.3167 856.76 98.3136 856.757C98.4352 856.679 98.5646 856.609 98.5833 856.441C98.6394 856.393 98.6955 856.346 98.7516 856.298C98.9917 856.479 99.2317 856.318 99.4749 856.307C99.916 856.289 100.407 856.184 100.652 856.731C100.929 856.821 101.093 857.165 101.456 857.068C102.061 856.908 102.67 856.763 103.278 856.611C103.434 856.609 103.59 856.612 103.744 856.606C104.06 856.594 104.449 856.569 104.547 856.259C104.653 855.929 104.18 855.897 104.028 855.671C103.914 855.428 103.845 855.178 103.923 854.909C104.219 854.795 104.516 854.68 104.812 854.567C105.3 853.922 106.051 854.209 106.673 854.041C106.824 853.871 107.145 853.982 107.274 853.776C107.31 853.768 107.348 853.759 107.384 853.745C107.455 853.709 107.527 853.678 107.6 853.652C107.843 853.642 108.079 853.604 108.299 853.502C108.405 853.493 108.51 853.488 108.618 853.487C109.174 853.324 109.697 853.067 110.261 852.928C110.287 852.908 110.308 852.891 110.329 852.872C110.473 852.967 110.608 852.83 110.749 852.816C110.925 852.706 111.101 852.597 111.237 852.435C111.243 852.435 111.246 852.417 111.249 852.39C111.595 852.284 111.941 852.179 112.286 852.073C112.348 851.979 112.409 851.886 112.471 851.791C112.516 851.791 112.561 851.79 112.607 851.785C112.61 851.796 112.613 851.807 112.618 851.819C112.728 851.883 112.833 851.869 112.932 851.793C113.155 851.799 113.355 851.726 113.542 851.612C113.545 851.567 113.55 851.522 113.556 851.477C113.606 851.475 113.656 851.474 113.706 851.475C113.737 851.418 113.769 851.359 113.801 851.301C113.821 851.3 113.841 851.298 113.861 851.295C114.003 851.265 114.131 851.206 114.246 851.121C114.292 851.077 114.334 851.034 114.349 850.982C114.394 850.97 114.438 850.956 114.48 850.936C114.521 850.906 114.558 850.873 114.589 850.839C114.726 850.825 114.848 850.775 114.956 850.697C115.012 850.704 115.068 850.707 115.126 850.704C115.236 850.691 115.345 850.677 115.448 850.634C115.511 850.606 115.568 850.573 115.623 850.537C115.66 850.539 115.699 850.542 115.737 850.543C116.312 850.445 116.669 850.057 116.979 849.609C117.029 849.605 117.077 849.604 117.127 849.605C117.205 849.335 117.607 849.321 117.613 848.994C117.928 848.901 118.134 848.694 118.246 848.389C118.257 848.389 118.265 848.37 118.274 848.342C118.279 848.339 118.285 848.334 118.29 848.331C118.522 848.165 118.771 848.02 119.005 847.855C119.061 847.807 119.111 847.751 119.148 847.687C119.189 847.597 119.201 847.511 119.152 847.432C119.156 847.432 119.159 847.432 119.164 847.432C119.172 847.432 119.181 847.432 119.189 847.432C119.184 847.435 119.18 847.44 119.175 847.443C119.275 847.44 119.376 847.437 119.476 847.435C119.685 847.332 119.828 847.11 120.088 847.101C120.297 846.852 120.533 846.603 120.098 846.345C120.102 846.292 120.105 846.237 120.11 846.184C120.096 846.135 120.093 846.083 120.096 846.03C120.197 845.794 120.244 845.554 120.135 845.309C120.16 845.332 120.19 845.351 120.224 845.366C120.377 845.411 120.519 845.402 120.643 845.318C120.607 845.399 120.6 845.484 120.617 845.576C120.695 845.828 120.914 845.931 121.12 846.046C121.334 846.145 121.535 846.276 121.77 846.323C122.055 846.354 122.33 846.309 122.593 846.195C122.696 846.191 122.799 846.187 122.9 846.183C123.098 846.049 123.362 846.121 123.555 845.974C123.732 845.881 123.913 845.795 124.096 845.711C124.156 845.682 124.214 845.649 124.27 845.609C124.465 845.379 124.764 845.431 125.008 845.329C125.229 845.217 125.466 845.155 125.709 845.116C126.041 845.063 126.435 845.189 126.655 844.797C126.706 844.795 126.758 844.794 126.808 844.789C126.932 844.683 126.989 844.535 127.046 844.389C127.116 844.213 127.224 844.062 127.346 843.921C127.427 843.817 127.497 843.708 127.511 843.572C127.509 843.533 127.498 843.498 127.481 843.467C127.724 843.421 127.924 843.275 128.147 843.182C128.207 843.143 128.256 843.09 128.29 843.026C128.334 842.883 128.343 842.745 128.228 842.626C128.228 842.626 128.221 842.622 128.215 842.616C128.215 842.614 128.217 842.612 128.217 842.611C128.234 842.623 128.251 842.636 128.268 842.648C128.864 842.413 129.196 842.018 129.161 841.401C129.18 841.393 129.2 841.388 129.224 841.388C129.309 841.354 129.39 841.313 129.461 841.253C129.836 841.698 130.182 841.307 130.538 841.194C130.653 841.128 130.698 841.029 130.689 840.901C131.256 840.785 131.699 840.546 131.691 839.867C131.69 839.865 131.688 839.865 131.688 839.864C131.694 839.856 131.7 839.848 131.707 839.84C131.828 839.86 131.92 839.787 132.009 839.71C132.076 839.626 132.138 839.54 132.132 839.433C132.138 839.434 132.143 839.437 132.149 839.437C132.224 839.433 132.294 839.415 132.361 839.383C132.753 839.075 133.273 838.949 133.571 838.513C133.643 838.354 133.77 838.238 133.875 838.104C133.911 838.006 133.911 837.913 133.85 837.826C133.881 837.85 133.915 837.871 133.957 837.88C134.283 837.877 134.545 837.679 134.843 837.592C135.047 837.496 135.212 837.354 135.321 837.155C135.391 836.956 135.494 836.758 135.388 836.545C135.775 836.559 135.971 836.385 135.993 836.036C136.386 835.957 136.635 835.665 136.916 835.416C136.964 835.364 136.998 835.304 137.02 835.237C137.028 835.167 137.02 835.098 136.994 835.033C136.981 835.022 136.969 835.01 136.955 834.999C137.719 834.901 138.068 834.247 138.563 833.793C138.766 833.484 139.092 833.242 139.104 832.827C139.269 832.796 139.318 832.606 139.422 832.493C139.414 832.27 139.52 831.993 139.252 831.892C139.152 831.502 138.758 831.276 138.672 830.879C138.665 830.854 138.655 830.83 138.644 830.806C139.244 830.338 140.078 830.437 140.702 830.027C140.9 830.021 141.098 830.016 141.296 830.01C141.448 830.007 141.603 830.002 141.755 829.999C141.919 829.741 141.96 829.465 141.812 829.194C141.548 828.715 141.572 828.207 141.618 827.692C141.726 827.584 141.833 827.479 141.941 827.371C141.932 827.32 141.921 827.268 141.911 827.217C141.841 827.188 141.773 827.156 141.702 827.127C141.702 827.125 141.702 827.124 141.701 827.122C141.609 827.048 141.584 826.976 141.634 826.904C141.9 826.995 141.78 826.651 141.914 826.592L141.916 826.589C141.914 826.511 141.914 826.432 141.913 826.354C141.938 826.346 141.961 826.337 141.986 826.324C142.326 826.103 142.437 825.714 142.661 825.408C142.868 825.459 142.984 825.279 143.102 825.131C143.277 824.912 143.436 824.68 143.645 824.49C143.726 824.367 143.829 824.258 143.874 824.114C143.875 824.109 143.875 824.104 143.875 824.1C143.947 824.098 144.019 824.098 144.09 824.096C144.089 823.939 144.087 823.782 144.086 823.625C144.084 823.627 144.081 823.628 144.079 823.63C144.079 823.628 144.079 823.627 144.081 823.623C144.081 823.617 144.083 823.613 144.083 823.606C144.234 823.715 144.323 823.597 144.411 823.482C144.514 823.376 144.616 823.272 144.719 823.166C144.945 823.031 144.87 822.724 145.061 822.57C145.105 822.511 145.147 822.452 145.191 822.394C145.178 822.334 145.15 822.287 145.108 822.254C145.317 821.844 145.562 821.452 145.764 821.039C145.888 820.777 146.022 820.521 146.126 820.251C146.202 820.235 146.268 820.176 146.335 820.122C146.382 820.067 146.424 820.01 146.456 819.946C146.583 819.627 146.869 819.331 146.608 818.955C146.648 818.919 146.679 818.875 146.695 818.824C146.698 818.805 146.7 818.785 146.701 818.767C146.765 818.726 146.829 818.686 146.893 818.645C146.894 818.567 146.894 818.491 146.896 818.413C146.96 818.35 147.013 818.267 147.072 818.197C147.683 816.956 148.123 815.649 148.529 814.331C148.601 814.098 148.674 813.86 148.553 813.636C148.576 813.609 148.6 813.583 148.626 813.56C149.187 812.922 149.13 812.035 149.519 811.329C149.462 810.946 149.962 810.647 149.787 810.247C149.808 810.23 149.829 810.215 149.853 810.201C150.032 809.989 150.113 809.736 150.175 809.474C150.18 809.446 150.183 809.418 150.186 809.392C150.232 809.368 150.277 809.345 150.324 809.322C150.464 809.21 150.481 809.06 150.448 808.897C150.422 808.826 150.387 808.763 150.331 808.732C150.506 808.463 150.649 808.177 150.766 807.878C150.818 807.69 150.829 807.503 150.771 807.315C150.766 807.304 150.758 807.295 150.754 807.285C151.237 807.046 151.31 806.567 151.379 806.086C151.379 806.083 151.377 806.081 151.376 806.078C151.527 806.07 151.575 805.91 151.656 805.8C151.684 805.734 151.704 805.666 151.715 805.596C151.731 805.453 151.723 805.314 151.645 805.187C151.65 805.179 151.655 805.171 151.659 805.163C151.779 805.16 151.82 805.048 151.882 804.966C151.946 804.816 152.008 804.666 152.072 804.516C152.27 804.233 152.548 803.987 152.521 803.594C152.621 803.483 152.722 803.373 152.822 803.261C152.822 803.169 152.82 803.077 152.82 802.985C152.852 802.942 152.881 802.895 152.917 802.859C153.067 802.59 153.263 802.341 153.285 802.016C153.542 801.509 153.19 801.288 152.838 801.067C152.909 800.618 152.621 800.443 152.277 800.271C151.999 800.132 151.595 800.1 151.578 799.653C151.807 799.524 151.853 799.297 151.89 799.067C151.985 799.011 152.082 798.955 152.177 798.899C152.225 798.657 152.32 798.444 152.521 798.289C152.602 798.197 152.61 798.1 152.542 797.998C152.542 797.998 152.54 797.996 152.538 797.995C152.538 797.995 152.538 797.995 152.538 797.993C152.546 797.999 152.554 798.006 152.562 798.012C152.941 797.95 152.919 797.548 153.128 797.343L153.123 797.34C153.115 797.077 153.184 796.853 153.435 796.719V796.725C153.614 796.381 153.514 796.17 153.21 796.027ZM108.872 852.686L108.871 852.679C108.869 852.679 108.866 852.679 108.864 852.681C108.866 852.678 108.869 852.676 108.871 852.673C108.871 852.676 108.871 852.678 108.871 852.679C108.872 852.681 108.875 852.684 108.877 852.686C108.875 852.686 108.874 852.686 108.872 852.686ZM25.9677 824.067H25.9662L25.9677 824.065C25.9677 824.065 25.9677 824.065 25.9677 824.067ZM17.5727 785.785C17.5821 785.784 17.5914 785.784 17.5992 785.782C17.5899 785.792 17.5836 785.803 17.5743 785.813C17.5727 785.803 17.5727 785.793 17.5727 785.785ZM149.377 781.447C149.382 781.45 149.385 781.453 149.39 781.456C149.385 781.459 149.382 781.461 149.377 781.464C149.379 781.457 149.377 781.453 149.377 781.447ZM18.8009 770.171C18.8243 770.182 18.8493 770.193 18.8726 770.202C18.8508 770.222 18.829 770.238 18.8009 770.247C18.8009 770.222 18.8009 770.197 18.8009 770.171ZM43.4296 841.211C43.4187 841.144 43.4576 841.184 43.4732 841.219C43.4576 841.219 43.4436 841.217 43.4296 841.215C43.4296 841.212 43.4296 841.212 43.4296 841.211ZM29.7117 754.071L29.7101 754.072V754.071C29.7101 754.071 29.7101 754.071 29.7117 754.071ZM30.1761 751.583C30.1715 751.574 30.1668 751.566 30.1637 751.558C30.173 751.564 30.1808 751.569 30.1902 751.575C30.1855 751.577 30.1808 751.582 30.1761 751.583ZM36.5574 746.606C36.5605 746.606 36.562 746.606 36.5652 746.606C36.5636 746.61 36.562 746.614 36.5589 746.617C36.5589 746.614 36.5574 746.61 36.5574 746.606ZM39.0622 836.492C39.0606 836.497 39.0606 836.503 39.059 836.508C39.0061 836.514 38.9655 836.511 38.9312 836.499C38.9702 836.494 39.0138 836.491 39.0622 836.492ZM39.084 741.63C39.0777 741.63 39.0731 741.63 39.0668 741.63C39.0653 741.628 39.0637 741.627 39.0622 741.623C39.0653 741.617 39.0684 741.611 39.0715 741.605C39.0746 741.614 39.0793 741.622 39.084 741.63ZM32.2289 825.619C32.2757 825.618 32.3131 825.624 32.3443 825.637C32.3069 825.632 32.2679 825.626 32.2289 825.619ZM22.5418 763.094H22.5433H22.5418ZM19.4244 782.711C19.4166 782.704 19.4088 782.697 19.4026 782.69C19.4104 782.69 19.4182 782.691 19.4244 782.691C19.4244 782.691 19.4244 782.691 19.426 782.691C19.4244 782.699 19.4244 782.705 19.4244 782.711ZM20.0494 777.697C20.0494 777.704 20.0479 777.708 20.0479 777.714C20.0448 777.708 20.0432 777.705 20.0401 777.699C20.0432 777.699 20.0463 777.697 20.0494 777.697ZM20.0463 803.847C20.0463 803.861 20.0463 803.872 20.0463 803.886C20.0385 803.877 20.0307 803.869 20.0245 803.858C20.0323 803.855 20.0385 803.85 20.0463 803.847ZM22.2285 762.78H22.23C22.2269 762.781 22.2254 762.783 22.2222 762.786C22.2238 762.786 22.2285 762.78 22.2285 762.78ZM18.4892 778.651C18.4892 778.679 18.483 778.707 18.4736 778.735C18.4643 778.709 18.4549 778.682 18.444 778.654C18.4611 778.654 18.4752 778.653 18.4892 778.651ZM147.519 792.337C147.519 792.337 147.519 792.335 147.519 792.337C147.521 792.335 147.521 792.335 147.523 792.335C147.521 792.335 147.519 792.337 147.519 792.337ZM145.654 768.382C145.66 768.385 145.666 768.391 145.672 768.394C145.666 768.396 145.66 768.397 145.654 768.397C145.654 768.393 145.654 768.386 145.654 768.382ZM133.784 747.909C133.862 747.887 133.926 747.885 133.978 747.899C133.925 747.899 133.859 747.904 133.784 747.909ZM133.392 747.509C133.406 747.507 133.418 747.504 133.432 747.504C133.488 747.555 133.505 747.644 133.513 747.733C133.466 747.635 133.427 747.56 133.392 747.509ZM89.8609 720.808C89.8609 720.811 89.8609 720.813 89.8609 720.816C89.8578 720.814 89.8531 720.813 89.85 720.813C89.8531 720.81 89.8563 720.81 89.8609 720.808ZM117.708 732.61C117.523 732.482 117.333 732.439 117.132 732.574C117.127 732.585 117.124 732.593 117.121 732.602C116.927 732.087 116.416 732.033 116 731.841C115.983 731.84 115.964 731.838 115.947 731.838C115.786 731.664 115.495 731.62 115.411 731.368C115.331 731.275 115.228 731.247 115.111 731.259C115.073 731.27 115.037 731.287 115.005 731.309C114.803 731.154 114.561 731.063 114.359 730.911C114.031 730.688 113.677 730.536 113.288 730.474C113.398 730.186 113.553 729.954 113.941 729.999C114.087 729.988 114.232 729.971 114.376 729.934C114.828 729.825 115.278 729.822 115.727 729.953C115.846 729.981 115.966 729.999 116.087 730.001C116.248 729.999 116.407 729.993 116.542 729.914C116.871 729.974 117.144 730.209 117.492 730.205C117.535 730.191 117.57 730.167 117.598 730.138C117.702 730.239 117.806 730.34 117.911 730.443C117.912 730.542 117.912 730.643 117.914 730.743C118.067 730.877 118.226 731.045 118.138 731.242C118.04 731.463 117.789 731.339 117.605 731.365C117.605 731.458 117.605 731.552 117.605 731.647C117.593 731.653 117.58 731.658 117.568 731.665C117.521 731.782 117.507 731.894 117.615 731.989C117.922 732.001 117.906 732.232 117.931 732.434C117.908 732.445 117.884 732.46 117.861 732.485C117.794 732.507 117.912 732.75 117.708 732.61ZM98.1235 725.005C98.0455 724.984 97.966 724.966 97.885 724.96C97.6777 724.951 97.4688 724.937 97.2927 725.05C97.2553 725.036 97.2163 725.026 97.1789 725.01C97.076 724.982 96.9716 724.968 96.8656 724.956C96.9233 724.934 96.9779 724.9 97.0293 724.844C96.8781 724.654 96.6614 724.64 96.4448 724.629C96.2328 724.624 96.0208 724.623 95.8088 724.654C95.7294 724.669 95.6577 724.694 95.5906 724.733C95.5641 724.727 95.5392 724.719 95.5127 724.713C95.4644 724.651 95.0389 724.612 95.4878 724.504C95.6436 724.467 95.7855 724.371 95.7979 724.201C95.8135 724.196 95.8291 724.193 95.8431 724.189C96.0052 724.131 96.1658 724.07 96.2609 723.921C96.2998 723.965 96.345 723.999 96.4027 724.017C96.5165 724.044 96.6318 724.042 96.7456 724.017C97.2039 723.927 97.6621 723.877 98.1204 724.022C98.2809 724.105 98.3916 724.232 98.4695 724.391C98.5131 724.931 98.7968 725.19 99.1787 725.304C98.8249 725.24 98.4664 725.15 98.1235 725.005ZM107.471 728.565C107.476 728.565 107.482 728.565 107.486 728.565C107.479 728.574 107.471 728.582 107.461 728.591C107.465 728.582 107.468 728.573 107.471 728.565ZM94.8471 722.656C94.8471 722.655 94.8471 722.655 94.8471 722.655V722.656ZM120.088 738.207C120.09 738.207 120.09 738.206 120.091 738.206V738.207C120.091 738.207 120.09 738.207 120.088 738.207ZM118.223 736.354C118.218 736.35 118.215 736.343 118.21 736.339C118.215 736.343 118.218 736.347 118.223 736.351C118.223 736.353 118.223 736.353 118.223 736.354ZM114.811 731.684C114.801 731.682 114.794 731.679 114.784 731.678C114.77 731.678 114.758 731.678 114.744 731.678C114.741 731.664 114.737 731.65 114.734 731.637C114.751 731.651 114.767 731.664 114.784 731.679L114.797 731.673C114.801 731.676 114.806 731.681 114.811 731.684ZM102.38 725.186C102.439 725.229 102.511 725.24 102.591 725.234C102.658 725.218 102.723 725.195 102.782 725.161C102.99 725.021 103.237 724.998 103.464 724.914C103.696 724.795 103.965 724.783 104.196 724.693C104.802 724.456 105.429 724.882 106.018 724.592C106.023 724.596 106.026 724.601 106.031 724.606C106.034 724.607 106.037 724.609 106.04 724.61C105.993 725.064 106.391 725.054 106.687 725.147C106.751 725.178 106.815 725.209 106.879 725.239C106.877 725.273 106.879 725.307 106.883 725.343C107.301 725.914 106.927 726.468 106.855 727.028C106.514 727.102 106.205 727.404 105.822 727.183C105.667 727.163 105.516 727.16 105.385 727.239C105.36 727.219 105.334 727.2 105.311 727.179C105.089 727.022 104.855 726.896 104.587 726.841C104.04 726.883 103.574 726.317 102.991 726.63C102.974 726.648 102.963 726.665 102.952 726.681C102.871 726.303 102.656 726.217 102.319 726.396C102.312 726.396 102.304 726.396 102.298 726.396C102.379 726.032 102.005 726.065 101.819 725.933C101.431 725.825 101.079 725.603 100.761 725.603C100.854 725.607 101.044 725.626 101.236 725.606C101.305 725.59 101.372 725.572 101.436 725.544C101.68 725.411 101.942 725.331 102.212 725.276C102.271 725.253 102.327 725.223 102.38 725.186ZM94.8471 722.655C94.8612 722.638 94.8752 722.62 94.8908 722.603C94.911 722.619 94.9297 722.636 94.9485 722.656C94.9142 722.655 94.8814 722.655 94.8471 722.655ZM117.602 729.948C117.593 729.946 117.587 729.942 117.577 729.939C117.585 729.926 117.593 729.915 117.601 729.903C117.602 729.918 117.602 729.934 117.602 729.948ZM123.196 738.521C123.198 738.518 123.203 738.515 123.204 738.512C123.206 738.515 123.207 738.517 123.209 738.518C123.206 738.52 123.201 738.52 123.196 738.521ZM112.917 729.492C112.917 729.494 112.918 729.494 112.918 729.495L112.928 729.498C112.928 729.501 112.928 729.503 112.928 729.506C112.925 729.503 112.922 729.498 112.918 729.495H112.917C112.917 729.495 112.917 729.494 112.917 729.492ZM107.627 723.601C107.627 723.596 107.627 723.593 107.627 723.588C107.633 723.596 107.641 723.604 107.649 723.613C107.642 723.61 107.635 723.605 107.627 723.601ZM91.6285 854.884C91.6628 854.875 91.7002 854.862 91.7423 854.843C91.7376 854.85 91.7345 854.856 91.7298 854.861C91.7329 854.861 91.736 854.861 91.7376 854.861C91.7095 854.887 91.6815 854.907 91.6534 854.924C91.6487 854.912 91.6378 854.898 91.6285 854.884ZM56.0034 729.212C56.1203 729.215 56.2138 729.142 56.3073 729.066C56.4414 728.938 56.5879 728.8 56.7796 728.831C57.6322 728.966 58.145 728.422 58.6859 727.935C58.6859 727.939 58.6859 727.943 58.6859 727.949C58.5877 728.079 58.555 728.212 58.6376 728.349C58.6344 728.363 58.6313 728.378 58.6282 728.392C58.2245 728.495 58.1076 728.812 58.064 729.184C57.8645 729.134 57.7772 729.249 57.7257 729.414C57.732 729.425 57.7366 729.438 57.7429 729.448C57.7335 729.453 57.7242 729.458 57.7164 729.462C57.4249 729.333 57.2238 729.377 57.1506 729.663C57.0462 729.657 56.9433 729.669 56.8435 729.702C56.6128 729.799 56.3868 729.903 56.178 730.04C56.1608 730.055 56.1437 730.072 56.1281 730.089C55.7478 729.873 56.0548 729.501 56.0034 729.212ZM70.5365 724.834C70.4321 725.036 70.3261 725.239 70.2216 725.441C70.2185 725.444 70.217 725.446 70.2138 725.449C70.2076 725.455 70.2029 725.458 70.1967 725.464C70.1063 725.306 69.9208 725.307 69.7478 725.289C69.6699 725.292 69.5951 725.303 69.5202 725.321C69.3051 725.377 69.0947 725.477 68.8671 725.373C68.8204 725.335 68.7814 725.29 68.744 725.243C68.691 725.057 68.6583 724.872 68.8406 724.727C69.0963 724.596 69.355 724.694 69.6138 724.714C69.9302 724.683 70.1842 725.036 70.524 724.858C70.5287 724.847 70.5318 724.84 70.5365 724.834ZM58.6874 728.862C58.6874 728.867 58.6874 728.87 58.6874 728.874C58.6843 728.873 58.6812 728.871 58.6781 728.87C58.6828 728.868 58.6859 728.865 58.6874 728.862ZM50.3329 845.061C50.3329 845.061 50.3298 845.05 50.3251 845.03C50.3314 845.039 50.3376 845.05 50.3438 845.06C50.3407 845.06 50.3376 845.06 50.3329 845.061ZM56.0299 730.413C56.0299 730.413 56.0361 730.421 56.0439 730.429C56.0392 730.422 56.0346 730.418 56.0283 730.411C56.0299 730.413 56.0299 730.413 56.0299 730.413ZM81.1682 718.966C81.1573 718.954 81.1464 718.943 81.1355 718.929C81.1526 718.929 81.1698 718.929 81.1869 718.929C81.1776 718.943 81.1729 718.955 81.1682 718.966ZM59.3187 726.076H59.3171C59.3171 726.076 59.3171 726.076 59.3187 726.076ZM62.7447 853.927C62.726 853.916 62.7088 853.902 62.6917 853.888C62.7073 853.89 62.726 853.891 62.7431 853.894C62.7447 853.904 62.7447 853.915 62.7447 853.927ZM68.3559 722.966C68.3434 722.994 68.3294 723.017 68.3154 723.041C68.2998 723.014 68.2858 722.989 68.2733 722.963C68.2998 722.964 68.3278 722.964 68.3559 722.966ZM91.4196 856.398C91.4274 856.398 91.4368 856.398 91.4446 856.399C91.4368 856.405 91.4274 856.409 91.4196 856.415C91.4196 856.409 91.4196 856.404 91.4196 856.398ZM128.812 839.904C128.815 839.912 128.818 839.921 128.817 839.929C128.812 839.929 128.809 839.929 128.804 839.93C128.808 839.921 128.811 839.912 128.812 839.904ZM147.83 812.233C147.841 812.24 147.85 812.248 147.862 812.254H147.864C147.853 812.265 147.842 812.276 147.831 812.287C147.831 812.268 147.83 812.251 147.83 812.233ZM100.084 722.012C100.101 721.998 100.117 721.984 100.134 721.972C100.139 721.99 100.144 722.009 100.145 722.031C100.123 722.023 100.103 722.017 100.084 722.012ZM52.4621 729.52C52.4621 729.512 52.4605 729.506 52.4605 729.498C52.4714 729.504 52.4808 729.511 52.4917 729.518C52.4824 729.518 52.4714 729.52 52.4621 729.52ZM36.4124 743.815C36.3797 743.864 36.3407 743.895 36.2986 743.917C36.3127 743.889 36.3142 743.856 36.3111 743.814C36.3454 743.815 36.3781 743.815 36.4124 743.815ZM22.2144 762.786C22.2176 762.786 22.2207 762.787 22.2222 762.787C22.2191 762.79 22.2176 762.794 22.2144 762.797C22.216 762.792 22.216 762.789 22.2144 762.786ZM98.8904 855.78C98.8919 855.785 98.895 855.788 98.8966 855.792C98.8919 855.792 98.8872 855.792 98.8841 855.792C98.8857 855.788 98.8888 855.785 98.8904 855.78ZM114.17 847.706C114.147 847.673 114.123 847.637 114.1 847.602C114.139 847.625 114.176 847.651 114.214 847.681C114.2 847.69 114.184 847.697 114.17 847.706ZM117.272 848.344C117.27 848.337 117.269 848.331 117.267 848.327C117.272 848.327 117.278 848.327 117.283 848.327C117.28 848.331 117.275 848.337 117.272 848.344ZM126.639 843.509L126.633 843.501C126.624 843.498 126.616 843.498 126.608 843.496C126.615 843.491 126.621 843.485 126.627 843.481C126.63 843.488 126.63 843.495 126.633 843.502C126.636 843.504 126.641 843.505 126.644 843.507C126.643 843.507 126.641 843.507 126.639 843.509ZM136.61 834.33C136.588 834.307 136.581 834.28 136.578 834.254C136.599 834.277 136.621 834.302 136.645 834.328C136.634 834.327 136.623 834.328 136.61 834.33ZM146.891 816.906C146.888 816.906 146.887 816.906 146.883 816.906C146.887 816.904 146.888 816.901 146.891 816.9C146.891 816.901 146.891 816.903 146.891 816.906C146.896 816.907 146.899 816.909 146.904 816.911C146.902 816.912 146.901 816.912 146.899 816.914C146.899 816.912 146.891 816.906 146.891 816.906ZM143.788 762.148C143.788 762.146 143.788 762.145 143.788 762.143C143.79 762.145 143.79 762.146 143.791 762.148C143.79 762.148 143.79 762.148 143.788 762.148ZM140.982 756.86C140.984 756.859 140.985 756.855 140.989 756.854C140.989 756.855 140.99 756.859 140.99 756.86C140.99 756.86 140.989 756.862 140.985 756.863C140.984 756.863 140.982 756.862 140.982 756.86ZM136.922 750.959L136.925 750.962H136.924C136.924 750.962 136.924 750.962 136.924 750.961C136.924 750.962 136.922 750.959 136.922 750.959C136.92 750.959 136.919 750.959 136.917 750.959C136.919 750.958 136.92 750.958 136.922 750.956C136.92 750.958 136.922 750.959 136.922 750.959ZM42.4897 734.767C42.4866 734.771 42.4819 734.774 42.4803 734.778L42.4788 734.777C42.4819 734.774 42.485 734.769 42.4897 734.767C42.4897 734.766 42.4897 734.767 42.4897 734.767ZM17.261 771.188C17.261 771.194 17.261 771.199 17.2594 771.205C17.2563 771.204 17.2547 771.201 17.2516 771.199C17.2532 771.196 17.2563 771.191 17.2579 771.188C17.2594 771.188 17.261 771.188 17.261 771.188ZM19.2654 802.612C19.267 802.61 19.267 802.61 19.2685 802.609C19.2701 802.615 19.2717 802.621 19.2732 802.628C19.2717 802.628 19.2701 802.626 19.267 802.626C19.267 802.628 19.267 802.621 19.2654 802.612ZM35.3291 836.779C35.3354 836.78 35.3432 836.78 35.3494 836.782C35.3432 836.789 35.3354 836.794 35.3291 836.802L35.3151 836.822C35.3135 836.822 35.312 836.822 35.3104 836.822C35.3167 836.816 35.3229 836.808 35.3291 836.802C35.3291 836.796 35.3291 836.788 35.3291 836.779ZM42.4616 843.347C42.4663 843.353 42.471 843.361 42.4757 843.367C42.4663 843.365 42.4585 843.362 42.4492 843.361C42.4523 843.356 42.457 843.351 42.4616 843.347ZM56.1 852.379C56.0969 852.404 56.0954 852.427 56.0954 852.451C56.0735 852.427 56.0502 852.404 56.0283 852.381C56.0533 852.379 56.0767 852.379 56.1 852.379ZM74.3085 856.726C74.3069 856.734 74.3054 856.743 74.3054 856.751C74.296 856.745 74.2867 856.738 74.2789 856.732C74.2882 856.729 74.2976 856.727 74.3085 856.726ZM110.418 852.364C110.415 852.364 110.414 852.362 110.411 852.362C110.412 852.356 110.414 852.35 110.415 852.343C110.417 852.351 110.418 852.357 110.418 852.364ZM116.204 849.881C116.207 849.881 116.21 849.882 116.212 849.882C116.209 849.885 116.204 849.889 116.201 849.892C116.203 849.889 116.204 849.885 116.204 849.881ZM134.911 836.517C134.913 836.517 134.914 836.517 134.918 836.517C134.916 836.519 134.916 836.52 134.914 836.522C134.913 836.52 134.913 836.519 134.911 836.517ZM148.143 813.777C148.146 813.78 148.148 813.785 148.151 813.788C148.152 813.788 148.152 813.788 148.154 813.788C148.151 813.791 148.146 813.796 148.143 813.799C148.143 813.791 148.143 813.784 148.143 813.777ZM152.208 803.533C152.206 803.533 152.208 803.533 152.208 803.533V803.533ZM152.03 792.581C151.963 792.606 151.89 792.61 151.81 792.599C151.884 792.59 151.957 792.585 152.03 792.581ZM91.2622 719.386C91.2653 719.381 91.2684 719.377 91.2715 719.372C91.2762 719.377 91.2809 719.381 91.2871 719.386C91.2793 719.386 91.2715 719.386 91.2622 719.386ZM68.6053 721.144C68.624 721.124 68.6427 721.104 68.6614 721.083C68.6505 721.111 68.6302 721.13 68.6053 721.144ZM67.4285 721.706C67.4222 721.706 67.4176 721.706 67.4113 721.704C67.4145 721.699 67.4176 721.695 67.4207 721.69C67.4238 721.695 67.4269 721.701 67.4285 721.706ZM46.1541 729.808C46.1463 729.836 46.1385 729.864 46.1292 729.892C46.1011 729.87 46.0809 729.844 46.0746 729.808C46.1011 729.808 46.1276 729.808 46.1541 729.808ZM36.9127 740.997C36.905 741.006 36.8972 741.015 36.8894 741.025C36.8894 741.017 36.8878 741.007 36.8878 741C36.8956 741 36.9034 740.998 36.9127 740.997ZM18.6903 778.139C18.6903 778.152 18.6903 778.164 18.6903 778.176C18.6716 778.176 18.6529 778.176 18.6342 778.176C18.6544 778.164 18.6731 778.152 18.6903 778.139ZM18.1899 797.309C18.1899 797.302 18.1899 797.296 18.1884 797.29C18.1977 797.291 18.2055 797.291 18.2133 797.291C18.2071 797.298 18.1993 797.304 18.1899 797.309ZM17.2797 806.973C17.2781 806.974 17.2766 806.976 17.275 806.979L17.2267 806.948C17.2454 806.956 17.2625 806.965 17.2797 806.973ZM74.2726 856.731C74.2726 856.729 74.2726 856.727 74.2726 856.726C74.2742 856.727 74.2757 856.731 74.2789 856.732C74.2773 856.732 74.2726 856.731 74.2726 856.731ZM91.1032 857.351C91.0284 857.342 90.9645 857.322 90.9146 857.286C90.9754 857.297 91.0393 857.312 91.1048 857.333C91.1048 857.337 91.1048 857.345 91.1032 857.351ZM95.7777 856.424C95.7792 856.424 95.7808 856.424 95.7823 856.424L95.7839 856.419C95.7855 856.419 95.7855 856.419 95.787 856.419C95.7855 856.421 95.7839 856.423 95.7823 856.424C95.7823 856.429 95.7839 856.432 95.7839 856.437C95.7823 856.433 95.7792 856.429 95.7777 856.424ZM104.461 854.279C104.458 854.265 104.458 854.254 104.453 854.238C104.472 854.238 104.492 854.238 104.511 854.238C104.495 854.252 104.478 854.265 104.461 854.279Z" fill="url(#paint3_radial_905_8)"/>
<path d="M139.098 741.639C139.197 741.745 139.299 741.851 139.398 741.956C139.417 742.207 139.456 742.446 139.72 742.569C139.72 742.621 139.723 742.671 139.73 742.722C139.746 742.731 139.76 742.745 139.771 742.762C139.757 742.748 139.744 742.736 139.73 742.722C139.754 743.129 139.799 743.509 140.365 743.203C140.463 743.143 140.561 743.084 140.658 743.025C140.924 741.617 141.048 741.924 139.649 741.21C139.517 741.143 139.383 741.079 139.249 741.014C139.095 741.014 138.942 741.014 138.787 741.014C138.77 741.281 138.826 741.513 139.098 741.639ZM140.03 743.028L140.028 743.027L140.03 743.025C140.03 743.027 140.03 743.027 140.03 743.028Z" fill="url(#paint4_radial_905_8)"/>
<path d="M112.605 725.472C113.032 725.74 113.343 725.548 113.616 725.214C113.884 724.663 113.63 724.428 113.099 724.363C112.628 724.391 112.227 724.542 111.994 724.988C112.034 725.356 112.333 725.396 112.605 725.472Z" fill="url(#paint5_radial_905_8)"/>
<path d="M121.96 729.187C121.96 729.083 121.96 728.98 121.962 728.878C121.796 728.839 121.718 728.588 121.505 728.68C121.407 728.722 121.355 728.822 121.394 728.932C121.491 729.209 121.731 729.19 121.96 729.187Z" fill="url(#paint6_radial_905_8)"/>
<path d="M129.448 735.243C129.786 735.229 130.134 735.226 130.224 734.789C129.811 734.795 129.4 734.799 128.987 734.804C128.957 735.143 129.337 735.051 129.448 735.243Z" fill="url(#paint7_radial_905_8)"/>
<path d="M150.622 760.431C150.624 759.976 150.625 759.52 150.627 759.066C150.543 758.96 150.448 758.959 150.342 759.032C150.338 759.033 150.337 759.037 150.334 759.038C150.334 759.038 150.334 759.038 150.332 759.04C150.324 759.043 150.317 759.044 150.309 759.047C150.343 759.005 150.374 758.963 150.395 758.917C149.927 758.431 149.804 758.469 149.392 759.222C149.397 760.035 149.861 760.382 150.622 760.431Z" fill="url(#paint8_radial_905_8)"/>
<path d="M142.308 751.986C142.384 752.195 142.568 752.192 142.75 752.066C143.11 751.817 142.753 751.635 142.696 751.425C142.643 751.372 142.59 751.319 142.537 751.266C142.052 751.375 142.208 751.713 142.308 751.986Z" fill="url(#paint9_radial_905_8)"/>
<path d="M149.992 763.69C149.988 763.36 149.999 763.03 149.974 762.704C149.962 762.526 149.8 762.263 149.663 762.425C149.426 762.702 148.791 762.794 149.084 763.393C149.416 763.404 149.608 763.839 149.992 763.69Z" fill="url(#paint10_radial_905_8)"/>
<path d="M136.927 743.493C137.039 743.597 137.15 743.701 137.262 743.806C137.251 743.854 137.245 743.902 137.242 743.952C137.466 744.164 137.553 744.43 137.558 744.73C137.786 744.823 137.979 745.074 138.33 744.916C138.171 744.571 137.767 744.381 137.857 743.972C138.256 743.905 138.168 743.608 138.152 743.347C138.124 743.294 138.083 743.281 138.029 743.309C137.575 742.933 136.939 742.812 136.598 742.28C136.238 742.287 136.355 742.477 136.434 742.676C136.553 742.98 136.917 743.129 136.927 743.493Z" fill="url(#paint11_radial_905_8)"/>
<path d="M142.393 749.195C142.65 749.172 142.664 748.938 142.69 748.683C142.634 748.559 142.725 748.249 142.43 748.285C142.165 748.318 142.201 748.646 142.128 748.846C142.054 749.049 142.176 749.215 142.393 749.195Z" fill="url(#paint12_radial_905_8)"/>
<path d="M135.366 746.916C135.826 747.331 136.266 747.779 136.928 747.86C136.983 747.806 137.037 747.753 137.092 747.699C137.391 746.922 136.501 747.017 136.294 746.613C135.38 746.194 135.366 746.199 135.366 746.916Z" fill="url(#paint13_radial_905_8)"/>
<path d="M150.319 771.661C150.32 771.605 150.322 771.549 150.323 771.493C150.224 771.381 150.124 771.269 150.026 771.157C150.02 770.962 150.013 770.768 150.006 770.573C149.912 770.441 149.904 770.282 149.873 770.133C149.825 769.898 149.786 769.627 149.497 769.623C149.156 769.618 149.115 769.949 149.078 770.184C148.98 770.802 149.218 771.351 149.518 771.877C149.624 772.113 149.764 772.328 149.895 772.549C149.957 772.639 150.054 772.687 150.14 772.748C150.188 772.802 150.238 772.855 150.286 772.91C150.398 773.165 150.511 773.42 150.623 773.675C150.626 774.038 150.627 774.4 150.631 774.763C150.649 774.792 150.67 774.819 150.691 774.842C150.998 775.237 151.326 775.474 151.761 774.914C151.586 774.554 151.588 774.116 151.263 773.825L151.262 773.821C151.254 773.821 151.248 773.82 151.24 773.817C151.248 773.818 151.254 773.82 151.262 773.821C151.111 773.434 151.056 772.997 150.751 772.687C150.751 772.683 150.751 772.676 150.751 772.672C150.73 772.561 150.69 772.457 150.637 772.359C150.5 772.19 150.475 771.973 150.386 771.783C150.367 771.74 150.344 771.701 150.319 771.661Z" fill="url(#paint14_radial_905_8)"/>
<path d="M155.013 792.903C154.988 792.89 154.885 792.97 154.871 793.02C154.807 793.256 154.899 793.401 155.155 793.424C155.11 793.247 155.25 793.018 155.013 792.903Z" fill="url(#paint15_radial_905_8)"/>
<path d="M130.117 735.975C130.022 736.184 130.142 736.314 130.354 736.363C130.365 736.414 130.371 736.464 130.372 736.517C130.472 736.605 130.528 736.739 130.661 736.793C130.679 736.798 130.695 736.807 130.712 736.814C130.809 736.968 131.025 737.052 131.011 737.268C131.058 737.273 131.105 737.276 131.153 737.279C131.312 737.483 131.471 737.685 131.629 737.889C132.227 737.576 131.848 737.255 131.689 736.938C131.685 736.89 131.668 736.842 131.636 736.795C131.576 736.303 130.848 735.675 130.407 735.757C130.298 735.779 130.16 735.877 130.117 735.975ZM131.615 737.129C131.613 737.128 131.613 737.128 131.613 737.128C131.615 737.128 131.615 737.128 131.616 737.126C131.615 737.126 131.615 737.128 131.615 737.129Z" fill="url(#paint16_radial_905_8)"/>
<path d="M147.689 770.556C147.697 770.592 147.702 770.629 147.705 770.667C148.498 770.542 148.129 770.116 147.995 769.698C147.621 769.936 147.697 770.259 147.689 770.556Z" fill="url(#paint17_radial_905_8)"/>
<path d="M126.961 733.199C127.198 733.247 127.266 733.067 127.341 732.868C127.307 732.694 127.204 732.54 127.001 732.544C126.856 732.547 126.691 732.625 126.671 732.812C126.646 733.023 126.761 733.159 126.961 733.199Z" fill="url(#paint18_radial_905_8)"/>
<path d="M121.43 733.268C121.22 733.591 121.545 733.766 121.655 734C121.846 734.056 122.046 734.091 122.228 734.171C122.883 734.455 123.176 734.203 123.21 733.539C122.884 733.356 122.608 733.065 122.194 733.074C121.923 733.082 121.619 732.979 121.43 733.268Z" fill="url(#paint19_radial_905_8)"/>
<path d="M142.696 755.01C142.638 755.069 142.591 755.135 142.557 755.209C142.535 755.297 142.526 755.377 142.529 755.455C142.513 755.581 142.504 755.709 142.382 755.785C142.493 755.967 142.672 755.942 142.844 755.939L142.922 755.945L143 755.941C143.21 755.962 143.41 755.917 143.581 755.802C143.779 755.67 144.167 755.679 144.128 755.371C144.088 755.062 143.774 754.976 143.466 755.007C143.208 755.009 142.953 755.01 142.696 755.01Z" fill="url(#paint20_radial_905_8)"/>
<path d="M145.35 753.121C145.906 753.188 145.81 752.793 145.802 752.473C145.794 752.179 145.786 751.866 145.336 752.04C145.286 752.096 145.236 752.152 145.185 752.207C145.047 752.546 145.037 752.863 145.35 753.121Z" fill="url(#paint21_radial_905_8)"/>
<path d="M144.737 752.762C144.993 752.552 144.601 752.407 144.553 752.213C144.246 752.084 143.976 752.009 144.09 752.518C144.311 752.602 144.488 752.967 144.737 752.762Z" fill="url(#paint22_radial_905_8)"/>
<path d="M132.24 742.106C132.295 742.154 132.349 742.204 132.404 742.252C132.555 742.257 132.706 742.261 132.859 742.268C133.816 742.572 134.026 742.493 134.137 741.785C134.17 741.759 134.209 741.742 134.249 741.728C134.212 741.746 134.174 741.767 134.137 741.785C134.238 741.787 134.34 741.788 134.439 741.79C134.633 741.773 134.742 741.675 134.743 741.474C134.746 741.426 134.751 741.379 134.756 741.331C134.905 741.328 135.055 741.325 135.205 741.322C135.524 741.264 135.619 741.123 135.379 740.856C135.321 740.749 135.265 740.642 135.208 740.536C135.155 740.488 135.102 740.44 135.047 740.393C135.049 740.338 135.05 740.286 135.052 740.231C134.81 740.258 134.746 740.009 134.575 739.926C134.47 739.823 134.368 739.721 134.263 739.617C134.018 739.587 133.813 739.48 133.643 739.304C133.284 739.153 133.233 739.312 133.328 739.617C133.442 739.814 133.594 739.974 133.8 740.077C133.883 740.27 133.987 740.458 133.626 740.469C133.409 740.477 133.181 740.505 133.022 740.693C132.973 740.693 132.921 740.695 132.871 740.699C132.849 740.737 132.814 740.755 132.771 740.765C132.804 740.743 132.839 740.721 132.871 740.699C132.39 740.623 132.065 740.828 131.886 741.267C131.729 741.656 131.939 741.902 132.24 742.106Z" fill="url(#paint23_radial_905_8)"/>
<path d="M103 816C103 816.733 102.4 817.333 101.667 817.333H59C58.2667 817.333 57.6667 816.733 57.6667 816V766.667C57.6667 765.933 58.2667 765.333 59 765.333H64.3333V762.667H59C56.8 762.667 55 764.467 55 766.667V816C55 818.2 56.8 820 59 820H101.667C103.867 820 105.667 818.2 105.667 816V810.666H103V816Z" fill="#272626"/>
<path d="M103 766.667V773.333H105.667V766.667C105.667 764.467 103.867 762.667 101.667 762.667H96.3333V765.333H101.667C102.4 765.333 103 765.933 103 766.667Z" fill="#272626"/>
<path d="M64.3333 770.667V768H60.3333V814.667H100.333V810.667H97.6666V812H62.9999V770.667H64.3333Z" fill="#272626"/>
<path d="M97.6666 773.333H100.333V768H96.3333V770.667H97.6666V773.333Z" fill="#272626"/>
<path d="M94.9998 766.667C94.9998 763.72 92.6132 761.333 89.6665 761.333H86.8665C86.2532 758.293 83.5598 756 80.3332 756C77.1065 756 74.4265 758.293 73.7998 761.333H70.9998C68.0532 761.333 65.6665 763.72 65.6665 766.667V772H94.9998V766.667ZM92.3332 769.333H68.3332V766.667C68.3332 765.2 69.5332 764 70.9998 764H76.3332V762.667C76.3332 760.467 78.1332 758.667 80.3332 758.667C82.5332 758.667 84.3332 760.467 84.3332 762.667V764H89.6665C91.1332 764 92.3332 765.2 92.3332 766.667V769.333Z" fill="#272626"/>
<path d="M81.6667 761.333H79V764H81.6667V761.333Z" fill="#272626"/>
<path d="M100.333 774.667C90.7733 774.667 83 782.44 83 792C83 801.56 90.7733 809.333 100.333 809.333C109.893 809.333 117.667 801.56 117.667 792C117.667 782.44 109.893 774.667 100.333 774.667ZM100.333 806.667C92.24 806.667 85.6667 800.093 85.6667 792C85.6667 783.907 92.24 777.333 100.333 777.333C108.427 777.333 115 783.907 115 792C115 800.093 108.427 806.667 100.333 806.667Z" fill="#272626"/>
<path d="M101.667 780H99V792.467L104.627 799.493L106.707 797.84L101.667 791.533V780Z" fill="#272626"/>
<path d="M70.8934 783.333L69.28 781.72L67.3867 783.613L71.1067 787.333L77.3734 779.493L75.2934 777.84L70.8934 783.333Z" fill="#272626"/>
<path d="M77.3734 790.16L75.2934 788.507L70.8934 794L69.28 792.387L67.3867 794.28L71.1067 798L77.3734 790.16Z" fill="#272626"/>
<path d="M71.1067 808.666L77.3734 800.826L75.2934 799.173L70.8934 804.666L69.28 803.053L67.3867 804.946L71.1067 808.666Z" fill="#272626"/>
<defs>
<radialGradient id="paint0_radial_905_8" cx="0" cy="0" r="1" gradientUnits="userSpaceOnUse" gradientTransform="translate(1060.67 788) scale(860.667 909.904)">
<stop stop-color="#F7C835"/>
<stop offset="1" stop-color="#F7A330"/>
</radialGradient>
<radialGradient id="paint1_radial_905_8" cx="0" cy="0" r="1" gradientUnits="userSpaceOnUse" gradientTransform="translate(153.92 790.308) rotate(90) scale(0.546047 0.616064)">
<stop stop-color="#F7C835"/>
<stop offset="1" stop-color="#F7A330"/>
</radialGradient>
<radialGradient id="paint2_radial_905_8" cx="0" cy="0" r="1" gradientUnits="userSpaceOnUse" gradientTransform="translate(155.583 789.316) rotate(90) scale(0.321318 0.416558)">
<stop stop-color="#F7C835"/>
<stop offset="1" stop-color="#F7A330"/>
</radialGradient>
<radialGradient id="paint3_radial_905_8" cx="0" cy="0" r="1" gradientUnits="userSpaceOnUse" gradientTransform="translate(84.7618 788) rotate(90) scale(70 68.7618)">
<stop stop-color="#F7C835"/>
<stop offset="1" stop-color="#F7A330"/>
</radialGradient>
<radialGradient id="paint4_radial_905_8" cx="0" cy="0" r="1" gradientUnits="userSpaceOnUse" gradientTransform="translate(139.805 742.164) rotate(90) scale(1.15021 1.02066)">
<stop stop-color="#F7C835"/>
<stop offset="1" stop-color="#F7A330"/>
</radialGradient>
<radialGradient id="paint5_radial_905_8" cx="0" cy="0" r="1" gradientUnits="userSpaceOnUse" gradientTransform="translate(112.859 724.981) rotate(90) scale(0.617773 0.865193)">
<stop stop-color="#F7C835"/>
<stop offset="1" stop-color="#F7A330"/>
</radialGradient>
<radialGradient id="paint6_radial_905_8" cx="0" cy="0" r="1" gradientUnits="userSpaceOnUse" gradientTransform="translate(121.671 728.924) rotate(90) scale(0.264328 0.290215)">
<stop stop-color="#F7C835"/>
<stop offset="1" stop-color="#F7A330"/>
</radialGradient>
<radialGradient id="paint7_radial_905_8" cx="0" cy="0" r="1" gradientUnits="userSpaceOnUse" gradientTransform="translate(129.605 735.016) rotate(90) scale(0.227134 0.619608)">
<stop stop-color="#F7C835"/>
<stop offset="1" stop-color="#F7A330"/>
</radialGradient>
<radialGradient id="paint8_radial_905_8" cx="0" cy="0" r="1" gradientUnits="userSpaceOnUse" gradientTransform="translate(150.01 759.513) rotate(90) scale(0.917281 0.617239)">
<stop stop-color="#F7C835"/>
<stop offset="1" stop-color="#F7A330"/>
</radialGradient>
<radialGradient id="paint9_radial_905_8" cx="0" cy="0" r="1" gradientUnits="userSpaceOnUse" gradientTransform="translate(142.556 751.71) rotate(90) scale(0.443519 0.353458)">
<stop stop-color="#F7C835"/>
<stop offset="1" stop-color="#F7A330"/>
</radialGradient>
<radialGradient id="paint10_radial_905_8" cx="0" cy="0" r="1" gradientUnits="userSpaceOnUse" gradientTransform="translate(149.5 763.048) rotate(90) scale(0.673247 0.491492)">
<stop stop-color="#F7C835"/>
<stop offset="1" stop-color="#F7A330"/>
</radialGradient>
<radialGradient id="paint11_radial_905_8" cx="0" cy="0" r="1" gradientUnits="userSpaceOnUse" gradientTransform="translate(137.34 743.623) rotate(90) scale(1.34377 0.989413)">
<stop stop-color="#F7C835"/>
<stop offset="1" stop-color="#F7A330"/>
</radialGradient>
<radialGradient id="paint12_radial_905_8" cx="0" cy="0" r="1" gradientUnits="userSpaceOnUse" gradientTransform="translate(142.398 748.739) rotate(90) scale(0.457309 0.292026)">
<stop stop-color="#F7C835"/>
<stop offset="1" stop-color="#F7A330"/>
</radialGradient>
<radialGradient id="paint13_radial_905_8" cx="0" cy="0" r="1" gradientUnits="userSpaceOnUse" gradientTransform="translate(136.26 747.095) rotate(90) scale(0.764899 0.893185)">
<stop stop-color="#F7C835"/>
<stop offset="1" stop-color="#F7A330"/>
</radialGradient>
<radialGradient id="paint14_radial_905_8" cx="0" cy="0" r="1" gradientUnits="userSpaceOnUse" gradientTransform="translate(150.408 772.434) rotate(90) scale(2.81122 1.35246)">
<stop stop-color="#F7C835"/>
<stop offset="1" stop-color="#F7A330"/>
</radialGradient>
<radialGradient id="paint15_radial_905_8" cx="0" cy="0" r="1" gradientUnits="userSpaceOnUse" gradientTransform="translate(155.004 793.163) rotate(90) scale(0.261233 0.152123)">
<stop stop-color="#F7C835"/>
<stop offset="1" stop-color="#F7A330"/>
</radialGradient>
<radialGradient id="paint16_radial_905_8" cx="0" cy="0" r="1" gradientUnits="userSpaceOnUse" gradientTransform="translate(131.019 736.819) rotate(90) scale(1.06933 0.935378)">
<stop stop-color="#F7C835"/>
<stop offset="1" stop-color="#F7A330"/>
</radialGradient>
<radialGradient id="paint17_radial_905_8" cx="0" cy="0" r="1" gradientUnits="userSpaceOnUse" gradientTransform="translate(147.943 770.182) rotate(90) scale(0.484605 0.25527)">
<stop stop-color="#F7C835"/>
<stop offset="1" stop-color="#F7A330"/>
</radialGradient>
<radialGradient id="paint18_radial_905_8" cx="0" cy="0" r="1" gradientUnits="userSpaceOnUse" gradientTransform="translate(127.004 732.876) rotate(90) scale(0.331476 0.336792)">
<stop stop-color="#F7C835"/>
<stop offset="1" stop-color="#F7A330"/>
</radialGradient>
<radialGradient id="paint19_radial_905_8" cx="0" cy="0" r="1" gradientUnits="userSpaceOnUse" gradientTransform="translate(122.285 733.674) rotate(90) scale(0.611998 0.92464)">
<stop stop-color="#F7C835"/>
<stop offset="1" stop-color="#F7A330"/>
</radialGradient>
<radialGradient id="paint20_radial_905_8" cx="0" cy="0" r="1" gradientUnits="userSpaceOnUse" gradientTransform="translate(143.257 755.474) rotate(90) scale(0.472361 0.874228)">
<stop stop-color="#F7C835"/>
<stop offset="1" stop-color="#F7A330"/>
</radialGradient>
<radialGradient id="paint21_radial_905_8" cx="0" cy="0" r="1" gradientUnits="userSpaceOnUse" gradientTransform="translate(145.453 752.559) rotate(90) scale(0.569429 0.359901)">
<stop stop-color="#F7C835"/>
<stop offset="1" stop-color="#F7A330"/>
</radialGradient>
<radialGradient id="paint22_radial_905_8" cx="0" cy="0" r="1" gradientUnits="userSpaceOnUse" gradientTransform="translate(144.443 752.471) rotate(90) scale(0.35294 0.379702)">
<stop stop-color="#F7C835"/>
<stop offset="1" stop-color="#F7A330"/>
</radialGradient>
<radialGradient id="paint23_radial_905_8" cx="0" cy="0" r="1" gradientUnits="userSpaceOnUse" gradientTransform="translate(133.673 740.841) rotate(90) scale(1.59498 1.84059)">
<stop stop-color="#F7C835"/>
<stop offset="1" stop-color="#F7A330"/>
</radialGradient>
</defs>
</svg>
