<svg width="172" height="216" viewBox="0 0 172 216" fill="none" xmlns="http://www.w3.org/2000/svg">
<path d="M20.4 196.24C20.4 192.6 18.44 190.52 15.04 189.52C18 188.48 19.92 186.56 19.92 183.16C19.92 178.84 16.4 175.92 10.68 175.92C7.24 175.92 4.48 176.76 2.08 178.12L2.8 182.6C4.92 181.36 7.4 180.4 10 180.4C13.16 180.4 14.64 181.76 14.64 183.8C14.64 186.12 12.64 187.56 9.08 187.56H5.28L5.92 191.88H8.88C13.36 191.88 15.2 193.32 15.2 195.92C15.2 198.36 13.28 199.96 10 199.96C7.32 199.96 4.76 199.16 2.36 197.84L1.6 202.4C4.2 203.72 6.96 204.48 10.16 204.48C16.24 204.48 20.4 201.32 20.4 196.24ZM22.715 204H28.035L30.435 197H40.875L43.515 204.28L48.835 203.32L38.715 176.28H33.075L22.715 204ZM35.675 182L39.395 192.68H31.875L35.675 182ZM55.4475 210.28V204H73.5275V210.56L78.5275 209.88V199.24H75.3675V176.4H59.2875L58.5275 182.88C57.5675 190.52 55.3675 194.68 50.4075 199.6V210.28H55.4475ZM63.7675 180.88H70.0875V199.48H56.8875C60.5675 195.56 62.4875 191.56 63.3675 184.32L63.7675 180.88ZM80.2541 204H85.5741L87.9741 197H98.4141L101.054 204.28L106.374 203.32L96.2541 176.28H90.6141L80.2541 204ZM93.2141 182L96.9341 192.68H89.4141L93.2141 182ZM107.276 176.4V186.04C107.276 192.16 110.556 194.76 116.636 194.76C118.476 194.76 120.036 194.56 121.796 194.28V204H127.076V176.4H121.796V189.64C120.116 189.92 118.716 190.08 117.276 190.08C114.276 190.08 112.596 188.84 112.596 185.6V176.4H107.276ZM138 204L150.16 184.6V204H155.4V176.4H150.04L138.12 195.4V176.4H132.92V204H138Z" fill="black"/>
<path d="M153.907 71.8493C153.441 71.619 153.296 71.8711 153.304 72.2771C153.313 72.7734 153.573 72.9569 154.057 72.7983C154.719 72.4311 154.717 72.4218 153.907 71.8493Z" fill="url(#paint0_radial_808_140)"/>
<path d="M155.995 71.4082C155.946 71.15 155.776 71.0099 155.506 70.9944C155.331 71.0488 155.113 71.1017 155.179 71.3366C155.253 71.6089 155.543 71.5902 155.76 71.6322C155.889 71.6587 156.027 71.5747 155.995 71.4082Z" fill="url(#paint1_radial_808_140)"/>
<path d="M153.21 78.0267C153.202 78.0283 153.195 78.0314 153.188 78.0329C153.171 78.0127 153.154 77.9909 153.137 77.9707C153.095 77.2722 153.025 76.5783 152.803 75.9078C152.802 75.9078 152.802 75.9078 152.8 75.9078C152.838 75.8954 152.87 75.8674 152.898 75.8238C153.008 75.2186 153.045 74.6166 152.817 74.0254L152.816 74.0238C152.446 73.3642 152.344 73.3518 151.806 73.9072C151.281 74.0534 150.751 74.0721 150.218 73.9414C150.157 73.8621 150.088 73.7889 150.03 73.708C150.029 73.2942 150.029 72.8804 150.027 72.4681C150.119 71.5363 150.129 70.6044 150.024 69.6725C150.06 67.9006 149.99 66.1348 149.695 64.3831C149.879 63.4186 149.248 62.538 149.404 61.5766C149.672 61.1612 149.698 60.7521 149.382 60.346C149.045 60.2278 149.042 59.94 148.996 59.6755C149.002 59.6009 149.013 59.5262 149.031 59.4515C149.059 59.2353 149 59.0392 148.897 58.8526C148.755 58.7234 148.755 58.3625 148.461 58.487C148.461 58.473 148.461 58.4605 148.462 58.4465C148.511 58.3345 148.48 58.2365 148.428 58.1416C148.704 57.9798 148.625 57.6827 148.625 57.4166C148.523 56.9313 148.377 56.4568 148.268 55.9729C148.151 55.7956 148.171 55.4673 147.847 55.5218C147.847 55.514 147.847 55.5062 147.848 55.4984C147.954 55.3475 147.961 55.2075 147.834 55.0831C147.841 55.08 147.847 55.0768 147.853 55.0737C148.063 54.5401 147.661 54.0905 147.652 53.5865C147.58 53.4029 147.504 53.2224 147.293 53.154C147.292 53.1555 147.289 53.1555 147.287 53.1571C147.281 53.1431 147.275 53.1291 147.268 53.1151C147.385 52.9642 147.371 52.7868 147.339 52.6064C147.312 52.5193 147.283 52.4337 147.256 52.3481C147.396 52.0292 147.345 51.785 147.011 51.6512C147.01 51.6465 147.008 51.6434 147.007 51.6387C146.993 51.6169 146.98 51.5936 146.968 51.5703C146.969 51.5687 146.971 51.5687 146.972 51.5672C147.06 51.4256 147.078 51.2685 147.074 51.1082C147.035 50.8266 147.004 50.5404 146.623 50.5279C146.661 50.489 146.693 50.4455 146.715 50.3941C146.804 50.0768 146.701 49.7843 146.601 49.4887C146.369 48.8027 145.998 48.1741 145.774 47.485C145.721 47.3761 145.643 47.2921 145.535 47.2345C145.467 47.2127 145.401 47.2189 145.337 47.247C145.256 46.5842 145.203 45.9075 144.603 45.4999C144.602 45.4765 144.602 45.4517 144.603 45.4283C144.586 45.3116 144.56 45.1981 144.519 45.0876C144.469 45.0145 144.43 44.9321 144.396 44.8465C144.394 44.7267 144.394 44.6069 144.393 44.4871C144.408 44.3782 144.396 44.2709 144.357 44.1682C144.181 43.9566 144.242 43.4868 143.777 43.5895C143.777 43.5755 143.776 43.5615 143.776 43.549C143.776 43.5444 143.776 43.5397 143.774 43.535C143.779 43.4324 143.783 43.3297 143.788 43.227C143.68 43.073 143.574 42.919 143.467 42.7649C143.47 42.5643 143.472 42.3636 143.25 42.3153C143.236 42.292 143.221 42.2687 143.203 42.2469C143.247 42.1847 143.256 42.1084 143.246 42.0275C143.169 41.8082 143.027 41.6153 142.998 41.3788C142.981 41.315 142.959 41.2512 142.929 41.1921C142.831 41.0225 142.708 40.8701 142.608 40.7021C142.472 40.5185 142.395 40.3069 142.306 40.1016C142.201 39.9304 142.094 39.7609 141.969 39.6022C141.9 39.5431 141.833 39.484 141.752 39.4699C141.749 39.4622 141.745 39.4544 141.741 39.4466C141.634 39.2833 141.526 39.1215 141.299 39.1728C141.299 39.1697 141.299 39.1666 141.299 39.1635C141.336 39.1075 141.341 39.0484 141.314 38.9877C141.307 38.9799 141.3 38.9706 141.293 38.9628C141.291 38.8321 141.288 38.6999 141.286 38.5692V38.5676C141.082 38.3778 141.188 38.0698 141.037 37.8613C141.042 37.8598 141.046 37.8598 141.051 37.8582C141.347 37.6046 141.257 37.3122 141.135 37.0166C141.045 36.8735 140.945 36.735 140.973 36.5514C140.657 36.0318 140.898 35.4593 140.82 34.9179C140.797 34.7546 140.853 34.5166 140.615 34.5072C140.529 34.5041 140.435 34.7157 140.346 34.8308C140.13 34.9771 139.997 35.1497 140.139 35.4095C140.075 35.4064 140.016 35.4204 139.961 35.4547C139.96 35.4578 139.957 35.4593 139.955 35.4609C139.756 35.4609 139.556 35.4609 139.357 35.4609C139.332 35.4422 139.307 35.4235 139.28 35.4064C139.174 35.366 139.075 35.3675 138.984 35.4453C138.984 35.4453 138.975 35.4484 138.962 35.4515C138.955 35.4453 138.948 35.4375 138.942 35.4313C138.956 35.4127 138.969 35.394 138.983 35.3753C138.976 35.2617 138.928 35.1668 138.85 35.086C138.845 35.0828 138.839 35.0797 138.835 35.0766C138.873 34.9988 138.864 34.9179 138.796 34.8355V34.8324C138.696 34.781 138.594 34.7281 138.495 34.6768C138.509 34.669 138.523 34.6612 138.537 34.6504C138.685 34.3703 138.546 34.1603 138.376 33.9503C138.118 33.6298 137.851 33.3124 137.641 32.9546C137.313 32.6357 137.235 32.0694 136.67 31.9916C136.652 31.9979 136.637 32.0072 136.623 32.0165C136.606 31.847 136.523 31.7412 136.361 31.7163C136.345 31.7023 136.328 31.6898 136.311 31.6789C136.281 31.4363 136.135 31.2822 135.953 31.1547C135.954 31.1344 135.956 31.1127 135.956 31.0909C135.871 30.7844 135.8 30.467 135.379 30.4748C135.374 30.4748 135.37 30.4748 135.365 30.4748C135.448 30.0361 135.07 29.8074 134.882 29.4947C134.838 29.4325 134.793 29.3718 134.748 29.3112C134.748 29.2831 134.749 29.2551 134.749 29.2287C134.798 29.168 134.808 29.1011 134.785 29.028C134.614 28.7527 134.388 28.5224 134.165 28.2906C134.123 28.2704 134.081 28.2673 134.04 28.275C134.006 28.1568 133.951 28.0479 133.884 27.9452C133.697 27.6901 133.459 27.4816 133.247 27.2498C132.332 26.458 131.644 25.4561 130.79 24.6082C130.472 24.3469 130.291 23.8724 129.757 23.9471C129.668 23.9471 129.579 23.9486 129.49 23.9486C129.487 23.9377 129.487 23.9268 129.482 23.9159C129.397 23.8179 129.308 23.7293 129.175 23.793C129.055 23.3154 128.748 23.0292 128.278 22.9125C128.455 22.5905 128.454 22.2716 128.215 21.9542C128.215 21.9526 128.215 21.9511 128.215 21.9495C128.22 21.9526 128.223 21.9573 128.229 21.9604C128.778 21.8033 128.951 21.3973 128.946 20.8745C128.929 20.8076 128.915 20.7423 128.9 20.6754C128.94 20.5774 128.982 20.4809 129.023 20.3829C129.13 20.2818 129.193 20.1682 129.186 20.0329C129.222 20.0064 129.26 19.9816 129.297 19.9613C129.601 19.6642 129.679 19.3017 129.599 18.8972C129.584 18.8552 129.565 18.8194 129.548 18.7868C129.571 18.7448 129.593 18.7028 129.617 18.6592C129.055 18.194 128.437 18.4523 127.833 18.5223C127.851 18.5659 127.868 18.6094 127.885 18.653C127.889 18.7012 127.894 18.7494 127.899 18.7977C127.818 18.8474 127.79 18.9314 127.783 19.0279C127.79 19.0995 127.804 19.1695 127.832 19.2364C127.938 19.4526 128.01 19.6797 128.048 19.9178C128.064 19.9847 128.083 20.0516 128.109 20.1169C128.268 20.4405 128.175 20.7252 127.972 20.9959C127.966 21.0052 127.957 21.013 127.95 21.0223C127.704 20.7143 127.391 20.5245 126.967 20.5292C127.051 20.2258 126.798 19.9893 126.786 19.7046C126.72 19.4868 126.667 19.2628 126.538 19.0699C126.399 18.9143 126.234 18.8412 126.024 18.8957C125.53 19.1695 125.009 19.2519 124.459 19.1119C124.306 19.1088 124.158 19.1275 124.026 19.213C124.01 19.2286 123.999 19.2426 123.988 19.2581C123.765 18.7105 123.262 18.4787 122.794 18.2065C122.777 18.2034 122.76 18.1987 122.744 18.194C122.741 18.1427 122.737 18.0929 122.733 18.0416C122.568 17.9529 122.376 17.8985 122.288 17.7071C122.121 17.5158 122.006 17.2233 121.659 17.396C121.611 17.3991 121.563 17.3991 121.513 17.3975C121.293 17.1346 121.12 16.8063 120.706 16.8079C120.706 16.8079 120.704 16.8079 120.704 16.8063C120.696 16.8063 120.687 16.8063 120.679 16.8063C120.835 16.4625 120.498 16.3785 120.328 16.2121C120.149 16.0347 119.851 15.9569 119.803 15.6738C119.867 15.6473 119.923 15.61 119.971 15.5587C119.992 15.4918 119.984 15.4295 119.951 15.3704C120.196 15.1713 120.113 14.9364 119.984 14.717C119.792 14.3919 119.781 14.0434 119.792 13.6856C120.991 13.726 122.207 13.5674 123.369 13.9967C123.421 14.0963 123.474 14.1974 123.525 14.297L123.53 14.3001C123.678 14.5086 123.988 14.4214 124.138 14.6284C124.295 14.7295 124.453 14.8306 124.61 14.9317C124.833 14.9115 125.015 14.8384 125.062 14.5879C125.065 14.4448 125.07 14.3017 125.073 14.1585C124.665 14.0699 124.682 13.6374 124.457 13.4009C124.133 13.3216 123.762 13.3729 123.516 13.0711C123.025 13.0073 122.579 12.8486 122.256 12.4472C122.164 12.4395 122.073 12.4317 121.981 12.4239C121.914 12.0708 121.571 12.0054 121.345 11.8187C120.96 11.6492 120.525 11.5652 120.257 11.1918C120.205 11.1887 120.154 11.1871 120.104 11.184C120.048 11.0844 119.992 10.9833 119.936 10.8838C119.828 10.7857 119.722 10.6877 119.614 10.5882C119.565 10.3766 119.513 10.165 119.463 9.95499C119.339 9.94722 119.223 9.92233 119.158 9.79787C118.961 9.70453 118.852 9.55206 118.844 9.33271C118.742 9.33115 118.639 9.33116 118.536 9.3296L118.531 9.33427C118.472 8.45062 117.794 8.76332 117.311 8.70109C117.37 8.54552 117.244 8.47396 117.138 8.39462H117.136C116.876 8.39151 116.617 8.38995 116.357 8.38684C116.04 8.74776 116.439 9.4665 115.732 9.62985C115.42 9.38249 115.11 9.41205 114.801 9.63608C114.496 9.63141 114.19 9.6283 113.885 9.62363C113.816 9.57385 113.749 9.57384 113.682 9.62674C113.682 9.63607 113.682 9.64385 113.682 9.65319C113.336 9.35449 112.84 9.55518 112.482 9.29382C112.406 9.25026 112.337 9.19892 112.273 9.14136C112.237 9.02935 112.158 8.93912 112.038 8.87222C112.041 8.86289 112.044 8.852 112.047 8.84266C112.049 8.76488 112.024 8.69798 111.968 8.64198C111.933 8.61864 111.896 8.60308 111.86 8.59064C111.618 8.45062 111.251 8.68709 111.057 8.40084C110.958 8.39617 110.858 8.38995 110.758 8.38528C110.758 8.38528 110.758 8.37595 110.758 8.3775C110.75 8.18148 110.741 7.98391 110.733 7.78789C110.741 7.67743 110.749 7.56854 110.757 7.45808C110.75 7.08938 110.683 6.71289 110.906 6.37686C110.849 6.32708 110.789 6.27729 110.732 6.22907C110.412 5.84481 109.991 5.65345 109.503 5.59123C109.242 5.38587 108.981 5.18052 108.719 4.97516C108.74 4.63602 108.323 4.62668 108.25 4.35755C107.909 4.34199 107.692 3.94217 107.31 4.05107C106.414 3.74148 105.487 3.71971 104.548 3.70415C103.283 3.68392 102.017 3.6108 100.762 3.42879C100.663 3.32144 100.563 3.2141 100.463 3.10831C100.337 3.10053 100.217 3.08186 100.144 2.96207C99.266 2.80339 98.3838 2.75361 97.4938 2.81428C96.7721 2.81117 96.052 2.80806 95.3303 2.80806C95.0186 2.80806 94.6991 2.83606 94.5276 2.48914C94.5276 2.38646 94.5276 2.28378 94.5292 2.18266C94.4263 2.12977 94.3234 2.07687 94.2206 2.02554C94.0304 1.98509 93.8387 1.94619 93.6485 1.90108C93.3898 1.84041 93.3695 1.94464 93.4225 2.10176C93.368 2.11577 93.3181 2.14221 93.276 2.18422C93.2666 2.4378 93.142 2.46425 92.9237 2.38957C92.5917 2.27756 92.2597 2.13599 91.895 2.17488C91.7719 1.89797 91.5365 1.84974 91.2684 1.87152C91.284 1.88552 91.298 1.89952 91.3136 1.91352C91.2949 1.90263 91.2793 1.89019 91.2684 1.87152C91.217 1.86841 91.1671 1.8653 91.1157 1.86374C91.2061 1.28035 91.8389 1.76573 92.0368 1.39703C92.2254 1.16212 91.9901 1.07188 91.881 0.939649C91.8311 0.944316 91.7828 0.942761 91.7329 0.938094C91.6285 0.941205 91.524 0.944316 91.4196 0.945871C91.0097 0.944316 90.5998 0.941204 90.1883 0.939649C90.1446 0.885199 90.087 0.877421 90.0153 0.922537C89.2141 1.84974 88.1168 1.6086 87.1005 1.63505C86.5675 1.64905 86.103 1.4297 85.8068 0.945871C85.6182 0.497827 85.2145 0.661177 84.8825 0.619172C84.2824 0.364036 83.6465 0.326699 83.0074 0.309586C82.4884 0.309586 81.9694 0.309586 81.4519 0.30803C81.2804 0.31892 81.0949 0.284695 80.9812 0.465157L80.9905 0.474491C80.9905 0.479158 80.9905 0.483826 80.9905 0.488493C80.9874 0.480715 80.9843 0.472936 80.9812 0.465157C80.6616 0.410707 80.3655 0.314254 80.2018 0C80.046 0 79.8901 0 79.7342 0C79.5784 0 79.4225 0 79.2666 0C78.9549 0 78.6432 0 78.3314 0C77.9153 0 77.5006 0 77.0845 0C76.6683 0 76.2537 0 75.8375 0C75.6302 0 75.4214 0 75.2141 0C75.0068 0 74.7979 0 74.5906 0C74.4893 0.1089 74.3864 0.216243 74.2851 0.325143C73.9796 0.64562 73.5821 0.626951 73.1878 0.623839C72.9696 0.670511 72.7545 0.726516 72.583 0.874309C72.5378 0.891422 72.4926 0.908535 72.4474 0.925648C72.1201 0.941205 71.7756 0.850973 71.4857 1.09055C71.3828 1.09522 71.28 1.09989 71.1787 1.10455C71.0727 1.10144 70.9667 1.09833 70.8607 1.09522C70.8545 1.24768 70.8467 1.39858 70.8404 1.55104C70.7001 1.82174 70.4757 2.00687 70.2232 2.16555V2.17333C70.1234 2.28378 70.0252 2.39424 69.9255 2.50469C69.5888 2.87807 68.9965 2.71005 68.6645 3.09586C68.5102 3.10209 68.3575 3.10987 68.2032 3.11609C67.999 3.21877 67.854 3.43345 67.5968 3.43812C67.5376 3.43034 67.4768 3.42101 67.4176 3.41323C67.3163 3.4179 67.215 3.42101 67.1136 3.42568C66.8019 3.63259 66.4886 3.83794 66.1769 4.04485C66.074 4.0993 65.9727 4.15375 65.8698 4.2082C65.8901 4.41977 65.7966 4.65936 66.0194 4.8227C65.8979 5.21786 65.5596 5.39676 65.2432 5.599C65.1388 5.70324 65.0359 5.80591 64.9315 5.91015C64.2223 6.1435 63.5053 6.31774 62.7493 6.22284C62.1243 6.32241 61.4977 6.42198 60.8727 6.52154C60.3568 6.40175 59.7411 6.80624 59.3125 6.22751C59.2112 6.22596 59.1098 6.22284 59.0085 6.22129C58.41 5.93348 57.9097 6.12172 57.4576 6.54021V6.53865C57.3252 6.61644 57.2254 6.70356 57.3111 6.84046C57.3065 6.83891 57.3002 6.8389 57.2955 6.8389C57.294 6.8389 57.2924 6.84046 57.2909 6.84046C57.1397 6.85135 56.99 6.86224 56.8388 6.87313C56.8373 6.92136 56.8357 6.96959 56.8357 7.01781C56.8155 7.02248 56.7936 7.0287 56.7734 7.03493C56.5879 7.10804 56.4648 7.24028 56.3884 7.41763C55.9333 7.33673 55.7945 7.88746 55.4329 7.9948C55.3363 8.10059 55.2287 8.19549 55.143 8.31061C55.1399 8.31839 55.1368 8.32617 55.1337 8.3355C55.0729 8.32461 55.0121 8.34172 54.9513 8.39151C54.9045 8.39773 54.8578 8.4024 54.8095 8.40862C54.5632 8.85511 54.0971 9.04802 53.7215 9.3436C53.7168 9.44161 53.7121 9.53962 53.7075 9.63763C53.6467 9.74031 53.5874 9.84298 53.5267 9.94411C53.4768 9.93788 53.4347 9.95188 53.3989 9.98767C53.0294 10.0888 52.7629 10.3595 52.4574 10.5648C51.9212 10.5773 51.463 10.9615 50.9081 10.8915L50.9096 10.8946C50.8286 10.9631 50.8146 11.0393 50.8504 11.1233C50.813 11.1031 50.7725 11.0876 50.7273 11.0798C50.0009 11.3162 49.3697 11.7814 48.6075 11.9479C48.4033 11.993 48.2443 12.1999 48.4126 12.4426C48.4111 12.4426 48.4095 12.4426 48.408 12.4426C48.3971 12.4472 48.3862 12.4519 48.3737 12.455C48.0354 12.511 47.8375 12.7148 47.7767 13.0571C47.3824 12.8875 47.1049 13.3744 46.7199 13.2547C46.6903 13.2671 46.6638 13.2842 46.6373 13.3013C46.603 13.2484 46.5687 13.1971 46.5344 13.1442C46.4877 13.1178 46.4394 13.0913 46.3926 13.0649C46.4175 12.7304 46.5516 12.4612 46.8509 12.2886C46.8477 12.1345 46.8446 11.9805 46.8431 11.8265C46.8477 11.7721 46.8509 11.7192 46.8555 11.6647C46.4378 11.6134 46.0201 11.5605 45.6024 11.5092C45.3389 11.5014 45.1924 11.7176 44.9898 11.8296C44.9555 12.0988 45.1987 12.2326 45.2937 12.4379C45.3966 12.4877 45.4995 12.5359 45.6039 12.5857C45.7021 12.7444 45.6803 12.9062 45.6133 13.068C45.4636 13.264 45.4636 13.46 45.5992 13.656C45.5478 13.7027 45.5197 13.7665 45.5104 13.8443C45.5151 13.9127 45.5307 13.9765 45.565 14.0372C45.66 14.157 45.7317 14.2845 45.738 14.4401C45.7426 14.5879 45.7333 14.7357 45.6896 14.8804C45.4792 15.1713 45.1207 14.9924 44.8651 15.1402C44.8106 15.1682 44.7685 15.2055 44.7311 15.246C44.7124 15.2444 44.6921 15.2429 44.6734 15.2429C44.5658 15.344 44.4567 15.4451 44.3492 15.5462C44.3367 15.5462 44.3258 15.5649 44.3149 15.6038C44.3149 15.6053 44.3149 15.6053 44.3149 15.6069C44.3009 15.6162 44.2868 15.6256 44.2728 15.6365C44.0452 15.8698 43.7522 16.0534 43.6961 16.4128C43.6992 16.419 43.7023 16.4252 43.7055 16.4314C43.6992 16.4361 43.6914 16.4376 43.6852 16.4423C43.4529 16.2556 43.1833 16.2992 42.9152 16.3459C42.8435 16.3692 42.7749 16.3956 42.711 16.4299C42.5863 16.3676 42.4585 16.4034 42.3291 16.4843C42.0081 16.6554 41.9286 17.021 41.6963 17.2637C41.7384 17.3042 41.7789 17.3446 41.821 17.3851C41.8101 17.3944 41.7961 17.4022 41.7852 17.4115C41.5482 17.718 41.33 18.0369 41.1305 18.3683C41.0682 18.3683 41.0043 18.3683 40.9419 18.3667C40.8297 18.5674 40.7175 18.7681 40.6052 18.9688C40.4026 19.2784 40.0893 19.5428 40.2078 19.9784C40.2265 20.0158 40.253 20.0438 40.2826 20.0656C40.0036 20.0656 40.1018 20.2865 40.0753 20.4343C40.0332 20.6707 40.1641 20.929 39.9833 21.1468C39.5828 21.2261 39.3303 21.5186 39.059 21.7846C38.4745 22.3665 37.8604 22.8518 36.9689 22.41C36.9486 22.4007 36.919 22.41 36.8925 22.41C36.8847 22.508 36.8769 22.6045 36.8707 22.7025C36.3033 23.3668 36.6805 24.1617 36.5667 24.8898C36.5667 24.9909 36.5667 25.0921 36.5667 25.1947C36.4171 25.2399 36.2659 25.2834 36.1178 25.3145C35.9199 25.3176 35.7235 25.3239 35.5271 25.3456C35.2808 25.3036 35.0517 25.1761 34.8475 24.8945C34.6948 24.7591 34.5389 24.7654 34.3799 24.8836C34.3799 24.8836 34.3721 24.882 34.3721 24.8836C34.3737 24.9863 34.3752 25.089 34.3768 25.1916L34.3861 25.2025C34.2879 25.3083 34.1913 25.4141 34.0931 25.5214H34.0869C33.9669 25.6428 33.9918 25.8046 33.9684 25.9539C33.9684 25.9555 33.97 25.9586 33.9715 25.9602C33.8047 25.9819 33.8811 26.2246 33.7705 26.2977C33.6645 26.5544 33.5585 26.8111 33.454 27.0678C33.4603 27.1721 33.465 27.2763 33.4712 27.3805C33.4618 27.3976 33.4525 27.4147 33.4463 27.4334C33.4088 27.5252 33.3823 27.6185 33.359 27.7134C33.2623 27.9079 33.1454 28.0946 33.1688 28.3264C33.0971 28.5971 33.1345 28.9642 32.6731 28.9004C32.4752 28.9471 32.2149 28.9051 32.204 29.2131C32.1962 29.2225 32.19 29.2303 32.1837 29.2396C32.1385 29.2411 32.0933 29.2427 32.0481 29.2443C31.9936 29.5523 31.9375 29.8603 31.8829 30.1684C31.6849 30.3939 31.646 30.6802 31.5836 30.9571C31.2142 31.2107 30.8557 31.4954 30.3616 31.4316C30.251 31.5327 30.1387 31.6338 30.0281 31.735C29.9813 31.735 29.933 31.7365 29.8862 31.7396C29.8722 31.7147 29.8535 31.6914 29.8254 31.6681C29.6696 31.598 29.5293 31.6136 29.4062 31.7396V31.7412C29.0835 32.1161 28.75 32.4786 28.3821 32.81C27.8522 33.3218 27.3705 33.8678 27.0993 34.5663C27.1009 34.655 27.1196 34.7359 27.1695 34.8028C27.1617 34.8153 27.1523 34.8261 27.1445 34.8386C27.09 34.9459 27.065 35.0595 27.0681 35.1793C27.0713 35.2229 27.0806 35.2649 27.0915 35.3053C26.7252 35.7782 26.3574 36.2496 25.9895 36.7226C25.9007 36.7832 25.8524 36.8688 25.8368 36.973C25.8337 37.0119 25.8337 37.0524 25.8368 37.0897C25.7807 37.1224 25.7246 37.155 25.67 37.1877C25.5671 37.446 25.4643 37.7042 25.3598 37.9625L25.3552 37.9702C25.112 38.2549 24.9032 38.5583 24.7753 38.9099C24.7457 38.9301 24.7161 38.955 24.6881 38.9768C24.646 39.025 24.6086 39.0748 24.5774 39.1308C24.5244 39.1588 24.473 39.1868 24.42 39.2133C24.3857 39.3377 24.3498 39.4606 24.3155 39.5851C24.2859 39.6286 24.2547 39.6722 24.222 39.7142C24.1908 39.7593 24.1628 39.806 24.1378 39.8542C23.597 40.0611 23.4396 40.5107 23.4458 41.0661C23.0016 41.0303 22.9143 41.3928 22.7709 41.6946C22.7537 41.8129 22.774 41.9217 22.8551 42.0135C22.7023 42.1162 22.5511 42.2189 22.3984 42.3216L22.3968 42.32C22.2487 42.5331 22.0617 42.7167 21.9292 42.9423V42.9454C21.764 43.059 21.7328 43.2628 21.6175 43.4106L21.619 43.4121C21.6206 43.4806 21.6221 43.5475 21.6253 43.6159C21.5988 43.6424 21.5738 43.6735 21.552 43.7062C21.5146 43.8213 21.5255 43.9271 21.6097 44.0173C21.5333 44.0733 21.5006 44.1573 21.4834 44.2538C21.6066 44.834 20.9379 45.0612 20.902 45.5699C20.9067 45.6041 20.9176 45.6368 20.9332 45.6663C20.9239 45.6741 20.9145 45.6819 20.9036 45.6881C20.6947 45.9168 20.4765 46.1408 20.5732 46.4924C20.5809 46.5095 20.5887 46.5251 20.5965 46.5422C20.4453 46.6075 20.344 46.76 20.1804 46.8051C20.012 46.8658 19.8343 46.8611 19.6598 46.886C19.4478 46.9171 19.2904 47.0058 19.4073 47.2345C18.9646 47.6312 18.8493 48.2006 18.6575 48.728C18.6544 48.7669 18.6544 48.8058 18.656 48.8447C18.6045 48.8493 18.5547 48.854 18.5032 48.8587C18.4471 49.0096 18.391 49.1605 18.3349 49.3114L18.2881 49.3098C18.2881 49.6474 17.8907 49.7672 17.8595 50.0877C17.8564 50.2868 17.8548 50.4859 17.8517 50.6851C17.5322 50.7753 17.5711 51.0273 17.5618 51.2638C17.5602 51.2809 17.5587 51.298 17.5587 51.3151C17.5587 51.3167 17.5587 51.3182 17.5587 51.3198C17.5384 51.5609 17.6304 51.827 17.4729 52.0432C17.4137 52.0432 17.3545 52.0463 17.2937 52.0572C17.0615 52.1319 16.9695 52.345 16.8401 52.5208C16.7466 52.6593 16.611 52.6935 16.4551 52.6717C16.2977 52.653 16.134 52.5924 16 52.7386C16 52.9984 16 53.2567 16 53.5165C16 53.8276 16 54.1387 16 54.4499C16.1621 54.5417 16.2213 54.7844 16.4598 54.7673C16.8292 55.2946 17.2984 55.7116 17.8673 56.0149C17.9717 56.1145 18.0777 56.2156 18.1821 56.3152C18.7027 56.4879 18.8945 56.771 18.4923 57.2486C18.4128 57.3777 18.3817 57.5069 18.4424 57.6344C18.4206 57.678 18.3972 57.7215 18.3723 57.7636C18.2227 58.2738 18.3458 58.7172 18.7012 59.103C18.7214 59.1217 18.7448 59.1373 18.7682 59.1497C18.6014 59.3068 18.7012 59.5993 18.4954 59.7378C18.3926 59.7346 18.2897 59.7331 18.1853 59.73C17.9328 59.744 17.5026 59.3877 17.5556 60.0333C17.4496 60.3507 17.3436 60.6665 17.2376 60.9839C17.275 61.3386 17.2095 61.6622 16.957 61.9313C16.6391 63.6037 17.2579 65.161 17.5462 66.7587C17.5462 66.7587 17.5462 66.7587 17.5462 66.7602C17.5446 66.9018 17.5431 67.0418 17.5415 67.1834C17.2189 67.5536 17.5867 68.0841 17.2485 68.4497L17.2516 68.4513C17.0677 69.573 16.6671 70.7522 18.0762 71.4367C18.1198 71.4569 18.1463 71.5114 18.1821 71.5487L18.1899 71.5627C18.3068 71.8785 18.2975 72.1943 18.1946 72.5117C18.1899 72.6097 18.1837 72.7062 18.179 72.8042C18.271 73.4047 18.0185 73.9554 17.9094 74.5263C17.8595 74.6648 17.8065 74.8033 17.7504 74.9402C17.7223 75.0195 17.699 75.1004 17.688 75.1844C17.6491 75.424 17.6413 75.6605 17.6538 75.8969C17.6148 76.9875 18.0403 78.0687 17.7707 79.1624C17.7566 79.3195 17.7426 79.4782 17.7286 79.6353C17.8314 79.6322 17.9359 79.6291 18.0387 79.626C19.2623 79.6431 19.6411 80.0709 19.3995 81.1863C19.3293 81.5115 19.2124 81.8257 19.1158 82.1462C18.8461 82.5772 18.776 83.0283 18.7713 83.4857C18.7604 83.5728 18.7542 83.6615 18.762 83.7502C18.7807 83.9726 18.7199 84.2309 18.8087 84.4284C18.8165 84.598 18.8228 84.766 18.8165 84.9341C18.8134 85.0336 18.8119 85.1332 18.8087 85.2343C19.7439 85.1721 19.0503 85.7493 19.1205 86.0262C19.0082 86.2222 18.8695 86.3933 18.6607 86.4944C18.6622 86.6002 18.6638 86.7076 18.6669 86.8134L18.6482 86.8009C18.4269 86.9456 18.3567 87.1867 18.2554 87.4076C18.0419 87.3952 17.9904 87.613 17.8813 87.7468C17.7753 87.9521 17.6678 88.1559 17.5618 88.3613C17.4636 88.366 17.3654 88.3706 17.2656 88.3753C17.2594 88.4733 17.2532 88.5697 17.2469 88.6678C17.2423 88.7689 17.236 88.87 17.2314 88.9711C17.088 89.5436 16.3336 89.0816 16.159 89.6027C16.106 89.6027 16.053 89.6027 16 89.6012C16 89.9637 16 90.3277 16 90.6902C16.159 90.7369 16.3164 90.7835 16.4754 90.8302C16.7248 90.8318 16.9757 90.8333 17.2251 90.8349C17.6538 90.5517 18.0606 91.076 18.4876 90.8815C18.4923 90.9204 18.4954 90.9578 18.4986 90.9967C18.497 91.1024 18.497 91.2067 18.4954 91.3125C18.497 91.3638 18.4954 91.4151 18.4892 91.4665C18.4393 91.5769 18.2227 91.5225 18.1759 91.6361C18.1712 91.6361 18.1666 91.6361 18.1634 91.6361C18.0465 91.6516 17.9499 91.7029 17.8751 91.7947C17.6631 91.9456 17.4511 92.0965 17.2391 92.2475C17.0256 92.3315 16.9633 92.5119 16.9368 92.7157C16.6936 92.9351 16.6921 92.9631 16.9336 93.0409C17.2485 93.3956 17.0615 94.0054 17.5556 94.2699C17.5509 94.3757 17.5462 94.4815 17.5431 94.5872C17.6491 94.693 17.7551 94.7973 17.8611 94.9031C17.9639 94.9015 18.0652 94.9015 18.1681 94.8999C18.4845 95.2593 18.8009 95.6202 19.1174 95.9796C19.1236 96.1305 19.1298 96.2799 19.1345 96.4308C19.1859 96.5334 19.2374 96.6361 19.2888 96.7372C19.4369 96.7466 19.5865 96.7543 19.7361 96.7621C19.7471 96.9613 19.758 97.1604 19.7673 97.358C19.8671 97.4606 19.9668 97.5649 20.0666 97.6675C20.2973 97.8247 20.4952 98.0067 20.5248 98.307C20.5264 98.5139 20.528 98.7192 20.5311 98.9261C20.7337 99.1517 20.9363 99.3819 21.1467 98.9339C21.6315 98.9261 22.1287 98.895 22.2456 99.5468C22.3454 99.55 22.4436 99.5546 22.5433 99.5577C22.64 99.8175 22.7366 100.079 22.8332 100.339C22.9268 100.854 22.7693 101.397 22.9657 101.899C22.9735 102.103 22.9875 102.305 23.0172 102.507C23.039 102.588 23.0655 102.666 23.0982 102.738C23.1247 102.92 23.1512 103.103 23.1777 103.285C23.173 103.389 23.1683 103.495 23.1621 103.599C23.2712 103.701 23.3788 103.803 23.4879 103.904C23.5705 104.292 23.9477 104.494 24.0864 104.847L24.1129 104.835C24.1098 104.942 24.1051 105.048 24.102 105.155L24.1113 105.152C24.1565 105.544 24.4402 105.454 24.6771 105.455C24.6881 105.469 24.7005 105.485 24.7146 105.497C24.7348 105.507 24.7535 105.51 24.7722 105.511C24.7613 105.886 25.0777 106.09 25.2398 106.376C25.2835 106.431 25.3302 106.479 25.3848 106.523C25.5516 106.639 25.709 106.765 25.8462 106.916C25.8945 106.966 25.9443 107.014 25.9973 107.058C26.0176 107.069 26.0363 107.081 26.0566 107.092C26.253 107.455 26.7798 107.54 26.9092 107.957C26.9887 108.035 27.0791 108.049 27.1788 107.999C27.1882 107.99 27.1975 107.98 27.2069 107.971L27.2084 107.973C27.1928 107.99 27.1788 108.007 27.1632 108.024C27.0947 108.326 27.2708 108.544 27.4952 108.638C27.9987 108.853 28.2013 109.287 28.418 109.718C28.3899 109.771 28.365 109.83 28.3385 109.886C28.2808 110.141 28.2559 110.39 28.4741 110.594C28.7391 111.058 29.0025 111.523 29.2674 111.986C29.3142 111.986 29.3594 111.985 29.4062 111.982C29.8177 112.231 30.0405 112.716 30.4941 112.912C30.6438 113.55 31.1784 113.741 31.7005 113.945C31.7302 113.943 31.7582 113.937 31.7831 113.928C31.9281 114.108 32.0746 114.29 32.2196 114.471C32.2804 114.703 32.5485 114.833 32.5235 115.106C32.6186 115.456 32.7184 115.754 32.589 116.173C32.3552 116.932 33.0083 117.4 33.4478 117.91C34.0386 118.152 34.2459 118.779 34.6994 119.157C34.8054 119.248 34.9114 119.234 35.0174 119.16C35.0174 119.363 35.019 119.567 35.019 119.771C35.2465 119.961 35.3182 120.311 35.658 120.384C35.7063 120.39 35.7562 120.396 35.8045 120.403C35.8076 120.518 35.8373 120.624 35.9012 120.72C36.0789 120.922 36.2939 121.067 36.5465 121.157C36.5963 121.167 36.6462 121.179 36.6961 121.191C36.8738 121.386 37.1325 121.454 37.3866 121.523C37.943 121.674 38.5057 121.809 39.0637 121.951C39.6046 121.958 39.059 122.464 39.3552 122.584C39.3848 123.016 39.5796 123.34 39.9849 123.522C40.2561 123.875 40.5569 124.2 40.9419 124.437C40.984 124.595 41.0916 124.693 41.2365 124.757C41.3394 124.863 41.4438 124.97 41.5467 125.076C41.5498 125.173 41.5529 125.269 41.556 125.365C41.927 125.305 42.1468 125.664 42.485 125.695C42.538 125.691 42.5926 125.686 42.6455 125.681C42.725 125.684 42.8045 125.686 42.884 125.689C42.9464 125.72 43.0103 125.75 43.0711 125.782C43.1412 125.81 43.2129 125.832 43.2862 125.846C43.2908 125.846 43.2955 125.848 43.3002 125.848C43.6275 126.047 43.9923 126.02 44.357 125.999C44.5066 126.034 44.6547 126.075 44.8012 126.125C44.8667 126.142 44.9337 126.154 45.0007 126.162C45.0646 126.57 45.0833 126.985 45.194 127.386C45.353 127.612 45.5353 127.783 45.819 127.735C46.0668 128.191 46.5578 128.436 46.8181 128.88C47.1595 129.031 47.2717 129.6 47.7798 129.445C47.6349 129.964 48.0729 130.008 48.3784 130.16C48.3893 130.162 48.4002 130.16 48.4126 130.16C48.4173 130.221 48.4204 130.281 48.4251 130.342C49.2403 130.806 49.8217 131.612 50.7444 131.917C51.1388 132.564 51.9789 132.374 52.473 132.834C52.6164 132.956 52.7691 133.062 52.9328 133.153C53.0669 133.258 53.2227 133.298 53.3879 133.304C53.4456 133.301 53.5002 133.29 53.55 133.27C53.6545 133.338 53.7605 133.407 53.8649 133.474C53.9226 133.468 53.9802 133.461 54.0379 133.455C54.5975 133.636 55.1165 133.881 55.5109 134.331C55.422 134.381 55.3643 134.449 55.408 134.574C55.4641 134.62 55.5187 134.669 55.5748 134.715C55.7306 134.922 56.0143 134.879 56.1982 135.031C56.2029 135.131 56.206 135.23 56.2107 135.33C56.2699 135.417 56.3572 135.462 56.4539 135.492C56.6518 135.534 56.817 135.652 56.9932 135.737C57.0586 135.759 57.1272 135.772 57.1958 135.773C57.2893 135.768 57.3719 135.74 57.4421 135.683C57.548 135.932 57.7179 136.078 58.0172 136.013C58.0219 136.008 58.0266 136.003 58.0297 135.999C58.0312 136 58.0344 136.002 58.0359 136.003C57.9782 136.1 57.986 136.198 58.0499 136.294C58.145 136.352 58.2385 136.357 58.3305 136.307C58.2946 136.402 58.3056 136.495 58.3726 136.585C58.3788 136.63 58.3851 136.675 58.3897 136.721C58.5955 136.778 58.8012 136.834 59.007 136.892C59.2969 137.019 59.5213 137.318 59.8923 137.239C59.9094 137.218 59.9219 137.201 59.9313 137.184C59.9344 137.19 59.9375 137.197 59.9406 137.203C59.9406 137.203 59.9422 137.203 59.9422 137.204C59.9952 137.306 60.0482 137.408 60.1012 137.509C60.151 137.509 60.2009 137.512 60.2508 137.517C60.4784 137.484 60.6779 137.562 60.8727 137.662C60.8446 137.707 60.8462 137.757 60.8836 137.814C61.4011 137.816 61.917 137.819 62.4345 137.82C62.7478 137.614 63.0611 137.407 63.3744 137.2C63.3744 137.139 63.3744 137.078 63.3744 137.018C63.3791 137.013 63.3853 137.01 63.39 137.005C63.524 136.884 63.6612 136.766 63.6846 136.57L63.6861 136.568C63.6986 136.596 63.7173 136.626 63.7438 136.661C64.3252 136.823 64.8941 136.713 65.4614 136.579C65.7591 136.431 66.2268 136.427 66.0428 135.879C66.0023 135.815 65.954 135.758 65.8963 135.708C65.8496 135.678 65.8059 135.644 65.7638 135.608C65.7186 135.51 65.6984 135.412 65.8433 135.313C65.9805 135.198 65.9898 135.068 65.9088 134.932C65.9322 134.942 65.954 134.953 65.9805 134.96C66.0756 134.969 66.166 134.95 66.2517 134.908C66.3343 134.865 66.4169 134.823 66.5026 134.785C66.7333 134.712 66.95 134.776 67.1682 134.844C67.455 134.916 67.72 134.978 67.4986 135.389C67.3646 135.638 67.3506 135.926 67.614 136.143C67.6483 136.148 67.681 136.147 67.7122 136.137C67.7262 136.229 67.7402 136.321 67.7527 136.414C68.1252 136.694 68.504 136.962 68.9747 137.058C68.9794 137.102 68.984 137.145 68.9872 137.187C69.2272 137.226 69.447 137.307 69.62 137.488C69.8772 137.495 70.1063 137.554 70.2419 137.802C70.4804 137.845 70.8108 137.722 70.8498 138.132C71.0571 138.237 71.2628 138.343 71.4701 138.449C71.5403 138.563 71.6494 138.601 71.7756 138.603C71.7756 138.651 71.7803 138.699 71.7897 138.748C72.0655 138.782 72.3446 138.802 72.6173 138.853C73.5369 139.026 74.4534 139.21 75.3715 139.39C75.5071 139.468 75.6427 139.508 75.7799 139.429C75.7923 139.432 75.8032 139.435 75.8157 139.438C75.8017 139.634 76.0745 139.572 76.154 139.684C76.2568 139.686 76.3597 139.686 76.4626 139.687C76.8647 139.848 77.3198 139.792 77.7095 139.998C77.8139 139.998 77.9168 139.998 78.0212 139.998C78.333 139.998 78.6447 139.998 78.9564 139.998C79.1638 139.998 79.3726 139.998 79.5799 139.998C79.8917 139.998 80.2034 139.998 80.5151 139.998C81.243 139.998 81.9694 139.998 82.6973 139.998C84.6706 139.998 86.6454 139.998 88.6187 139.998C88.9304 139.998 89.2421 139.998 89.5539 139.998C89.6583 139.998 89.7612 139.998 89.8656 139.998C90.2818 139.998 90.6964 139.998 91.1126 139.998C91.3199 139.998 91.5287 139.998 91.736 139.998C91.8405 139.998 91.9433 139.998 92.0478 139.998C92.1319 139.913 92.1616 139.807 92.1506 139.69C92.1179 139.518 92.0821 139.347 91.9917 139.199C92.0665 139.203 92.1397 139.197 92.2145 139.182C92.2707 139.172 92.3252 139.16 92.3813 139.147C92.4764 139.158 92.5746 139.124 92.6728 139.071C93.0251 139.068 93.3773 139.065 93.7311 139.062C93.7374 139.065 93.742 139.067 93.7483 139.07C93.7982 139.113 93.8465 139.16 93.8963 139.205C93.9228 139.231 93.9447 139.259 93.9618 139.289C93.9992 139.526 94.0382 139.764 94.0756 140C94.127 140 94.18 140 94.2315 140C94.3873 140 94.5432 140 94.6991 140C94.8549 140 95.0108 140 95.1667 140C95.1713 139.899 95.1776 139.798 95.1823 139.697C95.1745 139.641 95.1667 139.586 95.1589 139.53C95.2727 139.245 95.6561 139.121 95.6249 138.751C95.6842 138.703 95.7418 138.653 95.8011 138.605C96.2998 138.643 96.8158 138.651 97.0511 139.222C96.9202 139.501 96.5742 139.645 96.5695 140C96.7253 140 96.8812 140 97.0371 140C97.2444 140 97.4533 140 97.6606 140C97.8585 139.849 97.7868 139.558 97.9707 139.4C98.072 139.284 98.1733 139.169 98.2747 139.054C98.3729 138.972 98.3744 138.872 98.3246 138.765C98.3214 138.762 98.3167 138.76 98.3136 138.757C98.4352 138.679 98.5646 138.609 98.5833 138.441C98.6394 138.393 98.6955 138.346 98.7516 138.298C98.9917 138.479 99.2317 138.318 99.4749 138.307C99.916 138.289 100.407 138.184 100.652 138.731C100.929 138.821 101.093 139.165 101.456 139.068C102.061 138.908 102.67 138.763 103.278 138.611C103.434 138.609 103.59 138.612 103.744 138.606C104.06 138.594 104.449 138.569 104.547 138.259C104.653 137.929 104.18 137.897 104.028 137.671C103.914 137.428 103.845 137.178 103.923 136.909C104.219 136.795 104.516 136.68 104.812 136.567C105.3 135.922 106.051 136.209 106.673 136.041C106.824 135.871 107.145 135.982 107.274 135.776C107.31 135.768 107.348 135.759 107.384 135.745C107.455 135.709 107.527 135.678 107.6 135.652C107.843 135.642 108.079 135.604 108.299 135.502C108.405 135.493 108.51 135.488 108.618 135.487C109.174 135.324 109.697 135.067 110.261 134.928C110.287 134.908 110.308 134.891 110.329 134.872C110.473 134.967 110.608 134.83 110.749 134.816C110.925 134.706 111.101 134.597 111.237 134.435C111.243 134.435 111.246 134.417 111.249 134.39C111.595 134.284 111.941 134.179 112.286 134.073C112.348 133.979 112.409 133.886 112.471 133.791C112.516 133.791 112.561 133.79 112.607 133.785C112.61 133.796 112.613 133.807 112.618 133.819C112.728 133.883 112.833 133.869 112.932 133.793C113.155 133.799 113.355 133.726 113.542 133.612C113.545 133.567 113.55 133.522 113.556 133.477C113.606 133.475 113.656 133.474 113.706 133.475C113.737 133.418 113.769 133.359 113.801 133.301C113.821 133.3 113.841 133.298 113.861 133.295C114.003 133.265 114.131 133.206 114.246 133.121C114.292 133.077 114.334 133.034 114.349 132.982C114.394 132.97 114.438 132.956 114.48 132.936C114.521 132.906 114.558 132.873 114.589 132.839C114.726 132.825 114.848 132.775 114.956 132.697C115.012 132.704 115.068 132.707 115.126 132.704C115.236 132.691 115.345 132.677 115.448 132.634C115.511 132.606 115.568 132.573 115.623 132.537C115.66 132.539 115.699 132.542 115.737 132.543C116.312 132.445 116.669 132.057 116.979 131.609C117.029 131.605 117.077 131.604 117.127 131.605C117.205 131.335 117.607 131.321 117.613 130.994C117.928 130.901 118.134 130.694 118.246 130.389C118.257 130.389 118.265 130.37 118.274 130.342C118.279 130.339 118.285 130.334 118.29 130.331C118.522 130.165 118.771 130.02 119.005 129.855C119.061 129.807 119.111 129.751 119.148 129.687C119.189 129.597 119.201 129.511 119.152 129.432C119.156 129.432 119.159 129.432 119.164 129.432C119.172 129.432 119.181 129.432 119.189 129.432C119.184 129.435 119.18 129.44 119.175 129.443C119.275 129.44 119.376 129.437 119.476 129.435C119.685 129.332 119.828 129.11 120.088 129.101C120.297 128.852 120.533 128.603 120.098 128.345C120.102 128.292 120.105 128.237 120.11 128.184C120.096 128.135 120.093 128.083 120.096 128.03C120.197 127.794 120.244 127.554 120.135 127.309C120.16 127.332 120.19 127.351 120.224 127.366C120.377 127.411 120.519 127.402 120.643 127.318C120.607 127.399 120.6 127.484 120.617 127.576C120.695 127.828 120.914 127.931 121.12 128.046C121.334 128.145 121.535 128.276 121.77 128.323C122.055 128.354 122.33 128.309 122.593 128.195C122.696 128.191 122.799 128.187 122.9 128.183C123.098 128.049 123.362 128.121 123.555 127.974C123.732 127.881 123.913 127.795 124.096 127.711C124.156 127.682 124.214 127.649 124.27 127.609C124.465 127.379 124.764 127.431 125.008 127.329C125.229 127.217 125.466 127.155 125.709 127.116C126.041 127.063 126.435 127.189 126.655 126.797C126.706 126.795 126.758 126.794 126.808 126.789C126.932 126.683 126.989 126.535 127.046 126.389C127.116 126.213 127.224 126.062 127.346 125.921C127.427 125.817 127.497 125.708 127.511 125.572C127.509 125.533 127.498 125.498 127.481 125.467C127.724 125.421 127.924 125.275 128.147 125.182C128.207 125.143 128.256 125.09 128.29 125.026C128.334 124.883 128.343 124.745 128.228 124.626C128.228 124.626 128.221 124.622 128.215 124.616C128.215 124.614 128.217 124.612 128.217 124.611C128.234 124.623 128.251 124.636 128.268 124.648C128.864 124.413 129.196 124.018 129.161 123.401C129.18 123.393 129.2 123.388 129.224 123.388C129.309 123.354 129.39 123.313 129.461 123.253C129.836 123.698 130.182 123.307 130.538 123.194C130.653 123.128 130.698 123.029 130.689 122.901C131.256 122.785 131.699 122.546 131.691 121.867C131.69 121.865 131.688 121.865 131.688 121.864C131.694 121.856 131.7 121.848 131.707 121.84C131.828 121.86 131.92 121.787 132.009 121.71C132.076 121.626 132.138 121.54 132.132 121.433C132.138 121.434 132.143 121.437 132.149 121.437C132.224 121.433 132.294 121.415 132.361 121.383C132.753 121.075 133.273 120.949 133.571 120.513C133.643 120.354 133.77 120.238 133.875 120.104C133.911 120.006 133.911 119.913 133.85 119.826C133.881 119.85 133.915 119.871 133.957 119.88C134.283 119.877 134.545 119.679 134.843 119.592C135.047 119.496 135.212 119.354 135.321 119.155C135.391 118.956 135.494 118.758 135.388 118.545C135.775 118.559 135.971 118.385 135.993 118.036C136.386 117.957 136.635 117.665 136.916 117.416C136.964 117.364 136.998 117.304 137.02 117.237C137.028 117.167 137.02 117.098 136.994 117.033C136.981 117.022 136.969 117.01 136.955 116.999C137.719 116.901 138.068 116.247 138.563 115.793C138.766 115.484 139.092 115.242 139.104 114.827C139.269 114.796 139.318 114.606 139.422 114.493C139.414 114.27 139.52 113.993 139.252 113.892C139.152 113.502 138.758 113.276 138.672 112.879C138.665 112.854 138.655 112.83 138.644 112.806C139.244 112.338 140.078 112.437 140.702 112.027C140.9 112.021 141.098 112.016 141.296 112.01C141.448 112.007 141.603 112.002 141.755 111.999C141.919 111.741 141.96 111.465 141.812 111.194C141.548 110.715 141.572 110.207 141.618 109.692C141.726 109.584 141.833 109.479 141.941 109.371C141.932 109.32 141.921 109.268 141.911 109.217C141.841 109.188 141.773 109.156 141.702 109.127C141.702 109.125 141.702 109.124 141.701 109.122C141.609 109.048 141.584 108.976 141.634 108.904C141.9 108.995 141.78 108.651 141.914 108.592L141.916 108.589C141.914 108.511 141.914 108.432 141.913 108.354C141.938 108.346 141.961 108.337 141.986 108.324C142.326 108.103 142.437 107.714 142.661 107.408C142.868 107.459 142.984 107.279 143.102 107.131C143.277 106.912 143.436 106.68 143.645 106.49C143.726 106.367 143.829 106.258 143.874 106.114C143.875 106.109 143.875 106.104 143.875 106.1C143.947 106.098 144.019 106.098 144.09 106.096C144.089 105.939 144.087 105.782 144.086 105.625C144.084 105.627 144.081 105.628 144.079 105.63C144.079 105.628 144.079 105.627 144.081 105.623C144.081 105.617 144.083 105.613 144.083 105.606C144.234 105.715 144.323 105.597 144.411 105.482C144.514 105.376 144.616 105.272 144.719 105.166C144.945 105.031 144.87 104.724 145.061 104.57C145.105 104.511 145.147 104.452 145.191 104.394C145.178 104.334 145.15 104.287 145.108 104.254C145.317 103.844 145.562 103.452 145.764 103.039C145.888 102.777 146.022 102.521 146.126 102.251C146.202 102.235 146.268 102.176 146.335 102.122C146.382 102.067 146.424 102.01 146.456 101.946C146.583 101.627 146.869 101.331 146.608 100.955C146.648 100.919 146.679 100.875 146.695 100.824C146.698 100.805 146.7 100.785 146.701 100.767C146.765 100.726 146.829 100.686 146.893 100.645C146.894 100.567 146.894 100.491 146.896 100.413C146.96 100.35 147.013 100.267 147.072 100.197C147.683 98.9557 148.123 97.6489 148.529 96.3312C148.601 96.0978 148.674 95.8598 148.553 95.6358C148.576 95.6093 148.6 95.5829 148.626 95.5596C149.187 94.9217 149.13 94.035 149.519 93.3287C149.462 92.946 149.962 92.6473 149.787 92.2475C149.808 92.2303 149.829 92.2148 149.853 92.2008C150.032 91.9892 150.113 91.7356 150.175 91.4743C150.18 91.4463 150.183 91.4183 150.186 91.3918C150.232 91.3685 150.277 91.3451 150.324 91.3218C150.464 91.2098 150.481 91.0604 150.448 90.8971C150.422 90.8255 150.387 90.7633 150.331 90.7322C150.506 90.4631 150.649 90.1768 150.766 89.8781C150.818 89.6899 150.829 89.5032 150.771 89.3149C150.766 89.304 150.758 89.2947 150.754 89.2854C151.237 89.0458 151.31 88.5666 151.379 88.0859C151.379 88.0828 151.377 88.0813 151.376 88.0781C151.527 88.0704 151.575 87.9101 151.656 87.7997C151.684 87.7343 151.704 87.6659 151.715 87.5959C151.731 87.4528 151.723 87.3143 151.645 87.1867C151.65 87.1789 151.655 87.1712 151.659 87.1634C151.779 87.1603 151.82 87.0483 151.882 86.9658C151.946 86.8165 152.008 86.6656 152.072 86.5162C152.27 86.2331 152.548 85.9873 152.521 85.5937C152.621 85.4832 152.722 85.3728 152.822 85.2607C152.822 85.169 152.82 85.0772 152.82 84.9854C152.852 84.9418 152.881 84.8952 152.917 84.8594C153.067 84.5902 153.263 84.3413 153.285 84.0162C153.542 83.509 153.19 83.2881 152.838 83.0672C152.909 82.6176 152.621 82.4434 152.277 82.2707C151.999 82.1322 151.595 82.0995 151.578 81.6531C151.807 81.5239 151.853 81.2968 151.89 81.0666C151.985 81.0106 152.082 80.9545 152.177 80.8985C152.225 80.6574 152.32 80.4443 152.521 80.2887C152.602 80.1969 152.61 80.1005 152.542 79.9978C152.542 79.9978 152.54 79.9962 152.538 79.9947C152.538 79.9947 152.538 79.9947 152.538 79.9931C152.546 79.9993 152.554 80.0056 152.562 80.0118C152.941 79.9496 152.919 79.5482 153.128 79.3428L153.123 79.3397C153.115 79.0768 153.184 78.8528 153.435 78.719V78.7252C153.614 78.3814 153.514 78.1698 153.21 78.0267ZM108.872 134.686L108.871 134.679C108.869 134.679 108.866 134.679 108.864 134.681C108.866 134.678 108.869 134.676 108.871 134.673C108.871 134.676 108.871 134.678 108.871 134.679C108.872 134.681 108.875 134.684 108.877 134.686C108.875 134.686 108.874 134.686 108.872 134.686ZM25.9677 106.067H25.9662L25.9677 106.065C25.9677 106.065 25.9677 106.065 25.9677 106.067ZM17.5727 67.7855C17.5821 67.7839 17.5914 67.7839 17.5992 67.7823C17.5899 67.7917 17.5836 67.8026 17.5743 67.8135C17.5727 67.8026 17.5727 67.7932 17.5727 67.7855ZM149.377 63.4466C149.382 63.4497 149.385 63.4528 149.39 63.4559C149.385 63.459 149.382 63.4606 149.377 63.4637C149.379 63.4575 149.377 63.4528 149.377 63.4466ZM18.8009 52.1708C18.8243 52.1817 18.8493 52.1926 18.8726 52.2019C18.8508 52.2221 18.829 52.2377 18.8009 52.247C18.8009 52.2221 18.8009 52.1972 18.8009 52.1708ZM43.4296 123.211C43.4187 123.144 43.4576 123.184 43.4732 123.219C43.4576 123.219 43.4436 123.217 43.4296 123.215C43.4296 123.212 43.4296 123.212 43.4296 123.211ZM29.7117 36.0707L29.7101 36.0723V36.0707C29.7101 36.0707 29.7101 36.0707 29.7117 36.0707ZM30.1761 33.5831C30.1715 33.5738 30.1668 33.566 30.1637 33.5582C30.173 33.5645 30.1808 33.5691 30.1902 33.5754C30.1855 33.5769 30.1808 33.5816 30.1761 33.5831ZM36.5574 28.6064C36.5605 28.6064 36.562 28.6064 36.5652 28.6064C36.5636 28.6095 36.562 28.6142 36.5589 28.6173C36.5589 28.6142 36.5574 28.6095 36.5574 28.6064ZM39.0622 118.492C39.0606 118.497 39.0606 118.503 39.059 118.508C39.0061 118.514 38.9655 118.511 38.9312 118.499C38.9702 118.494 39.0138 118.491 39.0622 118.492ZM39.084 23.6297C39.0777 23.6297 39.0731 23.6297 39.0668 23.6297C39.0653 23.6281 39.0637 23.6266 39.0622 23.6235C39.0653 23.6173 39.0684 23.611 39.0715 23.6048C39.0746 23.6141 39.0793 23.6219 39.084 23.6297ZM32.2289 107.619C32.2757 107.618 32.3131 107.624 32.3443 107.637C32.3069 107.632 32.2679 107.626 32.2289 107.619ZM22.5418 45.0938H22.5433H22.5418ZM19.4244 64.7114C19.4166 64.7036 19.4088 64.6974 19.4026 64.6896C19.4104 64.6896 19.4182 64.6911 19.4244 64.6911C19.4244 64.6911 19.4244 64.6911 19.426 64.6911C19.4244 64.6989 19.4244 64.7051 19.4244 64.7114ZM20.0494 59.6973C20.0494 59.7035 20.0479 59.7082 20.0479 59.7144C20.0448 59.7082 20.0432 59.7051 20.0401 59.6989C20.0432 59.6989 20.0463 59.6973 20.0494 59.6973ZM20.0463 85.8473C20.0463 85.8613 20.0463 85.8721 20.0463 85.8861C20.0385 85.8768 20.0307 85.869 20.0245 85.8581C20.0323 85.855 20.0385 85.8504 20.0463 85.8473ZM22.2285 44.7796H22.23C22.2269 44.7812 22.2254 44.7827 22.2222 44.7858C22.2238 44.7858 22.2285 44.7796 22.2285 44.7796ZM18.4892 60.651C18.4892 60.679 18.483 60.707 18.4736 60.735C18.4643 60.7085 18.4549 60.6821 18.444 60.6541C18.4611 60.6541 18.4752 60.6525 18.4892 60.651ZM147.519 74.3365C147.519 74.3365 147.519 74.335 147.519 74.3365C147.521 74.335 147.521 74.335 147.523 74.335C147.521 74.335 147.519 74.3365 147.519 74.3365ZM145.654 50.3817C145.66 50.3848 145.666 50.391 145.672 50.3941C145.666 50.3957 145.66 50.3973 145.654 50.3973C145.654 50.3926 145.654 50.3864 145.654 50.3817ZM133.784 29.9085C133.862 29.8868 133.926 29.8852 133.978 29.8992C133.925 29.8992 133.859 29.9039 133.784 29.9085ZM133.392 29.5087C133.406 29.5072 133.418 29.5041 133.432 29.5041C133.488 29.5554 133.505 29.6441 133.513 29.7328C133.466 29.6347 133.427 29.5601 133.392 29.5087ZM89.8609 2.80806C89.8609 2.81117 89.8609 2.81273 89.8609 2.81584C89.8578 2.81428 89.8531 2.81272 89.85 2.81272C89.8531 2.80961 89.8563 2.80961 89.8609 2.80806ZM117.708 14.6097C117.523 14.4821 117.333 14.4386 117.132 14.5739C117.127 14.5848 117.124 14.5926 117.121 14.6019C116.927 14.087 116.416 14.0325 116 13.8412C115.983 13.8396 115.964 13.8381 115.947 13.8381C115.786 13.6638 115.495 13.6203 115.411 13.3682C115.331 13.2749 115.228 13.2469 115.111 13.2593C115.073 13.2702 115.037 13.2873 115.005 13.3091C114.803 13.1535 114.561 13.0633 114.359 12.9108C114.031 12.6884 113.677 12.5359 113.288 12.4737C113.398 12.1859 113.553 11.9541 113.941 11.9992C114.087 11.9883 114.232 11.9712 114.376 11.9339C114.828 11.825 115.278 11.8218 115.727 11.9525C115.846 11.9805 115.966 11.9992 116.087 12.0008C116.248 11.9992 116.407 11.993 116.542 11.9136C116.871 11.9743 117.144 12.2092 117.492 12.2046C117.535 12.1906 117.57 12.1672 117.598 12.1377C117.702 12.2388 117.806 12.3399 117.911 12.4426C117.912 12.5421 117.912 12.6433 117.914 12.7428C118.067 12.8766 118.226 13.0446 118.138 13.2422C118.04 13.4631 117.789 13.3387 117.605 13.3651C117.605 13.4585 117.605 13.5518 117.605 13.6467C117.593 13.6529 117.58 13.6576 117.568 13.6654C117.521 13.782 117.507 13.8941 117.615 13.989C117.922 14.0014 117.906 14.2316 117.931 14.4339C117.908 14.4448 117.884 14.4603 117.861 14.4852C117.794 14.507 117.912 14.7497 117.708 14.6097ZM98.1235 7.00537C98.0455 6.98359 97.966 6.96647 97.885 6.96025C97.6777 6.95092 97.4688 6.93691 97.2927 7.05048C97.2553 7.03648 97.2163 7.02559 97.1789 7.01003C97.076 6.98203 96.9716 6.96803 96.8656 6.95558C96.9233 6.9338 96.9779 6.89958 97.0293 6.84357C96.8781 6.65378 96.6614 6.63978 96.4448 6.62889C96.2328 6.62422 96.0208 6.62266 95.8088 6.65378C95.7294 6.66933 95.6577 6.69422 95.5906 6.73312C95.5641 6.72689 95.5392 6.71912 95.5127 6.71289C95.4644 6.65066 95.0389 6.61177 95.4878 6.50443C95.6436 6.46709 95.7855 6.37064 95.7979 6.20107C95.8135 6.1964 95.8291 6.19329 95.8431 6.18862C96.0052 6.13106 96.1658 6.07038 96.2609 5.92104C96.2998 5.9646 96.345 5.99882 96.4027 6.01749C96.5165 6.04394 96.6318 6.04238 96.7456 6.01749C97.2039 5.92726 97.6621 5.87748 98.1204 6.02216C98.2809 6.10461 98.3916 6.23218 98.4695 6.39086C98.5131 6.93069 98.7968 7.1905 99.1787 7.30406C98.8249 7.24028 98.4664 7.15005 98.1235 7.00537ZM107.471 10.5648C107.476 10.5648 107.482 10.5648 107.486 10.5648C107.479 10.5742 107.471 10.5819 107.461 10.5913C107.465 10.5819 107.468 10.5726 107.471 10.5648ZM94.8471 4.65624C94.8471 4.65469 94.8471 4.65469 94.8471 4.65469V4.65624ZM120.088 20.2071C120.09 20.2071 120.09 20.2056 120.091 20.2056V20.2071C120.091 20.2071 120.09 20.2071 120.088 20.2071ZM118.223 18.3543C118.218 18.3496 118.215 18.3434 118.21 18.3387C118.215 18.3434 118.218 18.3465 118.223 18.3512C118.223 18.3527 118.223 18.3527 118.223 18.3543ZM114.811 13.684C114.801 13.6825 114.794 13.6794 114.784 13.6778C114.77 13.6778 114.758 13.6778 114.744 13.6778C114.741 13.6638 114.737 13.6498 114.734 13.6374C114.751 13.6514 114.767 13.6638 114.784 13.6794L114.797 13.6731C114.801 13.6763 114.806 13.6809 114.811 13.684ZM102.38 7.18583C102.439 7.22939 102.511 7.24028 102.591 7.23406C102.658 7.2185 102.723 7.19516 102.782 7.16094C102.99 7.02092 103.237 6.99759 103.464 6.91358C103.696 6.79535 103.965 6.7829 104.196 6.69267C104.802 6.4562 105.429 6.88247 106.018 6.59155C106.023 6.59621 106.026 6.60088 106.031 6.60555C106.034 6.6071 106.037 6.60866 106.04 6.61022C105.993 7.06448 106.391 7.0536 106.687 7.14694C106.751 7.17805 106.815 7.20917 106.879 7.23872C106.877 7.27295 106.879 7.30718 106.883 7.34296C107.301 7.9139 106.927 8.46774 106.855 9.02779C106.514 9.10247 106.205 9.40427 105.822 9.18336C105.667 9.16314 105.516 9.16003 105.385 9.23937C105.36 9.21914 105.334 9.20048 105.311 9.1787C105.089 9.02157 104.855 8.89556 104.587 8.84111C104.04 8.88311 103.574 8.31683 102.991 8.62953C102.974 8.6482 102.963 8.66531 102.952 8.68087C102.871 8.30283 102.656 8.21727 102.319 8.39617C102.312 8.39617 102.304 8.39617 102.298 8.39617C102.379 8.03214 102.005 8.06481 101.819 7.93257C101.431 7.82523 101.079 7.60276 100.761 7.60276C100.854 7.60743 101.044 7.6261 101.236 7.60587C101.305 7.59031 101.372 7.57164 101.436 7.54364C101.68 7.41141 101.942 7.33051 102.212 7.27606C102.271 7.25273 102.327 7.22317 102.38 7.18583ZM94.8471 4.65469C94.8612 4.63757 94.8752 4.62046 94.8908 4.60335C94.911 4.61891 94.9297 4.63602 94.9485 4.65624C94.9142 4.65469 94.8814 4.65469 94.8471 4.65469ZM117.602 11.9479C117.593 11.9463 117.587 11.9416 117.577 11.9385C117.585 11.9261 117.593 11.9152 117.601 11.9027C117.602 11.9183 117.602 11.9339 117.602 11.9479ZM123.196 20.5214C123.198 20.5183 123.203 20.5152 123.204 20.5121C123.206 20.5152 123.207 20.5167 123.209 20.5183C123.206 20.5198 123.201 20.5198 123.196 20.5214ZM112.917 11.492C112.917 11.4936 112.918 11.4936 112.918 11.4951L112.928 11.4983C112.928 11.5014 112.928 11.5029 112.928 11.506C112.925 11.5029 112.922 11.4983 112.918 11.4951H112.917C112.917 11.4951 112.917 11.4936 112.917 11.492ZM107.627 5.60056C107.627 5.59589 107.627 5.59278 107.627 5.58811C107.633 5.59589 107.641 5.60367 107.649 5.61301C107.642 5.60989 107.635 5.60523 107.627 5.60056ZM91.6285 136.884C91.6628 136.875 91.7002 136.862 91.7423 136.843C91.7376 136.85 91.7345 136.856 91.7298 136.861C91.7329 136.861 91.736 136.861 91.7376 136.861C91.7095 136.887 91.6815 136.907 91.6534 136.924C91.6487 136.912 91.6378 136.898 91.6285 136.884ZM56.0034 11.212C56.1203 11.2151 56.2138 11.142 56.3073 11.0658C56.4414 10.9382 56.5879 10.7997 56.7796 10.8309C57.6322 10.9662 58.145 10.4217 58.6859 9.93477C58.6859 9.93944 58.6859 9.94255 58.6859 9.94877C58.5877 10.0795 58.555 10.2117 58.6376 10.3486C58.6344 10.3626 58.6313 10.3781 58.6282 10.3922C58.2245 10.4948 58.1076 10.8122 58.064 11.184C57.8645 11.1342 57.7772 11.2493 57.7257 11.4143C57.732 11.4251 57.7366 11.4376 57.7429 11.4485C57.7335 11.4531 57.7242 11.4578 57.7164 11.4625C57.4249 11.3334 57.2238 11.3769 57.1506 11.6632C57.0462 11.6569 56.9433 11.6694 56.8435 11.7021C56.6128 11.7985 56.3868 11.9027 56.178 12.0396C56.1608 12.0552 56.1437 12.0723 56.1281 12.0894C55.7478 11.8732 56.0548 11.5014 56.0034 11.212ZM70.5365 6.83424C70.4321 7.03648 70.3261 7.23872 70.2216 7.44097C70.2185 7.44408 70.217 7.44563 70.2138 7.44874C70.2076 7.45497 70.2029 7.45808 70.1967 7.4643C70.1063 7.30562 69.9208 7.30717 69.7478 7.28851C69.6699 7.29162 69.5951 7.30251 69.5202 7.32118C69.3051 7.37718 69.0947 7.47675 68.8671 7.37252C68.8204 7.33518 68.7814 7.29006 68.744 7.24339C68.691 7.05671 68.6583 6.87157 68.8406 6.72689C69.0963 6.59621 69.355 6.69423 69.6138 6.71445C69.9302 6.68334 70.1842 7.03648 70.524 6.85757C70.5287 6.84669 70.5318 6.84046 70.5365 6.83424ZM58.6874 10.862C58.6874 10.8666 58.6874 10.8698 58.6874 10.8744C58.6843 10.8729 58.6812 10.8713 58.6781 10.8698C58.6828 10.8682 58.6859 10.8651 58.6874 10.862ZM50.3329 127.061C50.3329 127.061 50.3298 127.05 50.3251 127.03C50.3314 127.039 50.3376 127.05 50.3438 127.06C50.3407 127.06 50.3376 127.06 50.3329 127.061ZM56.0299 12.413C56.0299 12.413 56.0361 12.4208 56.0439 12.4286C56.0392 12.4224 56.0346 12.4177 56.0283 12.4115C56.0299 12.413 56.0299 12.413 56.0299 12.413ZM81.1682 0.966097C81.1573 0.953651 81.1464 0.94276 81.1355 0.928759C81.1526 0.928759 81.1698 0.928759 81.1869 0.928759C81.1776 0.94276 81.1729 0.955207 81.1682 0.966097ZM59.3187 8.0757H59.3171C59.3171 8.0757 59.3171 8.0757 59.3187 8.0757ZM62.7447 135.927C62.726 135.916 62.7088 135.902 62.6917 135.888C62.7073 135.89 62.726 135.891 62.7431 135.894C62.7447 135.904 62.7447 135.915 62.7447 135.927ZM68.3559 4.96583C68.3434 4.99383 68.3294 5.01717 68.3154 5.0405C68.2998 5.01406 68.2858 4.98916 68.2733 4.96272C68.2998 4.96427 68.3278 4.96427 68.3559 4.96583ZM91.4196 138.398C91.4274 138.398 91.4368 138.398 91.4446 138.399C91.4368 138.405 91.4274 138.409 91.4196 138.415C91.4196 138.409 91.4196 138.404 91.4196 138.398ZM128.812 121.904C128.815 121.912 128.818 121.921 128.817 121.929C128.812 121.929 128.809 121.929 128.804 121.93C128.808 121.921 128.811 121.912 128.812 121.904ZM147.83 94.2325C147.841 94.2403 147.85 94.2481 147.862 94.2543H147.864C147.853 94.2652 147.842 94.2761 147.831 94.287C147.831 94.2683 147.83 94.2512 147.83 94.2325ZM100.084 4.01218C100.101 3.99818 100.117 3.98418 100.134 3.97173C100.139 3.9904 100.144 4.00907 100.145 4.03085C100.123 4.02307 100.103 4.01685 100.084 4.01218ZM52.4621 11.52C52.4621 11.5123 52.4605 11.506 52.4605 11.4983C52.4714 11.5045 52.4808 11.5107 52.4917 11.5185C52.4824 11.5185 52.4714 11.52 52.4621 11.52ZM36.4124 25.8155C36.3797 25.8637 36.3407 25.8948 36.2986 25.9166C36.3127 25.8886 36.3142 25.8559 36.3111 25.8139C36.3454 25.8155 36.3781 25.8155 36.4124 25.8155ZM22.2144 44.7858C22.2176 44.7858 22.2207 44.7874 22.2222 44.7874C22.2191 44.7905 22.2176 44.7936 22.2144 44.7967C22.216 44.792 22.216 44.7889 22.2144 44.7858ZM98.8904 137.78C98.8919 137.785 98.895 137.788 98.8966 137.792C98.8919 137.792 98.8872 137.792 98.8841 137.792C98.8857 137.788 98.8888 137.785 98.8904 137.78ZM114.17 129.706C114.147 129.673 114.123 129.637 114.1 129.602C114.139 129.625 114.176 129.651 114.214 129.681C114.2 129.69 114.184 129.697 114.17 129.706ZM117.272 130.344C117.27 130.337 117.269 130.331 117.267 130.327C117.272 130.327 117.278 130.327 117.283 130.327C117.28 130.331 117.275 130.337 117.272 130.344ZM126.639 125.509L126.633 125.501C126.624 125.498 126.616 125.498 126.608 125.496C126.615 125.491 126.621 125.485 126.627 125.481C126.63 125.488 126.63 125.495 126.633 125.502C126.636 125.504 126.641 125.505 126.644 125.507C126.643 125.507 126.641 125.507 126.639 125.509ZM136.61 116.33C136.588 116.307 136.581 116.28 136.578 116.254C136.599 116.277 136.621 116.302 136.645 116.328C136.634 116.327 136.623 116.328 136.61 116.33ZM146.891 98.9059C146.888 98.9059 146.887 98.9059 146.883 98.9059C146.887 98.9043 146.888 98.9012 146.891 98.8997C146.891 98.9012 146.891 98.9028 146.891 98.9059C146.896 98.9074 146.899 98.909 146.904 98.9106C146.902 98.9121 146.901 98.9121 146.899 98.9137C146.899 98.9121 146.891 98.9059 146.891 98.9059ZM143.788 44.148C143.788 44.1464 143.788 44.1449 143.788 44.1433C143.79 44.1449 143.79 44.1464 143.791 44.148C143.79 44.148 143.79 44.148 143.788 44.148ZM140.982 38.8601C140.984 38.8586 140.985 38.8554 140.989 38.8539C140.989 38.8554 140.99 38.8586 140.99 38.8601C140.99 38.8601 140.989 38.8617 140.985 38.8632C140.984 38.8632 140.982 38.8617 140.982 38.8601ZM136.922 32.9593L136.925 32.9624H136.924C136.924 32.9624 136.924 32.9624 136.924 32.9609C136.924 32.9624 136.922 32.9593 136.922 32.9593C136.92 32.9593 136.919 32.9593 136.917 32.9593C136.919 32.9577 136.92 32.9577 136.922 32.9562C136.92 32.9577 136.922 32.9593 136.922 32.9593ZM42.4897 16.7675C42.4866 16.7706 42.4819 16.7737 42.4803 16.7783L42.4788 16.7768C42.4819 16.7737 42.485 16.769 42.4897 16.7675C42.4897 16.7659 42.4897 16.7675 42.4897 16.7675ZM17.261 53.1882C17.261 53.1944 17.261 53.1991 17.2594 53.2053C17.2563 53.2038 17.2547 53.2007 17.2516 53.1991C17.2532 53.196 17.2563 53.1913 17.2579 53.1882C17.2594 53.1882 17.261 53.1882 17.261 53.1882ZM19.2654 84.612C19.267 84.6105 19.267 84.6105 19.2685 84.6089C19.2701 84.6151 19.2717 84.6214 19.2732 84.6276C19.2717 84.6276 19.2701 84.626 19.267 84.626C19.267 84.6276 19.267 84.6214 19.2654 84.612ZM35.3291 118.779C35.3354 118.78 35.3432 118.78 35.3494 118.782C35.3432 118.789 35.3354 118.794 35.3291 118.802L35.3151 118.822C35.3135 118.822 35.312 118.822 35.3104 118.822C35.3167 118.816 35.3229 118.808 35.3291 118.802C35.3291 118.796 35.3291 118.788 35.3291 118.779ZM42.4616 125.347C42.4663 125.353 42.471 125.361 42.4757 125.367C42.4663 125.365 42.4585 125.362 42.4492 125.361C42.4523 125.356 42.457 125.351 42.4616 125.347ZM56.1 134.379C56.0969 134.404 56.0954 134.427 56.0954 134.451C56.0735 134.427 56.0502 134.404 56.0283 134.381C56.0533 134.379 56.0767 134.379 56.1 134.379ZM74.3085 138.726C74.3069 138.734 74.3054 138.743 74.3054 138.751C74.296 138.745 74.2867 138.738 74.2789 138.732C74.2882 138.729 74.2976 138.727 74.3085 138.726ZM110.418 134.364C110.415 134.364 110.414 134.362 110.411 134.362C110.412 134.356 110.414 134.35 110.415 134.343C110.417 134.351 110.418 134.357 110.418 134.364ZM116.204 131.881C116.207 131.881 116.21 131.882 116.212 131.882C116.209 131.885 116.204 131.889 116.201 131.892C116.203 131.889 116.204 131.885 116.204 131.881ZM134.911 118.517C134.913 118.517 134.914 118.517 134.918 118.517C134.916 118.519 134.916 118.52 134.914 118.522C134.913 118.52 134.913 118.519 134.911 118.517ZM148.143 95.7774C148.146 95.7805 148.148 95.7851 148.151 95.7883C148.152 95.7883 148.152 95.7883 148.154 95.7883C148.151 95.7914 148.146 95.796 148.143 95.7991C148.143 95.7914 148.143 95.7836 148.143 95.7774ZM152.208 85.533C152.206 85.533 152.208 85.533 152.208 85.533V85.533ZM152.03 74.5808C151.963 74.6057 151.89 74.6104 151.81 74.5995C151.884 74.5901 151.957 74.5855 152.03 74.5808ZM91.2622 1.38614C91.2653 1.38147 91.2684 1.3768 91.2715 1.37214C91.2762 1.3768 91.2809 1.38147 91.2871 1.38614C91.2793 1.38614 91.2715 1.38614 91.2622 1.38614ZM68.6053 3.14409C68.624 3.12387 68.6427 3.10364 68.6614 3.08342C68.6505 3.11142 68.6302 3.13009 68.6053 3.14409ZM67.4285 3.7057C67.4222 3.7057 67.4176 3.7057 67.4113 3.70415C67.4145 3.69948 67.4176 3.69481 67.4207 3.69015C67.4238 3.69481 67.4269 3.70104 67.4285 3.7057ZM46.1541 11.8078C46.1463 11.8358 46.1385 11.8639 46.1292 11.8919C46.1011 11.8701 46.0809 11.8436 46.0746 11.8078C46.1011 11.8078 46.1276 11.8078 46.1541 11.8078ZM36.9127 22.9965C36.905 23.0059 36.8972 23.0152 36.8894 23.0245C36.8894 23.0167 36.8878 23.0074 36.8878 22.9996C36.8956 22.9996 36.9034 22.9981 36.9127 22.9965ZM18.6903 60.1391C18.6903 60.1516 18.6903 60.164 18.6903 60.1765C18.6716 60.1765 18.6529 60.1765 18.6342 60.1765C18.6544 60.164 18.6731 60.1516 18.6903 60.1391ZM18.1899 79.3086C18.1899 79.3024 18.1899 79.2962 18.1884 79.2899C18.1977 79.2915 18.2055 79.2915 18.2133 79.2915C18.2071 79.2977 18.1993 79.3039 18.1899 79.3086ZM17.2797 88.9727C17.2781 88.9742 17.2766 88.9758 17.275 88.9789L17.2267 88.9478C17.2454 88.9556 17.2625 88.9649 17.2797 88.9727ZM74.2726 138.731C74.2726 138.729 74.2726 138.727 74.2726 138.726C74.2742 138.727 74.2757 138.731 74.2789 138.732C74.2773 138.732 74.2726 138.731 74.2726 138.731ZM91.1032 139.351C91.0284 139.342 90.9645 139.322 90.9146 139.286C90.9754 139.297 91.0393 139.312 91.1048 139.333C91.1048 139.337 91.1048 139.345 91.1032 139.351ZM95.7777 138.424C95.7792 138.424 95.7808 138.424 95.7823 138.424L95.7839 138.419C95.7855 138.419 95.7855 138.419 95.787 138.419C95.7855 138.421 95.7839 138.423 95.7823 138.424C95.7823 138.429 95.7839 138.432 95.7839 138.437C95.7823 138.433 95.7792 138.429 95.7777 138.424ZM104.461 136.279C104.458 136.265 104.458 136.254 104.453 136.238C104.472 136.238 104.492 136.238 104.511 136.238C104.495 136.252 104.478 136.265 104.461 136.279Z" fill="url(#paint2_radial_808_140)"/>
<path d="M139.098 23.6391C139.197 23.7449 139.299 23.8506 139.398 23.9564C139.417 24.2069 139.456 24.4465 139.719 24.5694C139.719 24.6207 139.723 24.6705 139.73 24.7218C139.746 24.7312 139.76 24.7452 139.771 24.7623C139.757 24.7483 139.744 24.7358 139.73 24.7218C139.754 25.1294 139.799 25.509 140.365 25.2026C140.463 25.1434 140.561 25.0843 140.658 25.0252C140.924 23.6173 141.047 23.9238 139.649 23.2097C139.517 23.1428 139.383 23.079 139.249 23.0137C139.094 23.0137 138.942 23.0137 138.787 23.0137C138.77 23.2813 138.826 23.5131 139.098 23.6391ZM140.03 25.0283L140.028 25.0268L140.03 25.0252C140.03 25.0268 140.03 25.0268 140.03 25.0283Z" fill="url(#paint3_radial_808_140)"/>
<path d="M112.605 7.47226C113.032 7.73984 113.343 7.54849 113.616 7.21401C113.884 6.66329 113.63 6.42838 113.099 6.36304C112.628 6.39104 112.227 6.54194 111.994 6.98843C112.034 7.35558 112.333 7.39603 112.605 7.47226Z" fill="url(#paint4_radial_808_140)"/>
<path d="M121.96 11.1872C121.96 11.0829 121.96 10.9802 121.962 10.8776C121.796 10.8387 121.719 10.5882 121.505 10.68C121.407 10.722 121.355 10.8216 121.394 10.932C121.491 11.2089 121.731 11.1903 121.96 11.1872Z" fill="url(#paint5_radial_808_140)"/>
<path d="M129.448 17.2428C129.786 17.2288 130.134 17.2257 130.224 16.7886C129.811 16.7948 129.4 16.7995 128.987 16.8041C128.957 17.1433 129.337 17.0515 129.448 17.2428Z" fill="url(#paint6_radial_808_140)"/>
<path d="M150.622 42.4305C150.624 41.9762 150.625 41.5204 150.627 41.0661C150.543 40.9604 150.448 40.9588 150.342 41.0319C150.339 41.0335 150.337 41.0366 150.334 41.0381C150.334 41.0381 150.334 41.0381 150.332 41.0397C150.325 41.0428 150.317 41.0444 150.309 41.0475C150.343 41.0055 150.374 40.9635 150.395 40.9168C149.927 40.4314 149.804 40.4688 149.392 41.2217C149.397 42.0354 149.862 42.3823 150.622 42.4305Z" fill="url(#paint7_radial_808_140)"/>
<path d="M142.308 33.9864C142.384 34.1949 142.568 34.1918 142.75 34.0657C143.11 33.8168 142.753 33.6348 142.696 33.4248C142.643 33.3719 142.59 33.319 142.537 33.2661C142.052 33.375 142.208 33.7126 142.308 33.9864Z" fill="url(#paint8_radial_808_140)"/>
<path d="M149.992 45.6899C149.988 45.36 149.999 45.0302 149.974 44.7035C149.962 44.5262 149.8 44.2633 149.663 44.4251C149.426 44.702 148.791 44.7938 149.084 45.3927C149.416 45.4036 149.608 45.8392 149.992 45.6899Z" fill="url(#paint9_radial_808_140)"/>
<path d="M136.927 25.493C137.039 25.5972 137.15 25.7015 137.262 25.8057C137.251 25.8539 137.245 25.9021 137.242 25.9519C137.466 26.1635 137.553 26.4295 137.558 26.7298C137.786 26.8231 137.979 27.0736 138.33 26.9165C138.171 26.5711 137.767 26.3813 137.857 25.9722C138.256 25.9053 138.168 25.6081 138.152 25.3468C138.124 25.2939 138.083 25.2814 138.029 25.3094C137.575 24.9329 136.939 24.8116 136.598 24.2795C136.238 24.2873 136.355 24.4771 136.434 24.6762C136.553 24.9796 136.917 25.129 136.927 25.493Z" fill="url(#paint10_radial_808_140)"/>
<path d="M142.393 31.1949C142.65 31.1716 142.664 30.9382 142.69 30.6831C142.634 30.5586 142.725 30.2491 142.43 30.2848C142.165 30.3175 142.201 30.6458 142.128 30.8465C142.054 31.0487 142.176 31.2152 142.393 31.1949Z" fill="url(#paint11_radial_808_140)"/>
<path d="M135.366 28.9161C135.826 29.3314 136.266 29.7795 136.928 29.8604C136.983 29.8059 137.037 29.753 137.092 29.6986C137.391 28.9223 136.501 29.0172 136.294 28.6127C135.38 28.1942 135.366 28.1989 135.366 28.9161Z" fill="url(#paint12_radial_808_140)"/>
<path d="M150.319 53.6606C150.32 53.6046 150.322 53.5486 150.323 53.4926C150.224 53.3806 150.124 53.2685 150.026 53.1565C150.019 52.9621 150.013 52.7676 150.005 52.5731C149.912 52.4409 149.904 52.2822 149.873 52.1329C149.825 51.898 149.786 51.6273 149.497 51.6226C149.156 51.6179 149.115 51.9493 149.078 52.1842C148.98 52.8018 149.218 53.351 149.518 53.8768C149.624 54.1133 149.764 54.328 149.895 54.5489C149.957 54.6391 150.054 54.6874 150.139 54.748C150.188 54.8025 150.238 54.8554 150.286 54.9098C150.398 55.165 150.51 55.4201 150.623 55.6752C150.626 56.0377 150.627 56.4002 150.63 56.7627C150.649 56.7922 150.669 56.8187 150.691 56.842C150.998 57.2372 151.326 57.4736 151.76 56.9136C151.586 56.5542 151.587 56.1155 151.263 55.8246L151.262 55.8215C151.254 55.8215 151.248 55.8199 151.24 55.8168C151.248 55.8184 151.254 55.8199 151.262 55.8215C151.11 55.4341 151.056 54.9969 150.75 54.6874C150.75 54.6827 150.75 54.6765 150.75 54.6718C150.73 54.5613 150.69 54.4571 150.637 54.3591C150.499 54.1895 150.475 53.9733 150.386 53.7835C150.367 53.7399 150.344 53.701 150.319 53.6606Z" fill="url(#paint13_radial_808_140)"/>
<path d="M155.013 74.9029C154.988 74.8905 154.885 74.9698 154.871 75.0196C154.807 75.2561 154.899 75.4007 155.155 75.4241C155.11 75.2467 155.25 75.018 155.013 74.9029Z" fill="url(#paint14_radial_808_140)"/>
<path d="M130.117 17.9751C130.022 18.1836 130.142 18.3143 130.354 18.3625C130.364 18.4139 130.371 18.4636 130.372 18.5165C130.472 18.6052 130.528 18.739 130.661 18.7935C130.679 18.7981 130.695 18.8075 130.712 18.8137C130.809 18.9677 131.025 19.0517 131.011 19.2679C131.058 19.2726 131.105 19.2757 131.153 19.2788C131.312 19.4826 131.471 19.6849 131.629 19.8887C132.227 19.576 131.848 19.2555 131.689 18.9381C131.685 18.8899 131.667 18.8417 131.636 18.795C131.576 18.3034 130.848 17.6749 130.407 17.7573C130.297 17.7791 130.16 17.8771 130.117 17.9751ZM131.614 19.1295C131.613 19.1279 131.613 19.1279 131.613 19.1279C131.614 19.1279 131.614 19.1279 131.616 19.1264C131.614 19.1264 131.614 19.1279 131.614 19.1295Z" fill="url(#paint15_radial_808_140)"/>
<path d="M147.689 52.5563C147.697 52.592 147.701 52.6294 147.705 52.6667C148.498 52.5423 148.129 52.116 147.994 51.6975C147.62 51.9355 147.697 52.2591 147.689 52.5563Z" fill="url(#paint16_radial_808_140)"/>
<path d="M126.961 15.1992C127.198 15.2475 127.266 15.067 127.341 14.8679C127.307 14.6936 127.204 14.5396 127.001 14.5443C126.856 14.5474 126.691 14.6252 126.671 14.8119C126.646 15.0235 126.761 15.1588 126.961 15.1992Z" fill="url(#paint17_radial_808_140)"/>
<path d="M121.43 15.2685C121.22 15.5905 121.545 15.7663 121.655 15.9997C121.846 16.0557 122.046 16.0915 122.228 16.1708C122.883 16.4555 123.176 16.2035 123.21 15.5392C122.884 15.3556 122.608 15.0647 122.194 15.074C121.923 15.0818 121.619 14.9791 121.43 15.2685Z" fill="url(#paint18_radial_808_140)"/>
<path d="M142.696 37.0103C142.638 37.0694 142.591 37.1348 142.557 37.2095C142.535 37.2966 142.526 37.3775 142.529 37.4553C142.513 37.5813 142.504 37.7088 142.382 37.7851C142.493 37.9671 142.672 37.9422 142.844 37.9391L142.922 37.9453L143 37.9406C143.21 37.9624 143.41 37.9173 143.581 37.8022C143.779 37.6699 144.167 37.6793 144.128 37.3712C144.088 37.0617 143.774 36.9761 143.466 37.0072C143.208 37.0088 142.953 37.0103 142.696 37.0103Z" fill="url(#paint19_radial_808_140)"/>
<path d="M145.35 35.1214C145.906 35.1883 145.81 34.7931 145.802 34.4726C145.794 34.1786 145.786 33.8659 145.336 34.0401C145.286 34.0962 145.236 34.1522 145.185 34.2066C145.047 34.5458 145.037 34.8631 145.35 35.1214Z" fill="url(#paint20_radial_808_140)"/>
<path d="M144.737 34.7618C144.992 34.5518 144.601 34.4071 144.553 34.2126C144.246 34.0835 143.976 34.0088 144.09 34.5176C144.311 34.6016 144.487 34.9672 144.737 34.7618Z" fill="url(#paint21_radial_808_140)"/>
<path d="M132.24 24.1057C132.295 24.154 132.349 24.2037 132.404 24.252C132.555 24.2566 132.706 24.2613 132.859 24.2675C133.816 24.5724 134.026 24.4931 134.137 23.7852C134.17 23.7588 134.209 23.7417 134.249 23.7277C134.212 23.7464 134.174 23.7666 134.137 23.7852C134.238 23.7868 134.34 23.7884 134.439 23.7899C134.633 23.7728 134.742 23.6748 134.743 23.4741C134.746 23.4259 134.751 23.3792 134.756 23.331C134.905 23.3279 135.055 23.3248 135.205 23.3216C135.524 23.2641 135.619 23.1225 135.379 22.8565C135.321 22.7491 135.265 22.6418 135.208 22.536C135.155 22.4878 135.102 22.4396 135.047 22.3929C135.049 22.3384 135.05 22.2855 135.052 22.2311C134.81 22.2575 134.746 22.0086 134.575 21.9262C134.47 21.8235 134.368 21.7208 134.263 21.6166C134.018 21.587 133.813 21.4797 133.643 21.3039C133.284 21.153 133.233 21.3117 133.328 21.6166C133.442 21.8142 133.594 21.9744 133.8 22.0771C133.883 22.27 133.987 22.4582 133.626 22.4691C133.409 22.4769 133.181 22.5049 133.022 22.6931C132.973 22.6931 132.921 22.6947 132.871 22.6994C132.849 22.7367 132.814 22.7554 132.771 22.7647C132.804 22.7429 132.839 22.7211 132.871 22.6994C132.39 22.6231 132.065 22.8285 131.886 23.2672C131.729 23.6561 131.939 23.9019 132.24 24.1057Z" fill="url(#paint22_radial_808_140)"/>
<path fill-rule="evenodd" clip-rule="evenodd" d="M89.6665 43.3333C92.6132 43.3333 94.9998 45.72 94.9998 48.6667V54H65.6665V48.6667C65.6665 45.72 68.0532 43.3333 70.9998 43.3333H73.7998C74.4265 40.2933 77.1065 38 80.3332 38C83.5598 38 86.2532 40.2933 86.8665 43.3333H89.6665ZM68.3332 51.3333H92.3332V48.6667C92.3332 47.2 91.1332 46 89.6665 46H84.3332V44.6667C84.3332 42.4667 82.5332 40.6667 80.3332 40.6667C78.1332 40.6667 76.3332 42.4667 76.3332 44.6667V46H70.9998C69.5332 46 68.3332 47.2 68.3332 48.6667V51.3333ZM103 97.9998C103 98.7332 102.4 99.3332 101.667 99.3332H59C58.2667 99.3332 57.6667 98.7332 57.6667 97.9998V48.6665C57.6667 47.9332 58.2667 47.3332 59 47.3332H64.3333V44.6665H59C56.8 44.6665 55 46.4665 55 48.6665V97.9998C55 100.2 56.8 102 59 102H101.667C103.867 102 105.667 100.2 105.667 97.9998V92.6665H103V97.9998ZM103 48.6665V55.3332H105.667V48.6665C105.667 46.4665 103.867 44.6665 101.667 44.6665H96.3333V47.3332H101.667C102.4 47.3332 103 47.9332 103 48.6665ZM64.3333 50V52.6667H62.9999V94H97.6666V92.6667H100.333V96.6667H60.3333V50H64.3333ZM97.6666 55.3333H100.333V50H96.3333V52.6667H97.6666V55.3333ZM81.6667 43.3335H79V46.0002H81.6667V43.3335ZM82.9998 74.0001C82.9998 64.4401 90.7731 56.6667 100.333 56.6667C109.893 56.6667 117.666 64.4401 117.666 74.0001C117.666 83.5601 109.893 91.3334 100.333 91.3334C90.7731 91.3334 82.9998 83.5601 82.9998 74.0001ZM85.6664 74.0001C85.6664 82.0934 92.2398 88.6667 100.333 88.6667C108.426 88.6667 115 82.0934 115 74.0001C115 65.9067 108.426 59.3334 100.333 59.3334C92.2398 59.3334 85.6664 65.9067 85.6664 74.0001ZM101.667 62H99V74.4667L104.627 81.4933L106.707 79.84L101.667 73.5333V62ZM69.28 63.7198L70.8934 65.3332L75.2934 59.8398L77.3734 61.4932L71.1067 69.3332L67.3867 65.6132L69.28 63.7198ZM77.3734 72.1599L75.2934 70.5066L70.8934 75.9999L69.28 74.3866L67.3867 76.2799L71.1067 79.9999L77.3734 72.1599ZM77.3734 82.8264L71.1067 90.6664L67.3867 86.9464L69.28 85.0531L70.8934 86.6664L75.2934 81.1731L77.3734 82.8264Z" fill="url(#paint23_radial_808_140)"/>
<defs>
<radialGradient id="paint0_radial_808_140" cx="0" cy="0" r="1" gradientUnits="userSpaceOnUse" gradientTransform="translate(153.92 72.3078) rotate(90) scale(0.546047 0.616064)">
<stop stop-color="#313333"/>
<stop offset="1" stop-color="#242222"/>
</radialGradient>
<radialGradient id="paint1_radial_808_140" cx="0" cy="0" r="1" gradientUnits="userSpaceOnUse" gradientTransform="translate(155.583 71.3157) rotate(90) scale(0.321318 0.416558)">
<stop stop-color="#313333"/>
<stop offset="1" stop-color="#242222"/>
</radialGradient>
<radialGradient id="paint2_radial_808_140" cx="0" cy="0" r="1" gradientUnits="userSpaceOnUse" gradientTransform="translate(84.7618 70) rotate(90) scale(70 68.7618)">
<stop stop-color="#313333"/>
<stop offset="1" stop-color="#242222"/>
</radialGradient>
<radialGradient id="paint3_radial_808_140" cx="0" cy="0" r="1" gradientUnits="userSpaceOnUse" gradientTransform="translate(139.805 24.1639) rotate(90) scale(1.15021 1.02066)">
<stop stop-color="#313333"/>
<stop offset="1" stop-color="#242222"/>
</radialGradient>
<radialGradient id="paint4_radial_808_140" cx="0" cy="0" r="1" gradientUnits="userSpaceOnUse" gradientTransform="translate(112.859 6.98081) rotate(90) scale(0.617773 0.865193)">
<stop stop-color="#313333"/>
<stop offset="1" stop-color="#242222"/>
</radialGradient>
<radialGradient id="paint5_radial_808_140" cx="0" cy="0" r="1" gradientUnits="userSpaceOnUse" gradientTransform="translate(121.671 10.9242) rotate(90) scale(0.264328 0.290215)">
<stop stop-color="#313333"/>
<stop offset="1" stop-color="#242222"/>
</radialGradient>
<radialGradient id="paint6_radial_808_140" cx="0" cy="0" r="1" gradientUnits="userSpaceOnUse" gradientTransform="translate(129.605 17.0157) rotate(90) scale(0.227134 0.619608)">
<stop stop-color="#313333"/>
<stop offset="1" stop-color="#242222"/>
</radialGradient>
<radialGradient id="paint7_radial_808_140" cx="0" cy="0" r="1" gradientUnits="userSpaceOnUse" gradientTransform="translate(150.01 41.5132) rotate(90) scale(0.917281 0.617239)">
<stop stop-color="#313333"/>
<stop offset="1" stop-color="#242222"/>
</radialGradient>
<radialGradient id="paint8_radial_808_140" cx="0" cy="0" r="1" gradientUnits="userSpaceOnUse" gradientTransform="translate(142.555 33.7096) rotate(90) scale(0.443519 0.353458)">
<stop stop-color="#313333"/>
<stop offset="1" stop-color="#242222"/>
</radialGradient>
<radialGradient id="paint9_radial_808_140" cx="0" cy="0" r="1" gradientUnits="userSpaceOnUse" gradientTransform="translate(149.5 45.0478) rotate(90) scale(0.673247 0.491492)">
<stop stop-color="#313333"/>
<stop offset="1" stop-color="#242222"/>
</radialGradient>
<radialGradient id="paint10_radial_808_140" cx="0" cy="0" r="1" gradientUnits="userSpaceOnUse" gradientTransform="translate(137.34 25.6233) rotate(90) scale(1.34377 0.989413)">
<stop stop-color="#313333"/>
<stop offset="1" stop-color="#242222"/>
</radialGradient>
<radialGradient id="paint11_radial_808_140" cx="0" cy="0" r="1" gradientUnits="userSpaceOnUse" gradientTransform="translate(142.398 30.7393) rotate(90) scale(0.457309 0.292026)">
<stop stop-color="#313333"/>
<stop offset="1" stop-color="#242222"/>
</radialGradient>
<radialGradient id="paint12_radial_808_140" cx="0" cy="0" r="1" gradientUnits="userSpaceOnUse" gradientTransform="translate(136.26 29.0955) rotate(90) scale(0.764899 0.893185)">
<stop stop-color="#313333"/>
<stop offset="1" stop-color="#242222"/>
</radialGradient>
<radialGradient id="paint13_radial_808_140" cx="0" cy="0" r="1" gradientUnits="userSpaceOnUse" gradientTransform="translate(150.408 54.4338) rotate(90) scale(2.81122 1.35246)">
<stop stop-color="#313333"/>
<stop offset="1" stop-color="#242222"/>
</radialGradient>
<radialGradient id="paint14_radial_808_140" cx="0" cy="0" r="1" gradientUnits="userSpaceOnUse" gradientTransform="translate(155.004 75.1628) rotate(90) scale(0.261233 0.152123)">
<stop stop-color="#313333"/>
<stop offset="1" stop-color="#242222"/>
</radialGradient>
<radialGradient id="paint15_radial_808_140" cx="0" cy="0" r="1" gradientUnits="userSpaceOnUse" gradientTransform="translate(131.019 18.8193) rotate(90) scale(1.06933 0.935378)">
<stop stop-color="#313333"/>
<stop offset="1" stop-color="#242222"/>
</radialGradient>
<radialGradient id="paint16_radial_808_140" cx="0" cy="0" r="1" gradientUnits="userSpaceOnUse" gradientTransform="translate(147.943 52.1821) rotate(90) scale(0.484605 0.25527)">
<stop stop-color="#313333"/>
<stop offset="1" stop-color="#242222"/>
</radialGradient>
<radialGradient id="paint17_radial_808_140" cx="0" cy="0" r="1" gradientUnits="userSpaceOnUse" gradientTransform="translate(127.004 14.8757) rotate(90) scale(0.331476 0.336792)">
<stop stop-color="#313333"/>
<stop offset="1" stop-color="#242222"/>
</radialGradient>
<radialGradient id="paint18_radial_808_140" cx="0" cy="0" r="1" gradientUnits="userSpaceOnUse" gradientTransform="translate(122.285 15.6745) rotate(90) scale(0.611998 0.92464)">
<stop stop-color="#313333"/>
<stop offset="1" stop-color="#242222"/>
</radialGradient>
<radialGradient id="paint19_radial_808_140" cx="0" cy="0" r="1" gradientUnits="userSpaceOnUse" gradientTransform="translate(143.257 37.4736) rotate(90) scale(0.472361 0.874228)">
<stop stop-color="#313333"/>
<stop offset="1" stop-color="#242222"/>
</radialGradient>
<radialGradient id="paint20_radial_808_140" cx="0" cy="0" r="1" gradientUnits="userSpaceOnUse" gradientTransform="translate(145.453 34.5594) rotate(90) scale(0.569429 0.359901)">
<stop stop-color="#313333"/>
<stop offset="1" stop-color="#242222"/>
</radialGradient>
<radialGradient id="paint21_radial_808_140" cx="0" cy="0" r="1" gradientUnits="userSpaceOnUse" gradientTransform="translate(144.443 34.4706) rotate(90) scale(0.35294 0.379702)">
<stop stop-color="#313333"/>
<stop offset="1" stop-color="#242222"/>
</radialGradient>
<radialGradient id="paint22_radial_808_140" cx="0" cy="0" r="1" gradientUnits="userSpaceOnUse" gradientTransform="translate(133.673 22.8411) rotate(90) scale(1.59498 1.84059)">
<stop stop-color="#313333"/>
<stop offset="1" stop-color="#242222"/>
</radialGradient>
<radialGradient id="paint23_radial_808_140" cx="0" cy="0" r="1" gradientUnits="userSpaceOnUse" gradientTransform="translate(96.7776 69.9999) scale(41.7776 36.9503)">
<stop stop-color="#F7C835"/>
<stop offset="1" stop-color="#F7A330"/>
</radialGradient>
</defs>
</svg>
