<svg width="181" height="216" viewBox="0 0 181 216" fill="none" xmlns="http://www.w3.org/2000/svg">
<path d="M21.12 184.88C21.12 179.32 17.32 176.4 11 176.4H2.92V204H8.2V193.84H10.56C16.88 193.84 21.12 190.84 21.12 184.88ZM15.92 185C15.92 188.16 13.92 189.56 10.52 189.56H8.2V180.64H10.72C14.12 180.64 15.92 182.12 15.92 185ZM41.5866 204V199.52H30.3866V191.92H39.4266L38.7066 187.48H30.3866V180.88H41.1866V176.4H25.1466V204H41.5866ZM51.2859 199.44V176.4H46.0059V204H79.0459V176.4H73.7659V199.44H65.1659V176.4H59.8859V199.44H51.2859ZM101.313 204V199.52H90.1131V191.92H99.1531L98.4331 187.48H90.1131V180.88H100.913V176.4H84.8731V204H101.313ZM128.093 204V176.4H122.773V187.32H111.053V176.4H105.733V204H111.053V192.04H122.773V204H128.093ZM139.016 204L151.176 184.6V204H156.416V176.4H151.056L139.136 195.4V176.4H133.936V204H139.016ZM178.696 204V199.52H167.496V191.92H176.536L175.816 187.48H167.496V180.88H178.296V176.4H162.256V204H178.696Z" fill="black"/>
<path d="M158.907 71.8493C158.441 71.619 158.296 71.8711 158.304 72.2771C158.313 72.7734 158.573 72.9569 159.057 72.7983C159.719 72.4311 159.717 72.4218 158.907 71.8493Z" fill="url(#paint0_radial_808_216)"/>
<path d="M160.996 71.4082C160.946 71.15 160.776 71.0099 160.506 70.9944C160.332 71.0488 160.113 71.1017 160.179 71.3366C160.254 71.6089 160.544 71.5902 160.76 71.6322C160.89 71.6587 161.027 71.5747 160.996 71.4082Z" fill="url(#paint1_radial_808_216)"/>
<path d="M158.21 78.0267C158.202 78.0283 158.195 78.0314 158.188 78.0329C158.171 78.0127 158.154 77.9909 158.137 77.9707C158.095 77.2722 158.025 76.5783 157.803 75.9078C157.802 75.9078 157.802 75.9078 157.8 75.9078C157.838 75.8954 157.87 75.8674 157.898 75.8238C158.008 75.2186 158.045 74.6166 157.817 74.0254L157.816 74.0238C157.446 73.3642 157.344 73.3518 156.806 73.9072C156.281 74.0534 155.751 74.0721 155.218 73.9414C155.157 73.8621 155.088 73.7889 155.03 73.708C155.029 73.2942 155.029 72.8804 155.027 72.4681C155.119 71.5363 155.129 70.6044 155.024 69.6725C155.06 67.9006 154.99 66.1348 154.695 64.3831C154.879 63.4186 154.248 62.538 154.404 61.5766C154.672 61.1612 154.698 60.7521 154.382 60.346C154.045 60.2278 154.042 59.94 153.996 59.6755C154.002 59.6009 154.013 59.5262 154.031 59.4515C154.059 59.2353 154 59.0392 153.897 58.8526C153.755 58.7234 153.755 58.3625 153.461 58.487C153.461 58.473 153.461 58.4605 153.462 58.4465C153.511 58.3345 153.48 58.2365 153.428 58.1416C153.704 57.9798 153.625 57.6827 153.625 57.4166C153.523 56.9313 153.377 56.4568 153.268 55.9729C153.151 55.7956 153.171 55.4673 152.847 55.5218C152.847 55.514 152.847 55.5062 152.848 55.4984C152.954 55.3475 152.961 55.2075 152.834 55.0831C152.841 55.08 152.847 55.0768 152.853 55.0737C153.063 54.5401 152.661 54.0905 152.652 53.5865C152.58 53.4029 152.504 53.2224 152.293 53.154C152.292 53.1555 152.289 53.1555 152.287 53.1571C152.281 53.1431 152.275 53.1291 152.268 53.1151C152.385 52.9642 152.371 52.7868 152.339 52.6064C152.312 52.5193 152.283 52.4337 152.256 52.3481C152.396 52.0292 152.345 51.785 152.011 51.6512C152.01 51.6465 152.008 51.6434 152.007 51.6387C151.993 51.6169 151.98 51.5936 151.968 51.5703C151.969 51.5687 151.971 51.5687 151.972 51.5672C152.06 51.4256 152.078 51.2685 152.074 51.1082C152.035 50.8266 152.004 50.5404 151.623 50.5279C151.661 50.489 151.693 50.4455 151.715 50.3941C151.804 50.0768 151.701 49.7843 151.601 49.4887C151.369 48.8027 150.998 48.1741 150.774 47.485C150.721 47.3761 150.643 47.2921 150.535 47.2345C150.467 47.2127 150.401 47.2189 150.337 47.247C150.256 46.5842 150.203 45.9075 149.603 45.4999C149.602 45.4765 149.602 45.4517 149.603 45.4283C149.586 45.3116 149.56 45.1981 149.519 45.0876C149.469 45.0145 149.43 44.9321 149.396 44.8465C149.394 44.7267 149.394 44.6069 149.393 44.4871C149.408 44.3782 149.396 44.2709 149.357 44.1682C149.181 43.9566 149.242 43.4868 148.777 43.5895C148.777 43.5755 148.776 43.5615 148.776 43.549C148.776 43.5444 148.776 43.5397 148.774 43.535C148.779 43.4324 148.783 43.3297 148.788 43.227C148.68 43.073 148.574 42.919 148.467 42.7649C148.47 42.5643 148.472 42.3636 148.25 42.3153C148.236 42.292 148.221 42.2687 148.203 42.2469C148.247 42.1847 148.256 42.1084 148.246 42.0275C148.169 41.8082 148.027 41.6153 147.998 41.3788C147.981 41.315 147.959 41.2512 147.929 41.1921C147.831 41.0225 147.708 40.8701 147.608 40.7021C147.472 40.5185 147.395 40.3069 147.306 40.1016C147.201 39.9304 147.094 39.7609 146.969 39.6022C146.9 39.5431 146.833 39.484 146.752 39.4699C146.749 39.4622 146.745 39.4544 146.741 39.4466C146.634 39.2833 146.526 39.1215 146.299 39.1728C146.299 39.1697 146.299 39.1666 146.299 39.1635C146.336 39.1075 146.341 39.0484 146.314 38.9877C146.307 38.9799 146.3 38.9706 146.293 38.9628C146.291 38.8321 146.288 38.6999 146.286 38.5692V38.5676C146.082 38.3778 146.188 38.0698 146.037 37.8613C146.042 37.8598 146.046 37.8598 146.051 37.8582C146.347 37.6046 146.257 37.3122 146.135 37.0166C146.045 36.8735 145.945 36.735 145.973 36.5514C145.657 36.0318 145.898 35.4593 145.82 34.9179C145.797 34.7546 145.853 34.5166 145.615 34.5072C145.529 34.5041 145.435 34.7157 145.346 34.8308C145.13 34.9771 144.997 35.1497 145.139 35.4095C145.075 35.4064 145.016 35.4204 144.961 35.4547C144.96 35.4578 144.957 35.4593 144.955 35.4609C144.756 35.4609 144.556 35.4609 144.357 35.4609C144.332 35.4422 144.307 35.4235 144.28 35.4064C144.174 35.366 144.075 35.3675 143.984 35.4453C143.984 35.4453 143.975 35.4484 143.962 35.4515C143.955 35.4453 143.948 35.4375 143.942 35.4313C143.956 35.4127 143.969 35.394 143.983 35.3753C143.976 35.2617 143.928 35.1668 143.85 35.086C143.845 35.0828 143.839 35.0797 143.835 35.0766C143.873 34.9988 143.864 34.9179 143.796 34.8355V34.8324C143.696 34.781 143.594 34.7281 143.495 34.6768C143.509 34.669 143.523 34.6612 143.537 34.6504C143.685 34.3703 143.546 34.1603 143.376 33.9503C143.118 33.6298 142.851 33.3124 142.641 32.9546C142.313 32.6357 142.235 32.0694 141.67 31.9916C141.652 31.9979 141.637 32.0072 141.623 32.0165C141.606 31.847 141.523 31.7412 141.361 31.7163C141.345 31.7023 141.328 31.6898 141.311 31.6789C141.281 31.4363 141.135 31.2822 140.953 31.1547C140.954 31.1344 140.956 31.1127 140.956 31.0909C140.871 30.7844 140.8 30.467 140.379 30.4748C140.374 30.4748 140.37 30.4748 140.365 30.4748C140.448 30.0361 140.07 29.8074 139.882 29.4947C139.838 29.4325 139.793 29.3718 139.748 29.3112C139.748 29.2831 139.749 29.2551 139.749 29.2287C139.798 29.168 139.808 29.1011 139.785 29.028C139.614 28.7527 139.388 28.5224 139.165 28.2906C139.123 28.2704 139.081 28.2673 139.04 28.275C139.006 28.1568 138.951 28.0479 138.884 27.9452C138.697 27.6901 138.459 27.4816 138.247 27.2498C137.332 26.458 136.644 25.4561 135.79 24.6082C135.472 24.3469 135.291 23.8724 134.757 23.9471C134.668 23.9471 134.579 23.9486 134.49 23.9486C134.487 23.9377 134.487 23.9268 134.482 23.9159C134.397 23.8179 134.308 23.7293 134.175 23.793C134.055 23.3154 133.748 23.0292 133.278 22.9125C133.455 22.5905 133.454 22.2716 133.215 21.9542C133.215 21.9526 133.215 21.9511 133.215 21.9495C133.22 21.9526 133.223 21.9573 133.229 21.9604C133.778 21.8033 133.951 21.3973 133.946 20.8745C133.929 20.8076 133.915 20.7423 133.9 20.6754C133.94 20.5774 133.982 20.4809 134.023 20.3829C134.13 20.2818 134.193 20.1682 134.186 20.0329C134.222 20.0064 134.26 19.9816 134.297 19.9613C134.601 19.6642 134.679 19.3017 134.599 18.8972C134.584 18.8552 134.565 18.8194 134.548 18.7868C134.571 18.7448 134.593 18.7028 134.617 18.6592C134.055 18.194 133.437 18.4523 132.833 18.5223C132.851 18.5659 132.868 18.6094 132.885 18.653C132.889 18.7012 132.894 18.7494 132.899 18.7977C132.818 18.8474 132.79 18.9314 132.783 19.0279C132.79 19.0995 132.804 19.1695 132.832 19.2364C132.938 19.4526 133.01 19.6797 133.048 19.9178C133.064 19.9847 133.083 20.0516 133.109 20.1169C133.268 20.4405 133.175 20.7252 132.972 20.9959C132.966 21.0052 132.957 21.013 132.95 21.0223C132.704 20.7143 132.391 20.5245 131.967 20.5292C132.051 20.2258 131.798 19.9893 131.786 19.7046C131.72 19.4868 131.667 19.2628 131.538 19.0699C131.399 18.9143 131.234 18.8412 131.024 18.8957C130.53 19.1695 130.009 19.2519 129.459 19.1119C129.306 19.1088 129.158 19.1275 129.026 19.213C129.01 19.2286 128.999 19.2426 128.988 19.2581C128.765 18.7105 128.262 18.4787 127.794 18.2065C127.777 18.2034 127.76 18.1987 127.744 18.194C127.741 18.1427 127.737 18.0929 127.733 18.0416C127.568 17.9529 127.376 17.8985 127.288 17.7071C127.121 17.5158 127.006 17.2233 126.659 17.396C126.611 17.3991 126.563 17.3991 126.513 17.3975C126.293 17.1346 126.12 16.8063 125.706 16.8079C125.706 16.8079 125.704 16.8079 125.704 16.8063C125.696 16.8063 125.687 16.8063 125.679 16.8063C125.835 16.4625 125.498 16.3785 125.328 16.2121C125.149 16.0347 124.851 15.9569 124.803 15.6738C124.867 15.6473 124.923 15.61 124.971 15.5587C124.992 15.4918 124.984 15.4295 124.951 15.3704C125.196 15.1713 125.113 14.9364 124.984 14.717C124.792 14.3919 124.781 14.0434 124.792 13.6856C125.991 13.726 127.207 13.5674 128.369 13.9967C128.421 14.0963 128.474 14.1974 128.525 14.297L128.53 14.3001C128.678 14.5086 128.988 14.4214 129.138 14.6284C129.295 14.7295 129.453 14.8306 129.61 14.9317C129.833 14.9115 130.015 14.8384 130.062 14.5879C130.065 14.4448 130.07 14.3017 130.073 14.1585C129.665 14.0699 129.682 13.6374 129.457 13.4009C129.133 13.3216 128.762 13.3729 128.516 13.0711C128.025 13.0073 127.579 12.8486 127.256 12.4472C127.164 12.4395 127.073 12.4317 126.981 12.4239C126.914 12.0708 126.571 12.0054 126.345 11.8187C125.96 11.6492 125.525 11.5652 125.257 11.1918C125.205 11.1887 125.154 11.1871 125.104 11.184C125.048 11.0844 124.992 10.9833 124.936 10.8838C124.828 10.7857 124.722 10.6877 124.614 10.5882C124.565 10.3766 124.513 10.165 124.463 9.95499C124.339 9.94722 124.223 9.92233 124.158 9.79787C123.961 9.70453 123.852 9.55206 123.844 9.33271C123.742 9.33115 123.639 9.33116 123.536 9.3296L123.531 9.33427C123.472 8.45062 122.794 8.76332 122.311 8.70109C122.37 8.54552 122.244 8.47396 122.138 8.39462H122.136C121.876 8.39151 121.617 8.38995 121.357 8.38684C121.04 8.74776 121.439 9.4665 120.732 9.62985C120.42 9.38249 120.11 9.41205 119.801 9.63608C119.496 9.63141 119.19 9.6283 118.885 9.62363C118.816 9.57385 118.749 9.57384 118.682 9.62674C118.682 9.63607 118.682 9.64385 118.682 9.65319C118.336 9.35449 117.84 9.55518 117.482 9.29382C117.406 9.25026 117.337 9.19892 117.273 9.14136C117.237 9.02935 117.158 8.93912 117.038 8.87222C117.041 8.86289 117.044 8.852 117.047 8.84266C117.049 8.76488 117.024 8.69798 116.968 8.64198C116.933 8.61864 116.896 8.60308 116.86 8.59064C116.618 8.45062 116.251 8.68709 116.057 8.40084C115.958 8.39617 115.858 8.38995 115.758 8.38528C115.758 8.38528 115.758 8.37595 115.758 8.3775C115.75 8.18148 115.741 7.98391 115.733 7.78789C115.741 7.67743 115.749 7.56854 115.757 7.45808C115.75 7.08938 115.683 6.71289 115.906 6.37686C115.849 6.32708 115.789 6.27729 115.732 6.22907C115.412 5.84481 114.991 5.65345 114.503 5.59123C114.242 5.38587 113.981 5.18052 113.719 4.97516C113.74 4.63602 113.323 4.62668 113.25 4.35755C112.909 4.34199 112.692 3.94217 112.31 4.05107C111.414 3.74148 110.487 3.71971 109.548 3.70415C108.283 3.68392 107.017 3.6108 105.762 3.42879C105.663 3.32144 105.563 3.2141 105.463 3.10831C105.337 3.10053 105.217 3.08186 105.144 2.96207C104.266 2.80339 103.384 2.75361 102.494 2.81428C101.772 2.81117 101.052 2.80806 100.33 2.80806C100.019 2.80806 99.6991 2.83606 99.5276 2.48914C99.5276 2.38646 99.5276 2.28378 99.5292 2.18266C99.4263 2.12977 99.3234 2.07687 99.2206 2.02554C99.0304 1.98509 98.8387 1.94619 98.6485 1.90108C98.3898 1.84041 98.3695 1.94464 98.4225 2.10176C98.368 2.11577 98.3181 2.14221 98.276 2.18422C98.2666 2.4378 98.142 2.46425 97.9237 2.38957C97.5917 2.27756 97.2597 2.13599 96.895 2.17488C96.7719 1.89797 96.5365 1.84974 96.2684 1.87152C96.284 1.88552 96.298 1.89952 96.3136 1.91352C96.2949 1.90263 96.2793 1.89019 96.2684 1.87152C96.217 1.86841 96.1671 1.8653 96.1157 1.86374C96.2061 1.28035 96.8389 1.76573 97.0368 1.39703C97.2254 1.16212 96.9901 1.07188 96.881 0.939649C96.8311 0.944316 96.7828 0.942761 96.7329 0.938094C96.6285 0.941205 96.524 0.944316 96.4196 0.945871C96.0097 0.944316 95.5998 0.941204 95.1883 0.939649C95.1446 0.885199 95.087 0.877421 95.0153 0.922537C94.2141 1.84974 93.1168 1.6086 92.1005 1.63505C91.5675 1.64905 91.103 1.4297 90.8068 0.945871C90.6182 0.497827 90.2145 0.661177 89.8825 0.619172C89.2824 0.364036 88.6465 0.326699 88.0074 0.309586C87.4884 0.309586 86.9694 0.309586 86.4519 0.30803C86.2804 0.31892 86.0949 0.284695 85.9812 0.465157L85.9905 0.474491C85.9905 0.479158 85.9905 0.483826 85.9905 0.488493C85.9874 0.480715 85.9843 0.472936 85.9812 0.465157C85.6616 0.410707 85.3655 0.314254 85.2018 0C85.046 0 84.8901 0 84.7342 0C84.5784 0 84.4225 0 84.2666 0C83.9549 0 83.6432 0 83.3314 0C82.9153 0 82.5006 0 82.0845 0C81.6683 0 81.2537 0 80.8375 0C80.6302 0 80.4214 0 80.2141 0C80.0068 0 79.7979 0 79.5906 0C79.4893 0.1089 79.3864 0.216243 79.2851 0.325143C78.9796 0.64562 78.5821 0.626951 78.1878 0.623839C77.9696 0.670511 77.7545 0.726516 77.583 0.874309C77.5378 0.891422 77.4926 0.908535 77.4474 0.925648C77.1201 0.941205 76.7756 0.850973 76.4857 1.09055C76.3828 1.09522 76.28 1.09989 76.1787 1.10455C76.0727 1.10144 75.9667 1.09833 75.8607 1.09522C75.8545 1.24768 75.8467 1.39858 75.8404 1.55104C75.7001 1.82174 75.4757 2.00687 75.2232 2.16555V2.17333C75.1234 2.28378 75.0252 2.39424 74.9255 2.50469C74.5888 2.87807 73.9965 2.71005 73.6645 3.09586C73.5102 3.10209 73.3575 3.10987 73.2032 3.11609C72.999 3.21877 72.854 3.43345 72.5968 3.43812C72.5376 3.43034 72.4768 3.42101 72.4176 3.41323C72.3163 3.4179 72.215 3.42101 72.1136 3.42568C71.8019 3.63259 71.4886 3.83794 71.1769 4.04485C71.074 4.0993 70.9727 4.15375 70.8698 4.2082C70.8901 4.41977 70.7966 4.65936 71.0194 4.8227C70.8979 5.21786 70.5596 5.39676 70.2432 5.599C70.1388 5.70324 70.0359 5.80591 69.9315 5.91015C69.2223 6.1435 68.5053 6.31774 67.7493 6.22284C67.1243 6.32241 66.4977 6.42198 65.8727 6.52154C65.3568 6.40175 64.7411 6.80624 64.3125 6.22751C64.2112 6.22596 64.1098 6.22284 64.0085 6.22129C63.41 5.93348 62.9097 6.12172 62.4576 6.54021V6.53865C62.3252 6.61644 62.2254 6.70356 62.3111 6.84046C62.3065 6.83891 62.3002 6.8389 62.2955 6.8389C62.294 6.8389 62.2924 6.84046 62.2909 6.84046C62.1397 6.85135 61.99 6.86224 61.8388 6.87313C61.8373 6.92136 61.8357 6.96959 61.8357 7.01781C61.8155 7.02248 61.7936 7.0287 61.7734 7.03493C61.5879 7.10804 61.4648 7.24028 61.3884 7.41763C60.9333 7.33673 60.7945 7.88746 60.4329 7.9948C60.3363 8.10059 60.2287 8.19549 60.143 8.31061C60.1399 8.31839 60.1368 8.32617 60.1337 8.3355C60.0729 8.32461 60.0121 8.34172 59.9513 8.39151C59.9045 8.39773 59.8578 8.4024 59.8095 8.40862C59.5632 8.85511 59.0971 9.04802 58.7215 9.3436C58.7168 9.44161 58.7121 9.53962 58.7075 9.63763C58.6467 9.74031 58.5874 9.84298 58.5267 9.94411C58.4768 9.93788 58.4347 9.95188 58.3989 9.98767C58.0294 10.0888 57.7629 10.3595 57.4574 10.5648C56.9212 10.5773 56.463 10.9615 55.9081 10.8915L55.9096 10.8946C55.8286 10.9631 55.8146 11.0393 55.8504 11.1233C55.813 11.1031 55.7725 11.0876 55.7273 11.0798C55.0009 11.3162 54.3697 11.7814 53.6075 11.9479C53.4033 11.993 53.2443 12.1999 53.4126 12.4426C53.4111 12.4426 53.4095 12.4426 53.408 12.4426C53.3971 12.4472 53.3862 12.4519 53.3737 12.455C53.0354 12.511 52.8375 12.7148 52.7767 13.0571C52.3824 12.8875 52.1049 13.3744 51.7199 13.2547C51.6903 13.2671 51.6638 13.2842 51.6373 13.3013C51.603 13.2484 51.5687 13.1971 51.5344 13.1442C51.4877 13.1178 51.4394 13.0913 51.3926 13.0649C51.4175 12.7304 51.5516 12.4612 51.8509 12.2886C51.8477 12.1345 51.8446 11.9805 51.8431 11.8265C51.8477 11.7721 51.8509 11.7192 51.8555 11.6647C51.4378 11.6134 51.0201 11.5605 50.6024 11.5092C50.3389 11.5014 50.1924 11.7176 49.9898 11.8296C49.9555 12.0988 50.1987 12.2326 50.2937 12.4379C50.3966 12.4877 50.4995 12.5359 50.6039 12.5857C50.7021 12.7444 50.6803 12.9062 50.6133 13.068C50.4636 13.264 50.4636 13.46 50.5992 13.656C50.5478 13.7027 50.5197 13.7665 50.5104 13.8443C50.5151 13.9127 50.5307 13.9765 50.565 14.0372C50.66 14.157 50.7317 14.2845 50.738 14.4401C50.7426 14.5879 50.7333 14.7357 50.6896 14.8804C50.4792 15.1713 50.1207 14.9924 49.8651 15.1402C49.8106 15.1682 49.7685 15.2055 49.7311 15.246C49.7124 15.2444 49.6921 15.2429 49.6734 15.2429C49.5658 15.344 49.4567 15.4451 49.3492 15.5462C49.3367 15.5462 49.3258 15.5649 49.3149 15.6038C49.3149 15.6053 49.3149 15.6053 49.3149 15.6069C49.3009 15.6162 49.2868 15.6256 49.2728 15.6365C49.0452 15.8698 48.7522 16.0534 48.6961 16.4128C48.6992 16.419 48.7023 16.4252 48.7055 16.4314C48.6992 16.4361 48.6914 16.4376 48.6852 16.4423C48.4529 16.2556 48.1833 16.2992 47.9152 16.3459C47.8435 16.3692 47.7749 16.3956 47.711 16.4299C47.5863 16.3676 47.4585 16.4034 47.3291 16.4843C47.0081 16.6554 46.9286 17.021 46.6963 17.2637C46.7384 17.3042 46.7789 17.3446 46.821 17.3851C46.8101 17.3944 46.7961 17.4022 46.7852 17.4115C46.5482 17.718 46.33 18.0369 46.1305 18.3683C46.0682 18.3683 46.0043 18.3683 45.9419 18.3667C45.8297 18.5674 45.7175 18.7681 45.6052 18.9688C45.4026 19.2784 45.0893 19.5428 45.2078 19.9784C45.2265 20.0158 45.253 20.0438 45.2826 20.0656C45.0036 20.0656 45.1018 20.2865 45.0753 20.4343C45.0332 20.6707 45.1641 20.929 44.9833 21.1468C44.5828 21.2261 44.3303 21.5186 44.059 21.7846C43.4745 22.3665 42.8604 22.8518 41.9689 22.41C41.9486 22.4007 41.919 22.41 41.8925 22.41C41.8847 22.508 41.8769 22.6045 41.8707 22.7025C41.3033 23.3668 41.6805 24.1617 41.5667 24.8898C41.5667 24.9909 41.5667 25.0921 41.5667 25.1947C41.4171 25.2399 41.2659 25.2834 41.1178 25.3145C40.9199 25.3176 40.7235 25.3239 40.5271 25.3456C40.2808 25.3036 40.0517 25.1761 39.8475 24.8945C39.6948 24.7591 39.5389 24.7654 39.3799 24.8836C39.3799 24.8836 39.3721 24.882 39.3721 24.8836C39.3737 24.9863 39.3752 25.089 39.3768 25.1916L39.3861 25.2025C39.2879 25.3083 39.1913 25.4141 39.0931 25.5214H39.0869C38.9669 25.6428 38.9918 25.8046 38.9684 25.9539C38.9684 25.9555 38.97 25.9586 38.9715 25.9602C38.8047 25.9819 38.8811 26.2246 38.7705 26.2977C38.6645 26.5544 38.5585 26.8111 38.454 27.0678C38.4603 27.1721 38.465 27.2763 38.4712 27.3805C38.4618 27.3976 38.4525 27.4147 38.4463 27.4334C38.4088 27.5252 38.3823 27.6185 38.359 27.7134C38.2623 27.9079 38.1454 28.0946 38.1688 28.3264C38.0971 28.5971 38.1345 28.9642 37.6731 28.9004C37.4752 28.9471 37.2149 28.9051 37.204 29.2131C37.1962 29.2225 37.19 29.2303 37.1837 29.2396C37.1385 29.2411 37.0933 29.2427 37.0481 29.2443C36.9936 29.5523 36.9375 29.8603 36.8829 30.1684C36.6849 30.3939 36.646 30.6802 36.5836 30.9571C36.2142 31.2107 35.8557 31.4954 35.3616 31.4316C35.251 31.5327 35.1387 31.6338 35.0281 31.735C34.9813 31.735 34.933 31.7365 34.8862 31.7396C34.8722 31.7147 34.8535 31.6914 34.8254 31.6681C34.6696 31.598 34.5293 31.6136 34.4062 31.7396V31.7412C34.0835 32.1161 33.75 32.4786 33.3821 32.81C32.8522 33.3218 32.3705 33.8678 32.0993 34.5663C32.1009 34.655 32.1196 34.7359 32.1695 34.8028C32.1617 34.8153 32.1523 34.8261 32.1445 34.8386C32.09 34.9459 32.065 35.0595 32.0681 35.1793C32.0713 35.2229 32.0806 35.2649 32.0915 35.3053C31.7252 35.7782 31.3574 36.2496 30.9895 36.7226C30.9007 36.7832 30.8524 36.8688 30.8368 36.973C30.8337 37.0119 30.8337 37.0524 30.8368 37.0897C30.7807 37.1224 30.7246 37.155 30.67 37.1877C30.5671 37.446 30.4643 37.7042 30.3598 37.9625L30.3552 37.9702C30.112 38.2549 29.9032 38.5583 29.7753 38.9099C29.7457 38.9301 29.7161 38.955 29.6881 38.9768C29.646 39.025 29.6086 39.0748 29.5774 39.1308C29.5244 39.1588 29.473 39.1868 29.42 39.2133C29.3857 39.3377 29.3498 39.4606 29.3155 39.5851C29.2859 39.6286 29.2547 39.6722 29.222 39.7142C29.1908 39.7593 29.1628 39.806 29.1378 39.8542C28.597 40.0611 28.4396 40.5107 28.4458 41.0661C28.0016 41.0303 27.9143 41.3928 27.7709 41.6946C27.7537 41.8129 27.774 41.9217 27.8551 42.0135C27.7023 42.1162 27.5511 42.2189 27.3984 42.3216L27.3968 42.32C27.2487 42.5331 27.0617 42.7167 26.9292 42.9423V42.9454C26.764 43.059 26.7328 43.2628 26.6175 43.4106L26.619 43.4121C26.6206 43.4806 26.6221 43.5475 26.6253 43.6159C26.5988 43.6424 26.5738 43.6735 26.552 43.7062C26.5146 43.8213 26.5255 43.9271 26.6097 44.0173C26.5333 44.0733 26.5006 44.1573 26.4834 44.2538C26.6066 44.834 25.9379 45.0612 25.902 45.5699C25.9067 45.6041 25.9176 45.6368 25.9332 45.6663C25.9239 45.6741 25.9145 45.6819 25.9036 45.6881C25.6947 45.9168 25.4765 46.1408 25.5732 46.4924C25.5809 46.5095 25.5887 46.5251 25.5965 46.5422C25.4453 46.6075 25.344 46.76 25.1804 46.8051C25.012 46.8658 24.8343 46.8611 24.6598 46.886C24.4478 46.9171 24.2904 47.0058 24.4073 47.2345C23.9646 47.6312 23.8493 48.2006 23.6575 48.728C23.6544 48.7669 23.6544 48.8058 23.656 48.8447C23.6045 48.8493 23.5547 48.854 23.5032 48.8587C23.4471 49.0096 23.391 49.1605 23.3349 49.3114L23.2881 49.3098C23.2881 49.6474 22.8907 49.7672 22.8595 50.0877C22.8564 50.2868 22.8548 50.4859 22.8517 50.6851C22.5322 50.7753 22.5711 51.0273 22.5618 51.2638C22.5602 51.2809 22.5587 51.298 22.5587 51.3151C22.5587 51.3167 22.5587 51.3182 22.5587 51.3198C22.5384 51.5609 22.6304 51.827 22.4729 52.0432C22.4137 52.0432 22.3545 52.0463 22.2937 52.0572C22.0615 52.1319 21.9695 52.345 21.8401 52.5208C21.7466 52.6593 21.611 52.6935 21.4551 52.6717C21.2977 52.653 21.134 52.5924 21 52.7386C21 52.9984 21 53.2567 21 53.5165C21 53.8276 21 54.1387 21 54.4499C21.1621 54.5417 21.2213 54.7844 21.4598 54.7673C21.8292 55.2946 22.2984 55.7116 22.8673 56.0149C22.9717 56.1145 23.0777 56.2156 23.1821 56.3152C23.7027 56.4879 23.8945 56.771 23.4923 57.2486C23.4128 57.3777 23.3817 57.5069 23.4424 57.6344C23.4206 57.678 23.3972 57.7215 23.3723 57.7636C23.2227 58.2738 23.3458 58.7172 23.7012 59.103C23.7214 59.1217 23.7448 59.1373 23.7682 59.1497C23.6014 59.3068 23.7012 59.5993 23.4954 59.7378C23.3926 59.7346 23.2897 59.7331 23.1853 59.73C22.9328 59.744 22.5026 59.3877 22.5556 60.0333C22.4496 60.3507 22.3436 60.6665 22.2376 60.9839C22.275 61.3386 22.2095 61.6622 21.957 61.9313C21.6391 63.6037 22.2579 65.161 22.5462 66.7587C22.5462 66.7587 22.5462 66.7587 22.5462 66.7602C22.5446 66.9018 22.5431 67.0418 22.5415 67.1834C22.2189 67.5536 22.5867 68.0841 22.2485 68.4497L22.2516 68.4513C22.0677 69.573 21.6671 70.7522 23.0762 71.4367C23.1198 71.4569 23.1463 71.5114 23.1821 71.5487L23.1899 71.5627C23.3068 71.8785 23.2975 72.1943 23.1946 72.5117C23.1899 72.6097 23.1837 72.7062 23.179 72.8042C23.271 73.4047 23.0185 73.9554 22.9094 74.5263C22.8595 74.6648 22.8065 74.8033 22.7504 74.9402C22.7223 75.0195 22.699 75.1004 22.688 75.1844C22.6491 75.424 22.6413 75.6605 22.6538 75.8969C22.6148 76.9875 23.0403 78.0687 22.7707 79.1624C22.7566 79.3195 22.7426 79.4782 22.7286 79.6353C22.8314 79.6322 22.9359 79.6291 23.0387 79.626C24.2623 79.6431 24.6411 80.0709 24.3995 81.1863C24.3293 81.5115 24.2124 81.8257 24.1158 82.1462C23.8461 82.5772 23.776 83.0283 23.7713 83.4857C23.7604 83.5728 23.7542 83.6615 23.762 83.7502C23.7807 83.9726 23.7199 84.2309 23.8087 84.4284C23.8165 84.598 23.8228 84.766 23.8165 84.9341C23.8134 85.0336 23.8119 85.1332 23.8087 85.2343C24.7439 85.1721 24.0503 85.7493 24.1205 86.0262C24.0082 86.2222 23.8695 86.3933 23.6607 86.4944C23.6622 86.6002 23.6638 86.7076 23.6669 86.8134L23.6482 86.8009C23.4269 86.9456 23.3567 87.1867 23.2554 87.4076C23.0419 87.3952 22.9904 87.613 22.8813 87.7468C22.7753 87.9521 22.6678 88.1559 22.5618 88.3613C22.4636 88.366 22.3654 88.3706 22.2656 88.3753C22.2594 88.4733 22.2532 88.5697 22.2469 88.6678C22.2423 88.7689 22.236 88.87 22.2314 88.9711C22.088 89.5436 21.3336 89.0816 21.159 89.6027C21.106 89.6027 21.053 89.6027 21 89.6012C21 89.9637 21 90.3277 21 90.6902C21.159 90.7369 21.3164 90.7835 21.4754 90.8302C21.7248 90.8318 21.9757 90.8333 22.2251 90.8349C22.6538 90.5517 23.0606 91.076 23.4876 90.8815C23.4923 90.9204 23.4954 90.9578 23.4986 90.9967C23.497 91.1024 23.497 91.2067 23.4954 91.3125C23.497 91.3638 23.4954 91.4151 23.4892 91.4665C23.4393 91.5769 23.2227 91.5225 23.1759 91.6361C23.1712 91.6361 23.1666 91.6361 23.1634 91.6361C23.0465 91.6516 22.9499 91.7029 22.8751 91.7947C22.6631 91.9456 22.4511 92.0965 22.2391 92.2475C22.0256 92.3315 21.9633 92.5119 21.9368 92.7157C21.6936 92.9351 21.6921 92.9631 21.9336 93.0409C22.2485 93.3956 22.0615 94.0054 22.5556 94.2699C22.5509 94.3757 22.5462 94.4815 22.5431 94.5872C22.6491 94.693 22.7551 94.7973 22.8611 94.9031C22.9639 94.9015 23.0652 94.9015 23.1681 94.8999C23.4845 95.2593 23.8009 95.6202 24.1174 95.9796C24.1236 96.1305 24.1298 96.2799 24.1345 96.4308C24.1859 96.5334 24.2374 96.6361 24.2888 96.7372C24.4369 96.7466 24.5865 96.7543 24.7361 96.7621C24.7471 96.9613 24.758 97.1604 24.7673 97.358C24.8671 97.4606 24.9668 97.5649 25.0666 97.6675C25.2973 97.8247 25.4952 98.0067 25.5248 98.307C25.5264 98.5139 25.528 98.7192 25.5311 98.9261C25.7337 99.1517 25.9363 99.3819 26.1467 98.9339C26.6315 98.9261 27.1287 98.895 27.2456 99.5468C27.3454 99.55 27.4436 99.5546 27.5433 99.5577C27.64 99.8175 27.7366 100.079 27.8332 100.339C27.9268 100.854 27.7693 101.397 27.9657 101.899C27.9735 102.103 27.9875 102.305 28.0172 102.507C28.039 102.588 28.0655 102.666 28.0982 102.738C28.1247 102.92 28.1512 103.103 28.1777 103.285C28.173 103.389 28.1683 103.495 28.1621 103.599C28.2712 103.701 28.3788 103.803 28.4879 103.904C28.5705 104.292 28.9477 104.494 29.0864 104.847L29.1129 104.835C29.1098 104.942 29.1051 105.048 29.102 105.155L29.1113 105.152C29.1565 105.544 29.4402 105.454 29.6771 105.455C29.6881 105.469 29.7005 105.485 29.7146 105.497C29.7348 105.507 29.7535 105.51 29.7722 105.511C29.7613 105.886 30.0777 106.09 30.2398 106.376C30.2835 106.431 30.3302 106.479 30.3848 106.523C30.5516 106.639 30.709 106.765 30.8462 106.916C30.8945 106.966 30.9443 107.014 30.9973 107.058C31.0176 107.069 31.0363 107.081 31.0566 107.092C31.253 107.455 31.7798 107.54 31.9092 107.957C31.9887 108.035 32.0791 108.049 32.1788 107.999C32.1882 107.99 32.1975 107.98 32.2069 107.971L32.2084 107.973C32.1928 107.99 32.1788 108.007 32.1632 108.024C32.0947 108.326 32.2708 108.544 32.4952 108.638C32.9987 108.853 33.2013 109.287 33.418 109.718C33.3899 109.771 33.365 109.83 33.3385 109.886C33.2808 110.141 33.2559 110.39 33.4741 110.594C33.7391 111.058 34.0025 111.523 34.2674 111.986C34.3142 111.986 34.3594 111.985 34.4062 111.982C34.8177 112.231 35.0405 112.716 35.4941 112.912C35.6438 113.55 36.1784 113.741 36.7005 113.945C36.7302 113.943 36.7582 113.937 36.7831 113.928C36.9281 114.108 37.0746 114.29 37.2196 114.471C37.2804 114.703 37.5485 114.833 37.5235 115.106C37.6186 115.456 37.7184 115.754 37.589 116.173C37.3552 116.932 38.0083 117.4 38.4478 117.91C39.0386 118.152 39.2459 118.779 39.6994 119.157C39.8054 119.248 39.9114 119.234 40.0174 119.16C40.0174 119.363 40.019 119.567 40.019 119.771C40.2465 119.961 40.3182 120.311 40.658 120.384C40.7063 120.39 40.7562 120.396 40.8045 120.403C40.8076 120.518 40.8373 120.624 40.9012 120.72C41.0789 120.922 41.2939 121.067 41.5465 121.157C41.5963 121.167 41.6462 121.179 41.6961 121.191C41.8738 121.386 42.1325 121.454 42.3866 121.523C42.943 121.674 43.5057 121.809 44.0637 121.951C44.6046 121.958 44.059 122.464 44.3552 122.584C44.3848 123.016 44.5796 123.34 44.9849 123.522C45.2561 123.875 45.5569 124.2 45.9419 124.437C45.984 124.595 46.0916 124.693 46.2365 124.757C46.3394 124.863 46.4438 124.97 46.5467 125.076C46.5498 125.173 46.5529 125.269 46.556 125.365C46.927 125.305 47.1468 125.664 47.485 125.695C47.538 125.691 47.5926 125.686 47.6455 125.681C47.725 125.684 47.8045 125.686 47.884 125.689C47.9464 125.72 48.0103 125.75 48.0711 125.782C48.1412 125.81 48.2129 125.832 48.2862 125.846C48.2908 125.846 48.2955 125.848 48.3002 125.848C48.6275 126.047 48.9923 126.02 49.357 125.999C49.5066 126.034 49.6547 126.075 49.8012 126.125C49.8667 126.142 49.9337 126.154 50.0007 126.162C50.0646 126.57 50.0833 126.985 50.194 127.386C50.353 127.612 50.5353 127.783 50.819 127.735C51.0668 128.191 51.5578 128.436 51.8181 128.88C52.1595 129.031 52.2717 129.6 52.7798 129.445C52.6349 129.964 53.0729 130.008 53.3784 130.16C53.3893 130.162 53.4002 130.16 53.4126 130.16C53.4173 130.221 53.4204 130.281 53.4251 130.342C54.2403 130.806 54.8217 131.612 55.7444 131.917C56.1388 132.564 56.9789 132.374 57.473 132.834C57.6164 132.956 57.7691 133.062 57.9328 133.153C58.0669 133.258 58.2227 133.298 58.3879 133.304C58.4456 133.301 58.5002 133.29 58.55 133.27C58.6545 133.338 58.7605 133.407 58.8649 133.474C58.9226 133.468 58.9802 133.461 59.0379 133.455C59.5975 133.636 60.1165 133.881 60.5109 134.331C60.422 134.381 60.3643 134.449 60.408 134.574C60.4641 134.62 60.5187 134.669 60.5748 134.715C60.7306 134.922 61.0143 134.879 61.1982 135.031C61.2029 135.131 61.206 135.23 61.2107 135.33C61.2699 135.417 61.3572 135.462 61.4539 135.492C61.6518 135.534 61.817 135.652 61.9932 135.737C62.0586 135.759 62.1272 135.772 62.1958 135.773C62.2893 135.768 62.3719 135.74 62.4421 135.683C62.548 135.932 62.7179 136.078 63.0172 136.013C63.0219 136.008 63.0266 136.003 63.0297 135.999C63.0312 136 63.0344 136.002 63.0359 136.003C62.9782 136.1 62.986 136.198 63.0499 136.294C63.145 136.352 63.2385 136.357 63.3305 136.307C63.2946 136.402 63.3056 136.495 63.3726 136.585C63.3788 136.63 63.3851 136.675 63.3897 136.721C63.5955 136.778 63.8012 136.834 64.007 136.892C64.2969 137.019 64.5213 137.318 64.8923 137.239C64.9094 137.218 64.9219 137.201 64.9313 137.184C64.9344 137.19 64.9375 137.197 64.9406 137.203C64.9406 137.203 64.9422 137.203 64.9422 137.204C64.9952 137.306 65.0482 137.408 65.1012 137.509C65.151 137.509 65.2009 137.512 65.2508 137.517C65.4784 137.484 65.6779 137.562 65.8727 137.662C65.8446 137.707 65.8462 137.757 65.8836 137.814C66.4011 137.816 66.917 137.819 67.4345 137.82C67.7478 137.614 68.0611 137.407 68.3744 137.2C68.3744 137.139 68.3744 137.078 68.3744 137.018C68.3791 137.013 68.3853 137.01 68.39 137.005C68.524 136.884 68.6612 136.766 68.6846 136.57L68.6861 136.568C68.6986 136.596 68.7173 136.626 68.7438 136.661C69.3252 136.823 69.8941 136.713 70.4614 136.579C70.7591 136.431 71.2268 136.427 71.0428 135.879C71.0023 135.815 70.954 135.758 70.8963 135.708C70.8496 135.678 70.8059 135.644 70.7638 135.608C70.7186 135.51 70.6984 135.412 70.8433 135.313C70.9805 135.198 70.9898 135.068 70.9088 134.932C70.9322 134.942 70.954 134.953 70.9805 134.96C71.0756 134.969 71.166 134.95 71.2517 134.908C71.3343 134.865 71.4169 134.823 71.5026 134.785C71.7333 134.712 71.95 134.776 72.1682 134.844C72.455 134.916 72.72 134.978 72.4986 135.389C72.3646 135.638 72.3506 135.926 72.614 136.143C72.6483 136.148 72.681 136.147 72.7122 136.137C72.7262 136.229 72.7402 136.321 72.7527 136.414C73.1252 136.694 73.504 136.962 73.9747 137.058C73.9794 137.102 73.984 137.145 73.9872 137.187C74.2272 137.226 74.447 137.307 74.62 137.488C74.8772 137.495 75.1063 137.554 75.2419 137.802C75.4804 137.845 75.8108 137.722 75.8498 138.132C76.0571 138.237 76.2628 138.343 76.4701 138.449C76.5403 138.563 76.6494 138.601 76.7756 138.603C76.7756 138.651 76.7803 138.699 76.7897 138.748C77.0655 138.782 77.3446 138.802 77.6173 138.853C78.5369 139.026 79.4534 139.21 80.3715 139.39C80.5071 139.468 80.6427 139.508 80.7799 139.429C80.7923 139.432 80.8032 139.435 80.8157 139.438C80.8017 139.634 81.0745 139.572 81.154 139.684C81.2568 139.686 81.3597 139.686 81.4626 139.687C81.8647 139.848 82.3198 139.792 82.7095 139.998C82.8139 139.998 82.9168 139.998 83.0212 139.998C83.333 139.998 83.6447 139.998 83.9564 139.998C84.1638 139.998 84.3726 139.998 84.5799 139.998C84.8917 139.998 85.2034 139.998 85.5151 139.998C86.243 139.998 86.9694 139.998 87.6973 139.998C89.6706 139.998 91.6454 139.998 93.6187 139.998C93.9304 139.998 94.2421 139.998 94.5539 139.998C94.6583 139.998 94.7612 139.998 94.8656 139.998C95.2818 139.998 95.6964 139.998 96.1126 139.998C96.3199 139.998 96.5287 139.998 96.736 139.998C96.8405 139.998 96.9433 139.998 97.0478 139.998C97.1319 139.913 97.1616 139.807 97.1506 139.69C97.1179 139.518 97.0821 139.347 96.9917 139.199C97.0665 139.203 97.1397 139.197 97.2145 139.182C97.2707 139.172 97.3252 139.16 97.3813 139.147C97.4764 139.158 97.5746 139.124 97.6728 139.071C98.0251 139.068 98.3773 139.065 98.7311 139.062C98.7374 139.065 98.742 139.067 98.7483 139.07C98.7982 139.113 98.8465 139.16 98.8963 139.205C98.9228 139.231 98.9447 139.259 98.9618 139.289C98.9992 139.526 99.0382 139.764 99.0756 140C99.127 140 99.18 140 99.2315 140C99.3873 140 99.5432 140 99.6991 140C99.8549 140 100.011 140 100.167 140C100.171 139.899 100.178 139.798 100.182 139.697C100.174 139.641 100.167 139.586 100.159 139.53C100.273 139.245 100.656 139.121 100.625 138.751C100.684 138.703 100.742 138.653 100.801 138.605C101.3 138.643 101.816 138.651 102.051 139.222C101.92 139.501 101.574 139.645 101.569 140C101.725 140 101.881 140 102.037 140C102.244 140 102.453 140 102.661 140C102.859 139.849 102.787 139.558 102.971 139.4C103.072 139.284 103.173 139.169 103.275 139.054C103.373 138.972 103.374 138.872 103.325 138.765C103.321 138.762 103.317 138.76 103.314 138.757C103.435 138.679 103.565 138.609 103.583 138.441C103.639 138.393 103.696 138.346 103.752 138.298C103.992 138.479 104.232 138.318 104.475 138.307C104.916 138.289 105.407 138.184 105.652 138.731C105.929 138.821 106.093 139.165 106.456 139.068C107.061 138.908 107.67 138.763 108.278 138.611C108.434 138.609 108.59 138.612 108.744 138.606C109.06 138.594 109.449 138.569 109.547 138.259C109.653 137.929 109.18 137.897 109.028 137.671C108.914 137.428 108.845 137.178 108.923 136.909C109.219 136.795 109.516 136.68 109.812 136.567C110.3 135.922 111.051 136.209 111.673 136.041C111.824 135.871 112.145 135.982 112.274 135.776C112.31 135.768 112.348 135.759 112.384 135.745C112.455 135.709 112.527 135.678 112.6 135.652C112.843 135.642 113.079 135.604 113.299 135.502C113.405 135.493 113.51 135.488 113.618 135.487C114.174 135.324 114.697 135.067 115.261 134.928C115.287 134.908 115.308 134.891 115.329 134.872C115.473 134.967 115.608 134.83 115.749 134.816C115.925 134.706 116.101 134.597 116.237 134.435C116.243 134.435 116.246 134.417 116.249 134.39C116.595 134.284 116.941 134.179 117.286 134.073C117.348 133.979 117.409 133.886 117.471 133.791C117.516 133.791 117.561 133.79 117.607 133.785C117.61 133.796 117.613 133.807 117.618 133.819C117.728 133.883 117.833 133.869 117.932 133.793C118.155 133.799 118.355 133.726 118.542 133.612C118.545 133.567 118.55 133.522 118.556 133.477C118.606 133.475 118.656 133.474 118.706 133.475C118.737 133.418 118.769 133.359 118.801 133.301C118.821 133.3 118.841 133.298 118.861 133.295C119.003 133.265 119.131 133.206 119.246 133.121C119.292 133.077 119.334 133.034 119.349 132.982C119.394 132.97 119.438 132.956 119.48 132.936C119.521 132.906 119.558 132.873 119.589 132.839C119.726 132.825 119.848 132.775 119.956 132.697C120.012 132.704 120.068 132.707 120.126 132.704C120.236 132.691 120.345 132.677 120.448 132.634C120.511 132.606 120.568 132.573 120.623 132.537C120.66 132.539 120.699 132.542 120.737 132.543C121.312 132.445 121.669 132.057 121.979 131.609C122.029 131.605 122.077 131.604 122.127 131.605C122.205 131.335 122.607 131.321 122.613 130.994C122.928 130.901 123.134 130.694 123.246 130.389C123.257 130.389 123.265 130.37 123.274 130.342C123.279 130.339 123.285 130.334 123.29 130.331C123.522 130.165 123.771 130.02 124.005 129.855C124.061 129.807 124.111 129.751 124.148 129.687C124.189 129.597 124.201 129.511 124.152 129.432C124.156 129.432 124.159 129.432 124.164 129.432C124.172 129.432 124.181 129.432 124.189 129.432C124.184 129.435 124.18 129.44 124.175 129.443C124.275 129.44 124.376 129.437 124.476 129.435C124.685 129.332 124.828 129.11 125.088 129.101C125.297 128.852 125.533 128.603 125.098 128.345C125.102 128.292 125.105 128.237 125.11 128.184C125.096 128.135 125.093 128.083 125.096 128.03C125.197 127.794 125.244 127.554 125.135 127.309C125.16 127.332 125.19 127.351 125.224 127.366C125.377 127.411 125.519 127.402 125.643 127.318C125.607 127.399 125.6 127.484 125.617 127.576C125.695 127.828 125.914 127.931 126.12 128.046C126.334 128.145 126.535 128.276 126.77 128.323C127.055 128.354 127.33 128.309 127.593 128.195C127.696 128.191 127.799 128.187 127.9 128.183C128.098 128.049 128.362 128.121 128.555 127.974C128.732 127.881 128.913 127.795 129.096 127.711C129.156 127.682 129.214 127.649 129.27 127.609C129.465 127.379 129.764 127.431 130.008 127.329C130.229 127.217 130.466 127.155 130.709 127.116C131.041 127.063 131.435 127.189 131.655 126.797C131.706 126.795 131.758 126.794 131.808 126.789C131.932 126.683 131.989 126.535 132.046 126.389C132.116 126.213 132.224 126.062 132.346 125.921C132.427 125.817 132.497 125.708 132.511 125.572C132.509 125.533 132.498 125.498 132.481 125.467C132.724 125.421 132.924 125.275 133.147 125.182C133.207 125.143 133.256 125.09 133.29 125.026C133.334 124.883 133.343 124.745 133.228 124.626C133.228 124.626 133.221 124.622 133.215 124.616C133.215 124.614 133.217 124.612 133.217 124.611C133.234 124.623 133.251 124.636 133.268 124.648C133.864 124.413 134.196 124.018 134.161 123.401C134.18 123.393 134.2 123.388 134.224 123.388C134.309 123.354 134.39 123.313 134.461 123.253C134.836 123.698 135.182 123.307 135.538 123.194C135.653 123.128 135.698 123.029 135.689 122.901C136.256 122.785 136.699 122.546 136.691 121.867C136.69 121.865 136.688 121.865 136.688 121.864C136.694 121.856 136.7 121.848 136.707 121.84C136.828 121.86 136.92 121.787 137.009 121.71C137.076 121.626 137.138 121.54 137.132 121.433C137.138 121.434 137.143 121.437 137.149 121.437C137.224 121.433 137.294 121.415 137.361 121.383C137.753 121.075 138.273 120.949 138.571 120.513C138.643 120.354 138.77 120.238 138.875 120.104C138.911 120.006 138.911 119.913 138.85 119.826C138.881 119.85 138.915 119.871 138.957 119.88C139.283 119.877 139.545 119.679 139.843 119.592C140.047 119.496 140.212 119.354 140.321 119.155C140.391 118.956 140.494 118.758 140.388 118.545C140.775 118.559 140.971 118.385 140.993 118.036C141.386 117.957 141.635 117.665 141.916 117.416C141.964 117.364 141.998 117.304 142.02 117.237C142.028 117.167 142.02 117.098 141.994 117.033C141.981 117.022 141.969 117.01 141.955 116.999C142.719 116.901 143.068 116.247 143.563 115.793C143.766 115.484 144.092 115.242 144.104 114.827C144.269 114.796 144.318 114.606 144.422 114.493C144.414 114.27 144.52 113.993 144.252 113.892C144.152 113.502 143.758 113.276 143.672 112.879C143.665 112.854 143.655 112.83 143.644 112.806C144.244 112.338 145.078 112.437 145.702 112.027C145.9 112.021 146.098 112.016 146.296 112.01C146.448 112.007 146.603 112.002 146.755 111.999C146.919 111.741 146.96 111.465 146.812 111.194C146.548 110.715 146.572 110.207 146.618 109.692C146.726 109.584 146.833 109.479 146.941 109.371C146.932 109.32 146.921 109.268 146.911 109.217C146.841 109.188 146.773 109.156 146.702 109.127C146.702 109.125 146.702 109.124 146.701 109.122C146.609 109.048 146.584 108.976 146.634 108.904C146.9 108.995 146.78 108.651 146.914 108.592L146.916 108.589C146.914 108.511 146.914 108.432 146.913 108.354C146.938 108.346 146.961 108.337 146.986 108.324C147.326 108.103 147.437 107.714 147.661 107.408C147.868 107.459 147.984 107.279 148.102 107.131C148.277 106.912 148.436 106.68 148.645 106.49C148.726 106.367 148.829 106.258 148.874 106.114C148.875 106.109 148.875 106.104 148.875 106.1C148.947 106.098 149.019 106.098 149.09 106.096C149.089 105.939 149.087 105.782 149.086 105.625C149.084 105.627 149.081 105.628 149.079 105.63C149.079 105.628 149.079 105.627 149.081 105.623C149.081 105.617 149.083 105.613 149.083 105.606C149.234 105.715 149.323 105.597 149.411 105.482C149.514 105.376 149.616 105.272 149.719 105.166C149.945 105.031 149.87 104.724 150.061 104.57C150.105 104.511 150.147 104.452 150.191 104.394C150.178 104.334 150.15 104.287 150.108 104.254C150.317 103.844 150.562 103.452 150.764 103.039C150.888 102.777 151.022 102.521 151.126 102.251C151.202 102.235 151.268 102.176 151.335 102.122C151.382 102.067 151.424 102.01 151.456 101.946C151.583 101.627 151.869 101.331 151.608 100.955C151.648 100.919 151.679 100.875 151.695 100.824C151.698 100.805 151.7 100.785 151.701 100.767C151.765 100.726 151.829 100.686 151.893 100.645C151.894 100.567 151.894 100.491 151.896 100.413C151.96 100.35 152.013 100.267 152.072 100.197C152.683 98.9557 153.123 97.6489 153.529 96.3312C153.601 96.0978 153.674 95.8598 153.553 95.6358C153.576 95.6093 153.6 95.5829 153.626 95.5596C154.187 94.9217 154.13 94.035 154.519 93.3287C154.462 92.946 154.962 92.6473 154.787 92.2475C154.808 92.2303 154.829 92.2148 154.853 92.2008C155.032 91.9892 155.113 91.7356 155.175 91.4743C155.18 91.4463 155.183 91.4183 155.186 91.3918C155.232 91.3685 155.277 91.3451 155.324 91.3218C155.464 91.2098 155.481 91.0604 155.448 90.8971C155.422 90.8255 155.387 90.7633 155.331 90.7322C155.506 90.4631 155.649 90.1768 155.766 89.8781C155.818 89.6899 155.829 89.5032 155.771 89.3149C155.766 89.304 155.758 89.2947 155.754 89.2854C156.237 89.0458 156.31 88.5666 156.379 88.0859C156.379 88.0828 156.377 88.0813 156.376 88.0781C156.527 88.0704 156.575 87.9101 156.656 87.7997C156.684 87.7343 156.704 87.6659 156.715 87.5959C156.731 87.4528 156.723 87.3143 156.645 87.1867C156.65 87.1789 156.655 87.1712 156.659 87.1634C156.779 87.1603 156.82 87.0483 156.882 86.9658C156.946 86.8165 157.008 86.6656 157.072 86.5162C157.27 86.2331 157.548 85.9873 157.521 85.5937C157.621 85.4832 157.722 85.3728 157.822 85.2607C157.822 85.169 157.82 85.0772 157.82 84.9854C157.852 84.9418 157.881 84.8952 157.917 84.8594C158.067 84.5902 158.263 84.3413 158.285 84.0162C158.542 83.509 158.19 83.2881 157.838 83.0672C157.909 82.6176 157.621 82.4434 157.277 82.2707C156.999 82.1322 156.595 82.0995 156.578 81.6531C156.807 81.5239 156.853 81.2968 156.89 81.0666C156.985 81.0106 157.082 80.9545 157.177 80.8985C157.225 80.6574 157.32 80.4443 157.521 80.2887C157.602 80.1969 157.61 80.1005 157.542 79.9978C157.542 79.9978 157.54 79.9962 157.538 79.9947C157.538 79.9947 157.538 79.9947 157.538 79.9931C157.546 79.9993 157.554 80.0056 157.562 80.0118C157.941 79.9496 157.919 79.5482 158.128 79.3428L158.123 79.3397C158.115 79.0768 158.184 78.8528 158.435 78.719V78.7252C158.614 78.3814 158.514 78.1698 158.21 78.0267ZM113.872 134.686L113.871 134.679C113.869 134.679 113.866 134.679 113.864 134.681C113.866 134.678 113.869 134.676 113.871 134.673C113.871 134.676 113.871 134.678 113.871 134.679C113.872 134.681 113.875 134.684 113.877 134.686C113.875 134.686 113.874 134.686 113.872 134.686ZM30.9677 106.067H30.9662L30.9677 106.065C30.9677 106.065 30.9677 106.065 30.9677 106.067ZM22.5727 67.7855C22.5821 67.7839 22.5914 67.7839 22.5992 67.7823C22.5899 67.7917 22.5836 67.8026 22.5743 67.8135C22.5727 67.8026 22.5727 67.7932 22.5727 67.7855ZM154.377 63.4466C154.382 63.4497 154.385 63.4528 154.39 63.4559C154.385 63.459 154.382 63.4606 154.377 63.4637C154.379 63.4575 154.377 63.4528 154.377 63.4466ZM23.8009 52.1708C23.8243 52.1817 23.8493 52.1926 23.8726 52.2019C23.8508 52.2221 23.829 52.2377 23.8009 52.247C23.8009 52.2221 23.8009 52.1972 23.8009 52.1708ZM48.4296 123.211C48.4187 123.144 48.4576 123.184 48.4732 123.219C48.4576 123.219 48.4436 123.217 48.4296 123.215C48.4296 123.212 48.4296 123.212 48.4296 123.211ZM34.7117 36.0707L34.7101 36.0723V36.0707C34.7101 36.0707 34.7101 36.0707 34.7117 36.0707ZM35.1761 33.5831C35.1715 33.5738 35.1668 33.566 35.1637 33.5582C35.173 33.5645 35.1808 33.5691 35.1902 33.5754C35.1855 33.5769 35.1808 33.5816 35.1761 33.5831ZM41.5574 28.6064C41.5605 28.6064 41.562 28.6064 41.5652 28.6064C41.5636 28.6095 41.562 28.6142 41.5589 28.6173C41.5589 28.6142 41.5574 28.6095 41.5574 28.6064ZM44.0622 118.492C44.0606 118.497 44.0606 118.503 44.059 118.508C44.0061 118.514 43.9655 118.511 43.9312 118.499C43.9702 118.494 44.0138 118.491 44.0622 118.492ZM44.084 23.6297C44.0777 23.6297 44.0731 23.6297 44.0668 23.6297C44.0653 23.6281 44.0637 23.6266 44.0622 23.6235C44.0653 23.6173 44.0684 23.611 44.0715 23.6048C44.0746 23.6141 44.0793 23.6219 44.084 23.6297ZM37.2289 107.619C37.2757 107.618 37.3131 107.624 37.3443 107.637C37.3069 107.632 37.2679 107.626 37.2289 107.619ZM27.5418 45.0938H27.5433H27.5418ZM24.4244 64.7114C24.4166 64.7036 24.4088 64.6974 24.4026 64.6896C24.4104 64.6896 24.4182 64.6911 24.4244 64.6911C24.4244 64.6911 24.4244 64.6911 24.426 64.6911C24.4244 64.6989 24.4244 64.7051 24.4244 64.7114ZM25.0494 59.6973C25.0494 59.7035 25.0479 59.7082 25.0479 59.7144C25.0448 59.7082 25.0432 59.7051 25.0401 59.6989C25.0432 59.6989 25.0463 59.6973 25.0494 59.6973ZM25.0463 85.8473C25.0463 85.8613 25.0463 85.8721 25.0463 85.8861C25.0385 85.8768 25.0307 85.869 25.0245 85.8581C25.0323 85.855 25.0385 85.8504 25.0463 85.8473ZM27.2285 44.7796H27.23C27.2269 44.7812 27.2254 44.7827 27.2222 44.7858C27.2238 44.7858 27.2285 44.7796 27.2285 44.7796ZM23.4892 60.651C23.4892 60.679 23.483 60.707 23.4736 60.735C23.4643 60.7085 23.4549 60.6821 23.444 60.6541C23.4611 60.6541 23.4752 60.6525 23.4892 60.651ZM152.519 74.3365C152.519 74.3365 152.519 74.335 152.519 74.3365C152.521 74.335 152.521 74.335 152.523 74.335C152.521 74.335 152.519 74.3365 152.519 74.3365ZM150.654 50.3817C150.66 50.3848 150.666 50.391 150.672 50.3941C150.666 50.3957 150.66 50.3973 150.654 50.3973C150.654 50.3926 150.654 50.3864 150.654 50.3817ZM138.784 29.9085C138.862 29.8868 138.926 29.8852 138.978 29.8992C138.925 29.8992 138.859 29.9039 138.784 29.9085ZM138.392 29.5087C138.406 29.5072 138.418 29.5041 138.432 29.5041C138.488 29.5554 138.505 29.6441 138.513 29.7328C138.466 29.6347 138.427 29.5601 138.392 29.5087ZM94.8609 2.80806C94.8609 2.81117 94.8609 2.81273 94.8609 2.81584C94.8578 2.81428 94.8531 2.81272 94.85 2.81272C94.8531 2.80961 94.8563 2.80961 94.8609 2.80806ZM122.708 14.6097C122.523 14.4821 122.333 14.4386 122.132 14.5739C122.127 14.5848 122.124 14.5926 122.121 14.6019C121.927 14.087 121.416 14.0325 121 13.8412C120.983 13.8396 120.964 13.8381 120.947 13.8381C120.786 13.6638 120.495 13.6203 120.411 13.3682C120.331 13.2749 120.228 13.2469 120.111 13.2593C120.073 13.2702 120.037 13.2873 120.005 13.3091C119.803 13.1535 119.561 13.0633 119.359 12.9108C119.031 12.6884 118.677 12.5359 118.288 12.4737C118.398 12.1859 118.553 11.9541 118.941 11.9992C119.087 11.9883 119.232 11.9712 119.376 11.9339C119.828 11.825 120.278 11.8218 120.727 11.9525C120.846 11.9805 120.966 11.9992 121.087 12.0008C121.248 11.9992 121.407 11.993 121.542 11.9136C121.871 11.9743 122.144 12.2092 122.492 12.2046C122.535 12.1906 122.57 12.1672 122.598 12.1377C122.702 12.2388 122.806 12.3399 122.911 12.4426C122.912 12.5421 122.912 12.6433 122.914 12.7428C123.067 12.8766 123.226 13.0446 123.138 13.2422C123.04 13.4631 122.789 13.3387 122.605 13.3651C122.605 13.4585 122.605 13.5518 122.605 13.6467C122.593 13.6529 122.58 13.6576 122.568 13.6654C122.521 13.782 122.507 13.8941 122.615 13.989C122.922 14.0014 122.906 14.2316 122.931 14.4339C122.908 14.4448 122.884 14.4603 122.861 14.4852C122.794 14.507 122.912 14.7497 122.708 14.6097ZM103.123 7.00537C103.046 6.98359 102.966 6.96647 102.885 6.96025C102.678 6.95092 102.469 6.93691 102.293 7.05048C102.255 7.03648 102.216 7.02559 102.179 7.01003C102.076 6.98203 101.972 6.96803 101.866 6.95558C101.923 6.9338 101.978 6.89958 102.029 6.84357C101.878 6.65378 101.661 6.63978 101.445 6.62889C101.233 6.62422 101.021 6.62266 100.809 6.65378C100.729 6.66933 100.658 6.69422 100.591 6.73312C100.564 6.72689 100.539 6.71912 100.513 6.71289C100.464 6.65066 100.039 6.61177 100.488 6.50443C100.644 6.46709 100.785 6.37064 100.798 6.20107C100.814 6.1964 100.829 6.19329 100.843 6.18862C101.005 6.13106 101.166 6.07038 101.261 5.92104C101.3 5.9646 101.345 5.99882 101.403 6.01749C101.516 6.04394 101.632 6.04238 101.746 6.01749C102.204 5.92726 102.662 5.87748 103.12 6.02216C103.281 6.10461 103.392 6.23218 103.469 6.39086C103.513 6.93069 103.797 7.1905 104.179 7.30406C103.825 7.24028 103.466 7.15005 103.123 7.00537ZM112.471 10.5648C112.476 10.5648 112.482 10.5648 112.486 10.5648C112.479 10.5742 112.471 10.5819 112.461 10.5913C112.465 10.5819 112.468 10.5726 112.471 10.5648ZM99.8471 4.65624C99.8471 4.65469 99.8471 4.65469 99.8471 4.65469V4.65624ZM125.088 20.2071C125.09 20.2071 125.09 20.2056 125.091 20.2056V20.2071C125.091 20.2071 125.09 20.2071 125.088 20.2071ZM123.223 18.3543C123.218 18.3496 123.215 18.3434 123.21 18.3387C123.215 18.3434 123.218 18.3465 123.223 18.3512C123.223 18.3527 123.223 18.3527 123.223 18.3543ZM119.811 13.684C119.801 13.6825 119.794 13.6794 119.784 13.6778C119.77 13.6778 119.758 13.6778 119.744 13.6778C119.741 13.6638 119.737 13.6498 119.734 13.6374C119.751 13.6514 119.767 13.6638 119.784 13.6794L119.797 13.6731C119.801 13.6763 119.806 13.6809 119.811 13.684ZM107.38 7.18583C107.439 7.22939 107.511 7.24028 107.591 7.23406C107.658 7.2185 107.723 7.19516 107.782 7.16094C107.99 7.02092 108.237 6.99759 108.464 6.91358C108.696 6.79535 108.965 6.7829 109.196 6.69267C109.802 6.4562 110.429 6.88247 111.018 6.59155C111.023 6.59621 111.026 6.60088 111.031 6.60555C111.034 6.6071 111.037 6.60866 111.04 6.61022C110.993 7.06448 111.391 7.0536 111.687 7.14694C111.751 7.17805 111.815 7.20917 111.879 7.23872C111.877 7.27295 111.879 7.30718 111.883 7.34296C112.301 7.9139 111.927 8.46774 111.855 9.02779C111.514 9.10247 111.205 9.40427 110.822 9.18336C110.667 9.16314 110.516 9.16003 110.385 9.23937C110.36 9.21914 110.334 9.20048 110.311 9.1787C110.089 9.02157 109.855 8.89556 109.587 8.84111C109.04 8.88311 108.574 8.31683 107.991 8.62953C107.974 8.6482 107.963 8.66531 107.952 8.68087C107.871 8.30283 107.656 8.21727 107.319 8.39617C107.312 8.39617 107.304 8.39617 107.298 8.39617C107.379 8.03214 107.005 8.06481 106.819 7.93257C106.431 7.82523 106.079 7.60276 105.761 7.60276C105.854 7.60743 106.044 7.6261 106.236 7.60587C106.305 7.59031 106.372 7.57164 106.436 7.54364C106.68 7.41141 106.942 7.33051 107.212 7.27606C107.271 7.25273 107.327 7.22317 107.38 7.18583ZM99.8471 4.65469C99.8612 4.63757 99.8752 4.62046 99.8908 4.60335C99.911 4.61891 99.9297 4.63602 99.9485 4.65624C99.9142 4.65469 99.8814 4.65469 99.8471 4.65469ZM122.602 11.9479C122.593 11.9463 122.587 11.9416 122.577 11.9385C122.585 11.9261 122.593 11.9152 122.601 11.9027C122.602 11.9183 122.602 11.9339 122.602 11.9479ZM128.196 20.5214C128.198 20.5183 128.203 20.5152 128.204 20.5121C128.206 20.5152 128.207 20.5167 128.209 20.5183C128.206 20.5198 128.201 20.5198 128.196 20.5214ZM117.917 11.492C117.917 11.4936 117.918 11.4936 117.918 11.4951L117.928 11.4983C117.928 11.5014 117.928 11.5029 117.928 11.506C117.925 11.5029 117.922 11.4983 117.918 11.4951H117.917C117.917 11.4951 117.917 11.4936 117.917 11.492ZM112.627 5.60056C112.627 5.59589 112.627 5.59278 112.627 5.58811C112.633 5.59589 112.641 5.60367 112.649 5.61301C112.642 5.60989 112.635 5.60523 112.627 5.60056ZM96.6285 136.884C96.6628 136.875 96.7002 136.862 96.7423 136.843C96.7376 136.85 96.7345 136.856 96.7298 136.861C96.7329 136.861 96.736 136.861 96.7376 136.861C96.7095 136.887 96.6815 136.907 96.6534 136.924C96.6487 136.912 96.6378 136.898 96.6285 136.884ZM61.0034 11.212C61.1203 11.2151 61.2138 11.142 61.3073 11.0658C61.4414 10.9382 61.5879 10.7997 61.7796 10.8309C62.6322 10.9662 63.145 10.4217 63.6859 9.93477C63.6859 9.93944 63.6859 9.94255 63.6859 9.94877C63.5877 10.0795 63.555 10.2117 63.6376 10.3486C63.6344 10.3626 63.6313 10.3781 63.6282 10.3922C63.2245 10.4948 63.1076 10.8122 63.064 11.184C62.8645 11.1342 62.7772 11.2493 62.7257 11.4143C62.732 11.4251 62.7366 11.4376 62.7429 11.4485C62.7335 11.4531 62.7242 11.4578 62.7164 11.4625C62.4249 11.3334 62.2238 11.3769 62.1506 11.6632C62.0462 11.6569 61.9433 11.6694 61.8435 11.7021C61.6128 11.7985 61.3868 11.9027 61.178 12.0396C61.1608 12.0552 61.1437 12.0723 61.1281 12.0894C60.7478 11.8732 61.0548 11.5014 61.0034 11.212ZM75.5365 6.83424C75.4321 7.03648 75.3261 7.23872 75.2216 7.44097C75.2185 7.44408 75.217 7.44563 75.2138 7.44874C75.2076 7.45497 75.2029 7.45808 75.1967 7.4643C75.1063 7.30562 74.9208 7.30717 74.7478 7.28851C74.6699 7.29162 74.5951 7.30251 74.5202 7.32118C74.3051 7.37718 74.0947 7.47675 73.8671 7.37252C73.8204 7.33518 73.7814 7.29006 73.744 7.24339C73.691 7.05671 73.6583 6.87157 73.8406 6.72689C74.0963 6.59621 74.355 6.69423 74.6138 6.71445C74.9302 6.68334 75.1842 7.03648 75.524 6.85757C75.5287 6.84669 75.5318 6.84046 75.5365 6.83424ZM63.6874 10.862C63.6874 10.8666 63.6874 10.8698 63.6874 10.8744C63.6843 10.8729 63.6812 10.8713 63.6781 10.8698C63.6828 10.8682 63.6859 10.8651 63.6874 10.862ZM55.3329 127.061C55.3329 127.061 55.3298 127.05 55.3251 127.03C55.3314 127.039 55.3376 127.05 55.3438 127.06C55.3407 127.06 55.3376 127.06 55.3329 127.061ZM61.0299 12.413C61.0299 12.413 61.0361 12.4208 61.0439 12.4286C61.0392 12.4224 61.0346 12.4177 61.0283 12.4115C61.0299 12.413 61.0299 12.413 61.0299 12.413ZM86.1682 0.966097C86.1573 0.953651 86.1464 0.94276 86.1355 0.928759C86.1526 0.928759 86.1698 0.928759 86.1869 0.928759C86.1776 0.94276 86.1729 0.955207 86.1682 0.966097ZM64.3187 8.0757H64.3171C64.3171 8.0757 64.3171 8.0757 64.3187 8.0757ZM67.7447 135.927C67.726 135.916 67.7088 135.902 67.6917 135.888C67.7073 135.89 67.726 135.891 67.7431 135.894C67.7447 135.904 67.7447 135.915 67.7447 135.927ZM73.3559 4.96583C73.3434 4.99383 73.3294 5.01717 73.3154 5.0405C73.2998 5.01406 73.2858 4.98916 73.2733 4.96272C73.2998 4.96427 73.3278 4.96427 73.3559 4.96583ZM96.4196 138.398C96.4274 138.398 96.4368 138.398 96.4446 138.399C96.4368 138.405 96.4274 138.409 96.4196 138.415C96.4196 138.409 96.4196 138.404 96.4196 138.398ZM133.812 121.904C133.815 121.912 133.818 121.921 133.817 121.929C133.812 121.929 133.809 121.929 133.804 121.93C133.808 121.921 133.811 121.912 133.812 121.904ZM152.83 94.2325C152.841 94.2403 152.85 94.2481 152.862 94.2543H152.864C152.853 94.2652 152.842 94.2761 152.831 94.287C152.831 94.2683 152.83 94.2512 152.83 94.2325ZM105.084 4.01218C105.101 3.99818 105.117 3.98418 105.134 3.97173C105.139 3.9904 105.144 4.00907 105.145 4.03085C105.123 4.02307 105.103 4.01685 105.084 4.01218ZM57.4621 11.52C57.4621 11.5123 57.4605 11.506 57.4605 11.4983C57.4714 11.5045 57.4808 11.5107 57.4917 11.5185C57.4824 11.5185 57.4714 11.52 57.4621 11.52ZM41.4124 25.8155C41.3797 25.8637 41.3407 25.8948 41.2986 25.9166C41.3127 25.8886 41.3142 25.8559 41.3111 25.8139C41.3454 25.8155 41.3781 25.8155 41.4124 25.8155ZM27.2144 44.7858C27.2176 44.7858 27.2207 44.7874 27.2222 44.7874C27.2191 44.7905 27.2176 44.7936 27.2144 44.7967C27.216 44.792 27.216 44.7889 27.2144 44.7858ZM103.89 137.78C103.892 137.785 103.895 137.788 103.897 137.792C103.892 137.792 103.887 137.792 103.884 137.792C103.886 137.788 103.889 137.785 103.89 137.78ZM119.17 129.706C119.147 129.673 119.123 129.637 119.1 129.602C119.139 129.625 119.176 129.651 119.214 129.681C119.2 129.69 119.184 129.697 119.17 129.706ZM122.272 130.344C122.27 130.337 122.269 130.331 122.267 130.327C122.272 130.327 122.278 130.327 122.283 130.327C122.28 130.331 122.275 130.337 122.272 130.344ZM131.639 125.509L131.633 125.501C131.624 125.498 131.616 125.498 131.608 125.496C131.615 125.491 131.621 125.485 131.627 125.481C131.63 125.488 131.63 125.495 131.633 125.502C131.636 125.504 131.641 125.505 131.644 125.507C131.643 125.507 131.641 125.507 131.639 125.509ZM141.61 116.33C141.588 116.307 141.581 116.28 141.578 116.254C141.599 116.277 141.621 116.302 141.645 116.328C141.634 116.327 141.623 116.328 141.61 116.33ZM151.891 98.9059C151.888 98.9059 151.887 98.9059 151.883 98.9059C151.887 98.9043 151.888 98.9012 151.891 98.8997C151.891 98.9012 151.891 98.9028 151.891 98.9059C151.896 98.9074 151.899 98.909 151.904 98.9106C151.902 98.9121 151.901 98.9121 151.899 98.9137C151.899 98.9121 151.891 98.9059 151.891 98.9059ZM148.788 44.148C148.788 44.1464 148.788 44.1449 148.788 44.1433C148.79 44.1449 148.79 44.1464 148.791 44.148C148.79 44.148 148.79 44.148 148.788 44.148ZM145.982 38.8601C145.984 38.8586 145.985 38.8554 145.989 38.8539C145.989 38.8554 145.99 38.8586 145.99 38.8601C145.99 38.8601 145.989 38.8617 145.985 38.8632C145.984 38.8632 145.982 38.8617 145.982 38.8601ZM141.922 32.9593L141.925 32.9624H141.924C141.924 32.9624 141.924 32.9624 141.924 32.9609C141.924 32.9624 141.922 32.9593 141.922 32.9593C141.92 32.9593 141.919 32.9593 141.917 32.9593C141.919 32.9577 141.92 32.9577 141.922 32.9562C141.92 32.9577 141.922 32.9593 141.922 32.9593ZM47.4897 16.7675C47.4866 16.7706 47.4819 16.7737 47.4803 16.7783L47.4788 16.7768C47.4819 16.7737 47.485 16.769 47.4897 16.7675C47.4897 16.7659 47.4897 16.7675 47.4897 16.7675ZM22.261 53.1882C22.261 53.1944 22.261 53.1991 22.2594 53.2053C22.2563 53.2038 22.2547 53.2007 22.2516 53.1991C22.2532 53.196 22.2563 53.1913 22.2579 53.1882C22.2594 53.1882 22.261 53.1882 22.261 53.1882ZM24.2654 84.612C24.267 84.6105 24.267 84.6105 24.2685 84.6089C24.2701 84.6151 24.2717 84.6214 24.2732 84.6276C24.2717 84.6276 24.2701 84.626 24.267 84.626C24.267 84.6276 24.267 84.6214 24.2654 84.612ZM40.3291 118.779C40.3354 118.78 40.3432 118.78 40.3494 118.782C40.3432 118.789 40.3354 118.794 40.3291 118.802L40.3151 118.822C40.3135 118.822 40.312 118.822 40.3104 118.822C40.3167 118.816 40.3229 118.808 40.3291 118.802C40.3291 118.796 40.3291 118.788 40.3291 118.779ZM47.4616 125.347C47.4663 125.353 47.471 125.361 47.4757 125.367C47.4663 125.365 47.4585 125.362 47.4492 125.361C47.4523 125.356 47.457 125.351 47.4616 125.347ZM61.1 134.379C61.0969 134.404 61.0954 134.427 61.0954 134.451C61.0735 134.427 61.0502 134.404 61.0283 134.381C61.0533 134.379 61.0767 134.379 61.1 134.379ZM79.3085 138.726C79.3069 138.734 79.3054 138.743 79.3054 138.751C79.296 138.745 79.2867 138.738 79.2789 138.732C79.2882 138.729 79.2976 138.727 79.3085 138.726ZM115.418 134.364C115.415 134.364 115.414 134.362 115.411 134.362C115.412 134.356 115.414 134.35 115.415 134.343C115.417 134.351 115.418 134.357 115.418 134.364ZM121.204 131.881C121.207 131.881 121.21 131.882 121.212 131.882C121.209 131.885 121.204 131.889 121.201 131.892C121.203 131.889 121.204 131.885 121.204 131.881ZM139.911 118.517C139.913 118.517 139.914 118.517 139.918 118.517C139.916 118.519 139.916 118.52 139.914 118.522C139.913 118.52 139.913 118.519 139.911 118.517ZM153.143 95.7774C153.146 95.7805 153.148 95.7851 153.151 95.7883C153.152 95.7883 153.152 95.7883 153.154 95.7883C153.151 95.7914 153.146 95.796 153.143 95.7991C153.143 95.7914 153.143 95.7836 153.143 95.7774ZM157.208 85.533C157.206 85.533 157.208 85.533 157.208 85.533V85.533ZM157.03 74.5808C156.963 74.6057 156.89 74.6104 156.81 74.5995C156.884 74.5901 156.957 74.5855 157.03 74.5808ZM96.2622 1.38614C96.2653 1.38147 96.2684 1.3768 96.2715 1.37214C96.2762 1.3768 96.2809 1.38147 96.2871 1.38614C96.2793 1.38614 96.2715 1.38614 96.2622 1.38614ZM73.6053 3.14409C73.624 3.12387 73.6427 3.10364 73.6614 3.08342C73.6505 3.11142 73.6302 3.13009 73.6053 3.14409ZM72.4285 3.7057C72.4222 3.7057 72.4176 3.7057 72.4113 3.70415C72.4145 3.69948 72.4176 3.69481 72.4207 3.69015C72.4238 3.69481 72.4269 3.70104 72.4285 3.7057ZM51.1541 11.8078C51.1463 11.8358 51.1385 11.8639 51.1292 11.8919C51.1011 11.8701 51.0809 11.8436 51.0746 11.8078C51.1011 11.8078 51.1276 11.8078 51.1541 11.8078ZM41.9127 22.9965C41.905 23.0059 41.8972 23.0152 41.8894 23.0245C41.8894 23.0167 41.8878 23.0074 41.8878 22.9996C41.8956 22.9996 41.9034 22.9981 41.9127 22.9965ZM23.6903 60.1391C23.6903 60.1516 23.6903 60.164 23.6903 60.1765C23.6716 60.1765 23.6529 60.1765 23.6342 60.1765C23.6544 60.164 23.6731 60.1516 23.6903 60.1391ZM23.1899 79.3086C23.1899 79.3024 23.1899 79.2962 23.1884 79.2899C23.1977 79.2915 23.2055 79.2915 23.2133 79.2915C23.2071 79.2977 23.1993 79.3039 23.1899 79.3086ZM22.2797 88.9727C22.2781 88.9742 22.2766 88.9758 22.275 88.9789L22.2267 88.9478C22.2454 88.9556 22.2625 88.9649 22.2797 88.9727ZM79.2726 138.731C79.2726 138.729 79.2726 138.727 79.2726 138.726C79.2742 138.727 79.2757 138.731 79.2789 138.732C79.2773 138.732 79.2726 138.731 79.2726 138.731ZM96.1032 139.351C96.0284 139.342 95.9645 139.322 95.9146 139.286C95.9754 139.297 96.0393 139.312 96.1048 139.333C96.1048 139.337 96.1048 139.345 96.1032 139.351ZM100.778 138.424C100.779 138.424 100.781 138.424 100.782 138.424L100.784 138.419C100.785 138.419 100.785 138.419 100.787 138.419C100.785 138.421 100.784 138.423 100.782 138.424C100.782 138.429 100.784 138.432 100.784 138.437C100.782 138.433 100.779 138.429 100.778 138.424ZM109.461 136.279C109.458 136.265 109.458 136.254 109.453 136.238C109.472 136.238 109.492 136.238 109.511 136.238C109.495 136.252 109.478 136.265 109.461 136.279Z" fill="url(#paint2_radial_808_216)"/>
<path d="M144.098 23.6388C144.197 23.7446 144.299 23.8504 144.398 23.9562C144.417 24.2067 144.456 24.4462 144.719 24.5691C144.719 24.6205 144.723 24.6703 144.73 24.7216C144.746 24.7309 144.76 24.7449 144.771 24.762C144.757 24.748 144.744 24.7356 144.73 24.7216C144.754 25.1292 144.799 25.5088 145.365 25.2023C145.463 25.1432 145.561 25.0841 145.658 25.025C145.924 23.617 146.047 23.9235 144.649 23.2094C144.517 23.1426 144.383 23.0788 144.249 23.0134C144.094 23.0134 143.942 23.0134 143.787 23.0134C143.77 23.281 143.826 23.5128 144.098 23.6388ZM145.03 25.0281L145.028 25.0265L145.03 25.025C145.03 25.0265 145.03 25.0265 145.03 25.0281Z" fill="url(#paint3_radial_808_216)"/>
<path d="M117.605 7.47226C118.032 7.73984 118.343 7.54849 118.616 7.21401C118.884 6.66329 118.63 6.42838 118.099 6.36304C117.628 6.39104 117.227 6.54194 116.994 6.98843C117.034 7.35558 117.333 7.39603 117.605 7.47226Z" fill="url(#paint4_radial_808_216)"/>
<path d="M126.96 11.1872C126.96 11.0829 126.96 10.9802 126.962 10.8776C126.796 10.8387 126.718 10.5882 126.505 10.68C126.407 10.722 126.355 10.8216 126.394 10.932C126.491 11.2089 126.731 11.1903 126.96 11.1872Z" fill="url(#paint5_radial_808_216)"/>
<path d="M134.448 17.2431C134.786 17.2291 135.134 17.226 135.224 16.7888C134.811 16.795 134.4 16.7997 133.987 16.8044C133.957 17.1435 134.338 17.0517 134.448 17.2431Z" fill="url(#paint6_radial_808_216)"/>
<path d="M155.622 42.4305C155.624 41.9762 155.625 41.5204 155.627 41.0661C155.543 40.9604 155.448 40.9588 155.342 41.0319C155.339 41.0335 155.337 41.0366 155.334 41.0381C155.334 41.0381 155.334 41.0381 155.332 41.0397C155.325 41.0428 155.317 41.0444 155.309 41.0475C155.343 41.0055 155.374 40.9635 155.395 40.9168C154.927 40.4314 154.804 40.4688 154.392 41.2217C154.397 42.0354 154.862 42.3823 155.622 42.4305Z" fill="url(#paint7_radial_808_216)"/>
<path d="M147.307 33.9862C147.384 34.1946 147.568 34.1915 147.75 34.0655C148.11 33.8166 147.753 33.6346 147.696 33.4245C147.643 33.3717 147.59 33.3188 147.537 33.2659C147.052 33.3748 147.208 33.7124 147.307 33.9862Z" fill="url(#paint8_radial_808_216)"/>
<path d="M154.992 45.6896C154.988 45.3598 154.999 45.03 154.974 44.7033C154.962 44.5259 154.8 44.263 154.663 44.4248C154.426 44.7017 153.791 44.7935 154.084 45.3925C154.416 45.4034 154.608 45.839 154.992 45.6896Z" fill="url(#paint9_radial_808_216)"/>
<path d="M141.927 25.4932C142.039 25.5975 142.15 25.7017 142.262 25.8059C142.251 25.8542 142.245 25.9024 142.242 25.9522C142.466 26.1638 142.554 26.4298 142.558 26.73C142.786 26.8234 142.979 27.0738 143.33 26.9167C143.171 26.5713 142.767 26.3816 142.857 25.9724C143.257 25.9055 143.168 25.6084 143.152 25.347C143.124 25.2941 143.084 25.2817 143.029 25.3097C142.575 24.9332 141.939 24.8118 141.598 24.2798C141.238 24.2876 141.355 24.4774 141.434 24.6765C141.553 24.9799 141.918 25.1292 141.927 25.4932Z" fill="url(#paint10_radial_808_216)"/>
<path d="M147.393 31.1949C147.65 31.1716 147.664 30.9382 147.69 30.6831C147.634 30.5586 147.725 30.2491 147.43 30.2848C147.165 30.3175 147.201 30.6458 147.128 30.8465C147.054 31.0487 147.176 31.2152 147.393 31.1949Z" fill="url(#paint11_radial_808_216)"/>
<path d="M140.366 28.9158C140.826 29.3312 141.266 29.7792 141.928 29.8601C141.983 29.8057 142.037 29.7528 142.092 29.6983C142.391 28.922 141.501 29.0169 141.294 28.6124C140.38 28.194 140.366 28.1986 140.366 28.9158Z" fill="url(#paint12_radial_808_216)"/>
<path d="M155.319 53.6606C155.32 53.6046 155.322 53.5486 155.323 53.4926C155.224 53.3806 155.124 53.2685 155.026 53.1565C155.019 52.9621 155.013 52.7676 155.005 52.5731C154.912 52.4409 154.904 52.2822 154.873 52.1329C154.825 51.898 154.786 51.6273 154.497 51.6226C154.156 51.6179 154.115 51.9493 154.078 52.1842C153.98 52.8018 154.218 53.351 154.518 53.8768C154.624 54.1133 154.764 54.328 154.895 54.5489C154.957 54.6391 155.054 54.6874 155.139 54.748C155.188 54.8025 155.238 54.8554 155.286 54.9098C155.398 55.165 155.51 55.4201 155.623 55.6752C155.626 56.0377 155.627 56.4002 155.63 56.7627C155.649 56.7922 155.669 56.8187 155.691 56.842C155.998 57.2372 156.326 57.4736 156.76 56.9136C156.586 56.5542 156.587 56.1155 156.263 55.8246L156.262 55.8215C156.254 55.8215 156.248 55.8199 156.24 55.8168C156.248 55.8184 156.254 55.8199 156.262 55.8215C156.11 55.4341 156.056 54.9969 155.75 54.6874C155.75 54.6827 155.75 54.6765 155.75 54.6718C155.73 54.5613 155.69 54.4571 155.637 54.3591C155.499 54.1895 155.475 53.9733 155.386 53.7835C155.367 53.7399 155.344 53.701 155.319 53.6606Z" fill="url(#paint13_radial_808_216)"/>
<path d="M160.013 74.9029C159.988 74.8905 159.885 74.9698 159.871 75.0196C159.807 75.2561 159.899 75.4007 160.155 75.4241C160.11 75.2467 160.25 75.018 160.013 74.9029Z" fill="url(#paint14_radial_808_216)"/>
<path d="M135.116 17.9749C135.021 18.1834 135.141 18.314 135.353 18.3623C135.364 18.4136 135.371 18.4634 135.372 18.5163C135.472 18.605 135.528 18.7388 135.66 18.7932C135.679 18.7979 135.695 18.8072 135.712 18.8134C135.809 18.9674 136.025 19.0515 136.011 19.2677C136.058 19.2724 136.105 19.2755 136.153 19.2786C136.312 19.4824 136.471 19.6846 136.628 19.8884C137.227 19.5757 136.848 19.2553 136.689 18.9379C136.685 18.8897 136.667 18.8414 136.636 18.7948C136.575 18.3032 135.848 17.6746 135.406 17.7571C135.297 17.7789 135.16 17.8769 135.116 17.9749ZM136.614 19.1292C136.613 19.1277 136.613 19.1277 136.613 19.1277C136.614 19.1277 136.614 19.1277 136.616 19.1261C136.614 19.1261 136.614 19.1277 136.614 19.1292Z" fill="url(#paint15_radial_808_216)"/>
<path d="M152.689 52.5565C152.697 52.5923 152.702 52.6296 152.705 52.667C153.498 52.5425 153.129 52.1162 152.995 51.6978C152.621 51.9358 152.697 52.2594 152.689 52.5565Z" fill="url(#paint16_radial_808_216)"/>
<path d="M131.961 15.1995C132.197 15.2477 132.266 15.0673 132.341 14.8681C132.307 14.6939 132.204 14.5399 132.001 14.5445C131.856 14.5476 131.691 14.6254 131.671 14.8121C131.646 15.0237 131.761 15.159 131.961 15.1995Z" fill="url(#paint17_radial_808_216)"/>
<path d="M126.43 15.2685C126.22 15.5905 126.545 15.7663 126.655 15.9997C126.846 16.0557 127.046 16.0915 127.228 16.1708C127.883 16.4555 128.176 16.2035 128.21 15.5392C127.884 15.3556 127.608 15.0647 127.194 15.074C126.923 15.0818 126.619 14.9791 126.43 15.2685Z" fill="url(#paint18_radial_808_216)"/>
<path d="M147.695 37.0106C147.638 37.0697 147.591 37.135 147.557 37.2097C147.535 37.2968 147.526 37.3777 147.529 37.4555C147.513 37.5815 147.504 37.7091 147.382 37.7853C147.493 37.9673 147.672 37.9424 147.844 37.9393L147.921 37.9455L147.999 37.9409C148.21 37.9627 148.409 37.9175 148.581 37.8024C148.779 37.6702 149.167 37.6795 149.128 37.3715C149.087 37.0619 148.774 36.9763 148.465 37.0075C148.208 37.009 147.953 37.0106 147.695 37.0106Z" fill="url(#paint19_radial_808_216)"/>
<path d="M150.35 35.1216C150.906 35.1885 150.81 34.7934 150.802 34.4729C150.794 34.1789 150.786 33.8662 150.336 34.0404C150.286 34.0964 150.236 34.1524 150.185 34.2069C150.047 34.546 150.037 34.8634 150.35 35.1216Z" fill="url(#paint20_radial_808_216)"/>
<path d="M149.737 34.762C149.992 34.552 149.601 34.4073 149.553 34.2129C149.246 34.0838 148.976 34.0091 149.09 34.5178C149.311 34.6018 149.487 34.9674 149.737 34.762Z" fill="url(#paint21_radial_808_216)"/>
<path d="M137.24 24.1055C137.294 24.1537 137.349 24.2035 137.404 24.2517C137.555 24.2564 137.706 24.261 137.859 24.2673C138.816 24.5722 139.026 24.4929 139.137 23.785C139.169 23.7586 139.208 23.7414 139.249 23.7274C139.212 23.7461 139.174 23.7663 139.137 23.785C139.238 23.7866 139.339 23.7881 139.439 23.7897C139.632 23.7726 139.742 23.6745 139.743 23.4739C139.746 23.4256 139.751 23.379 139.756 23.3307C139.905 23.3276 140.055 23.3245 140.204 23.3214C140.524 23.2638 140.619 23.1223 140.379 22.8562C140.321 22.7489 140.265 22.6416 140.208 22.5358C140.155 22.4875 140.102 22.4393 140.047 22.3926C140.049 22.3382 140.05 22.2853 140.052 22.2308C139.81 22.2573 139.746 22.0084 139.575 21.9259C139.47 21.8233 139.367 21.7206 139.263 21.6163C139.018 21.5868 138.813 21.4794 138.643 21.3036C138.284 21.1527 138.233 21.3114 138.328 21.6163C138.442 21.8139 138.594 21.9742 138.8 22.0768C138.883 22.2697 138.987 22.458 138.626 22.4689C138.409 22.4766 138.181 22.5047 138.022 22.6929C137.972 22.6929 137.921 22.6945 137.871 22.6991C137.849 22.7365 137.813 22.7551 137.771 22.7645C137.804 22.7427 137.838 22.7209 137.871 22.6991C137.389 22.6229 137.065 22.8282 136.886 23.267C136.729 23.6559 136.939 23.9017 137.24 24.1055Z" fill="url(#paint22_radial_808_216)"/>
<path d="M124.006 66.8389L121.063 65.3744C121.216 64.0215 121.216 62.6407 121.063 61.2877L124.006 59.8232C124.662 59.4885 124.954 58.7213 124.675 58.0379L121.914 51.3569C121.635 50.6874 120.882 50.3387 120.184 50.5619L117.06 51.594C116.209 50.5201 115.233 49.5577 114.173 48.7068L115.205 45.5965C115.442 44.8991 115.093 44.1459 114.41 43.867L107.729 41.1053C107.045 40.8264 106.278 41.1193 105.944 41.7748L104.479 44.7178C103.126 44.5644 101.759 44.5644 100.392 44.7178L98.9279 41.7748C98.5931 41.1193 97.826 40.8264 97.1426 41.1053L90.4616 43.867C89.7921 44.1459 89.4434 44.8991 89.6666 45.5965L90.7126 48.7208C89.6387 49.5716 88.6763 50.548 87.8115 51.608L84.7012 50.5759C84.0038 50.3388 83.2506 50.6874 82.9716 51.3709L80.21 58.0519C79.931 58.7353 80.2239 59.5024 80.8795 59.8372L83.8085 61.3017C83.6551 62.6546 83.6551 64.0215 83.8085 65.3884L80.8655 66.8529C80.21 67.1877 79.9171 67.9548 80.196 68.6382L82.9577 75.3192C83.2366 75.9887 83.9898 76.3374 84.6872 76.1142L87.8115 75.0821C88.6623 76.1561 89.6387 77.1185 90.6987 77.9693L89.6666 81.0796C89.4294 81.777 89.7781 82.5302 90.4616 82.8092L97.1426 85.5708C97.8121 85.8498 98.5931 85.5569 98.9279 84.9013L100.392 81.9723C101.745 82.1257 103.112 82.1257 104.479 81.9723L105.944 84.9153C106.181 85.4034 106.683 85.6824 107.185 85.6824C107.366 85.6824 107.548 85.6545 107.715 85.5708L114.396 82.8092C115.065 82.5302 115.414 81.777 115.191 81.0796L114.159 77.9553C115.233 77.1045 116.195 76.1282 117.046 75.0681L120.156 76.1003C120.854 76.3234 121.607 75.9887 121.886 75.3053L124.648 68.6243C124.94 67.9408 124.662 67.1737 124.006 66.8389ZM119.822 73.0318L116.99 72.0833C116.404 71.8881 115.763 72.0973 115.414 72.5994C114.396 74.0221 113.155 75.2634 111.718 76.2955C111.216 76.6442 111.007 77.2858 111.202 77.8716L112.15 80.703L107.868 82.4744L106.529 79.7964C106.25 79.2525 105.665 78.9456 105.051 79.0432C103.307 79.3361 101.55 79.3361 99.8205 79.0432C99.2068 78.9456 98.621 79.2525 98.3421 79.7964L97.0031 82.4605L92.7211 80.6891L93.6696 77.8577C93.8648 77.2719 93.6556 76.6442 93.1535 76.2816C91.7308 75.2634 90.4895 74.0221 89.4573 72.5854C89.1086 72.0833 88.4531 71.8741 87.8812 72.0694L85.0499 73.0178L83.2785 68.7358L85.9564 67.3969C86.5004 67.1179 86.8073 66.5182 86.7096 65.9184C86.4167 64.1749 86.4167 62.4175 86.7096 60.688C86.8073 60.0882 86.5004 59.4885 85.9564 59.2095L83.2924 57.8705L85.0638 53.5886L87.8952 54.537C88.481 54.7323 89.1226 54.5231 89.4713 54.021C90.4895 52.5983 91.7308 51.3569 93.1674 50.3248C93.6696 49.9761 93.8788 49.3345 93.6835 48.7487L92.7351 45.9173L97.017 44.1459L98.356 46.8239C98.635 47.3679 99.2208 47.6747 99.8345 47.5771C101.578 47.2842 103.335 47.2842 105.065 47.5771C105.679 47.6747 106.264 47.3679 106.543 46.8239L107.882 44.1599L112.164 45.9313L111.216 48.7627C111.021 49.3485 111.23 49.9761 111.732 50.3388C113.155 51.3569 114.396 52.5983 115.428 54.0349C115.777 54.537 116.418 54.7462 117.004 54.551L119.836 53.6025L121.607 57.8845L118.929 59.2235C118.385 59.5024 118.078 60.1022 118.176 60.7019C118.469 62.4454 118.469 64.2028 118.176 65.9324C118.078 66.5321 118.385 67.1319 118.929 67.4108L121.593 68.7498L119.822 73.0318Z" fill="url(#paint23_radial_808_216)"/>
<path d="M89.0665 86.0451L87.2394 81.6237C86.9465 80.9123 86.1236 80.5776 85.4122 80.8705L82.9714 81.8887C82.5948 81.4563 82.2042 81.0518 81.7718 80.6892L82.79 78.2483C82.9295 77.8996 82.9295 77.523 82.79 77.1743C82.6505 76.8256 82.3716 76.5606 82.0369 76.4211L77.6154 74.594C76.9041 74.3011 76.0812 74.6358 75.7883 75.3472L74.7701 77.788C74.1982 77.7462 73.6263 77.7462 73.0684 77.788L72.0502 75.3472C71.9108 74.9985 71.6318 74.7335 71.2971 74.594C70.9484 74.4545 70.5718 74.4545 70.2231 74.594L65.8017 76.4211C65.0903 76.714 64.7556 77.537 65.0485 78.2483L66.0667 80.6892C65.6343 81.0657 65.2298 81.4702 64.8672 81.8887L62.4263 80.8705C61.715 80.5776 60.892 80.9123 60.5991 81.6237L58.772 86.0451C58.6325 86.3938 58.6325 86.7704 58.772 87.1191C58.9114 87.4678 59.1904 87.7328 59.5252 87.8723L61.966 88.8905C61.9242 89.4623 61.9242 90.0202 61.966 90.5921L59.5252 91.6103C58.8138 91.9032 58.4791 92.7261 58.772 93.4374L60.5991 97.8589C60.7386 98.2076 61.0176 98.4725 61.3523 98.612C61.701 98.7515 62.0776 98.7515 62.4263 98.612L64.8672 97.5938C65.2437 98.0262 65.6482 98.4307 66.0667 98.7934L65.0485 101.234C64.7556 101.946 65.0903 102.768 65.8017 103.061L70.2231 104.889C70.3905 104.958 70.5718 105 70.7531 105C70.9344 105 71.1157 104.958 71.2831 104.889C71.6318 104.749 71.8968 104.47 72.0363 104.135L73.0545 101.694C73.6263 101.736 74.1843 101.736 74.7561 101.694L75.7743 104.135C75.9138 104.484 76.1927 104.749 76.5275 104.889C76.8762 105.028 77.2528 105.028 77.6015 104.889L82.0229 103.061C82.3716 102.922 82.6366 102.643 82.7761 102.308C82.9156 101.973 82.9156 101.583 82.7761 101.234L81.7579 98.7934C82.1903 98.4168 82.5948 98.0123 82.9574 97.5938L85.3983 98.612C86.1096 98.9049 86.9325 98.5702 87.2254 97.8589L89.0526 93.4374C89.1921 93.0887 89.1921 92.7121 89.0526 92.3634C88.9131 92.0147 88.6342 91.7497 88.2994 91.6103L85.8586 90.5921C85.9004 90.0202 85.9004 89.4623 85.8586 88.8905L88.2994 87.8723C89.0247 87.5654 89.3594 86.7425 89.0665 86.0451ZM83.8222 86.7006C83.2224 86.9517 82.8737 87.5793 82.9853 88.2209C83.1527 89.2252 83.1527 90.2434 82.9853 91.2337C82.8737 91.8753 83.2224 92.5029 83.8222 92.754L85.9562 93.6327L85.189 95.4738L83.055 94.5951C82.4553 94.344 81.7718 94.5393 81.3813 95.0693C80.7955 95.8922 80.0702 96.6036 79.2473 97.2033C78.7173 97.5799 78.522 98.2773 78.7731 98.877L79.6518 101.011L77.8107 101.778L76.932 99.6442C76.7088 99.1142 76.2067 98.7794 75.6488 98.7794C75.5651 98.7794 75.4954 98.7794 75.4117 98.7934C74.4074 98.9607 73.4032 98.9607 72.3989 98.7934C71.7573 98.6818 71.1297 99.0305 70.8786 99.6302L69.9999 101.764L68.1588 100.997L69.0375 98.8631C69.2886 98.2633 69.0933 97.566 68.5633 97.1894C67.7404 96.6036 67.0291 95.8783 66.4293 95.0554C66.0527 94.5253 65.3553 94.3301 64.7556 94.5811L62.6216 95.4598L61.8544 93.6187L63.9884 92.74C64.5882 92.489 64.9369 91.8613 64.8253 91.2197C64.6579 90.2155 64.6579 89.1973 64.8253 88.207C64.9369 87.5654 64.5882 86.9378 63.9884 86.6867L61.8544 85.808L62.6216 83.9669L64.7556 84.8456C65.3553 85.0966 66.0527 84.9014 66.4293 84.3714C67.0151 83.5485 67.7264 82.8371 68.5633 82.2374C69.0933 81.8608 69.2886 81.1634 69.0375 80.5636L68.1588 78.4296L69.9999 77.6625L70.8786 79.7965C71.1297 80.3963 71.7573 80.731 72.3989 80.6334C73.4032 80.466 74.4074 80.466 75.4117 80.6334C76.0533 80.731 76.6809 80.3963 76.932 79.7965L77.8107 77.6625L79.6518 78.4296L78.7731 80.5636C78.522 81.1634 78.7173 81.8608 79.2473 82.2374C80.0702 82.8232 80.7816 83.5345 81.3813 84.3714C81.7579 84.9014 82.4553 85.0966 83.055 84.8456L85.189 83.9669L85.9562 85.808L83.8222 86.7006Z" fill="url(#paint24_radial_808_216)"/>
<path d="M61.6454 64.6352C61.7012 65.1792 61.7988 65.7231 61.9383 66.2532L59.7624 67.6479C59.4556 67.8432 59.2324 68.164 59.1487 68.5267C59.0651 68.8893 59.1348 69.2659 59.344 69.5727L61.8965 73.52C62.1615 73.9384 62.6078 74.1615 63.0681 74.1615C63.3331 74.1615 63.5841 74.0918 63.8212 73.9384L66.8758 71.9578L65.3695 69.6146L63.4865 70.828L62.4544 69.224L64.3373 68.0106C64.8813 67.6619 65.1184 66.9784 64.8952 66.3647C64.5605 65.4302 64.3792 64.4539 64.3652 63.4636C64.3513 62.8081 63.9049 62.2502 63.2633 62.1246L61.0735 61.6504L61.478 59.7814L63.6678 60.2556C64.3094 60.3951 64.951 60.0743 65.23 59.4885C65.6484 58.5958 66.2203 57.7729 66.9177 57.0616C67.364 56.6013 67.4477 55.876 67.085 55.3321L65.8716 53.4491L67.4756 52.417L68.689 54.2999C69.0377 54.8439 69.7212 55.0671 70.3349 54.8578C71.2694 54.5231 72.2597 54.3418 73.236 54.3278C73.8776 54.3139 74.4355 53.8675 74.575 53.2259L75.0492 51.0362L76.9182 51.4406L76.444 53.6304L79.1777 54.2162L79.9449 50.6596C80.0286 50.2969 79.9588 49.9203 79.7496 49.6135C79.5543 49.3066 79.2335 49.0835 78.8709 48.9998L74.2681 48.0095C73.5149 47.8421 72.7757 48.3303 72.6083 49.0835L72.0644 51.608C71.5204 51.6638 70.9765 51.7614 70.4464 51.9009L69.0377 49.7251C68.8424 49.4182 68.5216 49.195 68.159 49.1114C67.7964 49.0416 67.4198 49.0974 67.1129 49.3066L63.1657 51.8591C62.5241 52.2775 62.3288 53.1423 62.7473 53.7839L64.142 55.9597C63.7933 56.3921 63.4865 56.8384 63.2075 57.3127L60.683 56.7687C60.3204 56.6989 59.9438 56.7547 59.6369 56.964C59.3301 57.1592 59.1069 57.48 59.0232 57.8427L58.0329 62.4454C57.8655 63.1986 58.3537 63.9378 59.1069 64.1052L61.6454 64.6352Z" fill="url(#paint25_radial_808_216)"/>
<path d="M76.2346 84.1481C73.1522 82.8789 69.6095 84.3434 68.3402 87.4119C67.071 90.4944 68.5355 94.0371 71.6179 95.3064C72.3572 95.6132 73.1522 95.7666 73.9333 95.7666C74.7143 95.7666 75.4954 95.6132 76.2486 95.3064C77.741 94.6927 78.8987 93.5211 79.5124 92.0287C80.7816 88.9601 79.3032 85.4174 76.2346 84.1481ZM76.9181 90.9686C76.5833 91.7776 75.9557 92.3913 75.1607 92.726C74.3517 93.0608 73.473 93.0608 72.664 92.726C71.0042 92.0426 70.2232 90.1318 70.9066 88.472C71.5901 86.8122 73.5009 86.0171 75.1607 86.7145C75.9696 87.0493 76.5833 87.6769 76.9181 88.472C77.2528 89.2809 77.2528 90.1736 76.9181 90.9686Z" fill="url(#paint26_radial_808_216)"/>
<path d="M102.498 50.7573C95.5803 50.7573 89.9454 56.3922 89.9454 63.3103C89.9454 70.2284 95.5803 75.8633 102.498 75.8633C109.417 75.8633 115.051 70.2284 115.051 63.3103C115.051 56.3922 109.417 50.7573 102.498 50.7573ZM102.498 73.0738C97.1146 73.0738 92.735 68.6942 92.735 63.3103C92.735 57.9265 97.1146 53.5469 102.498 53.5469C107.882 53.5469 112.262 57.9265 112.262 63.3103C112.262 68.6942 107.882 73.0738 102.498 73.0738Z" fill="url(#paint27_radial_808_216)"/>
<path d="M103.851 54.7742H101.062V63.1428C101.062 63.91 101.689 64.5376 102.456 64.5376H108.036V61.7481H103.851V54.7742Z" fill="url(#paint28_radial_808_216)"/>
<path d="M72.9153 60.5344C73.5987 60.4647 74.2682 60.646 74.8121 61.0226L76.4161 58.7491C75.3143 57.968 73.9613 57.6193 72.6084 57.7588C69.5538 58.0796 67.3222 60.8413 67.643 63.8958C67.9498 66.7551 70.3768 68.8891 73.1942 68.8891C73.3895 68.8891 73.5848 68.8752 73.78 68.8612L73.4871 66.0856C71.9529 66.2391 70.586 65.1372 70.4186 63.6029C70.2791 62.0687 71.381 60.7018 72.9153 60.5344Z" fill="url(#paint29_radial_808_216)"/>
<defs>
<radialGradient id="paint0_radial_808_216" cx="0" cy="0" r="1" gradientUnits="userSpaceOnUse" gradientTransform="translate(158.92 72.3078) rotate(90) scale(0.546047 0.616064)">
<stop stop-color="#313333"/>
<stop offset="1" stop-color="#242222"/>
</radialGradient>
<radialGradient id="paint1_radial_808_216" cx="0" cy="0" r="1" gradientUnits="userSpaceOnUse" gradientTransform="translate(160.583 71.3157) rotate(90) scale(0.321318 0.416558)">
<stop stop-color="#313333"/>
<stop offset="1" stop-color="#242222"/>
</radialGradient>
<radialGradient id="paint2_radial_808_216" cx="0" cy="0" r="1" gradientUnits="userSpaceOnUse" gradientTransform="translate(89.7618 70) rotate(90) scale(70 68.7618)">
<stop stop-color="#313333"/>
<stop offset="1" stop-color="#242222"/>
</radialGradient>
<radialGradient id="paint3_radial_808_216" cx="0" cy="0" r="1" gradientUnits="userSpaceOnUse" gradientTransform="translate(144.805 24.1636) rotate(90) scale(1.15021 1.02066)">
<stop stop-color="#313333"/>
<stop offset="1" stop-color="#242222"/>
</radialGradient>
<radialGradient id="paint4_radial_808_216" cx="0" cy="0" r="1" gradientUnits="userSpaceOnUse" gradientTransform="translate(117.859 6.98081) rotate(90) scale(0.617773 0.865193)">
<stop stop-color="#313333"/>
<stop offset="1" stop-color="#242222"/>
</radialGradient>
<radialGradient id="paint5_radial_808_216" cx="0" cy="0" r="1" gradientUnits="userSpaceOnUse" gradientTransform="translate(126.671 10.9242) rotate(90) scale(0.264328 0.290215)">
<stop stop-color="#313333"/>
<stop offset="1" stop-color="#242222"/>
</radialGradient>
<radialGradient id="paint6_radial_808_216" cx="0" cy="0" r="1" gradientUnits="userSpaceOnUse" gradientTransform="translate(134.605 17.016) rotate(90) scale(0.227134 0.619608)">
<stop stop-color="#313333"/>
<stop offset="1" stop-color="#242222"/>
</radialGradient>
<radialGradient id="paint7_radial_808_216" cx="0" cy="0" r="1" gradientUnits="userSpaceOnUse" gradientTransform="translate(155.01 41.5132) rotate(90) scale(0.917281 0.617239)">
<stop stop-color="#313333"/>
<stop offset="1" stop-color="#242222"/>
</radialGradient>
<radialGradient id="paint8_radial_808_216" cx="0" cy="0" r="1" gradientUnits="userSpaceOnUse" gradientTransform="translate(147.555 33.7094) rotate(90) scale(0.443519 0.353458)">
<stop stop-color="#313333"/>
<stop offset="1" stop-color="#242222"/>
</radialGradient>
<radialGradient id="paint9_radial_808_216" cx="0" cy="0" r="1" gradientUnits="userSpaceOnUse" gradientTransform="translate(154.5 45.0475) rotate(90) scale(0.673247 0.491492)">
<stop stop-color="#313333"/>
<stop offset="1" stop-color="#242222"/>
</radialGradient>
<radialGradient id="paint10_radial_808_216" cx="0" cy="0" r="1" gradientUnits="userSpaceOnUse" gradientTransform="translate(142.34 25.6236) rotate(90) scale(1.34377 0.989413)">
<stop stop-color="#313333"/>
<stop offset="1" stop-color="#242222"/>
</radialGradient>
<radialGradient id="paint11_radial_808_216" cx="0" cy="0" r="1" gradientUnits="userSpaceOnUse" gradientTransform="translate(147.398 30.7393) rotate(90) scale(0.457309 0.292026)">
<stop stop-color="#313333"/>
<stop offset="1" stop-color="#242222"/>
</radialGradient>
<radialGradient id="paint12_radial_808_216" cx="0" cy="0" r="1" gradientUnits="userSpaceOnUse" gradientTransform="translate(141.26 29.0952) rotate(90) scale(0.764899 0.893185)">
<stop stop-color="#313333"/>
<stop offset="1" stop-color="#242222"/>
</radialGradient>
<radialGradient id="paint13_radial_808_216" cx="0" cy="0" r="1" gradientUnits="userSpaceOnUse" gradientTransform="translate(155.408 54.4338) rotate(90) scale(2.81122 1.35246)">
<stop stop-color="#313333"/>
<stop offset="1" stop-color="#242222"/>
</radialGradient>
<radialGradient id="paint14_radial_808_216" cx="0" cy="0" r="1" gradientUnits="userSpaceOnUse" gradientTransform="translate(160.004 75.1628) rotate(90) scale(0.261233 0.152123)">
<stop stop-color="#313333"/>
<stop offset="1" stop-color="#242222"/>
</radialGradient>
<radialGradient id="paint15_radial_808_216" cx="0" cy="0" r="1" gradientUnits="userSpaceOnUse" gradientTransform="translate(136.019 18.8191) rotate(90) scale(1.06933 0.935378)">
<stop stop-color="#313333"/>
<stop offset="1" stop-color="#242222"/>
</radialGradient>
<radialGradient id="paint16_radial_808_216" cx="0" cy="0" r="1" gradientUnits="userSpaceOnUse" gradientTransform="translate(152.943 52.1824) rotate(90) scale(0.484605 0.25527)">
<stop stop-color="#313333"/>
<stop offset="1" stop-color="#242222"/>
</radialGradient>
<radialGradient id="paint17_radial_808_216" cx="0" cy="0" r="1" gradientUnits="userSpaceOnUse" gradientTransform="translate(132.004 14.8759) rotate(90) scale(0.331476 0.336792)">
<stop stop-color="#313333"/>
<stop offset="1" stop-color="#242222"/>
</radialGradient>
<radialGradient id="paint18_radial_808_216" cx="0" cy="0" r="1" gradientUnits="userSpaceOnUse" gradientTransform="translate(127.285 15.6745) rotate(90) scale(0.611998 0.92464)">
<stop stop-color="#313333"/>
<stop offset="1" stop-color="#242222"/>
</radialGradient>
<radialGradient id="paint19_radial_808_216" cx="0" cy="0" r="1" gradientUnits="userSpaceOnUse" gradientTransform="translate(148.256 37.4738) rotate(90) scale(0.472361 0.874228)">
<stop stop-color="#313333"/>
<stop offset="1" stop-color="#242222"/>
</radialGradient>
<radialGradient id="paint20_radial_808_216" cx="0" cy="0" r="1" gradientUnits="userSpaceOnUse" gradientTransform="translate(150.453 34.5597) rotate(90) scale(0.569429 0.359901)">
<stop stop-color="#313333"/>
<stop offset="1" stop-color="#242222"/>
</radialGradient>
<radialGradient id="paint21_radial_808_216" cx="0" cy="0" r="1" gradientUnits="userSpaceOnUse" gradientTransform="translate(149.443 34.4709) rotate(90) scale(0.35294 0.379702)">
<stop stop-color="#313333"/>
<stop offset="1" stop-color="#242222"/>
</radialGradient>
<radialGradient id="paint22_radial_808_216" cx="0" cy="0" r="1" gradientUnits="userSpaceOnUse" gradientTransform="translate(138.673 22.8408) rotate(90) scale(1.59498 1.84059)">
<stop stop-color="#313333"/>
<stop offset="1" stop-color="#242222"/>
</radialGradient>
<radialGradient id="paint23_radial_808_216" cx="0" cy="0" r="1" gradientUnits="userSpaceOnUse" gradientTransform="translate(109.884 63.3412) scale(29.7934 25.7974)">
<stop stop-color="#F7C835"/>
<stop offset="1" stop-color="#F7A330"/>
</radialGradient>
<radialGradient id="paint24_radial_808_216" cx="0" cy="0" r="1" gradientUnits="userSpaceOnUse" gradientTransform="translate(79.0035 89.7441) scale(20.3375 17.6162)">
<stop stop-color="#F7C835"/>
<stop offset="1" stop-color="#F7A330"/>
</radialGradient>
<radialGradient id="paint25_radial_808_216" cx="0" cy="0" r="1" gradientUnits="userSpaceOnUse" gradientTransform="translate(72.6529 61.0691) scale(14.6529 15.1179)">
<stop stop-color="#F7C835"/>
<stop offset="1" stop-color="#F7A330"/>
</radialGradient>
<radialGradient id="paint26_radial_808_216" cx="0" cy="0" r="1" gradientUnits="userSpaceOnUse" gradientTransform="translate(75.9394 89.7288) scale(8.05623 6.97192)">
<stop stop-color="#F7C835"/>
<stop offset="1" stop-color="#F7A330"/>
</radialGradient>
<radialGradient id="paint27_radial_808_216" cx="0" cy="0" r="1" gradientUnits="userSpaceOnUse" gradientTransform="translate(106.683 63.3103) scale(16.7373 14.4949)">
<stop stop-color="#F7C835"/>
<stop offset="1" stop-color="#F7A330"/>
</radialGradient>
<radialGradient id="paint28_radial_808_216" cx="0" cy="0" r="1" gradientUnits="userSpaceOnUse" gradientTransform="translate(105.711 59.6559) scale(4.64926 5.63692)">
<stop stop-color="#F7C835"/>
<stop offset="1" stop-color="#F7A330"/>
</radialGradient>
<radialGradient id="paint29_radial_808_216" cx="0" cy="0" r="1" gradientUnits="userSpaceOnUse" gradientTransform="translate(73.4815 63.3089) scale(5.86923 6.44344)">
<stop stop-color="#F7C835"/>
<stop offset="1" stop-color="#F7A330"/>
</radialGradient>
</defs>
</svg>
