<svg width="402" height="140" viewBox="0 0 402 140" fill="none" xmlns="http://www.w3.org/2000/svg">
<path d="M176.24 53.4V30.4H170.92V58H191.08V64.56L196.08 63.88V53.24H192.92V30.4H187.6V53.4H176.24ZM216.305 58V53.52H205.105V45.92H214.145L213.425 41.48H205.105V34.88H215.905V30.4H199.865V58H216.305ZM243.085 30.4H226.685L225.285 41.92C224.285 50.2 222.925 52.88 218.565 53.92L219.285 58.56C226.445 57.4 229.045 53.84 230.405 42.72L231.325 35H237.765V58H243.085V30.4ZM265.329 58V53.52H254.129V45.92H263.169L262.449 41.48H254.129V34.88H264.929V30.4H248.889V58H265.329ZM288.068 49.96C288.068 46.28 286.028 44.28 282.948 43.32C285.348 42.32 286.948 40.44 286.948 37.56C286.948 33.2 283.988 30.4 277.788 30.4H269.748V58H277.668C284.148 58 288.068 55.4 288.068 49.96ZM282.028 38C282.028 40.36 280.388 41.76 277.268 41.76H274.828V34.44H277.508C280.708 34.44 282.028 35.8 282.028 38ZM282.988 49.8C282.988 52.56 281.028 53.96 277.668 53.96H274.828V45.52H277.588C281.108 45.52 282.988 47 282.988 49.8ZM290.129 58H295.449L297.849 51H308.289L310.929 58.28L316.249 57.32L306.129 30.28H300.489L290.129 58ZM303.089 36L306.809 46.68H299.289L303.089 36ZM317.582 57.28L322.942 58.28L329.942 47.44H332.622V58H337.902V30.4H329.822C323.422 30.4 319.422 33.72 319.422 39C319.422 42.96 321.302 45.4 324.862 46.56L317.582 57.28ZM324.662 38.92C324.662 36.24 326.502 34.64 329.782 34.64H332.622V43.4H329.862C326.742 43.4 324.662 41.96 324.662 38.92ZM168.84 106H174.16L176.56 99H187L189.64 106.28L194.96 105.32L184.84 78.28H179.2L168.84 106ZM181.8 84L185.52 94.68H178L181.8 84ZM220.556 78.4H214.996L208.596 92.36L201.636 78.12L195.996 78.96L205.676 97.36L205.036 98.8C204.036 101.2 202.876 101.92 201.036 101.92C199.836 101.92 198.876 101.68 197.996 101.44L198.716 106.04C199.436 106.28 200.556 106.48 201.956 106.48C205.396 106.48 207.596 104.92 209.676 100.72L220.556 78.4ZM222.237 112.28V106H240.317V112.56L245.317 111.88V101.24H242.157V78.4H226.077L225.317 84.88C224.357 92.52 222.157 96.68 217.197 101.6V112.28H222.237ZM230.557 82.88H236.877V101.48H223.677C227.357 97.56 229.277 93.56 230.157 86.32L230.557 82.88ZM254.203 106L266.363 86.6V106H271.603V78.4H266.243L254.323 97.4V78.4H249.123V106H254.203ZM297.883 83L297.123 78.4H275.683V83H284.003V106H289.283V83H297.883ZM324.94 92.16C324.94 83.64 319.94 77.88 312.02 77.88C304.14 77.88 299.02 83.68 299.02 92.24C299.02 100.76 304.1 106.52 311.94 106.52C319.86 106.52 324.94 100.68 324.94 92.16ZM319.58 92.2C319.58 98.24 316.74 102.12 311.98 102.12C307.26 102.12 304.42 98.24 304.42 92.2C304.42 86.16 307.26 82.28 311.98 82.28C316.7 82.28 319.58 86.16 319.58 92.2ZM347.909 86.88C347.909 81.32 344.109 78.4 337.789 78.4H329.709V106H334.989V95.84H337.349C343.669 95.84 347.909 92.84 347.909 86.88ZM342.709 87C342.709 90.16 340.709 91.56 337.309 91.56H334.989V82.64H337.509C340.909 82.64 342.709 84.12 342.709 87ZM357.016 106L369.176 86.6V106H374.416V78.4H369.056L357.136 97.4V78.4H351.936V106H357.016ZM377.816 105.28L383.176 106.28L390.176 95.44H392.856V106H398.136V78.4H390.056C383.656 78.4 379.656 81.72 379.656 87C379.656 90.96 381.536 93.4 385.096 94.56L377.816 105.28ZM384.896 86.92C384.896 84.24 386.736 82.64 390.016 82.64H392.856V91.4H390.096C386.976 91.4 384.896 89.96 384.896 86.92Z" fill="#F7A330"/>
<path d="M137.907 71.8493C137.441 71.619 137.296 71.8711 137.304 72.2771C137.313 72.7734 137.573 72.9569 138.057 72.7983C138.719 72.4311 138.717 72.4218 137.907 71.8493Z" fill="url(#paint0_radial_910_3)"/>
<path d="M139.996 71.4082C139.946 71.15 139.776 71.0099 139.506 70.9944C139.332 71.0488 139.113 71.1017 139.179 71.3366C139.254 71.6089 139.544 71.5902 139.76 71.6322C139.89 71.6587 140.027 71.5747 139.996 71.4082Z" fill="url(#paint1_radial_910_3)"/>
<path d="M137.21 78.0267C137.202 78.0283 137.195 78.0314 137.188 78.0329C137.171 78.0127 137.154 77.9909 137.137 77.9707C137.095 77.2722 137.025 76.5783 136.803 75.9078C136.802 75.9078 136.802 75.9078 136.8 75.9078C136.838 75.8954 136.87 75.8674 136.898 75.8238C137.008 75.2186 137.045 74.6166 136.817 74.0254L136.816 74.0238C136.446 73.3642 136.344 73.3518 135.806 73.9072C135.281 74.0534 134.751 74.0721 134.218 73.9414C134.157 73.8621 134.088 73.7889 134.03 73.708C134.029 73.2942 134.029 72.8804 134.027 72.4681C134.119 71.5363 134.129 70.6044 134.024 69.6725C134.06 67.9006 133.99 66.1348 133.695 64.3831C133.879 63.4186 133.248 62.538 133.404 61.5766C133.672 61.1612 133.698 60.7521 133.382 60.346C133.045 60.2278 133.042 59.94 132.996 59.6755C133.002 59.6009 133.013 59.5262 133.031 59.4515C133.059 59.2353 133 59.0392 132.897 58.8526C132.755 58.7234 132.755 58.3625 132.461 58.487C132.461 58.473 132.461 58.4605 132.462 58.4465C132.511 58.3345 132.48 58.2365 132.428 58.1416C132.704 57.9798 132.625 57.6827 132.625 57.4166C132.523 56.9313 132.377 56.4568 132.268 55.9729C132.151 55.7956 132.171 55.4673 131.847 55.5218C131.847 55.514 131.847 55.5062 131.848 55.4984C131.954 55.3475 131.961 55.2075 131.834 55.0831C131.841 55.08 131.847 55.0768 131.853 55.0737C132.063 54.5401 131.661 54.0905 131.652 53.5865C131.58 53.4029 131.504 53.2224 131.293 53.154C131.292 53.1555 131.289 53.1555 131.287 53.1571C131.281 53.1431 131.275 53.1291 131.268 53.1151C131.385 52.9642 131.371 52.7868 131.339 52.6064C131.312 52.5193 131.283 52.4337 131.256 52.3481C131.396 52.0292 131.345 51.785 131.011 51.6512C131.01 51.6465 131.008 51.6434 131.007 51.6387C130.993 51.6169 130.98 51.5936 130.968 51.5703C130.969 51.5687 130.971 51.5687 130.972 51.5672C131.06 51.4256 131.078 51.2685 131.074 51.1082C131.035 50.8266 131.004 50.5404 130.623 50.5279C130.661 50.489 130.693 50.4455 130.715 50.3941C130.804 50.0768 130.701 49.7843 130.601 49.4887C130.369 48.8027 129.998 48.1741 129.774 47.485C129.721 47.3761 129.643 47.2921 129.535 47.2345C129.467 47.2127 129.401 47.2189 129.337 47.247C129.256 46.5842 129.203 45.9075 128.603 45.4999C128.602 45.4765 128.602 45.4517 128.603 45.4283C128.586 45.3116 128.56 45.1981 128.519 45.0876C128.469 45.0145 128.43 44.9321 128.396 44.8465C128.394 44.7267 128.394 44.6069 128.393 44.4871C128.408 44.3782 128.396 44.2709 128.357 44.1682C128.181 43.9566 128.242 43.4868 127.777 43.5895C127.777 43.5755 127.776 43.5615 127.776 43.549C127.776 43.5444 127.776 43.5397 127.774 43.535C127.779 43.4324 127.783 43.3297 127.788 43.227C127.68 43.073 127.574 42.919 127.467 42.7649C127.47 42.5643 127.472 42.3636 127.25 42.3153C127.236 42.292 127.221 42.2687 127.203 42.2469C127.247 42.1847 127.256 42.1084 127.246 42.0275C127.169 41.8082 127.027 41.6153 126.998 41.3788C126.981 41.315 126.959 41.2512 126.929 41.1921C126.831 41.0225 126.708 40.8701 126.608 40.7021C126.472 40.5185 126.395 40.3069 126.306 40.1016C126.201 39.9304 126.094 39.7609 125.969 39.6022C125.9 39.5431 125.833 39.484 125.752 39.4699C125.749 39.4622 125.745 39.4544 125.741 39.4466C125.634 39.2833 125.526 39.1215 125.299 39.1728C125.299 39.1697 125.299 39.1666 125.299 39.1635C125.336 39.1075 125.341 39.0484 125.314 38.9877C125.307 38.9799 125.3 38.9706 125.293 38.9628C125.291 38.8321 125.288 38.6999 125.286 38.5692V38.5676C125.082 38.3778 125.188 38.0698 125.037 37.8613C125.042 37.8598 125.046 37.8598 125.051 37.8582C125.347 37.6046 125.257 37.3122 125.135 37.0166C125.045 36.8735 124.945 36.735 124.973 36.5514C124.657 36.0318 124.898 35.4593 124.82 34.9179C124.797 34.7546 124.853 34.5166 124.615 34.5072C124.529 34.5041 124.435 34.7157 124.346 34.8308C124.13 34.9771 123.997 35.1497 124.139 35.4095C124.075 35.4064 124.016 35.4204 123.961 35.4547C123.96 35.4578 123.957 35.4593 123.955 35.4609C123.756 35.4609 123.556 35.4609 123.357 35.4609C123.332 35.4422 123.307 35.4235 123.28 35.4064C123.174 35.366 123.075 35.3675 122.984 35.4453C122.984 35.4453 122.975 35.4484 122.962 35.4515C122.955 35.4453 122.948 35.4375 122.942 35.4313C122.956 35.4127 122.969 35.394 122.983 35.3753C122.976 35.2617 122.928 35.1668 122.85 35.086C122.845 35.0828 122.839 35.0797 122.835 35.0766C122.873 34.9988 122.864 34.9179 122.796 34.8355V34.8324C122.696 34.781 122.594 34.7281 122.495 34.6768C122.509 34.669 122.523 34.6612 122.537 34.6504C122.685 34.3703 122.546 34.1603 122.376 33.9503C122.118 33.6298 121.851 33.3124 121.641 32.9546C121.313 32.6357 121.235 32.0694 120.67 31.9916C120.652 31.9979 120.637 32.0072 120.623 32.0165C120.606 31.847 120.523 31.7412 120.361 31.7163C120.345 31.7023 120.328 31.6898 120.311 31.6789C120.281 31.4363 120.135 31.2822 119.953 31.1547C119.954 31.1344 119.956 31.1127 119.956 31.0909C119.871 30.7844 119.8 30.467 119.379 30.4748C119.374 30.4748 119.37 30.4748 119.365 30.4748C119.448 30.0361 119.07 29.8074 118.882 29.4947C118.838 29.4325 118.793 29.3718 118.748 29.3112C118.748 29.2831 118.749 29.2551 118.749 29.2287C118.798 29.168 118.808 29.1011 118.785 29.028C118.614 28.7527 118.388 28.5224 118.165 28.2906C118.123 28.2704 118.081 28.2673 118.04 28.275C118.006 28.1568 117.951 28.0479 117.884 27.9452C117.697 27.6901 117.459 27.4816 117.247 27.2498C116.332 26.458 115.644 25.4561 114.79 24.6082C114.472 24.3469 114.291 23.8724 113.757 23.9471C113.668 23.9471 113.579 23.9486 113.49 23.9486C113.487 23.9377 113.487 23.9268 113.482 23.9159C113.397 23.8179 113.308 23.7293 113.175 23.793C113.055 23.3154 112.748 23.0292 112.278 22.9125C112.455 22.5905 112.454 22.2716 112.215 21.9542C112.215 21.9526 112.215 21.9511 112.215 21.9495C112.22 21.9526 112.223 21.9573 112.229 21.9604C112.778 21.8033 112.951 21.3973 112.946 20.8745C112.929 20.8076 112.915 20.7423 112.9 20.6754C112.94 20.5774 112.982 20.4809 113.023 20.3829C113.13 20.2818 113.193 20.1682 113.186 20.0329C113.222 20.0064 113.26 19.9816 113.297 19.9613C113.601 19.6642 113.679 19.3017 113.599 18.8972C113.584 18.8552 113.565 18.8194 113.548 18.7868C113.571 18.7448 113.593 18.7028 113.617 18.6592C113.055 18.194 112.437 18.4523 111.833 18.5223C111.851 18.5659 111.868 18.6094 111.885 18.653C111.889 18.7012 111.894 18.7494 111.899 18.7977C111.818 18.8474 111.79 18.9314 111.783 19.0279C111.79 19.0995 111.804 19.1695 111.832 19.2364C111.938 19.4526 112.01 19.6797 112.048 19.9178C112.064 19.9847 112.083 20.0516 112.109 20.1169C112.268 20.4405 112.175 20.7252 111.972 20.9959C111.966 21.0052 111.957 21.013 111.95 21.0223C111.704 20.7143 111.391 20.5245 110.967 20.5292C111.051 20.2258 110.798 19.9893 110.786 19.7046C110.72 19.4868 110.667 19.2628 110.538 19.0699C110.399 18.9143 110.234 18.8412 110.024 18.8957C109.53 19.1695 109.009 19.2519 108.459 19.1119C108.306 19.1088 108.158 19.1275 108.026 19.213C108.01 19.2286 107.999 19.2426 107.988 19.2581C107.765 18.7105 107.262 18.4787 106.794 18.2065C106.777 18.2034 106.76 18.1987 106.744 18.194C106.741 18.1427 106.737 18.0929 106.733 18.0416C106.568 17.9529 106.376 17.8985 106.288 17.7071C106.121 17.5158 106.006 17.2233 105.659 17.396C105.611 17.3991 105.563 17.3991 105.513 17.3975C105.293 17.1346 105.12 16.8063 104.706 16.8079C104.706 16.8079 104.704 16.8079 104.704 16.8063C104.696 16.8063 104.687 16.8063 104.679 16.8063C104.835 16.4625 104.498 16.3785 104.328 16.2121C104.149 16.0347 103.851 15.9569 103.803 15.6738C103.867 15.6473 103.923 15.61 103.971 15.5587C103.992 15.4918 103.984 15.4295 103.951 15.3704C104.196 15.1713 104.113 14.9364 103.984 14.717C103.792 14.3919 103.781 14.0434 103.792 13.6856C104.991 13.726 106.207 13.5674 107.369 13.9967C107.421 14.0963 107.474 14.1974 107.525 14.297L107.53 14.3001C107.678 14.5086 107.988 14.4214 108.138 14.6284C108.295 14.7295 108.453 14.8306 108.61 14.9317C108.833 14.9115 109.015 14.8384 109.062 14.5879C109.065 14.4448 109.07 14.3017 109.073 14.1585C108.665 14.0699 108.682 13.6374 108.457 13.4009C108.133 13.3216 107.762 13.3729 107.516 13.0711C107.025 13.0073 106.579 12.8486 106.256 12.4472C106.164 12.4395 106.073 12.4317 105.981 12.4239C105.914 12.0708 105.571 12.0054 105.345 11.8187C104.96 11.6492 104.525 11.5652 104.257 11.1918C104.205 11.1887 104.154 11.1871 104.104 11.184C104.048 11.0844 103.992 10.9833 103.936 10.8838C103.828 10.7857 103.722 10.6877 103.614 10.5882C103.565 10.3766 103.513 10.165 103.463 9.95499C103.339 9.94722 103.223 9.92233 103.158 9.79787C102.961 9.70453 102.852 9.55206 102.844 9.33271C102.742 9.33115 102.639 9.33116 102.536 9.3296L102.531 9.33427C102.472 8.45062 101.794 8.76332 101.311 8.70109C101.37 8.54552 101.244 8.47396 101.138 8.39462H101.136C100.876 8.39151 100.617 8.38995 100.357 8.38684C100.04 8.74776 100.439 9.4665 99.7318 9.62985C99.4201 9.38249 99.1099 9.41205 98.8013 9.63608C98.4958 9.63141 98.1903 9.6283 97.8848 9.62363C97.8162 9.57385 97.7492 9.57384 97.6822 9.62674C97.6822 9.63607 97.6822 9.64385 97.6822 9.65319C97.3361 9.35449 96.8405 9.55518 96.482 9.29382C96.4056 9.25026 96.337 9.19892 96.2731 9.14136C96.2373 9.02935 96.1578 8.93912 96.0378 8.87222C96.0409 8.86289 96.044 8.852 96.0471 8.84266C96.0487 8.76488 96.0237 8.69798 95.9676 8.64198C95.9333 8.61864 95.8959 8.60308 95.8601 8.59064C95.6185 8.45062 95.2506 8.68709 95.0574 8.40084C94.9576 8.39617 94.8578 8.38995 94.7581 8.38528C94.7581 8.38528 94.7581 8.37595 94.7581 8.3775C94.7503 8.18148 94.741 7.98391 94.7332 7.78789C94.741 7.67743 94.7487 7.56854 94.7565 7.45808C94.7503 7.08938 94.6833 6.71289 94.9062 6.37686C94.8485 6.32708 94.7893 6.27729 94.7316 6.22907C94.4121 5.84481 93.9912 5.65345 93.5034 5.59123C93.2415 5.38587 92.9812 5.18052 92.7193 4.97516C92.7396 4.63602 92.3234 4.62668 92.2502 4.35755C91.9088 4.34199 91.6922 3.94217 91.3103 4.05107C90.4141 3.74148 89.4867 3.71971 88.5483 3.70415C87.2827 3.68392 86.017 3.6108 84.7623 3.42879C84.6626 3.32144 84.5628 3.2141 84.4631 3.10831C84.3368 3.10053 84.2168 3.08186 84.1435 2.96207C83.266 2.80339 82.3838 2.75361 81.4938 2.81428C80.7721 2.81117 80.052 2.80806 79.3303 2.80806C79.0186 2.80806 78.6991 2.83606 78.5276 2.48914C78.5276 2.38646 78.5276 2.28378 78.5292 2.18266C78.4263 2.12977 78.3234 2.07687 78.2206 2.02554C78.0304 1.98509 77.8387 1.94619 77.6485 1.90108C77.3898 1.84041 77.3695 1.94464 77.4225 2.10176C77.368 2.11577 77.3181 2.14221 77.276 2.18422C77.2666 2.4378 77.142 2.46425 76.9237 2.38957C76.5917 2.27756 76.2597 2.13599 75.895 2.17488C75.7719 1.89797 75.5365 1.84974 75.2684 1.87152C75.284 1.88552 75.298 1.89952 75.3136 1.91352C75.2949 1.90263 75.2793 1.89019 75.2684 1.87152C75.217 1.86841 75.1671 1.8653 75.1157 1.86374C75.2061 1.28035 75.8389 1.76573 76.0368 1.39703C76.2254 1.16212 75.9901 1.07188 75.881 0.939649C75.8311 0.944316 75.7828 0.942761 75.7329 0.938094C75.6285 0.941205 75.524 0.944316 75.4196 0.945871C75.0097 0.944316 74.5998 0.941204 74.1883 0.939649C74.1446 0.885199 74.087 0.877421 74.0153 0.922537C73.2141 1.84974 72.1168 1.6086 71.1005 1.63505C70.5675 1.64905 70.103 1.4297 69.8068 0.945871C69.6182 0.497827 69.2145 0.661177 68.8825 0.619172C68.2824 0.364036 67.6465 0.326699 67.0074 0.309586C66.4884 0.309586 65.9694 0.309586 65.4519 0.30803C65.2804 0.31892 65.0949 0.284695 64.9812 0.465157L64.9905 0.474491C64.9905 0.479158 64.9905 0.483826 64.9905 0.488493C64.9874 0.480715 64.9843 0.472936 64.9812 0.465157C64.6616 0.410707 64.3655 0.314254 64.2018 0C64.046 0 63.8901 0 63.7342 0C63.5784 0 63.4225 0 63.2666 0C62.9549 0 62.6432 0 62.3314 0C61.9153 0 61.5006 0 61.0845 0C60.6683 0 60.2537 0 59.8375 0C59.6302 0 59.4214 0 59.2141 0C59.0068 0 58.7979 0 58.5906 0C58.4893 0.1089 58.3864 0.216243 58.2851 0.325143C57.9796 0.64562 57.5821 0.626951 57.1878 0.623839C56.9696 0.670511 56.7545 0.726516 56.583 0.874309C56.5378 0.891422 56.4926 0.908535 56.4474 0.925648C56.1201 0.941205 55.7756 0.850973 55.4857 1.09055C55.3828 1.09522 55.28 1.09989 55.1787 1.10455C55.0727 1.10144 54.9667 1.09833 54.8607 1.09522C54.8545 1.24768 54.8467 1.39858 54.8404 1.55104C54.7001 1.82174 54.4757 2.00687 54.2232 2.16555V2.17333C54.1234 2.28378 54.0252 2.39424 53.9255 2.50469C53.5888 2.87807 52.9965 2.71005 52.6645 3.09586C52.5102 3.10209 52.3575 3.10987 52.2032 3.11609C51.999 3.21877 51.854 3.43345 51.5968 3.43812C51.5376 3.43034 51.4768 3.42101 51.4176 3.41323C51.3163 3.4179 51.215 3.42101 51.1136 3.42568C50.8019 3.63259 50.4886 3.83794 50.1769 4.04485C50.074 4.0993 49.9727 4.15375 49.8698 4.2082C49.8901 4.41977 49.7966 4.65936 50.0194 4.8227C49.8979 5.21786 49.5596 5.39676 49.2432 5.599C49.1388 5.70324 49.0359 5.80591 48.9315 5.91015C48.2223 6.1435 47.5053 6.31774 46.7493 6.22284C46.1243 6.32241 45.4977 6.42198 44.8727 6.52154C44.3568 6.40175 43.7411 6.80624 43.3125 6.22751C43.2112 6.22596 43.1098 6.22284 43.0085 6.22129C42.41 5.93348 41.9097 6.12172 41.4576 6.54021V6.53865C41.3252 6.61644 41.2254 6.70356 41.3111 6.84046C41.3065 6.83891 41.3002 6.8389 41.2955 6.8389C41.294 6.8389 41.2924 6.84046 41.2909 6.84046C41.1397 6.85135 40.99 6.86224 40.8388 6.87313C40.8373 6.92136 40.8357 6.96959 40.8357 7.01781C40.8155 7.02248 40.7936 7.0287 40.7734 7.03493C40.5879 7.10804 40.4648 7.24028 40.3884 7.41763C39.9333 7.33673 39.7945 7.88746 39.4329 7.9948C39.3363 8.10059 39.2287 8.19549 39.143 8.31061C39.1399 8.31839 39.1368 8.32617 39.1337 8.3355C39.0729 8.32461 39.0121 8.34172 38.9513 8.39151C38.9045 8.39773 38.8578 8.4024 38.8095 8.40862C38.5632 8.85511 38.0971 9.04802 37.7215 9.3436C37.7168 9.44161 37.7121 9.53962 37.7075 9.63763C37.6467 9.74031 37.5874 9.84298 37.5267 9.94411C37.4768 9.93788 37.4347 9.95188 37.3989 9.98767C37.0294 10.0888 36.7629 10.3595 36.4574 10.5648C35.9212 10.5773 35.463 10.9615 34.9081 10.8915L34.9096 10.8946C34.8286 10.9631 34.8146 11.0393 34.8504 11.1233C34.813 11.1031 34.7725 11.0876 34.7273 11.0798C34.0009 11.3162 33.3697 11.7814 32.6075 11.9479C32.4033 11.993 32.2443 12.1999 32.4126 12.4426C32.4111 12.4426 32.4095 12.4426 32.408 12.4426C32.3971 12.4472 32.3862 12.4519 32.3737 12.455C32.0354 12.511 31.8375 12.7148 31.7767 13.0571C31.3824 12.8875 31.1049 13.3744 30.7199 13.2547C30.6903 13.2671 30.6638 13.2842 30.6373 13.3013C30.603 13.2484 30.5687 13.1971 30.5344 13.1442C30.4877 13.1178 30.4394 13.0913 30.3926 13.0649C30.4175 12.7304 30.5516 12.4612 30.8509 12.2886C30.8477 12.1345 30.8446 11.9805 30.8431 11.8265C30.8477 11.7721 30.8509 11.7192 30.8555 11.6647C30.4378 11.6134 30.0201 11.5605 29.6024 11.5092C29.3389 11.5014 29.1924 11.7176 28.9898 11.8296C28.9555 12.0988 29.1987 12.2326 29.2937 12.4379C29.3966 12.4877 29.4995 12.5359 29.6039 12.5857C29.7021 12.7444 29.6803 12.9062 29.6133 13.068C29.4636 13.264 29.4636 13.46 29.5992 13.656C29.5478 13.7027 29.5197 13.7665 29.5104 13.8443C29.5151 13.9127 29.5307 13.9765 29.565 14.0372C29.66 14.157 29.7317 14.2845 29.738 14.4401C29.7426 14.5879 29.7333 14.7357 29.6896 14.8804C29.4792 15.1713 29.1207 14.9924 28.8651 15.1402C28.8106 15.1682 28.7685 15.2055 28.7311 15.246C28.7124 15.2444 28.6921 15.2429 28.6734 15.2429C28.5658 15.344 28.4567 15.4451 28.3492 15.5462C28.3367 15.5462 28.3258 15.5649 28.3149 15.6038C28.3149 15.6053 28.3149 15.6053 28.3149 15.6069C28.3009 15.6162 28.2868 15.6256 28.2728 15.6365C28.0452 15.8698 27.7522 16.0534 27.6961 16.4128C27.6992 16.419 27.7023 16.4252 27.7055 16.4314C27.6992 16.4361 27.6914 16.4376 27.6852 16.4423C27.4529 16.2556 27.1833 16.2992 26.9152 16.3459C26.8435 16.3692 26.7749 16.3956 26.711 16.4299C26.5863 16.3676 26.4585 16.4034 26.3291 16.4843C26.0081 16.6554 25.9286 17.021 25.6963 17.2637C25.7384 17.3042 25.7789 17.3446 25.821 17.3851C25.8101 17.3944 25.7961 17.4022 25.7852 17.4115C25.5482 17.718 25.33 18.0369 25.1305 18.3683C25.0682 18.3683 25.0043 18.3683 24.9419 18.3667C24.8297 18.5674 24.7175 18.7681 24.6052 18.9688C24.4026 19.2784 24.0893 19.5428 24.2078 19.9784C24.2265 20.0158 24.253 20.0438 24.2826 20.0656C24.0036 20.0656 24.1018 20.2865 24.0753 20.4343C24.0332 20.6707 24.1641 20.929 23.9833 21.1468C23.5828 21.2261 23.3303 21.5186 23.059 21.7846C22.4745 22.3665 21.8604 22.8518 20.9689 22.41C20.9486 22.4007 20.919 22.41 20.8925 22.41C20.8847 22.508 20.8769 22.6045 20.8707 22.7025C20.3033 23.3668 20.6805 24.1617 20.5667 24.8898C20.5667 24.9909 20.5667 25.0921 20.5667 25.1947C20.4171 25.2399 20.2659 25.2834 20.1178 25.3145C19.9199 25.3176 19.7235 25.3239 19.5271 25.3456C19.2808 25.3036 19.0517 25.1761 18.8475 24.8945C18.6948 24.7591 18.5389 24.7654 18.3799 24.8836C18.3799 24.8836 18.3721 24.882 18.3721 24.8836C18.3737 24.9863 18.3752 25.089 18.3768 25.1916L18.3861 25.2025C18.2879 25.3083 18.1913 25.4141 18.0931 25.5214H18.0869C17.9669 25.6428 17.9918 25.8046 17.9684 25.9539C17.9684 25.9555 17.97 25.9586 17.9715 25.9602C17.8047 25.9819 17.8811 26.2246 17.7705 26.2977C17.6645 26.5544 17.5585 26.8111 17.454 27.0678C17.4603 27.1721 17.465 27.2763 17.4712 27.3805C17.4618 27.3976 17.4525 27.4147 17.4463 27.4334C17.4088 27.5252 17.3823 27.6185 17.359 27.7134C17.2623 27.9079 17.1454 28.0946 17.1688 28.3264C17.0971 28.5971 17.1345 28.9642 16.6731 28.9004C16.4752 28.9471 16.2149 28.9051 16.204 29.2131C16.1962 29.2225 16.19 29.2303 16.1837 29.2396C16.1385 29.2411 16.0933 29.2427 16.0481 29.2443C15.9936 29.5523 15.9375 29.8603 15.8829 30.1684C15.6849 30.3939 15.646 30.6802 15.5836 30.9571C15.2142 31.2107 14.8557 31.4954 14.3616 31.4316C14.251 31.5327 14.1387 31.6338 14.0281 31.735C13.9813 31.735 13.933 31.7365 13.8862 31.7396C13.8722 31.7147 13.8535 31.6914 13.8254 31.6681C13.6696 31.598 13.5293 31.6136 13.4062 31.7396V31.7412C13.0835 32.1161 12.75 32.4786 12.3821 32.81C11.8522 33.3218 11.3705 33.8678 11.0993 34.5663C11.1009 34.655 11.1196 34.7359 11.1695 34.8028C11.1617 34.8153 11.1523 34.8261 11.1445 34.8386C11.09 34.9459 11.065 35.0595 11.0681 35.1793C11.0713 35.2229 11.0806 35.2649 11.0915 35.3053C10.7252 35.7782 10.3574 36.2496 9.98955 36.7226C9.9007 36.7832 9.85239 36.8688 9.8368 36.973C9.83368 37.0119 9.83368 37.0524 9.8368 37.0897C9.78069 37.1224 9.72458 37.155 9.67002 37.1877C9.56715 37.446 9.46428 37.7042 9.35985 37.9625L9.35517 37.9702C9.11201 38.2549 8.90316 38.5583 8.77534 38.9099C8.74573 38.9301 8.71611 38.955 8.68806 38.9768C8.64597 39.025 8.60856 39.0748 8.57739 39.1308C8.52439 39.1588 8.47296 39.1868 8.41996 39.2133C8.38567 39.3377 8.34982 39.4606 8.31553 39.5851C8.28592 39.6286 8.25475 39.6722 8.22202 39.7142C8.19084 39.7593 8.16278 39.806 8.13784 39.8542C7.59698 40.0611 7.43955 40.5107 7.44579 41.0661C7.00157 41.0303 6.91429 41.3928 6.77089 41.6946C6.75374 41.8129 6.774 41.9217 6.85506 42.0135C6.7023 42.1162 6.55111 42.2189 6.39836 42.3216L6.3968 42.32C6.24873 42.5331 6.06169 42.7167 5.9292 42.9423V42.9454C5.76398 43.059 5.73281 43.2628 5.61747 43.4106L5.61903 43.4121C5.62059 43.4806 5.62214 43.5475 5.62526 43.6159C5.59876 43.6424 5.57383 43.6735 5.552 43.7062C5.5146 43.8213 5.52551 43.9271 5.60968 44.0173C5.5333 44.0733 5.50057 44.1573 5.48342 44.2538C5.60656 44.834 4.93788 45.0612 4.90203 45.5699C4.90671 45.6041 4.91762 45.6368 4.93321 45.6663C4.92385 45.6741 4.9145 45.6819 4.90359 45.6881C4.69473 45.9168 4.47651 46.1408 4.57315 46.4924C4.58095 46.5095 4.58874 46.5251 4.59654 46.5422C4.44534 46.6075 4.34403 46.76 4.18037 46.8051C4.01203 46.8658 3.83434 46.8611 3.65977 46.886C3.44779 46.9171 3.29037 47.0058 3.40727 47.2345C2.9646 47.6312 2.84926 48.2006 2.65754 48.728C2.65443 48.7669 2.65443 48.8058 2.65598 48.8447C2.60455 48.8493 2.55467 48.854 2.50323 48.8587C2.44712 49.0096 2.39101 49.1605 2.3349 49.3114L2.28813 49.3098C2.28813 49.6474 1.89067 49.7672 1.8595 50.0877C1.85638 50.2868 1.85482 50.4859 1.85171 50.6851C1.53218 50.7753 1.57115 51.0273 1.5618 51.2638C1.56024 51.2809 1.55868 51.298 1.55868 51.3151C1.55868 51.3167 1.55868 51.3182 1.55868 51.3198C1.53841 51.5609 1.63038 51.827 1.47295 52.0432C1.41372 52.0432 1.35449 52.0463 1.2937 52.0572C1.06146 52.1319 0.969498 52.345 0.840128 52.5208C0.746608 52.6593 0.611003 52.6935 0.455135 52.6717C0.297709 52.653 0.134046 52.5924 0 52.7386C0 52.9984 0 53.2567 0 53.5165C0 53.8276 0 54.1387 0 54.4499C0.162102 54.5417 0.221334 54.7844 0.459811 54.7673C0.829217 55.2946 1.29838 55.7116 1.86729 56.0149C1.97173 56.1145 2.07771 56.2156 2.18215 56.3152C2.70274 56.4879 2.89446 56.771 2.49232 57.2486C2.41283 57.3777 2.38166 57.5069 2.44245 57.6344C2.42062 57.678 2.39724 57.7215 2.3723 57.7636C2.22267 58.2738 2.34581 58.7172 2.70119 59.103C2.72145 59.1217 2.74483 59.1373 2.76821 59.1497C2.60143 59.3068 2.70119 59.5993 2.49544 59.7378C2.39257 59.7346 2.2897 59.7331 2.18527 59.73C1.93276 59.744 1.50256 59.3877 1.55556 60.0333C1.44957 60.3507 1.34358 60.6665 1.23759 60.9839C1.275 61.3386 1.20953 61.6622 0.957029 61.9313C0.639059 63.6037 1.25785 65.161 1.54621 66.7587C1.54621 66.7587 1.54621 66.7587 1.54621 66.7602C1.54465 66.9018 1.54309 67.0418 1.54153 67.1834C1.21889 67.5536 1.58673 68.0841 1.2485 68.4497L1.25162 68.4513C1.06769 69.573 0.667114 70.7522 2.07616 71.4367C2.1198 71.4569 2.1463 71.5114 2.18215 71.5487L2.18994 71.5627C2.30684 71.8785 2.29749 72.1943 2.19462 72.5117C2.18994 72.6097 2.18371 72.7062 2.17903 72.8042C2.27099 73.4047 2.01848 73.9554 1.90938 74.5263C1.8595 74.6648 1.80651 74.8033 1.75039 74.9402C1.72234 75.0195 1.69896 75.1004 1.68805 75.1844C1.64908 75.424 1.64129 75.6605 1.65376 75.8969C1.61479 76.9875 2.04031 78.0687 1.77066 79.1624C1.75663 79.3195 1.7426 79.4782 1.72857 79.6353C1.83144 79.6322 1.93588 79.6291 2.03875 79.626C3.26231 79.6431 3.64106 80.0709 3.39947 81.1863C3.32933 81.5115 3.21243 81.8257 3.11579 82.1462C2.84614 82.5772 2.776 83.0283 2.77132 83.4857C2.76041 83.5728 2.75418 83.6615 2.76197 83.7502C2.78068 83.9726 2.71989 84.2309 2.80874 84.4284C2.81653 84.598 2.82276 84.766 2.81653 84.9341C2.81341 85.0336 2.81185 85.1332 2.80874 85.2343C3.74394 85.1721 3.05033 85.7493 3.12047 86.0262C3.00825 86.2222 2.86952 86.3933 2.66066 86.4944C2.66222 86.6002 2.66378 86.7076 2.6669 86.8134L2.64819 86.8009C2.42686 86.9456 2.35672 87.1867 2.2554 87.4076C2.04186 87.3952 1.99043 87.613 1.88132 87.7468C1.77533 87.9521 1.66779 88.1559 1.5618 88.3613C1.4636 88.366 1.3654 88.3706 1.26564 88.3753C1.25941 88.4733 1.25317 88.5697 1.24694 88.6678C1.24226 88.7689 1.23603 88.87 1.23135 88.9711C1.08795 89.5436 0.33356 89.0816 0.158988 89.6027C0.105993 89.6027 0.052995 89.6027 0 89.6012C0 89.9637 0 90.3277 0 90.6902C0.158985 90.7369 0.316414 90.7835 0.475399 90.8302C0.724787 90.8318 0.975733 90.8333 1.22512 90.8349C1.65376 90.5517 2.06057 91.076 2.48764 90.8815C2.49232 90.9204 2.49544 90.9578 2.49856 90.9967C2.497 91.1024 2.497 91.2067 2.49544 91.3125C2.497 91.3638 2.49544 91.4151 2.4892 91.4665C2.43933 91.5769 2.22267 91.5225 2.17591 91.6361C2.17123 91.6361 2.16656 91.6361 2.16344 91.6361C2.04654 91.6516 1.9499 91.7029 1.87509 91.7947C1.66311 91.9456 1.45113 92.0965 1.23915 92.2475C1.02561 92.3315 0.963263 92.5119 0.936765 92.7157C0.693612 92.9351 0.692055 92.9631 0.93365 93.0409C1.2485 93.3956 1.06146 94.0054 1.55556 94.2699C1.55088 94.3757 1.5462 94.4815 1.54309 94.5872C1.64908 94.693 1.75507 94.7973 1.86106 94.9031C1.96393 94.9015 2.06525 94.9015 2.16812 94.8999C2.48453 95.2593 2.80094 95.6202 3.11735 95.9796C3.12358 96.1305 3.12982 96.2799 3.1345 96.4308C3.18593 96.5334 3.23737 96.6361 3.28881 96.7372C3.43688 96.7466 3.58651 96.7543 3.73614 96.7621C3.74706 96.9613 3.75797 97.1604 3.76732 97.358C3.86708 97.4606 3.96683 97.5649 4.06658 97.6675C4.29727 97.8247 4.49522 98.0067 4.52483 98.307C4.52639 98.5139 4.52795 98.7192 4.53107 98.9261C4.7337 99.1517 4.93632 99.3819 5.14674 98.9339C5.63149 98.9261 6.12871 98.895 6.24561 99.5468C6.34536 99.55 6.44356 99.5546 6.54332 99.5577C6.63996 99.8175 6.73659 100.079 6.83323 100.339C6.92675 100.854 6.76933 101.397 6.96572 101.899C6.97352 102.103 6.98754 102.305 7.01715 102.507C7.03898 102.588 7.06548 102.666 7.09821 102.738C7.12471 102.92 7.1512 103.103 7.1777 103.285C7.17303 103.389 7.16834 103.495 7.16211 103.599C7.27122 103.701 7.37877 103.803 7.48788 103.904C7.57049 104.292 7.94769 104.494 8.08641 104.847L8.11291 104.835C8.10979 104.942 8.10511 105.048 8.102 105.155L8.11135 105.152C8.15655 105.544 8.44023 105.454 8.67715 105.455C8.68806 105.469 8.70053 105.485 8.71455 105.497C8.73482 105.507 8.75352 105.51 8.77222 105.511C8.76131 105.886 9.07772 106.09 9.23983 106.376C9.28347 106.431 9.33023 106.479 9.38478 106.523C9.55156 106.639 9.70899 106.765 9.84615 106.916C9.89447 106.966 9.94435 107.014 9.99734 107.058C10.0176 107.069 10.0363 107.081 10.0566 107.092C10.253 107.455 10.7798 107.54 10.9092 107.957C10.9887 108.035 11.0791 108.049 11.1788 107.999C11.1882 107.99 11.1975 107.98 11.2069 107.971L11.2084 107.973C11.1928 107.99 11.1788 108.007 11.1632 108.024C11.0947 108.326 11.2708 108.544 11.4952 108.638C11.9987 108.853 12.2013 109.287 12.418 109.718C12.3899 109.771 12.365 109.83 12.3385 109.886C12.2808 110.141 12.2559 110.39 12.4741 110.594C12.7391 111.058 13.0025 111.523 13.2674 111.986C13.3142 111.986 13.3594 111.985 13.4062 111.982C13.8177 112.231 14.0405 112.716 14.4941 112.912C14.6438 113.55 15.1784 113.741 15.7005 113.945C15.7302 113.943 15.7582 113.937 15.7831 113.928C15.9281 114.108 16.0746 114.29 16.2196 114.471C16.2804 114.703 16.5485 114.833 16.5235 115.106C16.6186 115.456 16.7184 115.754 16.589 116.173C16.3552 116.932 17.0083 117.4 17.4478 117.91C18.0386 118.152 18.2459 118.779 18.6994 119.157C18.8054 119.248 18.9114 119.234 19.0174 119.16C19.0174 119.363 19.019 119.567 19.019 119.771C19.2465 119.961 19.3182 120.311 19.658 120.384C19.7063 120.39 19.7562 120.396 19.8045 120.403C19.8076 120.518 19.8373 120.624 19.9012 120.72C20.0789 120.922 20.2939 121.067 20.5465 121.157C20.5963 121.167 20.6462 121.179 20.6961 121.191C20.8738 121.386 21.1325 121.454 21.3866 121.523C21.943 121.674 22.5057 121.809 23.0637 121.951C23.6046 121.958 23.059 122.464 23.3552 122.584C23.3848 123.016 23.5796 123.34 23.9849 123.522C24.2561 123.875 24.5569 124.2 24.9419 124.437C24.984 124.595 25.0916 124.693 25.2365 124.757C25.3394 124.863 25.4438 124.97 25.5467 125.076C25.5498 125.173 25.5529 125.269 25.556 125.365C25.927 125.305 26.1468 125.664 26.485 125.695C26.538 125.691 26.5926 125.686 26.6455 125.681C26.725 125.684 26.8045 125.686 26.884 125.689C26.9464 125.72 27.0103 125.75 27.0711 125.782C27.1412 125.81 27.2129 125.832 27.2862 125.846C27.2908 125.846 27.2955 125.848 27.3002 125.848C27.6275 126.047 27.9923 126.02 28.357 125.999C28.5066 126.034 28.6547 126.075 28.8012 126.125C28.8667 126.142 28.9337 126.154 29.0007 126.162C29.0646 126.57 29.0833 126.985 29.194 127.386C29.353 127.612 29.5353 127.783 29.819 127.735C30.0668 128.191 30.5578 128.436 30.8181 128.88C31.1595 129.031 31.2717 129.6 31.7798 129.445C31.6349 129.964 32.0729 130.008 32.3784 130.16C32.3893 130.162 32.4002 130.16 32.4126 130.16C32.4173 130.221 32.4204 130.281 32.4251 130.342C33.2403 130.806 33.8217 131.612 34.7444 131.917C35.1388 132.564 35.9789 132.374 36.473 132.834C36.6164 132.956 36.7691 133.062 36.9328 133.153C37.0669 133.258 37.2227 133.298 37.3879 133.304C37.4456 133.301 37.5002 133.29 37.55 133.27C37.6545 133.338 37.7605 133.407 37.8649 133.474C37.9226 133.468 37.9802 133.461 38.0379 133.455C38.5975 133.636 39.1165 133.881 39.5109 134.331C39.422 134.381 39.3643 134.449 39.408 134.574C39.4641 134.62 39.5187 134.669 39.5748 134.715C39.7306 134.922 40.0143 134.879 40.1982 135.031C40.2029 135.131 40.206 135.23 40.2107 135.33C40.2699 135.417 40.3572 135.462 40.4539 135.492C40.6518 135.534 40.817 135.652 40.9932 135.737C41.0586 135.759 41.1272 135.772 41.1958 135.773C41.2893 135.768 41.3719 135.74 41.4421 135.683C41.548 135.932 41.7179 136.078 42.0172 136.013C42.0219 136.008 42.0266 136.003 42.0297 135.999C42.0312 136 42.0344 136.002 42.0359 136.003C41.9782 136.1 41.986 136.198 42.0499 136.294C42.145 136.352 42.2385 136.357 42.3305 136.307C42.2946 136.402 42.3056 136.495 42.3726 136.585C42.3788 136.63 42.3851 136.675 42.3897 136.721C42.5955 136.778 42.8012 136.834 43.007 136.892C43.2969 137.019 43.5213 137.318 43.8923 137.239C43.9094 137.218 43.9219 137.201 43.9313 137.184C43.9344 137.19 43.9375 137.197 43.9406 137.203C43.9406 137.203 43.9422 137.203 43.9422 137.204C43.9952 137.306 44.0482 137.408 44.1012 137.509C44.151 137.509 44.2009 137.512 44.2508 137.517C44.4784 137.484 44.6779 137.562 44.8727 137.662C44.8446 137.707 44.8462 137.757 44.8836 137.814C45.4011 137.816 45.917 137.819 46.4345 137.82C46.7478 137.614 47.0611 137.407 47.3744 137.2C47.3744 137.139 47.3744 137.078 47.3744 137.018C47.3791 137.013 47.3853 137.01 47.39 137.005C47.524 136.884 47.6612 136.766 47.6846 136.57L47.6861 136.568C47.6986 136.596 47.7173 136.626 47.7438 136.661C48.3252 136.823 48.8941 136.713 49.4614 136.579C49.7591 136.431 50.2268 136.427 50.0428 135.879C50.0023 135.815 49.954 135.758 49.8963 135.708C49.8496 135.678 49.8059 135.644 49.7638 135.608C49.7186 135.51 49.6984 135.412 49.8433 135.313C49.9805 135.198 49.9898 135.068 49.9088 134.932C49.9322 134.942 49.954 134.953 49.9805 134.96C50.0756 134.969 50.166 134.95 50.2517 134.908C50.3343 134.865 50.4169 134.823 50.5026 134.785C50.7333 134.712 50.95 134.776 51.1682 134.844C51.455 134.916 51.72 134.978 51.4986 135.389C51.3646 135.638 51.3506 135.926 51.614 136.143C51.6483 136.148 51.681 136.147 51.7122 136.137C51.7262 136.229 51.7402 136.321 51.7527 136.414C52.1252 136.694 52.504 136.962 52.9747 137.058C52.9794 137.102 52.984 137.145 52.9872 137.187C53.2272 137.226 53.447 137.307 53.62 137.488C53.8772 137.495 54.1063 137.554 54.2419 137.802C54.4804 137.845 54.8108 137.722 54.8498 138.132C55.0571 138.237 55.2628 138.343 55.4701 138.449C55.5403 138.563 55.6494 138.601 55.7756 138.603C55.7756 138.651 55.7803 138.699 55.7897 138.748C56.0655 138.782 56.3446 138.802 56.6173 138.853C57.5369 139.026 58.4534 139.21 59.3715 139.39C59.5071 139.468 59.6427 139.508 59.7799 139.429C59.7923 139.432 59.8032 139.435 59.8157 139.438C59.8017 139.634 60.0745 139.572 60.154 139.684C60.2568 139.686 60.3597 139.686 60.4626 139.687C60.8647 139.848 61.3198 139.792 61.7095 139.998C61.8139 139.998 61.9168 139.998 62.0212 139.998C62.333 139.998 62.6447 139.998 62.9564 139.998C63.1638 139.998 63.3726 139.998 63.5799 139.998C63.8917 139.998 64.2034 139.998 64.5151 139.998C65.243 139.998 65.9694 139.998 66.6973 139.998C68.6706 139.998 70.6454 139.998 72.6187 139.998C72.9304 139.998 73.2421 139.998 73.5539 139.998C73.6583 139.998 73.7612 139.998 73.8656 139.998C74.2818 139.998 74.6964 139.998 75.1126 139.998C75.3199 139.998 75.5287 139.998 75.736 139.998C75.8405 139.998 75.9433 139.998 76.0478 139.998C76.1319 139.913 76.1616 139.807 76.1506 139.69C76.1179 139.518 76.0821 139.347 75.9917 139.199C76.0665 139.203 76.1397 139.197 76.2145 139.182C76.2707 139.172 76.3252 139.16 76.3813 139.147C76.4764 139.158 76.5746 139.124 76.6728 139.071C77.0251 139.068 77.3773 139.065 77.7311 139.062C77.7374 139.065 77.742 139.067 77.7483 139.07C77.7982 139.113 77.8465 139.16 77.8963 139.205C77.9228 139.231 77.9447 139.259 77.9618 139.289C77.9992 139.526 78.0382 139.764 78.0756 140C78.127 140 78.18 140 78.2315 140C78.3873 140 78.5432 140 78.6991 140C78.8549 140 79.0108 140 79.1667 140C79.1713 139.899 79.1776 139.798 79.1823 139.697C79.1745 139.641 79.1667 139.586 79.1589 139.53C79.2727 139.245 79.6561 139.121 79.6249 138.751C79.6842 138.703 79.7418 138.653 79.8011 138.605C80.2998 138.643 80.8158 138.651 81.0511 139.222C80.9202 139.501 80.5742 139.645 80.5695 140C80.7253 140 80.8812 140 81.0371 140C81.2444 140 81.4533 140 81.6606 140C81.8585 139.849 81.7868 139.558 81.9707 139.4C82.072 139.284 82.1733 139.169 82.2747 139.054C82.3729 138.972 82.3744 138.872 82.3246 138.765C82.3214 138.762 82.3167 138.76 82.3136 138.757C82.4352 138.679 82.5646 138.609 82.5833 138.441C82.6394 138.393 82.6955 138.346 82.7516 138.298C82.9917 138.479 83.2317 138.318 83.4749 138.307C83.916 138.289 84.4069 138.184 84.6516 138.731C84.9291 138.821 85.0928 139.165 85.4559 139.068C86.0607 138.908 86.6701 138.763 87.278 138.611C87.4339 138.609 87.5897 138.612 87.744 138.606C88.0605 138.594 88.4486 138.569 88.5468 138.259C88.6528 137.929 88.1805 137.897 88.0277 137.671C87.914 137.428 87.8454 137.178 87.9233 136.909C88.2195 136.795 88.5156 136.68 88.8117 136.567C89.2996 135.922 90.0509 136.209 90.6728 136.041C90.824 135.871 91.1451 135.982 91.2745 135.776C91.3103 135.768 91.3477 135.759 91.3836 135.745C91.4553 135.709 91.527 135.678 91.6002 135.652C91.8434 135.642 92.0787 135.604 92.2985 135.502C92.4045 135.493 92.5105 135.488 92.618 135.487C93.1745 135.324 93.6966 135.067 94.2609 134.928C94.2874 134.908 94.3076 134.891 94.3295 134.872C94.4729 134.967 94.6085 134.83 94.7487 134.816C94.9249 134.706 95.101 134.597 95.2366 134.435C95.2429 134.435 95.246 134.417 95.2491 134.39C95.5951 134.284 95.9411 134.179 96.2856 134.073C96.3479 133.979 96.4087 133.886 96.4711 133.791C96.5163 133.791 96.5615 133.79 96.6067 133.785C96.6098 133.796 96.6129 133.807 96.6176 133.819C96.7283 133.883 96.8327 133.869 96.9324 133.793C97.1553 133.799 97.3548 133.726 97.5419 133.612C97.545 133.567 97.5497 133.522 97.5559 133.477C97.6058 133.475 97.6557 133.474 97.7056 133.475C97.7367 133.418 97.7695 133.359 97.8006 133.301C97.8209 133.3 97.8412 133.298 97.8614 133.295C98.0033 133.265 98.1311 133.206 98.2464 133.121C98.2916 133.077 98.3337 133.034 98.3493 132.982C98.3945 132.97 98.4381 132.956 98.4802 132.936C98.5207 132.906 98.5582 132.873 98.5893 132.839C98.7265 132.825 98.8481 132.775 98.9556 132.697C99.0117 132.704 99.0678 132.707 99.1255 132.704C99.2362 132.691 99.3453 132.677 99.4482 132.634C99.5105 132.606 99.5682 132.573 99.6227 132.537C99.6601 132.539 99.6991 132.542 99.7365 132.543C100.312 132.445 100.669 132.057 100.979 131.609C101.029 131.605 101.077 131.604 101.127 131.605C101.205 131.335 101.607 131.321 101.613 130.994C101.928 130.901 102.134 130.694 102.246 130.389C102.257 130.389 102.265 130.37 102.274 130.342C102.279 130.339 102.285 130.334 102.29 130.331C102.522 130.165 102.771 130.02 103.005 129.855C103.061 129.807 103.111 129.751 103.148 129.687C103.189 129.597 103.201 129.511 103.152 129.432C103.156 129.432 103.159 129.432 103.164 129.432C103.172 129.432 103.181 129.432 103.189 129.432C103.184 129.435 103.18 129.44 103.175 129.443C103.275 129.44 103.376 129.437 103.476 129.435C103.685 129.332 103.828 129.11 104.088 129.101C104.297 128.852 104.533 128.603 104.098 128.345C104.102 128.292 104.105 128.237 104.11 128.184C104.096 128.135 104.093 128.083 104.096 128.03C104.197 127.794 104.244 127.554 104.135 127.309C104.16 127.332 104.19 127.351 104.224 127.366C104.377 127.411 104.519 127.402 104.643 127.318C104.607 127.399 104.6 127.484 104.617 127.576C104.695 127.828 104.914 127.931 105.12 128.046C105.334 128.145 105.535 128.276 105.77 128.323C106.055 128.354 106.33 128.309 106.593 128.195C106.696 128.191 106.799 128.187 106.9 128.183C107.098 128.049 107.362 128.121 107.555 127.974C107.732 127.881 107.913 127.795 108.096 127.711C108.156 127.682 108.214 127.649 108.27 127.609C108.465 127.379 108.764 127.431 109.008 127.329C109.229 127.217 109.466 127.155 109.709 127.116C110.041 127.063 110.435 127.189 110.655 126.797C110.706 126.795 110.758 126.794 110.808 126.789C110.932 126.683 110.989 126.535 111.046 126.389C111.116 126.213 111.224 126.062 111.346 125.921C111.427 125.817 111.497 125.708 111.511 125.572C111.509 125.533 111.498 125.498 111.481 125.467C111.724 125.421 111.924 125.275 112.147 125.182C112.207 125.143 112.256 125.09 112.29 125.026C112.334 124.883 112.343 124.745 112.228 124.626C112.228 124.626 112.221 124.622 112.215 124.616C112.215 124.614 112.217 124.612 112.217 124.611C112.234 124.623 112.251 124.636 112.268 124.648C112.864 124.413 113.196 124.018 113.161 123.401C113.18 123.393 113.2 123.388 113.224 123.388C113.309 123.354 113.39 123.313 113.461 123.253C113.836 123.698 114.182 123.307 114.538 123.194C114.653 123.128 114.698 123.029 114.689 122.901C115.256 122.785 115.699 122.546 115.691 121.867C115.69 121.865 115.688 121.865 115.688 121.864C115.694 121.856 115.7 121.848 115.707 121.84C115.828 121.86 115.92 121.787 116.009 121.71C116.076 121.626 116.138 121.54 116.132 121.433C116.138 121.434 116.143 121.437 116.149 121.437C116.224 121.433 116.294 121.415 116.361 121.383C116.753 121.075 117.273 120.949 117.571 120.513C117.643 120.354 117.77 120.238 117.875 120.104C117.911 120.006 117.911 119.913 117.85 119.826C117.881 119.85 117.915 119.871 117.957 119.88C118.283 119.877 118.545 119.679 118.843 119.592C119.047 119.496 119.212 119.354 119.321 119.155C119.391 118.956 119.494 118.758 119.388 118.545C119.775 118.559 119.971 118.385 119.993 118.036C120.386 117.957 120.635 117.665 120.916 117.416C120.964 117.364 120.998 117.304 121.02 117.237C121.028 117.167 121.02 117.098 120.994 117.033C120.981 117.022 120.969 117.01 120.955 116.999C121.719 116.901 122.068 116.247 122.563 115.793C122.766 115.484 123.092 115.242 123.104 114.827C123.269 114.796 123.318 114.606 123.422 114.493C123.414 114.27 123.52 113.993 123.252 113.892C123.152 113.502 122.758 113.276 122.672 112.879C122.665 112.854 122.655 112.83 122.644 112.806C123.244 112.338 124.078 112.437 124.702 112.027C124.9 112.021 125.098 112.016 125.296 112.01C125.448 112.007 125.603 112.002 125.755 111.999C125.919 111.741 125.96 111.465 125.812 111.194C125.548 110.715 125.572 110.207 125.618 109.692C125.726 109.584 125.833 109.479 125.941 109.371C125.932 109.32 125.921 109.268 125.911 109.217C125.841 109.188 125.773 109.156 125.702 109.127C125.702 109.125 125.702 109.124 125.701 109.122C125.609 109.048 125.584 108.976 125.634 108.904C125.9 108.995 125.78 108.651 125.914 108.592L125.916 108.589C125.914 108.511 125.914 108.432 125.913 108.354C125.938 108.346 125.961 108.337 125.986 108.324C126.326 108.103 126.437 107.714 126.661 107.408C126.868 107.459 126.984 107.279 127.102 107.131C127.277 106.912 127.436 106.68 127.645 106.49C127.726 106.367 127.829 106.258 127.874 106.114C127.875 106.109 127.875 106.104 127.875 106.1C127.947 106.098 128.019 106.098 128.09 106.096C128.089 105.939 128.087 105.782 128.086 105.625C128.084 105.627 128.081 105.628 128.079 105.63C128.079 105.628 128.079 105.627 128.081 105.623C128.081 105.617 128.083 105.613 128.083 105.606C128.234 105.715 128.323 105.597 128.411 105.482C128.514 105.376 128.616 105.272 128.719 105.166C128.945 105.031 128.87 104.724 129.061 104.57C129.105 104.511 129.147 104.452 129.191 104.394C129.178 104.334 129.15 104.287 129.108 104.254C129.317 103.844 129.562 103.452 129.764 103.039C129.888 102.777 130.022 102.521 130.126 102.251C130.202 102.235 130.268 102.176 130.335 102.122C130.382 102.067 130.424 102.01 130.456 101.946C130.583 101.627 130.869 101.331 130.608 100.955C130.648 100.919 130.679 100.875 130.695 100.824C130.698 100.805 130.7 100.785 130.701 100.767C130.765 100.726 130.829 100.686 130.893 100.645C130.894 100.567 130.894 100.491 130.896 100.413C130.96 100.35 131.013 100.267 131.072 100.197C131.683 98.9557 132.123 97.6489 132.529 96.3312C132.601 96.0978 132.674 95.8598 132.553 95.6358C132.576 95.6093 132.6 95.5829 132.626 95.5596C133.187 94.9217 133.13 94.035 133.519 93.3287C133.462 92.946 133.962 92.6473 133.787 92.2475C133.808 92.2303 133.829 92.2148 133.853 92.2008C134.032 91.9892 134.113 91.7356 134.175 91.4743C134.18 91.4463 134.183 91.4183 134.186 91.3918C134.232 91.3685 134.277 91.3451 134.324 91.3218C134.464 91.2098 134.481 91.0604 134.448 90.8971C134.422 90.8255 134.387 90.7633 134.331 90.7322C134.506 90.4631 134.649 90.1768 134.766 89.8781C134.818 89.6899 134.829 89.5032 134.771 89.3149C134.766 89.304 134.758 89.2947 134.754 89.2854C135.237 89.0458 135.31 88.5666 135.379 88.0859C135.379 88.0828 135.377 88.0813 135.376 88.0781C135.527 88.0704 135.575 87.9101 135.656 87.7997C135.684 87.7343 135.704 87.6659 135.715 87.5959C135.731 87.4528 135.723 87.3143 135.645 87.1867C135.65 87.1789 135.655 87.1712 135.659 87.1634C135.779 87.1603 135.82 87.0483 135.882 86.9658C135.946 86.8165 136.008 86.6656 136.072 86.5162C136.27 86.2331 136.548 85.9873 136.521 85.5937C136.621 85.4832 136.722 85.3728 136.822 85.2607C136.822 85.169 136.82 85.0772 136.82 84.9854C136.852 84.9418 136.881 84.8952 136.917 84.8594C137.067 84.5902 137.263 84.3413 137.285 84.0162C137.542 83.509 137.19 83.2881 136.838 83.0672C136.909 82.6176 136.621 82.4434 136.277 82.2707C135.999 82.1322 135.595 82.0995 135.578 81.6531C135.807 81.5239 135.853 81.2968 135.89 81.0666C135.985 81.0106 136.082 80.9545 136.177 80.8985C136.225 80.6574 136.32 80.4443 136.521 80.2887C136.602 80.1969 136.61 80.1005 136.542 79.9978C136.542 79.9978 136.54 79.9962 136.538 79.9947C136.538 79.9947 136.538 79.9947 136.538 79.9931C136.546 79.9993 136.554 80.0056 136.562 80.0118C136.941 79.9496 136.919 79.5482 137.128 79.3428L137.123 79.3397C137.115 79.0768 137.184 78.8528 137.435 78.719V78.7252C137.614 78.3814 137.514 78.1698 137.21 78.0267ZM92.8721 134.686L92.8705 134.679C92.869 134.679 92.8659 134.679 92.8643 134.681C92.8659 134.678 92.869 134.676 92.8705 134.673C92.8705 134.676 92.8705 134.678 92.8705 134.679C92.8721 134.681 92.8752 134.684 92.8768 134.686C92.8752 134.686 92.8737 134.686 92.8721 134.686ZM9.96772 106.067H9.96617L9.96772 106.065C9.96772 106.065 9.96772 106.065 9.96772 106.067ZM1.5727 67.7855C1.58205 67.7839 1.59141 67.7839 1.5992 67.7823C1.58985 67.7917 1.58361 67.8026 1.57426 67.8135C1.5727 67.8026 1.5727 67.7932 1.5727 67.7855ZM133.377 63.4466C133.382 63.4497 133.385 63.4528 133.39 63.4559C133.385 63.459 133.382 63.4606 133.377 63.4637C133.379 63.4575 133.377 63.4528 133.377 63.4466ZM2.80094 52.1708C2.82432 52.1817 2.84926 52.1926 2.87264 52.2019C2.85082 52.2221 2.829 52.2377 2.80094 52.247C2.80094 52.2221 2.80094 52.1972 2.80094 52.1708ZM27.4296 123.211C27.4187 123.144 27.4576 123.184 27.4732 123.219C27.4576 123.219 27.4436 123.217 27.4296 123.215C27.4296 123.212 27.4296 123.212 27.4296 123.211ZM13.7117 36.0707L13.7101 36.0723V36.0707C13.7101 36.0707 13.7101 36.0707 13.7117 36.0707ZM14.1761 33.5831C14.1715 33.5738 14.1668 33.566 14.1637 33.5582C14.173 33.5645 14.1808 33.5691 14.1902 33.5754C14.1855 33.5769 14.1808 33.5816 14.1761 33.5831ZM20.5574 28.6064C20.5605 28.6064 20.562 28.6064 20.5652 28.6064C20.5636 28.6095 20.562 28.6142 20.5589 28.6173C20.5589 28.6142 20.5574 28.6095 20.5574 28.6064ZM23.0622 118.492C23.0606 118.497 23.0606 118.503 23.059 118.508C23.0061 118.514 22.9655 118.511 22.9312 118.499C22.9702 118.494 23.0138 118.491 23.0622 118.492ZM23.084 23.6297C23.0777 23.6297 23.0731 23.6297 23.0668 23.6297C23.0653 23.6281 23.0637 23.6266 23.0622 23.6235C23.0653 23.6173 23.0684 23.611 23.0715 23.6048C23.0746 23.6141 23.0793 23.6219 23.084 23.6297ZM16.2289 107.619C16.2757 107.618 16.3131 107.624 16.3443 107.637C16.3069 107.632 16.2679 107.626 16.2289 107.619ZM6.54176 45.0938H6.54332H6.54176ZM3.42441 64.7114C3.41662 64.7036 3.40883 64.6974 3.40259 64.6896C3.41038 64.6896 3.41817 64.6911 3.42441 64.6911C3.42441 64.6911 3.42441 64.6911 3.42597 64.6911C3.42441 64.6989 3.42441 64.7051 3.42441 64.7114ZM4.04944 59.6973C4.04944 59.7035 4.04788 59.7082 4.04788 59.7144C4.04476 59.7082 4.04321 59.7051 4.04009 59.6989C4.04321 59.6989 4.04632 59.6973 4.04944 59.6973ZM4.04632 85.8473C4.04632 85.8613 4.04632 85.8721 4.04632 85.8861C4.03853 85.8768 4.03074 85.869 4.0245 85.8581C4.03229 85.855 4.03853 85.8504 4.04632 85.8473ZM6.22846 44.7796H6.23002C6.22691 44.7812 6.22535 44.7827 6.22223 44.7858C6.22379 44.7858 6.22846 44.7796 6.22846 44.7796ZM2.4892 60.651C2.4892 60.679 2.48297 60.707 2.47362 60.735C2.46426 60.7085 2.45491 60.6821 2.444 60.6541C2.46115 60.6541 2.47518 60.6525 2.4892 60.651ZM131.519 74.3365C131.519 74.3365 131.519 74.335 131.519 74.3365C131.521 74.335 131.521 74.335 131.523 74.335C131.521 74.335 131.519 74.3365 131.519 74.3365ZM129.654 50.3817C129.66 50.3848 129.666 50.391 129.672 50.3941C129.666 50.3957 129.66 50.3973 129.654 50.3973C129.654 50.3926 129.654 50.3864 129.654 50.3817ZM117.784 29.9085C117.862 29.8868 117.926 29.8852 117.978 29.8992C117.925 29.8992 117.859 29.9039 117.784 29.9085ZM117.392 29.5087C117.406 29.5072 117.418 29.5041 117.432 29.5041C117.488 29.5554 117.505 29.6441 117.513 29.7328C117.466 29.6347 117.427 29.5601 117.392 29.5087ZM73.8609 2.80806C73.8609 2.81117 73.8609 2.81273 73.8609 2.81584C73.8578 2.81428 73.8531 2.81272 73.85 2.81272C73.8531 2.80961 73.8563 2.80961 73.8609 2.80806ZM101.708 14.6097C101.523 14.4821 101.333 14.4386 101.132 14.5739C101.127 14.5848 101.124 14.5926 101.121 14.6019C100.927 14.087 100.416 14.0325 99.9999 13.8412C99.9828 13.8396 99.9641 13.8381 99.9469 13.8381C99.7864 13.6638 99.4949 13.6203 99.4107 13.3682C99.3312 13.2749 99.2284 13.2469 99.1115 13.2593C99.0725 13.2702 99.0367 13.2873 99.0055 13.3091C98.8028 13.1535 98.5613 13.0633 98.3586 12.9108C98.0313 12.6884 97.6775 12.5359 97.2878 12.4737C97.3985 12.1859 97.5528 11.9541 97.9409 11.9992C98.0874 11.9883 98.2324 11.9712 98.3758 11.9339C98.8278 11.825 99.2783 11.8218 99.7271 11.9525C99.8456 11.9805 99.9656 11.9992 100.087 12.0008C100.248 11.9992 100.407 11.993 100.542 11.9136C100.871 11.9743 101.144 12.2092 101.492 12.2046C101.535 12.1906 101.57 12.1672 101.598 12.1377C101.702 12.2388 101.806 12.3399 101.911 12.4426C101.912 12.5421 101.912 12.6433 101.914 12.7428C102.067 12.8766 102.226 13.0446 102.138 13.2422C102.04 13.4631 101.789 13.3387 101.605 13.3651C101.605 13.4585 101.605 13.5518 101.605 13.6467C101.593 13.6529 101.58 13.6576 101.568 13.6654C101.521 13.782 101.507 13.8941 101.615 13.989C101.922 14.0014 101.906 14.2316 101.931 14.4339C101.908 14.4448 101.884 14.4603 101.861 14.4852C101.794 14.507 101.912 14.7497 101.708 14.6097ZM82.1235 7.00537C82.0455 6.98359 81.966 6.96647 81.885 6.96025C81.6777 6.95092 81.4688 6.93691 81.2927 7.05048C81.2553 7.03648 81.2163 7.02559 81.1789 7.01003C81.076 6.98203 80.9716 6.96803 80.8656 6.95558C80.9233 6.9338 80.9779 6.89958 81.0293 6.84357C80.8781 6.65378 80.6614 6.63978 80.4448 6.62889C80.2328 6.62422 80.0208 6.62266 79.8088 6.65378C79.7294 6.66933 79.6577 6.69422 79.5906 6.73312C79.5641 6.72689 79.5392 6.71912 79.5127 6.71289C79.4644 6.65066 79.0389 6.61177 79.4878 6.50443C79.6436 6.46709 79.7855 6.37064 79.7979 6.20107C79.8135 6.1964 79.8291 6.19329 79.8431 6.18862C80.0052 6.13106 80.1658 6.07038 80.2609 5.92104C80.2998 5.9646 80.345 5.99882 80.4027 6.01749C80.5165 6.04394 80.6318 6.04238 80.7456 6.01749C81.2039 5.92726 81.6621 5.87748 82.1204 6.02216C82.2809 6.10461 82.3916 6.23218 82.4695 6.39086C82.5131 6.93069 82.7968 7.1905 83.1787 7.30406C82.8249 7.24028 82.4664 7.15005 82.1235 7.00537ZM91.4708 10.5648C91.4755 10.5648 91.4818 10.5648 91.4864 10.5648C91.4786 10.5742 91.4708 10.5819 91.4615 10.5913C91.4646 10.5819 91.4677 10.5726 91.4708 10.5648ZM78.8471 4.65624C78.8471 4.65469 78.8471 4.65469 78.8471 4.65469V4.65624ZM104.088 20.2071C104.09 20.2071 104.09 20.2056 104.091 20.2056V20.2071C104.091 20.2071 104.09 20.2071 104.088 20.2071ZM102.223 18.3543C102.218 18.3496 102.215 18.3434 102.21 18.3387C102.215 18.3434 102.218 18.3465 102.223 18.3512C102.223 18.3527 102.223 18.3527 102.223 18.3543ZM98.8106 13.684C98.8013 13.6825 98.7935 13.6794 98.7842 13.6778C98.7701 13.6778 98.7577 13.6778 98.7436 13.6778C98.7405 13.6638 98.7374 13.6498 98.7343 13.6374C98.7514 13.6514 98.767 13.6638 98.7842 13.6794L98.7966 13.6731C98.8013 13.6763 98.806 13.6809 98.8106 13.684ZM86.3802 7.18583C86.4394 7.22939 86.5111 7.24028 86.5906 7.23406C86.6577 7.2185 86.7231 7.19516 86.7824 7.16094C86.9897 7.02092 87.2375 6.99759 87.4635 6.91358C87.6957 6.79535 87.9654 6.7829 88.1961 6.69267C88.8024 6.4562 89.429 6.88247 90.0182 6.59155C90.0229 6.59621 90.026 6.60088 90.0306 6.60555C90.0338 6.6071 90.0369 6.60866 90.04 6.61022C89.9932 7.06448 90.3907 7.0536 90.6868 7.14694C90.7507 7.17805 90.8146 7.20917 90.8785 7.23872C90.877 7.27295 90.8785 7.30718 90.8832 7.34296C91.3009 7.9139 90.9269 8.46774 90.8552 9.02779C90.5138 9.10247 90.2052 9.40427 89.8218 9.18336C89.6675 9.16314 89.5163 9.16003 89.3853 9.23937C89.3604 9.21914 89.3339 9.20048 89.3105 9.1787C89.0892 9.02157 88.8554 8.89556 88.5873 8.84111C88.0402 8.88311 87.5742 8.31683 86.9912 8.62953C86.9741 8.6482 86.9632 8.66531 86.9522 8.68087C86.8712 8.30283 86.6561 8.21727 86.3194 8.39617C86.3116 8.39617 86.3038 8.39617 86.2976 8.39617C86.3787 8.03214 86.0046 8.06481 85.8191 7.93257C85.431 7.82523 85.0787 7.60276 84.7607 7.60276C84.8543 7.60743 85.0444 7.6261 85.2361 7.60587C85.3047 7.59031 85.3718 7.57164 85.4357 7.54364C85.6804 7.41141 85.9422 7.33051 86.2119 7.27606C86.2711 7.25273 86.3272 7.22317 86.3802 7.18583ZM78.8471 4.65469C78.8612 4.63757 78.8752 4.62046 78.8908 4.60335C78.911 4.61891 78.9297 4.63602 78.9485 4.65624C78.9142 4.65469 78.8814 4.65469 78.8471 4.65469ZM101.602 11.9479C101.593 11.9463 101.587 11.9416 101.577 11.9385C101.585 11.9261 101.593 11.9152 101.601 11.9027C101.602 11.9183 101.602 11.9339 101.602 11.9479ZM107.196 20.5214C107.198 20.5183 107.203 20.5152 107.204 20.5121C107.206 20.5152 107.207 20.5167 107.209 20.5183C107.206 20.5198 107.201 20.5198 107.196 20.5214ZM96.9168 11.492C96.9168 11.4936 96.9184 11.4936 96.9184 11.4951L96.9278 11.4983C96.9278 11.5014 96.9278 11.5029 96.9278 11.506C96.9247 11.5029 96.9215 11.4983 96.9184 11.4951H96.9168C96.9168 11.4951 96.9168 11.4936 96.9168 11.492ZM91.6267 5.60056C91.6267 5.59589 91.6267 5.59278 91.6267 5.58811C91.6329 5.59589 91.6407 5.60367 91.6485 5.61301C91.6423 5.60989 91.6345 5.60523 91.6267 5.60056ZM75.6285 136.884C75.6628 136.875 75.7002 136.862 75.7423 136.843C75.7376 136.85 75.7345 136.856 75.7298 136.861C75.7329 136.861 75.736 136.861 75.7376 136.861C75.7095 136.887 75.6815 136.907 75.6534 136.924C75.6487 136.912 75.6378 136.898 75.6285 136.884ZM40.0034 11.212C40.1203 11.2151 40.2138 11.142 40.3073 11.0658C40.4414 10.9382 40.5879 10.7997 40.7796 10.8309C41.6322 10.9662 42.145 10.4217 42.6859 9.93477C42.6859 9.93944 42.6859 9.94255 42.6859 9.94877C42.5877 10.0795 42.555 10.2117 42.6376 10.3486C42.6344 10.3626 42.6313 10.3781 42.6282 10.3922C42.2245 10.4948 42.1076 10.8122 42.064 11.184C41.8645 11.1342 41.7772 11.2493 41.7257 11.4143C41.732 11.4251 41.7366 11.4376 41.7429 11.4485C41.7335 11.4531 41.7242 11.4578 41.7164 11.4625C41.4249 11.3334 41.2238 11.3769 41.1506 11.6632C41.0462 11.6569 40.9433 11.6694 40.8435 11.7021C40.6128 11.7985 40.3868 11.9027 40.178 12.0396C40.1608 12.0552 40.1437 12.0723 40.1281 12.0894C39.7478 11.8732 40.0548 11.5014 40.0034 11.212ZM54.5365 6.83424C54.4321 7.03648 54.3261 7.23872 54.2216 7.44097C54.2185 7.44408 54.217 7.44563 54.2138 7.44874C54.2076 7.45497 54.2029 7.45808 54.1967 7.4643C54.1063 7.30562 53.9208 7.30717 53.7478 7.28851C53.6699 7.29162 53.5951 7.30251 53.5202 7.32118C53.3051 7.37718 53.0947 7.47675 52.8671 7.37252C52.8204 7.33518 52.7814 7.29006 52.744 7.24339C52.691 7.05671 52.6583 6.87157 52.8406 6.72689C53.0963 6.59621 53.355 6.69423 53.6138 6.71445C53.9302 6.68334 54.1842 7.03648 54.524 6.85757C54.5287 6.84669 54.5318 6.84046 54.5365 6.83424ZM42.6874 10.862C42.6874 10.8666 42.6874 10.8698 42.6874 10.8744C42.6843 10.8729 42.6812 10.8713 42.6781 10.8698C42.6828 10.8682 42.6859 10.8651 42.6874 10.862ZM34.3329 127.061C34.3329 127.061 34.3298 127.05 34.3251 127.03C34.3314 127.039 34.3376 127.05 34.3438 127.06C34.3407 127.06 34.3376 127.06 34.3329 127.061ZM40.0299 12.413C40.0299 12.413 40.0361 12.4208 40.0439 12.4286C40.0392 12.4224 40.0346 12.4177 40.0283 12.4115C40.0299 12.413 40.0299 12.413 40.0299 12.413ZM65.1682 0.966097C65.1573 0.953651 65.1464 0.94276 65.1355 0.928759C65.1526 0.928759 65.1698 0.928759 65.1869 0.928759C65.1776 0.94276 65.1729 0.955207 65.1682 0.966097ZM43.3187 8.0757H43.3171C43.3171 8.0757 43.3171 8.0757 43.3187 8.0757ZM46.7447 135.927C46.726 135.916 46.7088 135.902 46.6917 135.888C46.7073 135.89 46.726 135.891 46.7431 135.894C46.7447 135.904 46.7447 135.915 46.7447 135.927ZM52.3559 4.96583C52.3434 4.99383 52.3294 5.01717 52.3154 5.0405C52.2998 5.01406 52.2858 4.98916 52.2733 4.96272C52.2998 4.96427 52.3278 4.96427 52.3559 4.96583ZM75.4196 138.398C75.4274 138.398 75.4368 138.398 75.4446 138.399C75.4368 138.405 75.4274 138.409 75.4196 138.415C75.4196 138.409 75.4196 138.404 75.4196 138.398ZM112.812 121.904C112.815 121.912 112.818 121.921 112.817 121.929C112.812 121.929 112.809 121.929 112.804 121.93C112.808 121.921 112.811 121.912 112.812 121.904ZM131.83 94.2325C131.841 94.2403 131.85 94.2481 131.862 94.2543H131.864C131.853 94.2652 131.842 94.2761 131.831 94.287C131.831 94.2683 131.83 94.2512 131.83 94.2325ZM84.0843 4.01218C84.1014 3.99818 84.117 3.98418 84.1342 3.97173C84.1388 3.9904 84.1435 4.00907 84.1451 4.03085C84.1233 4.02307 84.103 4.01685 84.0843 4.01218ZM36.4621 11.52C36.4621 11.5123 36.4605 11.506 36.4605 11.4983C36.4714 11.5045 36.4808 11.5107 36.4917 11.5185C36.4824 11.5185 36.4714 11.52 36.4621 11.52ZM20.4124 25.8155C20.3797 25.8637 20.3407 25.8948 20.2986 25.9166C20.3127 25.8886 20.3142 25.8559 20.3111 25.8139C20.3454 25.8155 20.3781 25.8155 20.4124 25.8155ZM6.21444 44.7858C6.21756 44.7858 6.22067 44.7874 6.22223 44.7874C6.21912 44.7905 6.21756 44.7936 6.21444 44.7967C6.216 44.792 6.216 44.7889 6.21444 44.7858ZM82.8904 137.78C82.8919 137.785 82.895 137.788 82.8966 137.792C82.8919 137.792 82.8872 137.792 82.8841 137.792C82.8857 137.788 82.8888 137.785 82.8904 137.78ZM98.17 129.706C98.1467 129.673 98.1233 129.637 98.0999 129.602C98.1389 129.625 98.1763 129.651 98.2137 129.681C98.1997 129.69 98.1841 129.697 98.17 129.706ZM101.272 130.344C101.27 130.337 101.269 130.331 101.267 130.327C101.272 130.327 101.278 130.327 101.283 130.327C101.28 130.331 101.275 130.337 101.272 130.344ZM110.639 125.509L110.633 125.501C110.624 125.498 110.616 125.498 110.608 125.496C110.615 125.491 110.621 125.485 110.627 125.481C110.63 125.488 110.63 125.495 110.633 125.502C110.636 125.504 110.641 125.505 110.644 125.507C110.643 125.507 110.641 125.507 110.639 125.509ZM120.61 116.33C120.588 116.307 120.581 116.28 120.578 116.254C120.599 116.277 120.621 116.302 120.645 116.328C120.634 116.327 120.623 116.328 120.61 116.33ZM130.891 98.9059C130.888 98.9059 130.887 98.9059 130.883 98.9059C130.887 98.9043 130.888 98.9012 130.891 98.8997C130.891 98.9012 130.891 98.9028 130.891 98.9059C130.896 98.9074 130.899 98.909 130.904 98.9106C130.902 98.9121 130.901 98.9121 130.899 98.9137C130.899 98.9121 130.891 98.9059 130.891 98.9059ZM127.788 44.148C127.788 44.1464 127.788 44.1449 127.788 44.1433C127.79 44.1449 127.79 44.1464 127.791 44.148C127.79 44.148 127.79 44.148 127.788 44.148ZM124.982 38.8601C124.984 38.8586 124.985 38.8554 124.989 38.8539C124.989 38.8554 124.99 38.8586 124.99 38.8601C124.99 38.8601 124.989 38.8617 124.985 38.8632C124.984 38.8632 124.982 38.8617 124.982 38.8601ZM120.922 32.9593L120.925 32.9624H120.924C120.924 32.9624 120.924 32.9624 120.924 32.9609C120.924 32.9624 120.922 32.9593 120.922 32.9593C120.92 32.9593 120.919 32.9593 120.917 32.9593C120.919 32.9577 120.92 32.9577 120.922 32.9562C120.92 32.9577 120.922 32.9593 120.922 32.9593ZM26.4897 16.7675C26.4866 16.7706 26.4819 16.7737 26.4803 16.7783L26.4788 16.7768C26.4819 16.7737 26.485 16.769 26.4897 16.7675C26.4897 16.7659 26.4897 16.7675 26.4897 16.7675ZM1.26097 53.1882C1.26097 53.1944 1.26097 53.1991 1.25941 53.2053C1.25629 53.2038 1.25473 53.2007 1.25162 53.1991C1.25317 53.196 1.25629 53.1913 1.25785 53.1882C1.25941 53.1882 1.26097 53.1882 1.26097 53.1882ZM3.26543 84.612C3.26699 84.6105 3.26698 84.6105 3.26854 84.6089C3.2701 84.6151 3.27166 84.6214 3.27322 84.6276C3.27166 84.6276 3.2701 84.626 3.26698 84.626C3.26698 84.6276 3.26699 84.6214 3.26543 84.612ZM19.3291 118.779C19.3354 118.78 19.3432 118.78 19.3494 118.782C19.3432 118.789 19.3354 118.794 19.3291 118.802L19.3151 118.822C19.3135 118.822 19.312 118.822 19.3104 118.822C19.3167 118.816 19.3229 118.808 19.3291 118.802C19.3291 118.796 19.3291 118.788 19.3291 118.779ZM26.4616 125.347C26.4663 125.353 26.471 125.361 26.4757 125.367C26.4663 125.365 26.4585 125.362 26.4492 125.361C26.4523 125.356 26.457 125.351 26.4616 125.347ZM40.1 134.379C40.0969 134.404 40.0954 134.427 40.0954 134.451C40.0735 134.427 40.0502 134.404 40.0283 134.381C40.0533 134.379 40.0767 134.379 40.1 134.379ZM58.3085 138.726C58.3069 138.734 58.3054 138.743 58.3054 138.751C58.296 138.745 58.2867 138.738 58.2789 138.732C58.2882 138.729 58.2976 138.727 58.3085 138.726ZM94.4183 134.364C94.4152 134.364 94.4136 134.362 94.4105 134.362C94.4121 134.356 94.4136 134.35 94.4152 134.343C94.4167 134.351 94.4183 134.357 94.4183 134.364ZM100.204 131.881C100.207 131.881 100.21 131.882 100.212 131.882C100.209 131.885 100.204 131.889 100.201 131.892C100.203 131.889 100.204 131.885 100.204 131.881ZM118.911 118.517C118.913 118.517 118.914 118.517 118.918 118.517C118.916 118.519 118.916 118.52 118.914 118.522C118.913 118.52 118.913 118.519 118.911 118.517ZM132.143 95.7774C132.146 95.7805 132.148 95.7851 132.151 95.7883C132.152 95.7883 132.152 95.7883 132.154 95.7883C132.151 95.7914 132.146 95.796 132.143 95.7991C132.143 95.7914 132.143 95.7836 132.143 95.7774ZM136.208 85.533C136.206 85.533 136.208 85.533 136.208 85.533V85.533ZM136.03 74.5808C135.963 74.6057 135.89 74.6104 135.81 74.5995C135.884 74.5901 135.957 74.5855 136.03 74.5808ZM75.2622 1.38614C75.2653 1.38147 75.2684 1.3768 75.2715 1.37214C75.2762 1.3768 75.2809 1.38147 75.2871 1.38614C75.2793 1.38614 75.2715 1.38614 75.2622 1.38614ZM52.6053 3.14409C52.624 3.12387 52.6427 3.10364 52.6614 3.08342C52.6505 3.11142 52.6302 3.13009 52.6053 3.14409ZM51.4285 3.7057C51.4222 3.7057 51.4176 3.7057 51.4113 3.70415C51.4145 3.69948 51.4176 3.69481 51.4207 3.69015C51.4238 3.69481 51.4269 3.70104 51.4285 3.7057ZM30.1541 11.8078C30.1463 11.8358 30.1385 11.8639 30.1292 11.8919C30.1011 11.8701 30.0809 11.8436 30.0746 11.8078C30.1011 11.8078 30.1276 11.8078 30.1541 11.8078ZM20.9127 22.9965C20.905 23.0059 20.8972 23.0152 20.8894 23.0245C20.8894 23.0167 20.8878 23.0074 20.8878 22.9996C20.8956 22.9996 20.9034 22.9981 20.9127 22.9965ZM2.69027 60.1391C2.69027 60.1516 2.69027 60.164 2.69027 60.1765C2.67157 60.1765 2.65286 60.1765 2.63416 60.1765C2.65442 60.164 2.67313 60.1516 2.69027 60.1391ZM2.18994 79.3086C2.18994 79.3024 2.18994 79.2962 2.18838 79.2899C2.19773 79.2915 2.20553 79.2915 2.21332 79.2915C2.20709 79.2977 2.19929 79.3039 2.18994 79.3086ZM1.27967 88.9727C1.27811 88.9742 1.27655 88.9758 1.275 88.9789L1.22668 88.9478C1.24538 88.9556 1.26253 88.9649 1.27967 88.9727ZM58.2726 138.731C58.2726 138.729 58.2726 138.727 58.2726 138.726C58.2742 138.727 58.2757 138.731 58.2789 138.732C58.2773 138.732 58.2726 138.731 58.2726 138.731ZM75.1032 139.351C75.0284 139.342 74.9645 139.322 74.9146 139.286C74.9754 139.297 75.0393 139.312 75.1048 139.333C75.1048 139.337 75.1048 139.345 75.1032 139.351ZM79.7777 138.424C79.7792 138.424 79.7808 138.424 79.7823 138.424L79.7839 138.419C79.7855 138.419 79.7855 138.419 79.787 138.419C79.7855 138.421 79.7839 138.423 79.7823 138.424C79.7823 138.429 79.7839 138.432 79.7839 138.437C79.7823 138.433 79.7792 138.429 79.7777 138.424ZM88.461 136.279C88.4579 136.265 88.4579 136.254 88.4533 136.238C88.472 136.238 88.4922 136.238 88.5109 136.238C88.4953 136.252 88.4782 136.265 88.461 136.279Z" fill="url(#paint2_radial_910_3)"/>
<path d="M123.098 23.6388C123.197 23.7446 123.299 23.8504 123.398 23.9562C123.417 24.2067 123.456 24.4462 123.72 24.5691C123.72 24.6205 123.723 24.6703 123.73 24.7216C123.746 24.7309 123.76 24.7449 123.771 24.762C123.757 24.748 123.744 24.7356 123.73 24.7216C123.754 25.1292 123.799 25.5088 124.365 25.2023C124.463 25.1432 124.561 25.0841 124.658 25.025C124.924 23.617 125.048 23.9235 123.649 23.2094C123.517 23.1426 123.383 23.0788 123.249 23.0134C123.095 23.0134 122.942 23.0134 122.787 23.0134C122.77 23.281 122.826 23.5128 123.098 23.6388ZM124.03 25.0281L124.028 25.0265L124.03 25.025C124.03 25.0265 124.03 25.0265 124.03 25.0281Z" fill="url(#paint3_radial_910_3)"/>
<path d="M96.6046 7.47226C97.0317 7.73984 97.3435 7.54849 97.6162 7.21401C97.8843 6.66329 97.6303 6.42838 97.0987 6.36304C96.628 6.39104 96.2275 6.54194 95.9937 6.98843C96.0342 7.35558 96.3334 7.39603 96.6046 7.47226Z" fill="url(#paint4_radial_910_3)"/>
<path d="M105.96 11.1872C105.96 11.0829 105.96 10.9802 105.962 10.8776C105.796 10.8387 105.718 10.5882 105.505 10.68C105.407 10.722 105.355 10.8216 105.394 10.932C105.491 11.2089 105.731 11.1903 105.96 11.1872Z" fill="url(#paint5_radial_910_3)"/>
<path d="M113.448 17.2431C113.787 17.2291 114.134 17.226 114.225 16.7888C113.812 16.795 113.4 16.7997 112.987 16.8044C112.957 17.1435 113.338 17.0517 113.448 17.2431Z" fill="url(#paint6_radial_910_3)"/>
<path d="M134.622 42.4308C134.624 41.9765 134.625 41.5207 134.627 41.0664C134.543 40.9606 134.448 40.959 134.342 41.0322C134.339 41.0337 134.337 41.0368 134.334 41.0384C134.334 41.0384 134.334 41.0384 134.332 41.0399C134.325 41.0431 134.317 41.0446 134.309 41.0477C134.343 41.0057 134.375 40.9637 134.395 40.917C133.927 40.4317 133.804 40.469 133.393 41.222C133.397 42.0356 133.862 42.3825 134.622 42.4308Z" fill="url(#paint7_radial_910_3)"/>
<path d="M126.307 33.9862C126.384 34.1946 126.568 34.1915 126.75 34.0655C127.11 33.8166 126.753 33.6346 126.696 33.4245C126.643 33.3717 126.59 33.3188 126.537 33.2659C126.052 33.3748 126.208 33.7124 126.307 33.9862Z" fill="url(#paint8_radial_910_3)"/>
<path d="M133.992 45.6896C133.988 45.3598 133.999 45.03 133.974 44.7033C133.962 44.5259 133.8 44.263 133.663 44.4248C133.426 44.7017 132.791 44.7935 133.084 45.3925C133.416 45.4034 133.608 45.839 133.992 45.6896Z" fill="url(#paint9_radial_910_3)"/>
<path d="M120.927 25.493C121.039 25.5972 121.15 25.7015 121.262 25.8057C121.251 25.8539 121.245 25.9021 121.242 25.9519C121.466 26.1635 121.554 26.4295 121.558 26.7298C121.786 26.8231 121.979 27.0736 122.33 26.9165C122.171 26.5711 121.767 26.3813 121.858 25.9722C122.257 25.9053 122.168 25.6081 122.152 25.3468C122.124 25.2939 122.084 25.2814 122.029 25.3094C121.576 24.9329 120.94 24.8116 120.598 24.2795C120.238 24.2873 120.355 24.4771 120.435 24.6762C120.553 24.9796 120.918 25.129 120.927 25.493Z" fill="url(#paint10_radial_910_3)"/>
<path d="M126.393 31.1949C126.65 31.1716 126.664 30.9382 126.69 30.6831C126.634 30.5586 126.725 30.2491 126.43 30.2848C126.165 30.3175 126.201 30.6458 126.128 30.8465C126.054 31.0487 126.176 31.2152 126.393 31.1949Z" fill="url(#paint11_radial_910_3)"/>
<path d="M119.366 28.9158C119.826 29.3312 120.266 29.7792 120.928 29.8601C120.983 29.8057 121.037 29.7528 121.092 29.6983C121.391 28.922 120.501 29.0169 120.294 28.6124C119.38 28.194 119.366 28.1986 119.366 28.9158Z" fill="url(#paint12_radial_910_3)"/>
<path d="M134.319 53.6606C134.32 53.6046 134.322 53.5486 134.323 53.4926C134.224 53.3806 134.124 53.2685 134.026 53.1565C134.02 52.9621 134.013 52.7676 134.006 52.5731C133.912 52.4409 133.904 52.2822 133.873 52.1329C133.825 51.898 133.786 51.6273 133.497 51.6226C133.156 51.6179 133.115 51.9493 133.078 52.1842C132.98 52.8018 133.218 53.351 133.518 53.8768C133.624 54.1133 133.764 54.328 133.895 54.5489C133.957 54.6391 134.054 54.6874 134.14 54.748C134.188 54.8025 134.238 54.8554 134.286 54.9098C134.398 55.165 134.511 55.4201 134.623 55.6752C134.626 56.0377 134.627 56.4002 134.631 56.7627C134.649 56.7922 134.67 56.8187 134.691 56.842C134.998 57.2372 135.326 57.4736 135.761 56.9136C135.586 56.5542 135.588 56.1155 135.263 55.8246L135.262 55.8215C135.254 55.8215 135.248 55.8199 135.24 55.8168C135.248 55.8184 135.254 55.8199 135.262 55.8215C135.111 55.4341 135.056 54.9969 134.751 54.6874C134.751 54.6827 134.751 54.6765 134.751 54.6718C134.73 54.5613 134.69 54.4571 134.637 54.3591C134.5 54.1895 134.475 53.9733 134.386 53.7835C134.367 53.7399 134.344 53.701 134.319 53.6606Z" fill="url(#paint13_radial_910_3)"/>
<path d="M139.013 74.9029C138.988 74.8905 138.885 74.9698 138.871 75.0196C138.807 75.2561 138.899 75.4007 139.155 75.4241C139.11 75.2467 139.25 75.018 139.013 74.9029Z" fill="url(#paint14_radial_910_3)"/>
<path d="M114.116 17.9749C114.021 18.1834 114.141 18.314 114.353 18.3623C114.364 18.4136 114.371 18.4634 114.372 18.5163C114.472 18.605 114.528 18.7388 114.66 18.7932C114.679 18.7979 114.695 18.8072 114.712 18.8134C114.809 18.9674 115.025 19.0515 115.011 19.2677C115.058 19.2724 115.105 19.2755 115.153 19.2786C115.312 19.4824 115.471 19.6846 115.628 19.8884C116.227 19.5757 115.848 19.2553 115.689 18.9379C115.685 18.8897 115.667 18.8414 115.636 18.7948C115.575 18.3032 114.848 17.6746 114.406 17.7571C114.297 17.7789 114.16 17.8769 114.116 17.9749ZM115.614 19.1292C115.613 19.1277 115.613 19.1277 115.613 19.1277C115.614 19.1277 115.614 19.1277 115.616 19.1261C115.614 19.1261 115.614 19.1277 115.614 19.1292Z" fill="url(#paint15_radial_910_3)"/>
<path d="M131.689 52.5565C131.697 52.5923 131.702 52.6296 131.705 52.667C132.498 52.5425 132.129 52.1162 131.995 51.6978C131.621 51.9358 131.697 52.2594 131.689 52.5565Z" fill="url(#paint16_radial_910_3)"/>
<path d="M110.961 15.1995C111.197 15.2477 111.266 15.0673 111.341 14.8681C111.307 14.6939 111.204 14.5399 111.001 14.5445C110.856 14.5476 110.691 14.6254 110.671 14.8121C110.646 15.0237 110.761 15.159 110.961 15.1995Z" fill="url(#paint17_radial_910_3)"/>
<path d="M105.43 15.2687C105.22 15.5908 105.545 15.7666 105.655 15.9999C105.846 16.0559 106.046 16.0917 106.228 16.171C106.883 16.4557 107.176 16.2037 107.21 15.5394C106.884 15.3559 106.608 15.0649 106.194 15.0743C105.923 15.082 105.619 14.9794 105.43 15.2687Z" fill="url(#paint18_radial_910_3)"/>
<path d="M126.696 37.0103C126.638 37.0694 126.591 37.1348 126.557 37.2095C126.535 37.2966 126.526 37.3775 126.529 37.4553C126.513 37.5813 126.504 37.7088 126.382 37.7851C126.493 37.9671 126.672 37.9422 126.844 37.9391L126.922 37.9453L127 37.9406C127.21 37.9624 127.41 37.9173 127.581 37.8022C127.779 37.6699 128.167 37.6793 128.128 37.3712C128.088 37.0617 127.774 36.9761 127.466 37.0072C127.208 37.0088 126.953 37.0103 126.696 37.0103Z" fill="url(#paint19_radial_910_3)"/>
<path d="M129.35 35.1214C129.906 35.1883 129.81 34.7931 129.802 34.4726C129.794 34.1786 129.786 33.8659 129.336 34.0401C129.286 34.0962 129.236 34.1522 129.185 34.2066C129.047 34.5458 129.037 34.8631 129.35 35.1214Z" fill="url(#paint20_radial_910_3)"/>
<path d="M128.737 34.762C128.992 34.552 128.601 34.4073 128.553 34.2129C128.246 34.0838 127.976 34.0091 128.09 34.5178C128.311 34.6018 128.487 34.9674 128.737 34.762Z" fill="url(#paint21_radial_910_3)"/>
<path d="M116.24 24.1057C116.295 24.154 116.349 24.2037 116.404 24.252C116.555 24.2566 116.706 24.2613 116.859 24.2675C117.816 24.5724 118.026 24.4931 118.137 23.7852C118.17 23.7588 118.209 23.7417 118.249 23.7277C118.212 23.7464 118.174 23.7666 118.137 23.7852C118.238 23.7868 118.34 23.7884 118.439 23.7899C118.633 23.7728 118.742 23.6748 118.743 23.4741C118.746 23.4259 118.751 23.3792 118.756 23.331C118.905 23.3279 119.055 23.3248 119.205 23.3216C119.524 23.2641 119.619 23.1225 119.379 22.8565C119.321 22.7491 119.265 22.6418 119.208 22.536C119.155 22.4878 119.102 22.4396 119.047 22.3929C119.049 22.3384 119.05 22.2855 119.052 22.2311C118.81 22.2575 118.746 22.0086 118.575 21.9262C118.47 21.8235 118.368 21.7208 118.263 21.6166C118.018 21.587 117.813 21.4797 117.643 21.3039C117.284 21.153 117.233 21.3117 117.328 21.6166C117.442 21.8142 117.594 21.9744 117.8 22.0771C117.883 22.27 117.987 22.4582 117.626 22.4691C117.409 22.4769 117.181 22.5049 117.022 22.6931C116.973 22.6931 116.921 22.6947 116.871 22.6994C116.849 22.7367 116.814 22.7554 116.771 22.7647C116.804 22.7429 116.839 22.7211 116.871 22.6994C116.39 22.6231 116.065 22.8285 115.886 23.2672C115.729 23.6561 115.939 23.9019 116.24 24.1057Z" fill="url(#paint22_radial_910_3)"/>
<path d="M49.0799 57.2001C52.7919 57.2001 55.4799 54.5121 55.4799 50.8001V48.2401C55.4799 44.5281 52.7919 41.8401 49.0799 41.8401C45.3679 41.8401 42.6799 44.5281 42.6799 48.2401V50.8001C42.6799 54.5121 45.3679 57.2001 49.0799 57.2001ZM45.2399 48.2401C45.2399 45.9489 46.7887 44.4001 49.0799 44.4001C51.3711 44.4001 52.9199 45.9489 52.9199 48.2401V50.8001C52.9199 53.0913 51.3711 54.6401 49.0799 54.6401C46.7887 54.6401 45.2399 53.0913 45.2399 50.8001V48.2401Z" fill="#272626"/>
<path d="M50.36 81.5198H47.8V102H50.36V81.5198Z" fill="#272626"/>
<path d="M90.0399 58.48C88.3375 58.48 86.2255 58.7744 84.2671 59.2864C83.6399 59.4528 83.0511 59.632 82.4751 59.8368C79.3263 57.008 73.1951 55.728 69.5599 55.728C65.9247 55.728 59.7807 57.008 56.6448 59.8368C54.2384 59.0048 51.3968 58.48 49.08 58.48C44.3184 58.48 35 60.7968 35 66.16V77.68C35 80.5984 37.3168 83.2864 40.12 83.9264V102H42.68V68.72H40.12V81.2384C38.6352 80.624 37.56 79.0496 37.56 77.68V66.16C37.56 63.2416 44.5488 61.04 49.08 61.04C50.8592 61.04 53.0608 61.4112 55.032 62C54.7888 62.5632 54.648 63.1648 54.648 63.8176V76.0928C54.648 77.1808 54.9552 78.2432 55.48 79.1776V102H58.04V81.84C58.68 82.2368 59.3712 82.5312 60.1008 82.6848V102H62.6607V66.544H60.1008V79.9968C58.424 79.3568 57.208 77.6032 57.208 76.08V63.8048C57.208 60.6432 64.7087 58.2624 69.5599 58.2624C74.4111 58.2624 81.9119 60.6432 81.9119 63.8048V76.08C81.9119 77.6032 80.6959 79.3568 79.0191 79.9968V66.544H76.4591V102H79.0191V82.6848C79.7487 82.5312 80.4399 82.2368 81.0799 81.84V102H83.6399V79.1776C84.1647 78.2304 84.4719 77.1808 84.4719 76.0928V63.8176C84.4719 63.1648 84.3311 62.5632 84.0879 61.9872C84.3567 61.9104 84.6255 61.8208 84.9071 61.744C86.6735 61.2832 88.5423 61.0272 90.0399 61.0272C94.5711 61.0272 101.56 63.2288 101.56 66.1472V77.6672C101.56 79.0368 100.485 80.6112 98.9999 81.2256V68.72H96.4399V102H98.9999V83.9264C101.803 83.2736 104.12 80.5984 104.12 77.68V66.16C104.12 60.7968 94.8015 58.48 90.0399 58.48Z" fill="#272626"/>
<path d="M90.0399 57.2001C93.7519 57.2001 96.4399 54.5121 96.4399 50.8001V48.2401C96.4399 44.5281 93.7519 41.8401 90.0399 41.8401C86.3279 41.8401 83.6399 44.5281 83.6399 48.2401V50.8001C83.6399 54.5121 86.3279 57.2001 90.0399 57.2001ZM86.1999 48.2401C86.1999 45.9489 87.7487 44.4001 90.0399 44.4001C92.3311 44.4001 93.8799 45.9489 93.8799 48.2401V50.8001C93.8799 53.0913 92.3311 54.6401 90.0399 54.6401C87.7487 54.6401 86.1999 53.0913 86.1999 50.8001V48.2401Z" fill="#272626"/>
<path d="M91.32 81.5198H88.76V102H91.32V81.5198Z" fill="#272626"/>
<path d="M69.5599 54.192C73.4639 54.192 76.2927 51.3632 76.2927 47.4592V44.7328C76.2927 40.8288 73.4639 38 69.5599 38C65.6559 38 62.8271 40.8288 62.8271 44.7328V47.4592C62.8271 51.3632 65.6559 54.192 69.5599 54.192ZM65.3871 44.7328C65.3871 42.2368 67.0639 40.56 69.5599 40.56C72.0559 40.56 73.7327 42.2368 73.7327 44.7328V47.4592C73.7327 49.9552 72.0559 51.632 69.5599 51.632C67.0639 51.632 65.3871 49.9552 65.3871 47.4592V44.7328Z" fill="#272626"/>
<path d="M70.84 80.1887H68.28V102H70.84V80.1887Z" fill="#272626"/>
<defs>
<radialGradient id="paint0_radial_910_3" cx="0" cy="0" r="1" gradientUnits="userSpaceOnUse" gradientTransform="translate(137.92 72.3078) rotate(90) scale(0.546047 0.616064)">
<stop stop-color="#F7C835"/>
<stop offset="1" stop-color="#F7A330"/>
</radialGradient>
<radialGradient id="paint1_radial_910_3" cx="0" cy="0" r="1" gradientUnits="userSpaceOnUse" gradientTransform="translate(139.584 71.3157) rotate(90) scale(0.321318 0.416558)">
<stop stop-color="#F7C835"/>
<stop offset="1" stop-color="#F7A330"/>
</radialGradient>
<radialGradient id="paint2_radial_910_3" cx="0" cy="0" r="1" gradientUnits="userSpaceOnUse" gradientTransform="translate(68.7618 70) rotate(90) scale(70 68.7618)">
<stop stop-color="#F7C835"/>
<stop offset="1" stop-color="#F7A330"/>
</radialGradient>
<radialGradient id="paint3_radial_910_3" cx="0" cy="0" r="1" gradientUnits="userSpaceOnUse" gradientTransform="translate(123.805 24.1636) rotate(90) scale(1.15021 1.02066)">
<stop stop-color="#F7C835"/>
<stop offset="1" stop-color="#F7A330"/>
</radialGradient>
<radialGradient id="paint4_radial_910_3" cx="0" cy="0" r="1" gradientUnits="userSpaceOnUse" gradientTransform="translate(96.8588 6.98081) rotate(90) scale(0.617773 0.865193)">
<stop stop-color="#F7C835"/>
<stop offset="1" stop-color="#F7A330"/>
</radialGradient>
<radialGradient id="paint5_radial_910_3" cx="0" cy="0" r="1" gradientUnits="userSpaceOnUse" gradientTransform="translate(105.671 10.9242) rotate(90) scale(0.264328 0.290215)">
<stop stop-color="#F7C835"/>
<stop offset="1" stop-color="#F7A330"/>
</radialGradient>
<radialGradient id="paint6_radial_910_3" cx="0" cy="0" r="1" gradientUnits="userSpaceOnUse" gradientTransform="translate(113.605 17.016) rotate(90) scale(0.227134 0.619608)">
<stop stop-color="#F7C835"/>
<stop offset="1" stop-color="#F7A330"/>
</radialGradient>
<radialGradient id="paint7_radial_910_3" cx="0" cy="0" r="1" gradientUnits="userSpaceOnUse" gradientTransform="translate(134.01 41.5135) rotate(90) scale(0.917281 0.617239)">
<stop stop-color="#F7C835"/>
<stop offset="1" stop-color="#F7A330"/>
</radialGradient>
<radialGradient id="paint8_radial_910_3" cx="0" cy="0" r="1" gradientUnits="userSpaceOnUse" gradientTransform="translate(126.555 33.7094) rotate(90) scale(0.443519 0.353458)">
<stop stop-color="#F7C835"/>
<stop offset="1" stop-color="#F7A330"/>
</radialGradient>
<radialGradient id="paint9_radial_910_3" cx="0" cy="0" r="1" gradientUnits="userSpaceOnUse" gradientTransform="translate(133.5 45.0475) rotate(90) scale(0.673247 0.491492)">
<stop stop-color="#F7C835"/>
<stop offset="1" stop-color="#F7A330"/>
</radialGradient>
<radialGradient id="paint10_radial_910_3" cx="0" cy="0" r="1" gradientUnits="userSpaceOnUse" gradientTransform="translate(121.34 25.6233) rotate(90) scale(1.34377 0.989413)">
<stop stop-color="#F7C835"/>
<stop offset="1" stop-color="#F7A330"/>
</radialGradient>
<radialGradient id="paint11_radial_910_3" cx="0" cy="0" r="1" gradientUnits="userSpaceOnUse" gradientTransform="translate(126.398 30.7393) rotate(90) scale(0.457309 0.292026)">
<stop stop-color="#F7C835"/>
<stop offset="1" stop-color="#F7A330"/>
</radialGradient>
<radialGradient id="paint12_radial_910_3" cx="0" cy="0" r="1" gradientUnits="userSpaceOnUse" gradientTransform="translate(120.259 29.0952) rotate(90) scale(0.764899 0.893185)">
<stop stop-color="#F7C835"/>
<stop offset="1" stop-color="#F7A330"/>
</radialGradient>
<radialGradient id="paint13_radial_910_3" cx="0" cy="0" r="1" gradientUnits="userSpaceOnUse" gradientTransform="translate(134.408 54.4338) rotate(90) scale(2.81122 1.35246)">
<stop stop-color="#F7C835"/>
<stop offset="1" stop-color="#F7A330"/>
</radialGradient>
<radialGradient id="paint14_radial_910_3" cx="0" cy="0" r="1" gradientUnits="userSpaceOnUse" gradientTransform="translate(139.004 75.1628) rotate(90) scale(0.261233 0.152123)">
<stop stop-color="#F7C835"/>
<stop offset="1" stop-color="#F7A330"/>
</radialGradient>
<radialGradient id="paint15_radial_910_3" cx="0" cy="0" r="1" gradientUnits="userSpaceOnUse" gradientTransform="translate(115.019 18.8191) rotate(90) scale(1.06933 0.935378)">
<stop stop-color="#F7C835"/>
<stop offset="1" stop-color="#F7A330"/>
</radialGradient>
<radialGradient id="paint16_radial_910_3" cx="0" cy="0" r="1" gradientUnits="userSpaceOnUse" gradientTransform="translate(131.943 52.1824) rotate(90) scale(0.484605 0.25527)">
<stop stop-color="#F7C835"/>
<stop offset="1" stop-color="#F7A330"/>
</radialGradient>
<radialGradient id="paint17_radial_910_3" cx="0" cy="0" r="1" gradientUnits="userSpaceOnUse" gradientTransform="translate(111.004 14.8759) rotate(90) scale(0.331476 0.336792)">
<stop stop-color="#F7C835"/>
<stop offset="1" stop-color="#F7A330"/>
</radialGradient>
<radialGradient id="paint18_radial_910_3" cx="0" cy="0" r="1" gradientUnits="userSpaceOnUse" gradientTransform="translate(106.285 15.6747) rotate(90) scale(0.611998 0.92464)">
<stop stop-color="#F7C835"/>
<stop offset="1" stop-color="#F7A330"/>
</radialGradient>
<radialGradient id="paint19_radial_910_3" cx="0" cy="0" r="1" gradientUnits="userSpaceOnUse" gradientTransform="translate(127.257 37.4736) rotate(90) scale(0.472361 0.874228)">
<stop stop-color="#F7C835"/>
<stop offset="1" stop-color="#F7A330"/>
</radialGradient>
<radialGradient id="paint20_radial_910_3" cx="0" cy="0" r="1" gradientUnits="userSpaceOnUse" gradientTransform="translate(129.453 34.5594) rotate(90) scale(0.569429 0.359901)">
<stop stop-color="#F7C835"/>
<stop offset="1" stop-color="#F7A330"/>
</radialGradient>
<radialGradient id="paint21_radial_910_3" cx="0" cy="0" r="1" gradientUnits="userSpaceOnUse" gradientTransform="translate(128.443 34.4709) rotate(90) scale(0.35294 0.379702)">
<stop stop-color="#F7C835"/>
<stop offset="1" stop-color="#F7A330"/>
</radialGradient>
<radialGradient id="paint22_radial_910_3" cx="0" cy="0" r="1" gradientUnits="userSpaceOnUse" gradientTransform="translate(117.673 22.8411) rotate(90) scale(1.59498 1.84059)">
<stop stop-color="#F7C835"/>
<stop offset="1" stop-color="#F7A330"/>
</radialGradient>
</defs>
</svg>
